<?xml version="1.0" encoding="UTF-8"?>
<svg id="Layer_1" data-name="Layer 1" xmlns="http://www.w3.org/2000/svg" viewBox="0 0 600 600" style="enable-background:new 0 0 600 600;" xml:space="preserve">
  <defs>
    <style>
      .cls-1 {
        fill: #3a3a3a;
        stroke-width: 0px;
      }
    </style>
  </defs>
  <path class="cls-1" d="M347.09,527.27c16.51-15.2,32.68-29.94,48.62-44.92,2.83-2.66,5.35-3.15,8.85-2.06,13.75,4.3,27.56,8.42,41.33,12.68,2.1.65,3.73,1.17,5.79-.64,31.91-27.96,59.49-59.25,76.16-98.97,10.06-23.98,15.96-48.99,18-74.92.15-1.93.42-3.89.95-5.75,2.33-8.02,8.77-12.46,16.12-11.26,7.23,1.17,12.7,8.36,12.02,16.37-4.15,49.03-18.79,94.43-46.83,135.16-42.2,61.3-99.92,100.48-172.29,115.26-106.45,21.74-196.72-8.88-268.18-91.43-31.26-36.11-52.09-78.12-59.13-125.64-12.58-84.89,8.58-160.9,63.48-227.07,41.84-50.43,95.02-82.26,159.21-94.52,41.4-7.91,82.71-5.44,123.28,6.52,9.73,2.87,14.96,10.01,13.12,17.28-2.01,7.94-11.36,12.9-20.83,10.3-28.11-7.7-56.66-11.11-85.73-9-40.59,2.95-77.44,16.89-111.51,38.87-27.64,17.84-49.92,41.11-69.24,67.48-2.19,2.99-4.13,6.28-6.77,8.82-9.64,9.28-10.77,21.57-12.53,33.72-2.58,17.8-5.2,35.59-7.99,53.36-.45,2.87.17,4.73,2.31,6.62,8.8,7.74,17.4,15.72,26.23,23.43,2.7,2.35,3.93,4.73,3.88,8.48-.23,18.57-.1,37.14-.1,56.65,10.27-.64,20.1-1.2,29.92-1.87,13.24-.9,26.47-1.83,39.69-2.88,2.34-.19,4.09.38,5.79,1.96,21.06,19.53,42.14,39.05,63.31,58.46,2.04,1.87,2.21,3.89,2.2,6.27-.06,15.66-.02,31.31-.14,46.97-.02,2.93.46,4.96,3.27,6.73,32.17,20.3,64.87,39.71,97.75,59.54Z"/>
  <path class="cls-1" d="M360.6,128.3c38.65-.49,71.24,31.69,71.74,70.83.49,38.29-31.51,71.32-69.52,71.75-40.48.47-72.4-29.49-73.99-67.47-1.55-37.06,28.54-76.98,71.77-75.11Z"/>
  <path class="cls-1" d="M361.8,345.91c.14-19.93,15.86-35.64,35.68-35.65,20.1-.02,36.29,16.46,36.09,36.75-.19,19.44-16.15,34.73-36.06,34.57-20.01-.16-35.84-15.97-35.7-35.66Z"/>
  <path class="cls-1" d="M169.32,215.73c14.86-.1,26.95,11.91,27.26,27.07.28,13.78-12.69,26.22-27.48,26.36-14.45.13-25.58-11.12-25.84-26.11-.26-15.13,11.27-27.22,26.06-27.32Z"/>
  <path class="cls-1" d="M214.7,179.14c-13.4-.14-25.16-11.92-25.03-25.09.14-14.14,11.58-24.99,26.29-24.96,13.73.03,25.34,11.93,25.03,25.65-.31,13.65-12.05,24.55-26.29,24.41Z"/>
  <path class="cls-1" d="M275.1,369.76c-13.64,0-24.46-10.78-24.5-24.42-.04-14.87,10.71-26.19,24.85-26.16,13.94.04,25.67,11.95,25.48,25.88-.2,13.92-11.46,24.69-25.82,24.7Z"/>
  <path class="cls-1" d="M367.88,449.72c.03,13.27-10.47,24.14-23.4,24.25-14.4.12-25.62-10.72-25.59-24.72.03-12.75,11.45-24.04,24.47-24.18,13.16-.14,24.49,11.25,24.52,24.65Z"/>
  <path class="cls-1" d="M518.86,183.03c-.17-6.22,1.38-12.02,4.44-17.39,4.67-8.21,12.97-8.76,18.21-.84,3.21,4.85,5.52,10.31,8.12,15.55,3.73,7.53,7.28,15.14,11.03,22.65,3.52,7.06.57,12.68-7.36,12.71-17.86.05-35.11-14.45-34.44-32.67Z"/>
  <path class="cls-1" d="M295.53,269.32c-19.72,12.61-38.83,24.84-59.13,37.82,0-8.72,0-16.17,0-23.62,0-2.16,1.83-2.85,3.25-3.77,11.96-7.67,23.96-15.28,35.9-22.98,1.76-1.14,3.18-1.98,5.13-.24,4.63,4.14,9.41,8.12,14.84,12.78Z"/>
  <path class="cls-1" d="M460.55,105.63c-.21-2.79.47-5.47,1.38-8.03,3.59-10.05,9.58-11.59,17.49-4.47,6.37,5.74,12.61,11.63,18.93,17.43,2.91,2.67,6.01,5.22,4.66,9.89-1.43,4.93-4.87,7.97-9.59,9.41-15.33,4.68-32.76-8.22-32.87-24.22Z"/>
  <path class="cls-1" d="M141.51,153.23c9.45.09,17.28,8.13,17.29,17.71,0,9.67-7.83,17.32-17.6,17.2-9.06-.11-16.46-7.73-16.47-16.96-.02-10.13,7.38-18.05,16.79-17.95Z"/>
  <path class="cls-1" d="M275.14,406.59c7.54,6.86,14.11,12.89,20.75,18.85,1.48,1.33,1.7,2.89,1.69,4.73-.05,11.54-.03,23.08-.03,35.81-7.46-4.72-14.27-9.03-21.07-13.34-1.37-.87-1.35-2.23-1.35-3.63.01-13.69,0-27.37,0-42.42Z"/>
  <path class="cls-1" d="M432.94,459.68c6.71-7.14,12.79-13.4,18.61-19.9,2.19-2.45,4.35-2.57,7.23-1.74,6.13,1.77,12.34,3.27,19.36,5.11-6.69,7.63-13.5,14.8-20.82,21.49-.98.9-2.14.52-3.3.23-6.76-1.69-13.53-3.34-21.08-5.19Z"/>
  <path class="cls-1" d="M497.59,276.78c7.56-.02,14.07,6.57,14.03,14.21-.04,7.62-6.24,13.67-13.89,13.56-7.64-.11-13.75-6.32-13.64-13.85.12-7.83,6-13.9,13.5-13.92Z"/>
  <path class="cls-1" d="M474.88,405.16c-7.48-.02-13.47-6.17-13.55-13.89-.07-7.21,6.1-13.42,13.33-13.4,7.17.02,13.53,6.56,13.63,14,.1,7.16-6.1,13.31-13.41,13.29Z"/>
  <path class="cls-1" d="M166.29,319.59c-11.49,1.09-21.47,2.04-31.87,3.03v-32.84c10.77,10.07,20.77,19.42,31.87,29.81Z"/>
  <path class="cls-1" d="M122.75,268.93c-6.83-5.99-12.62-11.07-18.41-16.14-.94-.82-1.33-1.79-1.25-3.07.46-7.88.87-15.76,1.35-24.69,6.35,5.74,11.9,10.75,17.43,15.78.96.88.89,2.09.89,3.27,0,7.78,0,15.56,0,24.84Z"/>
  <path class="cls-1" d="M265.18,94.56c7.3-.06,12.8,5.52,12.76,12.96-.04,7.01-5.57,12.99-12.18,13.18-6.8.19-12.95-5.89-13.11-12.94-.16-7.42,5.26-13.13,12.54-13.19Z"/>
  <path class="cls-1" d="M201.32,319.29c-6.97-.02-12.04-5.57-11.88-13.03.14-6.45,5.16-11.64,11.39-11.75,6.39-.12,12.5,6.26,12.4,12.95-.1,6.54-5.44,11.84-11.91,11.83Z"/>
  <path class="cls-1" d="M412.29,427.99c.11,5.07-4.95,10.55-9.73,10.55-5.29,0-10.52-5.02-10.78-10.34-.25-5.27,4.3-10.43,9.41-10.67,5.57-.26,10.98,4.84,11.1,10.46Z"/>
  <path class="cls-1" d="M485.18,197.12c.05,5.14-4.01,9.47-9.04,9.62-5.46.16-10.09-4.46-10.03-9.99.07-5.53,4.28-10.08,9.32-10.07,5.28.01,9.68,4.74,9.74,10.44Z"/>
  <path class="cls-1" d="M495.46,340.24c-.17,5.17-4.85,9.68-9.91,9.58-5.12-.11-9.55-4.94-9.23-10.06.34-5.51,4.65-9.41,10.08-9.12,4.95.26,9.22,4.79,9.06,9.6Z"/>
  <path class="cls-1" d="M316.57,313.03c-4.52-.16-8.45-4.35-8.37-8.92.09-4.82,4.29-9.19,8.84-9.18,4.54,0,8.7,4.44,8.7,9.28,0,4.61-4.55,8.98-9.17,8.83Z"/>
  <path class="cls-1" d="M314.95,385.17c-.03-4.4,3.64-8.42,7.83-8.57,4.59-.16,9.09,4.15,9.14,8.74.05,4.52-4.07,8.65-8.54,8.57-4.45-.08-8.4-4.18-8.43-8.74Z"/>
  <path class="cls-1" d="M256.56,227.3c-.18,4.38-4.57,8.5-8.89,8.32-4.4-.18-7.95-4.47-7.68-9.27.26-4.45,4.22-8.32,8.3-8.1,4.25.23,8.44,4.8,8.27,9.05Z"/>
  <path class="cls-1" d="M454.37,286.97c-.13,3.93-3.96,7.7-7.69,7.23-4.29-.54-6.57-3.19-6.51-7.58.06-4.48,2.72-6.88,6.88-7.25,3.83-.35,7.45,3.7,7.32,7.6Z"/>
  <path class="cls-1" d="M177.97,123.95c-.61,3.45-2.48,5.85-6.11,5.79-3.79-.06-6.37-2.31-6.31-6.18.05-3.54,2.4-5.79,6.03-5.79,3.86,0,5.97,2.3,6.39,6.18Z"/>
</svg>