<?xml version="1.0" encoding="UTF-8"?><svg id="Layer_1" xmlns="http://www.w3.org/2000/svg" xmlns:xlink="http://www.w3.org/1999/xlink" viewBox="0 0 901 630.0513"><defs><style>.cls-1{fill:none;}.cls-2,.cls-3{fill:#3a3a3a;}.cls-4{clip-path:url(#clippath-1);}.cls-5{clip-path:url(#clippath-3);}.cls-6{clip-path:url(#clippath-2);}.cls-7{letter-spacing:-.07em;}.cls-8{letter-spacing:-.02em;}.cls-3{font-family:GravesendSans-Bold, 'Gravesend Sans';font-size:114.9171px;font-weight:700;}.cls-9{clip-path:url(#clippath);}</style><clipPath id="clippath"><rect class="cls-1" x="185" width="530" height="530"/></clipPath><clipPath id="clippath-1"><rect class="cls-1" x="185" width="530" height="530"/></clipPath><clipPath id="clippath-2"><rect class="cls-1" x="185" width="530" height="530"/></clipPath><clipPath id="clippath-3"><rect class="cls-1" x="185" width="530" height="530"/></clipPath></defs><text class="cls-3" transform="translate(16.0863 606.8384)"><tspan x="0" y="0">C</tspan><tspan class="cls-8" x="79.8665" y="0">R</tspan><tspan class="cls-7" x="156.8608" y="0">A</tspan><tspan x="231.4423" y="0">TERMAKER</tspan></text><text/><g class="cls-9"><g class="cls-4"><path class="cls-2" d="M491.5986,465.7573c14.583-13.4293,28.8664-26.447,42.9486-39.6802,2.5034-2.3523,4.7276-2.7843,7.814-1.8188,12.1494,3.7983,24.3482,7.4359,36.509,11.198,1.855.5733,3.2948,1.0326,5.1171-.5636,28.1845-24.6998,52.553-52.3349,67.2755-87.4209,8.8881-21.1841,14.0954-43.2745,15.8982-66.1811.1343-1.7057.3675-3.4397.8436-5.0765,2.0582-7.0826,7.7433-11.0055,14.2402-9.9499,6.3856,1.037,11.2218,7.3803,10.6212,14.4637-3.6685,43.3089-16.6005,83.414-41.3647,119.3869-37.2758,54.1492-88.2618,88.7591-152.1904,101.8174-94.0343,19.2063-173.7649-7.8458-236.8879-80.7632-27.6095-31.8936-46.0164-69.0104-52.2341-110.9829-11.1079-74.9826,7.5825-142.1266,56.0713-200.575,36.9578-44.5483,83.9317-72.6656,140.639-83.4936,36.5709-6.9827,73.064-4.8009,108.8982,5.7638,8.5966,2.5343,13.2155,8.8422,11.5885,15.2613-1.779,7.0172-10.0373,11.3915-18.4043,9.0984-24.8296-6.8062-50.0505-9.8174-75.7281-7.9544-35.858,2.6023-68.4071,14.9168-98.497,34.3378-24.4109,15.756-44.0942,36.3182-61.1655,59.6091-1.938,2.6438-3.6508,5.5456-5.9828,7.7901-8.5153,8.1964-9.5135,19.0544-11.0691,29.7904-2.2781,15.7216-4.596,31.4387-7.0578,47.132-.3975,2.5316.1484,4.1755,2.044,5.8432,7.7725,6.8405,15.3674,13.8851,23.1681,20.693,2.3832,2.0794,3.468,4.18,3.4264,7.4907-.2032,16.4026-.0928,32.8079-.0928,50.0435,9.0736-.5645,17.7568-1.0627,26.4329-1.6545,11.6918-.7976,23.3809-1.6192,35.0621-2.5484,2.0697-.1643,3.6093.3357,5.1145,1.7313,18.6056,17.2497,37.2192,34.4915,55.9203,51.637,1.8029,1.6536,1.9495,3.4326,1.9416,5.5429-.053,13.8303-.0186,27.6607-.1281,41.491-.0203,2.5864.4054,4.3822,2.8867,5.9484,28.4133,17.9334,57.2992,35.0798,86.3414,52.5928"/><path class="cls-2" d="M503.5326,113.328c34.1364-.4311,62.9295,27.9955,63.3703,62.563.4311,33.8255-27.8303,62.9958-61.4058,63.3818-35.76.4107-63.9569-26.0468-65.3587-59.595-1.3665-32.7319,25.2139-67.9955,63.3942-66.3498"/><path class="cls-2" d="M504.5866,305.556c.1254-17.6084,14.0079-31.4811,31.5156-31.4944,17.7568-.0142,32.0526,14.5432,31.8751,32.4581-.1696,17.1702-14.2614,30.679-31.8556,30.5368-17.679-.1422-31.6587-14.1077-31.535-31.5005"/><path class="cls-2" d="M334.5621,190.5574c13.1254-.0892,23.8103,10.5214,24.0823,23.9154.2473,12.1759-11.2104,23.1645-24.2784,23.2847-12.7615.1166-22.5983-9.8227-22.8253-23.0656-.2297-13.3684,9.956-24.0461,23.0214-24.1344"/><path class="cls-2" d="M356.9582,151.9121c-7.4951-7.2098-7.0154-21.0428,1.022-29.4503,8.6293-9.0259,21.6637-9.9401,29.9653-2.1006,7.7451,7.3122,7.1152,21.1417-1.3577,29.8072-8.4332,8.6257-21.6655,9.4049-29.6296,1.7437"/><path class="cls-2" d="M428.0091,326.6169c-12.046.008-21.609-9.5223-21.6452-21.5701-.0389-13.1325,9.464-23.1363,21.9473-23.1036,12.3172.0318,22.676,10.5541,22.5029,22.858-.1731,12.2934-10.1186,21.8077-22.805,21.8157"/><path class="cls-2" d="M509.9608,397.2501c.0247,11.7209-9.2441,21.3237-20.6709,21.4173-12.7235.1042-22.6328-9.4684-22.6027-21.8342.0283-11.2643,10.1177-21.2362,21.6143-21.3599,11.6238-.1254,21.6346,9.9402,21.6593,21.7768"/><path class="cls-2" d="M643.3252,161.6801c-.1484-5.4952,1.2199-10.6177,3.9211-15.3647,4.1269-7.2522,11.4577-7.7389,16.0881-.7464,2.8373,4.2842,4.8787,9.1072,7.1727,13.7403,3.2922,6.648,6.4281,13.3737,9.7423,20.0101,3.1119,6.2337.5044,11.2024-6.5031,11.2236-15.7728.0477-31.0183-12.7633-30.4211-28.8629"/></g><g class="cls-6"><path class="cls-2" d="M591.8228,93.3075c-.1811-2.4654.4152-4.8318,1.2225-7.0905,3.1729-8.8792,8.465-10.2352,15.446-3.9476,5.6295,5.0703,11.1415,10.2714,16.7242,15.3947,2.5696,2.3567,5.3097,4.6136,4.1119,8.7317-1.2658,4.3549-4.3018,7.0375-8.4676,8.3095-13.5442,4.1349-28.9362-7.2575-29.0369-21.3979"/></g><g class="cls-5"><path class="cls-2" d="M295.4184,144.1174c5.4731,3.241,6.5146,12.023,2.2975,19.368-4.2532,7.4059-12.1944,10.6389-17.8478,7.2663-5.2382-3.1244-6.2045-11.4418-2.1518-18.5173,4.4502-7.7671,12.2518-11.3446,17.702-8.1169"/><path class="cls-2" d="M624.5341,244.487c6.6789-.0159,12.4311,5.8079,12.3976,12.553-.0336,6.7301-5.5085,12.0734-12.2722,11.9762-6.7487-.0981-12.1503-5.5818-12.0522-12.2351.1025-6.9165,5.3036-12.2783,11.9268-12.2942"/><path class="cls-2" d="M604.4755,357.895c-6.6065-.0185-11.902-5.4484-11.9718-12.273-.0645-6.3706,5.391-11.8543,11.774-11.8349,6.33.0194,11.9506,5.792,12.0443,12.3702.0901,6.3282-5.3892,11.7563-11.8464,11.7377"/><path class="cls-2" d="M415.1877,65.5687c1.5891,3.9971-1.9495,8.8218-8.2062,11.1883-5.8989,2.2304-12.0981,1.1068-13.644-2.4733-1.5891-3.6809,2.2269-9.0259,8.1231-11.3783,6.201-2.4733,12.1432-1.3206,13.727,2.6633"/><path class="cls-2" d="M362.8288,282.0399c-6.1559-.0141-10.6318-4.9219-10.494-11.5063.1201-5.6957,4.5607-10.2776,10.0629-10.3836,5.6454-.1077,11.0399,5.5297,10.9498,11.4436-.0866,5.7761-4.8027,10.4596-10.5187,10.4463"/><path class="cls-2" d="M549.1912,378.0603c.0928,4.4785-4.3707,9.3174-8.594,9.3165-4.6764-.0018-9.2944-4.4317-9.5206-9.131-.2235-4.6561,3.7957-9.2149,8.3121-9.4269,4.9166-.2314,9.699,4.2771,9.8024,9.2414"/><path class="cls-2" d="M613.5767,174.1211c.0486,4.5412-3.5448,8.3634-7.9845,8.495-4.8204.1422-8.9137-3.937-8.8554-8.8254.0574-4.8893,3.7762-8.9067,8.2335-8.8952,4.6605.0115,8.5524,4.1843,8.6063,9.2255"/><path class="cls-2" d="M622.6542,300.5419c-.1537,4.5651-4.2806,8.5524-8.7538,8.4588-4.5227-.0954-8.435-4.3619-8.1523-8.8899.3048-4.8698,4.1066-8.3086,8.9058-8.0534,4.376.2332,8.1434,4.2285,8.0004,8.4844"/><path class="cls-2" d="M464.6404,276.5089c-3.9927-.1378-7.4659-3.839-7.3935-7.8776.0769-4.2603,3.7904-8.1152,7.8131-8.1108,4.0139.0044,7.6877,3.922,7.6832,8.1929-.0044,4.0722-4.0209,7.9359-8.1028,7.7954"/><path class="cls-2" d="M463.207,340.2328c-.0239-3.8911,3.2171-7.4359,6.9174-7.5675,4.0527-.1431,8.0322,3.6614,8.0745,7.7221.0424,3.9962-3.5934,7.6426-7.5463,7.5675-3.9335-.0751-7.4209-3.6915-7.4456-7.7221"/><path class="cls-2" d="M411.6242,200.7774c-.1546,3.8716-4.0412,7.5092-7.8564,7.352-3.8867-.1599-7.0252-3.9494-6.7814-8.1903.2261-3.9308,3.7285-7.3476,7.3361-7.1568,3.7577.1996,7.4518,4.2444,7.3016,7.995"/><path class="cls-2" d="M586.3595,253.4869c-.1157,3.468-3.4945,6.7999-6.7911,6.383-3.7886-.4796-5.8026-2.8214-5.7523-6.6922.0504-3.9556,2.4018-6.0747,6.0773-6.4077,3.384-.3056,6.5808,3.2701,6.466,6.7169"/><path class="cls-2" d="M340.8847,105.6096c1.4054,3.1005,1.0194,6.2584-2.4398,8.7521-3.6022,2.597-7.3255,2.6562-9.4905-.3807-1.9813-2.7781-1.0556-6.1639,2.3611-8.6902,3.6429-2.6933,6.943-2.3859,9.5692.3189"/></g></g></svg>