<?xml version="1.0" encoding="UTF-8"?>
<svg id="Layer_1" data-name="Layer 1" xmlns="http://www.w3.org/2000/svg" viewBox="0 0 275 275">
  <defs>
    <style>
      .cls-1 {
        fill: #0c141d;
      }

      .cls-1, .cls-2, .cls-3 {
        stroke-width: 0px;
      }

      .cls-2 {
        fill: #99a2ad;
      }

      .cls-3 {
        fill: #fafafa;
      }
    </style>
  </defs>
  <path class="cls-2" d="M.43,238.71c0,.18,0,.35,0,.53-.23,0-.48-.03-.43-.33.02-.09.28-.13.43-.2Z"/>
  <path class="cls-3" d="M137.42,59.58c-38.92,0-77.84,0-116.77,0-.91,0-1.82.02-2.72-.02-2.75-.14-4.88-2.19-4.98-4.77-.11-2.75,1.83-5.04,4.6-5.39.64-.08,1.3-.05,1.94-.05,78.88-.01,157.77-.02,236.65-.06,1.8,0,3.32.41,4.54,1.76,1.36,1.5,2.06,3.19,1.25,5.19-.8,1.98-2.33,3.09-4.44,3.31-.77.08-1.56.05-2.33.05-39.25,0-78.49,0-117.74,0h0Z"/>
  <path class="cls-3" d="M92.47,251.2c-.36-3.82-.7-7.63-1.08-11.45-.9-9.16-2.52-18.18-5.05-27.03-.07-.24-.06-.5-.14-1.27,14.72,13.74,32.44,18,51.42,18.13,19.07.12,36.82-4.05,51.39-17.8-3.75,13.12-5.35,26.46-6.21,39.92-3.88.47-7.53,1.93-11.37,2.57-1.94.32-3.85,1.03-5.85.48,3.59-4.54,3.95-9.2,1.03-13.38-1.26-1.8-2.99-3-5.17-3.03-6.21-.1-12.42-.16-18.63-.02-3.45.08-5.78,2.02-6.9,5.33-1.56,4.59-.42,8.66,3.34,11.93-.54.37-1.09.04-1.63.03-1.79-.06-3.63-.68-5.35.01-.78.31-1.39.35-1.94-.07-.97-.75-2.06-.6-3.13-.66-.75-.04-1.54.17-2.13-.52.15-.21.31-.42.46-.63,2.6-3.66,2.72-8.03.33-11.72-2.38-3.67-6.61-5.35-10.99-4.36-4.39.99-7.18,4.09-7.87,8.61-.49,3.2.91,5.8,2.46,8.38-1.3.84-2.52.14-3.78-.15-4.42-1.02-8.93-1.65-13.2-3.27Z"/>
  <path class="cls-3" d="M182.75,103c-23.56-16.89-48.85-18.44-75.39-8.5-5.56,2.08-10.58,5.16-15.2,8.9-2.72-2.06-5.09-4.44-6.69-7.52,11.16-14.46,25.92-22.99,43.82-25.25,24.4-3.08,44.45,5.62,60.14,24.58.37.45.65.97.97,1.46-1.65.64-2.39,2.27-3.6,3.38-1.24,1.15-2.16,2.71-4.05,2.95Z"/>
  <path class="cls-3" d="M85.28,189.37c-.03-.92-.61-1.54-1.18-2.18-1.79-1.99-3.43-4.08-4.89-6.32-.68-1.05-.59-1.68.51-2.36,1.76-1.08,3.44-2.3,5.37-3.6,13.17,17.79,31.44,24.9,52.67,25.03,21.29.12,39.28-7.38,52.47-25.09,2.26,1.6,4.41,3.12,6.65,4.71-.97,2.43-2.77,4.15-4.26,6.08-.86,1.11-2.13,1.91-2.58,3.35-1.54.65-2.51,2-3.66,3.11-7.89,7.67-17.35,12.43-27.86,15.26-9.62,2.59-19.43,3.01-29.26,1.99-9.44-.99-18.56-3.38-27.08-7.83-5.37-2.8-10.33-6.1-14.6-10.43-.66-.67-1.21-1.57-2.29-1.71Z"/>
  <path class="cls-2" d="M78.26,227.81c.8,3.05.94,6.2,1.49,9.28.74,4.19,1.22,8.39,1.33,12.63.12,4.48.03,8.96.03,13.63h-37.62c0-6.58,0-13.13,0-19.69,0-4.18.27-8.33,1.59-12.32.89-2.69,1.55-5.5,3.28-7.84,1.13.6,1.58,1.89,2.58,2.6.78.55.72,1.09.34,1.82-2.63,5.02-3.45,10.38-3.31,16.03.12,4.67,1.96,8.07,6.08,10.18,2.38,1.22,4.8,2.37,7.24,3.57.28-.56.67-1.08.59-1.76-.37-3.31-.2-6.63-.05-9.93.24-5.3,1.13-10.45,4.66-14.71.67-.81.51-1.49-.13-2.2-1.77-1.98-3.2-4.25-5.14-6.09-.62-.59-1.08-1.41-.26-2,1.57-1.12,2.23-3.08,3.95-4.1,2.67,2.56,5.51,4.94,7.89,7.71,1.55,1.8,3.54,2.33,5.47,3.21Z"/>
  <path class="cls-2" d="M226.57,222.61c4.98,8.4,5.42,17.65,5.17,27.07-.12,4.52-.02,9.04-.02,13.7h-37.5c-.31-12.2.21-24.17,2.88-35.98,2.7-.15,4.49-1.97,6.4-3.56,2.15-1.78,3.92-3.91,5.78-5.98.46-.51.96-1.23,1.78-.56,1.49,1.22,2.96,2.48,4.57,3.84-2.21,2.56-3.89,4.6-5.68,6.54-1.62,1.76-1.6,2.28-.46,4.36,1.8,3.3,3.24,6.75,3.74,10.57.59,4.54,0,9.07.14,13.6.03,1.14-.08,1.48,1.17.98,2.22-.9,4.37-1.93,6.48-3.06,2.49-1.33,4.57-2.99,5.66-5.73.39-.98.08-2.3,1.28-2.92-1.56-1.88-.08-3,1.04-4.22.06-.07,0-.24,0-.43-.53-.14-1.06-.27-1.45-.37-.44-4.53-1.42-8.73-3.61-12.53-.64-1.1-.31-1.59.45-2.27.95-.84,2.14-1.54,2.17-3.05Z"/>
  <path class="cls-2" d="M85.28,189.37c1.08.13,1.63,1.04,2.29,1.71,4.27,4.34,9.24,7.64,14.6,10.43,8.52,4.44,17.64,6.84,27.08,7.83,9.82,1.03,19.63.6,29.26-1.99,10.51-2.83,19.97-7.59,27.86-15.26,1.15-1.11,2.12-2.46,3.66-3.11.05,2.79.1,5.59.13,8.38,0,.3-.06.83-.22.88-1.77.56-2.36,2.44-3.81,3.38-1.49.96-2.37,2.57-3.79,3.67-12.85,9.93-27.57,13.86-43.52,14-6.63.06-13.16-.74-19.59-2.36-6.62-1.66-13.19-3.52-19.12-7.05-5.41-3.22-10.25-7.19-14.49-11.87-.33-.36-.5-.74-.47-1.23.11-2.46-.22-4.94.13-7.4Z"/>
  <path class="cls-3" d="M95.08,113.88c1.29-1.58,2.99-2.68,4.65-3.78,20.87-13.77,51.73-15.59,74.95-.56,2.12,1.37,4.1,2.94,5.89,4.74-1.46,1.26-3.13,2.33-3.6,4.4-.61-.01-1.09-.34-1.6-.63-13.97-8.11-28.98-11.7-45.09-10.36-2.57.21-5.11.79-7.67,1.22-.43.07-.83.29-1.22.71.96.09,1.95.1,2.89.29,2.02.41,3.72,2.16,3.75,3.72.03,1.76-1.35,3.23-3.59,3.76-6.93,1.64-12.68,5.07-16.9,10.97-1.65,2.31-3.99,2.66-6.08,1.16-2.09-1.51-2.54-4.15-.93-6.38,1.06-1.47,2.35-2.77,3.56-4.13,1.12-1.26,2.4-2.37,3.27-3.84.1-.11.3-.29.28-.32-.15-.25-.37-.13-.57-.04-3.12.88-5.92,2.46-8.73,4.01-.43-2.09-2.11-3.34-3.27-4.94Z"/>
  <path class="cls-3" d="M221.68,18.34c7.39,0,14.79,0,22.18,0,4.45,0,7.62,3.2,7.59,7.61-.03,4.21-3.13,7.2-7.53,7.21-14.85.02-29.7.02-44.55,0-3.61,0-6.17-1.9-7.18-5.18-.95-3.11.24-6.6,2.92-8.47,1.08-.76,2.25-1.2,3.62-1.19,7.65.03,15.3.02,22.96.01Z"/>
  <path class="cls-3" d="M226.57,222.61c-.03,1.52-1.22,2.21-2.17,3.05-.76.68-1.09,1.17-.45,2.27,2.19,3.8,3.17,8,3.61,12.53.39.1.92.24,1.45.37,0,.2.05.37,0,.43-1.12,1.22-2.6,2.34-1.04,4.22-1.21.62-.9,1.94-1.28,2.92-1.09,2.75-3.16,4.4-5.66,5.73-2.11,1.13-4.26,2.16-6.48,3.06-1.25.51-1.14.16-1.17-.98-.13-4.53.45-9.06-.14-13.6-.5-3.82-1.94-7.26-3.74-10.57-1.14-2.08-1.16-2.6.46-4.36,1.78-1.94,3.46-3.98,5.68-6.54-1.62-1.36-3.08-2.62-4.57-3.84-.82-.67-1.31.05-1.78.56-1.85,2.06-3.63,4.2-5.78,5.98-1.91,1.58-3.7,3.4-6.4,3.56,1.3-5.83,3.05-11.54,4.95-17.2.89-2.63,1.64-5.33,3.2-7.96,8.75,5.16,16.13,11.59,21.32,20.36Z"/>
  <path class="cls-3" d="M78.26,227.81c-1.93-.87-3.92-1.4-5.47-3.21-2.38-2.77-5.23-5.15-7.89-7.71-1.71,1.01-2.38,2.98-3.95,4.1-.82.59-.36,1.41.26,2,1.94,1.84,3.37,4.11,5.14,6.09.64.72.8,1.39.13,2.2-3.53,4.26-4.42,9.42-4.66,14.71-.15,3.3-.31,6.62.05,9.93.08.68-.31,1.2-.59,1.76-2.44-1.2-4.86-2.34-7.24-3.57-4.12-2.12-5.96-5.51-6.08-10.18-.14-5.64.68-11,3.31-16.03.38-.73.44-1.27-.34-1.82-1-.7-1.46-1.99-2.58-2.6,3.51-6.52,8.46-11.76,14.29-16.21,2.31-1.76,4.67-3.45,7.35-5,3.93,8.21,6.53,16.73,8.27,25.53Z"/>
  <path class="cls-3" d="M246.47,111.69c-.26-.03-.52-.06-.77-.08-6.53-.43-5.76-1.08-8.98,4.34-1.58,2.67-3.83,2.74-5.2.02-2.08-4.14-4.97-5.69-9.42-4.22-1.22.4-2.45.2-3.34-.94-.9-1.15-.62-2.31-.09-3.49.03-.06.04-.13.08-.18,2.81-4.4,3.01-8.64,0-13.2-1.8-2.72-.18-4.96,3.06-5.04,6.46-.16,5.74,1.05,9.51-5.26,1.75-2.92,3.56-2.88,5.38,0,3.63,5.76,2.43,5.21,9.53,5.26,3.2.02,4.43,1.89,3.15,4.87-.67,1.55-1.41,3.08-2.2,4.57-.77,1.46-.7,2.83.03,4.28.8,1.56,1.55,3.15,2.2,4.78,1.09,2.73-.09,4.39-2.95,4.28Z"/>
  <path class="cls-2" d="M92.47,251.2c4.27,1.63,8.78,2.25,13.2,3.27,1.26.29,2.49.98,3.78.14-.02.08-.08.12-.16.1.06.14.08.36.18.41.25.13.42-.03.52-.27,5.45,4.07,10.24,3.91,15.09-.52.59.69,1.38.48,2.13.52,1.07.06,2.16-.09,3.13.66.55.42,1.16.38,1.94.07,1.72-.69,3.56-.07,5.35-.01.55.02,1.09.35,1.63-.03,1.76,1.03,3.67,1.54,5.7,1.56,3.6.03,7.2-.07,10.79.05,3.53.11,6.97.05,9.85-2.42,2.01.55,3.92-.15,5.85-.48,3.84-.64,7.49-2.1,11.37-2.57.88,1.3-.29,2.52-.15,3.87.26,2.5.4,5.05.08,7.77h-90.19c.04-4.03-.45-8.07-.08-12.14Z"/>
  <path class="cls-3" d="M102.33,141.87c-.91,6.05-.58,12.07,1.73,17.94,2.4,6.11,6.3,11.01,11.38,15.04.86.69,1.77,1.32,2.41,2.25.97,1.41.92,2.84-.08,4.17-.94,1.24-2.19,1.74-3.78,1.27-1.02-.3-1.91-.82-2.73-1.44-12.96-9.84-18.95-22.71-16.79-39.11.12-.89.36-1.79.69-2.63.81-2.13,2.29-3.08,4.13-2.76,1.73.3,2.97,1.91,3.05,3.98.02.39,0,.78,0,1.29Z"/>
  <path class="cls-3" d="M234.09,189.83c-.89-.02-1.36-.84-1.65-1.71-.59-1.79-1.09-3.61-1.6-5.42-.76-2.71-2.56-4.28-5.24-4.94-1.76-.44-3.51-.91-5.25-1.43-.82-.25-1.63-.66-1.66-1.68-.03-.95.58-1.62,1.38-1.96,1.37-.57,2.76-1.19,4.21-1.46,4.09-.77,6.31-3.22,7.04-7.26.22-1.21.61-2.4,1.03-3.56.38-1.04.85-2.17,2.23-2.09,1.28.07,1.6,1.17,1.92,2.17.54,1.74,1.12,3.47,1.56,5.23.66,2.66,2.21,4.29,4.88,4.97,1.69.43,3.32,1.07,4.95,1.71.9.35,1.88.8,1.86,1.99-.02,1.25-.98,1.81-1.99,2.12-1.67.52-3.36.98-5.07,1.34-2.56.54-4.1,2.03-4.75,4.56-.49,1.89-1.06,3.76-1.61,5.62-.3,1-.84,1.77-2.25,1.79Z"/>
  <path class="cls-3" d="M56.14,174.62c-.05,1-.77,1.62-1.77,1.91-1.93.55-3.87,1.06-5.83,1.5-2.12.48-3.41,1.77-3.98,3.83-.52,1.88-1.02,3.77-1.49,5.66-.28,1.14-.69,2.17-2.04,2.26-1.4.1-1.89-1-2.24-2.06-.47-1.42-.83-2.87-1.19-4.32-.73-2.98-2.46-4.94-5.49-5.69-1.7-.42-3.37-.93-5.04-1.44-.83-.25-1.58-.63-1.64-1.68-.07-1.04.59-1.59,1.4-1.9,2.12-.81,4.25-1.58,6.41-2.26,2.04-.64,3.32-1.91,3.87-3.98.54-2.01,1.07-4.03,1.72-6.01.36-1.11.86-2.33,2.33-2.24,1.38.09,1.61,1.33,1.92,2.39.63,2.12,1.24,4.24,1.87,6.36.48,1.63,1.57,2.64,3.15,3.2,2.08.73,4.15,1.47,6.22,2.24.96.36,1.7.95,1.84,2.23Z"/>
  <path class="cls-3" d="M77.7,25.64c-.03,4.87-4.48,9.25-9.31,9.16-4.61-.08-9-4.52-8.99-9.09.01-5.06,4.27-9.29,9.35-9.28,4.81,0,8.98,4.3,8.95,9.22Z"/>
  <path class="cls-3" d="M103.92,34.76c-4.86,0-9.06-4.21-9.07-9.09-.02-5.11,4.01-9.19,9.11-9.23,4.93-.04,9.14,4.26,9.1,9.29-.05,4.93-4.19,9.03-9.14,9.03Z"/>
  <path class="cls-3" d="M42.65,25.75c0,4.82-4.24,8.95-9.21,9-4.83.04-9.05-4.29-8.96-9.19.09-4.76,4.49-9.07,9.25-9.07,4.81,0,8.93,4.28,8.92,9.26Z"/>
  <path class="cls-3" d="M72.39,150.63c-.04-5.67-.08-11.33-.12-17,0-.65-.02-1.27.48-1.81,2.47-2.67,5.3-4.92,8.06-7.24.64.55.39,1.1.39,1.58,0,7.17.02,14.34-.05,21.51-.03,2.31-.64,4.61-.22,6.95-1.76-.05-2.91-1.27-4.22-2.18-1.31-.91-2.52-2.07-4.32-1.8Z"/>
  <path class="cls-3" d="M194.24,153.76v-29.47c3.2,2.46,5.87,4.79,8.42,7.28.41.4.48.88.48,1.42,0,5.15,0,10.31.05,15.46,0,.56-.28.96-.4,1.44-2.79,1.41-5.56,2.87-8.54,3.86Z"/>
  <path class="cls-3" d="M27.91,114.3c-1.37-1.51-2.37-2.61-3.49-3.85,4.6-7.37,10.05-14.12,14.85-21.35,1.12.6,1.46,1.58,2.23,2.35-2.32,3.12-2.88,6.44-1.14,9.32-4.21,4.57-8.24,8.95-12.45,13.53Z"/>
  <path class="cls-2" d="M182.75,103c1.89-.23,2.81-1.8,4.05-2.95,1.21-1.12,1.95-2.74,3.6-3.38,3.08,3.63,5.28,7.79,7.24,12.1.75,1.65,1.27,3.37,1.75,5.12.34,1.25,0,1.66-1.35,1.81-2.82.32-4.57-.61-5.99-3.21-2.17-3.99-6.07-6.45-9.3-9.49Z"/>
  <path class="cls-3" d="M31.58,117.32c3.17-3.19,6.27-6.32,9.38-9.44.37-.37.82-.66,1.13-1.07,1-1.31,2.09-1.79,3.81-1.23,1.54.5,3.27.27,4.76-.42,1.52-.7,2.41-.25,3.16,1.43-6.09,4.87-12.24,9.8-18.46,14.79-1.32-1.41-2.49-2.67-3.78-4.05Z"/>
  <path class="cls-2" d="M85.47,95.88c1.59,3.08,3.97,5.45,6.69,7.52-3.44,2.83-6.8,5.74-9.31,9.5-2,3-2.82,3.31-6.92,2.45,1.55-7.31,5.14-13.59,9.54-19.47Z"/>
  <path class="cls-3" d="M55.03,79.07c4.2-1.73,8.13-3.38,12.09-4.94,1.39-.55,1.87.36,2,1.57.2,1.91-.2,3.76-.57,5.61-.56,2.81-1.33,5.56-2.36,8.51-4.26-2.91-7.31-6.95-11.15-10.75Z"/>
  <path class="cls-3" d="M62.75,94.8c-1.44,2.25-3.09,4.85-4.79,7.51-1.62-1.05-2.27-2.06-1.7-4.14,1.33-4.77-2.71-9.59-8.31-9.87-1.98-.1-3.08-.8-3.95-2.66,1.88-1.1,3.82-2.23,5.75-3.37.63-.37,1.07-.09,1.52.38,3.74,3.97,7.49,7.93,11.48,12.15Z"/>
  <path class="cls-2" d="M194.24,153.76c2.98-.99,5.75-2.45,8.54-3.86.48.19.35.61.36.98.08,2.01-.39,4.02-.07,6.04.35,2.22-.32,3.94-2.25,5.31-2.17,1.54-4.14,3.36-6.58,5.38v-13.86Z"/>
  <path class="cls-2" d="M72.39,150.63c1.8-.27,3.02.89,4.32,1.8,1.31.92,2.47,2.13,4.22,2.18.56,4.07,0,8.15.19,12.63-2.91-1.93-5.06-4.13-7.47-5.99-1.45-1.13-1.44-2.49-1.38-4.03.08-2.2.08-4.39.11-6.59Z"/>
  <path class="cls-3" d="M242.73,140.55c.15,1.22-.73,1.64-1.64,1.74-2.22.26-3.45,1.51-4.04,3.59-.25.89-.62,1.78-1.78,1.72-1.05-.05-1.34-.9-1.6-1.71-.63-1.96-1.84-3.17-3.95-3.5-.82-.13-1.92-.36-1.92-1.57,0-1.16.78-1.67,1.83-1.93,1.98-.5,3.55-1.45,4.06-3.66.19-.84.63-1.65,1.64-1.66.99-.01,1.51.72,1.71,1.58.5,2.16,1.84,3.28,3.98,3.64.89.15,1.79.52,1.7,1.76Z"/>
  <path class="cls-3" d="M256.08,213.39c.79.15,1.33.71,1.48,1.53.38,2.08,1.55,3.32,3.59,3.87.98.27,2.12.71,2.01,2.01-.1,1.27-1.22,1.58-2.27,1.74-1.83.27-2.89,1.31-3.25,3.11-.19.95-.56,1.77-1.7,1.81-1.05.03-1.45-.77-1.72-1.58-.66-1.98-1.9-3.19-4.02-3.44-.88-.11-1.67-.49-1.76-1.51-.08-.98.56-1.73,1.37-1.93,2.57-.64,4.2-2.09,4.83-4.72.14-.58.7-.92,1.44-.88Z"/>
  <path class="cls-3" d="M25.96,220.52c-.06,1.2-.62,1.81-1.55,1.94-2.22.31-3.67,1.4-4.23,3.65-.17.71-.63,1.33-1.47,1.37-.92.04-1.49-.57-1.68-1.36-.55-2.24-1.92-3.41-4.17-3.72-.81-.11-1.41-.65-1.46-1.58-.05-.92.52-1.42,1.24-1.8.23-.12.47-.22.72-.27,1.97-.39,3.22-1.48,3.61-3.54.16-.82.47-1.65,1.59-1.67,1.07-.01,1.45.72,1.72,1.55.61,1.92,1.57,3.34,3.81,3.62.95.12,1.7.9,1.85,1.81Z"/>
  <path class="cls-3" d="M39.07,133.5c.85.22,1.39.8,1.56,1.6.46,2.2,1.9,3.29,3.95,3.77.93.22,1.82.6,1.84,1.68.02,1.21-1.04,1.71-1.96,1.82-2.12.26-3.14,1.54-3.74,3.4-.3.93-.6,1.89-1.91,1.82-1.29-.06-1.23-1.15-1.51-1.95-.63-1.81-1.8-2.93-3.73-3.26-.95-.16-2.09-.32-2.1-1.6,0-1.16.96-1.63,1.93-1.87,2.21-.54,3.65-1.81,4.16-4.1.17-.75.71-1.21,1.49-1.3Z"/>
  <path class="cls-3" d="M129.96,133.28c0,2.8-2.27,5.1-5.06,5.15-2.64.05-5.11-2.4-5.15-5.1-.04-2.76,2.29-5.34,4.87-5.37,2.86-.04,5.35,2.44,5.34,5.33Z"/>
  <path class="cls-3" d="M25.39,203.84c.14-2.3,2.23-4.29,4.32-4.11,2.17.18,4.02,2.22,3.93,4.32-.1,2.29-2.29,4.33-4.5,4.18-2.16-.15-3.89-2.17-3.75-4.4Z"/>
  <path class="cls-3" d="M253.01,204.03c-.04,2.26-2.06,4.23-4.28,4.18-2.21-.05-4.02-1.97-3.97-4.21.05-2.29,2.06-4.27,4.25-4.2,2.16.07,4.04,2.06,4,4.23Z"/>
  <path class="cls-2" d="M95.08,113.88c1.16,1.6,2.84,2.85,3.27,4.94-2.72,2.22-5.59,4.25-8.19,6.78-1.21-5.12.51-9.09,4.92-11.73Z"/>
  <path class="cls-2" d="M176.97,118.68c.47-2.07,2.15-3.14,3.6-4.4,1.69,1.12,2.94,2.7,4.15,4.26,1.48,1.91.59,4.25.99,6.99-3.18-2.49-5.96-4.67-8.75-6.85Z"/>
  <path class="cls-3" d="M47.53,100.92c-1.65,0-3.38-2.01-3.37-3.88.02-2.14,1.69-3.98,3.66-4.03,2.07-.05,3.86,1.86,3.81,4.05-.05,2.06-1.96,3.86-4.11,3.86Z"/>
  <path class="cls-1" d="M165.59,254.74c-2.88,2.47-6.32,2.54-9.85,2.42-3.59-.12-7.19-.01-10.79-.05-2.02-.02-3.94-.53-5.7-1.56-3.76-3.27-4.91-7.33-3.34-11.93,1.13-3.31,3.46-5.26,6.9-5.33,6.21-.14,12.42-.08,18.63.02,2.19.04,3.92,1.23,5.17,3.03,2.92,4.19,2.56,8.84-1.03,13.38ZM151.79,250.58v-.03c2.21,0,4.41.04,6.62-.01,1.8-.04,3.22-1.42,3.21-3,0-1.38-1.34-2.53-3.13-2.55-4.41-.03-8.82-.03-13.23.03-1.82.02-2.97,1.28-2.89,2.96.07,1.64,1.12,2.57,3,2.59,2.14.03,4.28,0,6.42,0Z"/>
  <path class="cls-1" d="M125.07,254.34c-4.85,4.43-9.63,4.59-15.09.52-.21-.15-.39-.47-.7-.14.08.01.14-.02.16-.1-1.54-2.58-2.95-5.17-2.46-8.38.69-4.51,3.49-7.62,7.87-8.61,4.38-.99,8.61.69,10.99,4.36,2.39,3.69,2.27,8.05-.33,11.72-.15.21-.31.42-.46.63Z"/>
  <path class="cls-1" d="M107.09,114.81c.2-.09.42-.21.57.04.02.03-.18.21-.28.32-.1-.12-.19-.24-.29-.36Z"/>
  <path class="cls-3" d="M109.29,254.72c.31-.33.48-.01.7.14-.1.24-.27.4-.52.27-.1-.05-.12-.27-.18-.41Z"/>
  <path class="cls-3" d="M151.79,250.58c-2.14,0-4.28.02-6.42,0-1.88-.03-2.93-.96-3-2.59-.07-1.68,1.07-2.94,2.89-2.96,4.41-.06,8.82-.06,13.23-.03,1.79.01,3.12,1.17,3.13,2.55.01,1.58-1.41,2.96-3.21,3-2.2.05-4.41.01-6.62.01v.03Z"/>
  <path class="cls-1" d="M.26,238.66C.76,168.96-.08,99.32.51,29.59c-.11-8.06,2.88-16.26,8.87-21.61C14.98,2.62,22.89.05,30.63.22c73.84.63,147.68-1.27,221.43.72,13.28,2.33,22.72,14.4,22.35,27.81.65,74.06.96,148.35-.13,222.44-2.33,14.48-16.02,24.57-30.38,23.69-72.87-.31-145.64.7-218.51-.37-17.08-1.89-26.86-18.98-25.13-35.57v-.27ZM194.22,154.54c.02,3.36-.05,7.01.03,10.63.08.88.08,2.01.88,2.37,1.65.29,5.91-3.82,6.94-6.09,1.07-2.36,1.01-5.3,1-7.9-.04-4.97.27-9.76.11-14.75.22-5.21-.63-9.61-4.72-12.65-.97-.82-2.44-2.32-3.52-1.75-.95.58-.69,3.9-.73,6.53,0,7.68,0,15.79,0,23.34v.27ZM72.29,151.38c-.06,3.15-.33,6.7.78,9.46.55,1.97,7.7,9.95,7.94,4.29-.09-12.49.63-24.97.13-37.24-.11-1.17-.09-3.12-1.26-3.39-1.08-.19-3.2,1.97-4.82,3.71-2.71,2.88-2.97,6.7-2.89,10.61.04,4.13.29,8.06.12,12.25v.3ZM98.16,119.13c3.82-2.64,10.66-5.58,4.78,1.07-1.73,2.1-3.3,4.39-2.76,6.98.54,2.54,3.33,3.6,5.6,2.24,3.63-2.34,6.22-6.43,10.19-8.42,4.99-3.13,16.47-4.66,7.91-11.4-.26-.45.21-.75,1.32-1.06,16.23-3.87,33.34.77,48.21,8.25,3.69,1.72,6.78,4.5,10.13,6.7,3.87,1.76,2.05-3.92.41-6.05-22.78-25.03-65.82-24.14-89.72-3.3-2.37,1.96-5.39,6.64-4.21,9.24.2.35.52.52.92.51,1.72-.03,4.85-3.35,6.99-4.61l.21-.14ZM226.45,222.14c-4.05-7.12-9.84-13.01-16.47-17.71-1.34-.93-3.15-2.05-4.67-1.16-1.07.6-1.84,2.29-2.33,3.58-6.21,16.28-8.91,33.63-8.89,51.16,0,1.4.1,3.12.77,4.21.8,1.4,2.51,1.79,4.1,1.84,9.19.05,18.47.03,27.71.01,3.44.11,5.1-1.81,5-5.23.11-12.47,1.2-25.43-5.1-36.47l-.13-.23ZM48.32,223.24c-6.2,11.17-5.04,24.76-4.63,37.37.29,2.58,2.52,3.46,4.86,3.42,9.29.02,18.61.04,27.8-.01,1.58-.05,3.3-.43,4.09-1.83.66-1.09.75-2.8.74-4.19-.06-17.48-2.49-34.89-8.86-51.13-.5-1.3-1.28-2.98-2.36-3.58-1.51-.88-3.3.24-4.63,1.17-6.87,4.88-12.87,11.07-16.89,18.55l-.13.23ZM83.33,189.3c.69,2.77.39,5.99,1.8,8.59,2.6,4.54,7.18,7.6,11.33,10.61,26.22,16.01,63.29,16.33,87.5-3.63,2.58-2.43,5.36-4.59,6.65-7.83,1.13-2.77.56-6.36,1.87-9.2,1.19-3.37,5.28-6.03,3.9-9.46-2.14-4.24-6.34-2.94-8.75.26-25.87,29.48-75.96,28.5-101.23-1.29-2.64-3.07-7.8-1.4-7.67,2.63.27,2.9,3.87,5.83,4.53,9.07l.06.24ZM190.96,96.3c-27.91-40.92-98.09-32.36-114.37,14.51-.5,1.79-.35,3.36.45,4.06,1.96,1.62,5.21-1.91,6.61-3.64,26.62-30.11,80.97-30.94,107.57-.26,1.85,2.17,5.87,6.11,8.01,3.8,2.15-3.33-4.98-13.82-8.12-18.27l-.15-.2ZM91.43,251.77c.37,6.08-1.64,13.12,6.74,12.5,26.96-.04,53.76.09,80.56-.05,2.38-.12,4.28-1.01,4.75-3.47.56-14.78,1.52-29.69,5.05-44.17.27-1.09.68-2.95.25-3.65-.33-.47-1.2-.1-2.44.75-27.24,21.16-68.28,21.23-96.03.69-2.83-2.14-4.99-3.56-3.86,1.36,2.53,11.7,4.44,23.76,4.96,35.76v.27ZM137.42,59.63c38.89-.01,77.86.05,116.76-.03,3.68.14,8.98-1.75,7.84-6.17-1.13-3.9-6.42-4.22-10.05-4.18-77.62.2-155.24-.29-232.88.23-2.7.29-5.12,1.53-5.86,3.67-1.63,5.7,6.02,6.73,10.21,6.47,37.9.06,75.84-.01,113.73.02h.25ZM221.82,18.36c-15.37-.04-30.69-3.22-29.83,8.28.36,4.82,5.44,6.71,9.73,6.54,12.61.06,25.1.01,37.68.01,3.24-.01,7.17.04,9.7-2.17,3.29-2.85,2.91-8.81-.89-11.15-3.2-1.97-7.35-1.49-11-1.57-5.12.01-10.44-.04-15.39.06h0ZM247.05,111.9c6.44-1.27-.31-8.39.98-12.89.37-2.82,2.91-6.03,1.43-8.79-2.34-3.13-8-.93-10.23-4.15-1.53-1.6-2.81-4.46-5.23-4.66-3.2.28-4.6,5.38-7.31,6.21-1.89.74-4.37.51-6.32,1.29-4.97,2.01-.14,7.64-.39,11.3.62,3.7-4.31,9.45.28,11.57,2.66.84,6.18-.07,8.43,2.08,2.02,1.55,4.07,5.48,6.98,3.53.53-.32,1.39-1.21,1.69-1.56,2.89-4.05,5.02-3.46,9.45-3.89l.25-.05ZM101.92,140.98c-.14-4.25-4.16-6.15-6.46-2.42-5.96,15.78,3.46,35.74,17.59,43.62,2.56,1.21,5.84-.36,5.11-3.39-.6-2.38-3.03-4.04-4.76-5.7-9.11-8-12.46-20.12-11.46-31.84l-.02-.27ZM234.24,189.89c1.01.05,1.76-.84,2.25-1.68,1.62-3,2.02-7.59,5.52-9.28,1.87-1.09,4.37-1.35,6.19-2.47,5.23-4.17-5.24-5.49-7.22-7.78-2.42-2.02-2.83-5.63-4.21-8.34-2.85-5.11-5.12,1.06-6.08,3.94-1.42,3.61-3.48,5.24-7.11,6.72-1.7.86-4.66,1.65-5.07,3.67-.04,2.36,8.11,3.17,10.58,6.59,2.35,2.26,1.84,7.31,4.98,8.59l.16.02ZM56.18,174.48c-.06-1.7-2.27-2.72-3.82-3.36-2.13-.84-4.45-1.64-5.92-3.5-2.2-2.42-1.91-6.79-4.39-9.03-1.21-.86-2.35-.2-3.18,1.15-1.56,2.71-1.65,6.49-4.15,8.67-1.75,2.42-11.16,3.14-8.81,7.18,2.36,2.4,6.47,2.13,8.91,4.74,1.72,1.62,2.45,3.98,3.2,6.15.52,1.45,1.42,3.32,2.96,3.3,1.51-.1,2.38-2.06,2.84-3.5.7-2.25,1.28-4.77,3.18-6.33,1.84-1.66,4.91-2.03,7.14-3.09.93-.45,1.91-1.16,2.02-2.21v-.17ZM77.72,25.49c-.07-12.41-19.77-11.46-18.21,1.41,1.48,10.67,18.02,9.89,18.21-1.12v-.29ZM104.07,34.77c12.23-.13,11.43-19.68-1.32-18.25-10.81,1.17-9.96,18.18,1.03,18.25h.29ZM42.66,25.57c-.11-12.3-19.19-11.5-18.12,1.21.97,10.76,18.09,9.98,18.12-.92v-.29ZM27.24,114.3c.89-.04,1.71-.68,2.38-1.34,3.3-3.75,7.31-7.14,10.16-11.28.83-1.57.58-3.33.56-5.03-.09-2.24,1.39-4.52.99-6.51-.53-2.13-2.77-.49-3.55.75-4.1,5.75-8.49,11.4-12.42,17.26-1.72,2.17-1.21,5.76,1.68,6.15h.2ZM31.52,118.04c.06,1.1,1.67,2.85,3.04,3.05,1.04.16,2.04-.42,2.88-1.07,5.03-4,10.07-7.99,14.97-11.96.78-.7,1.82-1.9,1.11-2.82-1.21-1.14-3.38-.24-5.26-.19-1.5.13-2.9-.1-4.31.37-3.57,1.25-7.97,7.09-11.28,10.41-.55.58-1.14,1.29-1.16,2.03v.18ZM55.32,79.25c0,.47.41,1,.76,1.4,2.72,2.85,5.3,5.84,8.27,8.22,1.19.98,2.22.91,2.63-.82.49-1.74,1.11-3.95,1.59-5.84,2.23-8.55,1.45-9.79-6.88-6.39-1.79.73-3.84,1.62-5.38,2.33-.53.27-.91.57-.98.95v.15ZM62.72,95.06c-.32-1.59-1.85-2.8-2.96-4.02-1.49-1.55-2.97-3.09-4.46-4.64-3.76-4.18-5.89-6.14-10.5-2.23-3.17,3.66,4.59,3.85,6.57,5.12,1.81.87,3.34,2.23,4.27,4,1.45,2.34.45,5.39,1.3,7.83,1.55,3.56,6.15-4.28,5.82-5.85l-.03-.21ZM242.83,140.44c-.1-1.14-1.37-1.64-2.29-2.1-1.17-.52-2.16-1.42-2.77-2.53-2.03-3.77-3.44-2.24-5.04.55-1.04,1.65-3.53,1.98-4.55,3.49-.42.68-.36,1.49.31,2.03,1.6,1.06,3.76,1.72,4.59,3.61,1.47,2.83,3.26,2.73,4.62-.09.51-.95,1.26-1.83,2.25-2.36,1.02-.63,2.76-1.03,2.89-2.41v-.19ZM256.03,213.35c-1.76-.09-2.47,3.31-4.16,4.25-.9.7-2.06,1.14-2.89,1.93-1.74,1.75.86,3.02,2.28,3.65,2.11.8,2.49,4.01,4.68,4.24,1-.05,1.55-.91,2.08-1.86.58-1.22,1.6-2.19,2.86-2.71,4.45-2,1.47-3.61-1.16-5.24-1.64-1.23-1.85-3.65-3.53-4.22l-.17-.03ZM25.98,220.46c-.53-2.22-3.34-2.06-4.62-4.11-1.15-1.86-2.75-4.47-4.44-1.4-.28.47-.53.97-.85,1.41-1.14,1.96-4.39,2.04-4.62,4.41.16,2.08,3.06,2.13,4.2,3.66.96.95,1.54,2.93,3.06,2.99.98-.15,1.58-1.29,2.15-2.06.7-1.09,1.65-1.81,2.7-2.27,1.22-.59,2.4-1.19,2.43-2.45v-.19ZM39,133.53c-.98-.03-1.68,1.32-2.42,2.52-.57.93-1.44,1.72-2.42,2.24-.95.5-3.25,1.46-2.52,2.99.29.67,1.1,1.11,1.97,1.49,1.67.56,2.95,2.03,3.74,3.61.48.83,1.31,1.59,2.24,1.09,1.36-.63,1.76-2.9,3.32-3.96,1.09-.91,3.22-1.24,3.46-2.83-.07-1.52-2.04-2.01-3.11-2.78-2.04-1.05-2.09-3.75-4.1-4.36h-.18ZM129.98,133.14c.08-5.93-9.28-7.05-10.16-.74-1.07,7,9.9,8.1,10.16,1.01v-.28ZM25.37,203.97c-.31,4.92,7.33,5.73,8.2.67.91-5.61-7.73-6.61-8.18-.95l-.02.28ZM253.02,203.89c.05-4.75-7.48-5.51-8.21-.49-.92,5.74,7.9,6.35,8.2.76v-.27ZM47.69,100.93c4.51.12,5.33-7.25.72-7.88-4.79-.83-5.66,7.4-.98,7.87h.26Z"/>
</svg>