<?xml version="1.0" encoding="UTF-8"?><svg id="Layer_1" xmlns="http://www.w3.org/2000/svg" viewBox="0 0 551 551"><defs><style>.cls-1{fill:#757575;stroke:#c4c4c4;stroke-miterlimit:10;}</style></defs><path class="cls-1" d="M322.5928,502.7724c16.5087-15.2032,32.6793-29.94,48.6215-44.9212,2.8335-2.6628,5.3512-3.1518,8.8455-2.0591,13.7537,4.3008,27.5644,8.4182,41.3314,12.6768,2.0996.6494,3.73,1.1696,5.7926-.6379,31.9072-27.9613,59.4938-59.2465,76.1606-98.9666,10.0629-23.9816,15.9571-48.9897,17.9982-74.9222.152-1.931.4164-3.8938.9549-5.7465,2.3307-8.0188,8.7668-12.4593,16.1211-11.2646,7.229,1.1742,12.7038,8.3552,12.0244,16.3743-4.1535,49.0288-18.7933,94.4311-46.8279,135.1552-42.1992,61.3004-99.9197,100.482-172.2914,115.2644-106.454,21.7438-196.7153-8.8818-268.1751-91.4297-31.2556-36.1054-52.0939-78.125-59.1329-125.6409-12.5751-84.8862,8.5838-160.8981,63.4768-227.0658C109.3313,49.1562,162.5103,17.3259,226.7067,5.0678c41.4007-7.9053,82.714-5.4358,123.2806,6.5245,9.7324,2.8694,14.9615,10.0098,13.1191,17.277-2.014,7.944-11.3631,12.8964-20.835,10.3001-28.1086-7.7048-56.6603-11.1141-85.7293-9.0047-40.5946,2.9458-77.442,16.8865-111.5064,38.8728-27.6351,17.8366-49.9181,41.1145-69.2442,67.4822-2.1937,2.993-4.1329,6.2778-6.7729,8.8188-9.6403,9.2789-10.7702,21.5704-12.531,33.7247-2.5784,17.7983-5.2032,35.5907-7.9901,53.3569-.4496,2.8664.1682,4.727,2.3142,6.6155,8.7996,7.7437,17.3972,15.7188,26.2285,23.4252,2.6976,2.354,3.9253,4.7321,3.8788,8.4807-.2298,18.5683-.1047,37.1409-.1047,56.6532,10.2713-.6392,20.1012-1.2037,29.9239-1.8736,13.2352-.9026,26.4691-1.8333,39.693-2.8848,2.3427-.1863,4.0861.3802,5.7898,1.9598,21.0627,19.5284,42.1351,39.0467,63.3057,58.4572,2.0413,1.8716,2.2073,3.886,2.1981,6.2745-.0599,15.6571-.0206,31.3148-.1446,46.9714-.0232,2.928.4587,4.9611,3.2672,6.7336,32.166,20.3022,64.8669,39.713,97.7454,59.5394Z"/><path class="cls-1" d="M336.1029,103.7959c38.6452-.4876,71.2411,31.6932,71.7401,70.8265.4882,38.2928-31.5056,71.3159-69.5163,71.7526-40.4825.4651-72.404-29.4868-73.9904-67.4661-1.5478-37.0551,28.5434-76.976,71.7667-75.113Z"/><path class="cls-1" d="M337.2961,321.4125c.1421-19.9339,15.8576-35.6391,35.6778-35.6542,20.1025-.0154,36.2862,16.4642,36.0855,36.7454-.1923,19.4379-16.1456,34.7306-36.0635,34.5702-20.0133-.1613-35.8402-15.9711-35.6998-35.6614Z"/><path class="cls-1" d="M144.8156,191.2253c14.8587-.1008,26.9546,11.9113,27.2628,27.0739.2802,13.7843-12.6907,26.2244-27.4846,26.3598-14.4475.1323-25.583-11.12-25.8401-26.1113-.2596-15.1341,11.2707-27.2221,26.062-27.3224Z"/><path class="cls-1" d="M170.1697,147.476c-8.4851-8.1619-7.9416-23.8223,1.1571-33.3395,9.7689-10.2184,24.5251-11.2531,33.9233-2.3787,8.7673,8.2786,8.0542,23.9342-1.537,33.744-9.5478,9.7654-24.5271,10.6471-33.5434,1.9743Z"/><path class="cls-1" d="M250.6046,345.255c-13.6368.0086-24.4634-10.7804-24.504-24.4189-.0443-14.8669,10.7139-26.1922,24.8456-26.1553,13.9445.0364,25.671,11.948,25.4752,25.8774-.1956,13.9168-11.455,24.6877-25.8167,24.6968Z"/><path class="cls-1" d="M343.3802,425.2171c.0276,13.2685-10.465,24.1401-23.4008,24.2459-14.404.1178-25.6225-10.7194-25.5879-24.7181.0315-12.7522,11.4542-24.0407,24.4684-24.1809,13.1588-.1418,24.4924,11.2532,24.5203,24.6532Z"/><path class="cls-1" d="M494.3587,158.534c-.168-6.2208,1.3811-12.0196,4.4395-17.3942,4.6715-8.2095,12.9701-8.7603,18.2124-.8445,3.2117,4.8497,5.5236,10.3093,8.1205,15.5543,3.7266,7.5263,7.2767,15.1406,11.0284,22.6539,3.5235,7.0561.5715,12.6812-7.3622,12.7054-17.8561.0544-35.1142-14.449-34.4387-32.6749Z"/><path class="cls-1" d="M436.0541,81.1311c-.2052-2.791.4703-5.4697,1.384-8.0271,3.5916-10.0521,9.5829-11.5872,17.4862-4.4691,6.3731,5.74,12.6132,11.6282,18.9332,17.4278,2.9082,2.6687,6.0107,5.2231,4.655,9.8855-1.4336,4.9303-4.8701,7.9667-9.586,9.4065-15.333,4.6815-32.758-8.2156-32.8724-24.2236Z"/><path class="cls-1" d="M100.502,138.6518c6.196,3.6695,7.3753,13.6113,2.6008,21.9257-4.8145,8.3841-13.8046,12.0445-20.2047,8.2266-5.9299-3.5374-7.0239-12.9531-2.4357-20.963,5.0372-8.7937,13.8692-12.8437,20.0396-9.1894Z"/><path class="cls-1" d="M473.0858,252.2777c7.5614-.0184,14.0726,6.5746,14.0349,14.2113-.0376,7.6187-6.2363,13.6676-13.893,13.5572-7.6398-.1102-13.7547-6.3181-13.6434-13.851.1158-7.83,6.0037-13.8993,13.5015-13.9175Z"/><path class="cls-1" d="M450.3779,380.6642c-7.479-.0214-13.4744-6.1679-13.5527-13.8943-.0731-7.2114,6.103-13.4193,13.329-13.3976,7.1661.0215,13.5292,6.5571,13.6348,14.0043.1016,7.1633-6.1007,13.3085-13.4111,13.2876Z"/><path class="cls-1" d="M236.0899,49.7287c1.7991,4.5252-2.2068,9.9866-9.2905,12.6657-6.678,2.5258-13.6957,1.2536-15.4455-2.7999-1.7989-4.1673,2.5209-10.2179,9.1962-12.8806,7.0195-2.8001,13.7468-1.4949,15.5398,3.0148Z"/><path class="cls-1" d="M176.8156,294.7905c-6.9691-.0161-12.036-5.572-11.8795-13.0262.1353-6.4481,5.1623-11.6351,11.3918-11.7544,6.3905-.1223,12.4973,6.2597,12.3962,12.9549-.0987,6.5388-5.4376,11.8406-11.9085,11.8257Z"/><path class="cls-1" d="M387.7919,403.4928c.1055,5.0702-4.9478,10.5483-9.7287,10.5467-5.2942-.0018-10.5227-5.0162-10.7782-10.337-.2531-5.2707,4.2972-10.4313,9.4099-10.672,5.5657-.262,10.9801,4.8427,11.0971,10.4623Z"/><path class="cls-1" d="M460.6813,172.6182c.055,5.1406-4.0128,9.4684-9.0388,9.6167-5.4567.161-10.0908-4.457-10.0256-9.9909.0653-5.5348,4.2754-10.083,9.3218-10.0701,5.2753.0135,9.6816,4.7371,9.7427,10.4442Z"/><path class="cls-1" d="M470.9576,315.7361c-.1741,5.1676-4.8463,9.6824-9.9096,9.5758-5.1205-.1078-9.5497-4.9374-9.2292-10.0637.3447-5.5135,4.6493-9.4061,10.0816-9.1169,4.9544.2637,9.2195,4.7868,9.0572,9.6049Z"/><path class="cls-1" d="M292.074,288.529c-4.5197-.156-8.4522-4.346-8.3697-8.9177.0871-4.8234,4.2909-9.1878,8.8448-9.1827,4.5441.0051,8.7032,4.4403,8.6979,9.2754-.005,4.61-4.5521,8.9845-9.1731,8.825Z"/><path class="cls-1" d="M290.4513,360.6692c-.027-4.4049,3.6418-8.4182,7.8313-8.5667,4.5879-.1626,9.0926,4.1452,9.1411,8.7418.0478,4.5244-4.0686,8.652-8.5435,8.5668-4.4532-.0849-8.4009-4.1792-8.4289-8.7418Z"/><path class="cls-1" d="M232.0557,202.7952c-.175,4.3832-4.5748,8.5006-8.8939,8.3232-4.4001-.1807-7.9526-4.4714-7.6766-9.2717.2559-4.4507,4.2206-8.3189,8.3042-8.102,4.2542.226,8.436,4.8044,8.2664,9.0505Z"/><path class="cls-1" d="M429.8693,262.4663c-.1312,3.9259-3.9558,7.6978-7.6876,7.2258-4.2898-.5426-6.569-3.1938-6.5129-7.5763.0575-4.478,2.7196-6.877,6.8805-7.2534,3.8307-.3465,7.4504,3.7015,7.3199,7.6038Z"/><path class="cls-1" d="M151.9732,95.058c1.5913,3.5098,1.154,7.0849-2.7618,9.9078-4.0787,2.9404-8.2931,3.007-10.7443-.4312-2.2424-3.1451-1.1951-6.9776,2.6731-9.8372,4.1243-3.049,7.8604-2.701,10.8331.3606Z"/></svg>