<?xml version="1.0" encoding="UTF-8"?><svg id="Layer_1" xmlns="http://www.w3.org/2000/svg" viewBox="0 0 901 605.0513"><defs><style>.cls-1{font-family:GravesendSans-Bold, 'Gravesend Sans';font-size:114.9171px;font-weight:700;}.cls-1,.cls-2{fill:#757575;}.cls-3{letter-spacing:-.07em;}.cls-4{letter-spacing:-.02em;}</style></defs><path class="cls-2" d="M488.5305,410.9501c13.5071-12.439,26.7376-24.4963,39.7812-36.7537,2.3183-2.1786,4.3783-2.5788,7.2372-1.6847,11.253,3.5188,22.5527,6.8877,33.8166,10.372,1.7179.5313,3.0518.957,4.7394-.5219,26.1059-22.8774,48.6767-48.4744,62.3132-80.9727,8.2332-19.6213,13.0558-40.0825,14.7258-61.3.1244-1.5799.3407-3.1858.7813-4.7017,1.907-6.5608,7.1728-10.1939,13.19-9.2165,5.9146.9607,10.394,6.8361,9.8382,13.3972-3.3983,40.1144-15.3763,77.2618-38.3137,110.5815-34.5266,50.1549-81.7525,82.2126-140.9657,94.3072-87.0987,17.7904-160.9489-7.2669-219.416-74.8061-25.5728-29.5408-42.6223-63.9205-48.3815-102.7971-10.2887-69.4524,7.0231-131.6439,51.9355-185.7811C314.0438,39.8096,357.5539,13.7666,410.0782,3.7373c33.8733-6.468,67.6751-4.4475,100.866,5.3382,7.9629,2.3477,12.2412,8.1899,10.7338,14.1357-1.6478,6.4997-9.2971,10.5516-17.0468,8.4273-22.9979-6.3039-46.3584-9.0934-70.1422-7.3675-33.2137,2.4102-63.3616,13.8162-91.2325,31.805-22.6105,14.5936-40.8421,33.6391-56.6543,55.2127-1.7948,2.4488-3.3815,5.1364-5.5415,7.2154-7.8875,7.5918-8.812,17.6485-10.2527,27.593-2.1096,14.5622-4.2572,29.1197-6.5373,43.6557-.3679,2.3452.1376,3.8675,1.8934,5.4127,7.1996,6.3358,14.2341,12.8608,21.4597,19.1661,2.2071,1.926,3.2116,3.8717,3.1736,6.9388-.1881,15.1922-.0857,30.388-.0857,46.3526,8.4038-.523,16.4464-.9849,24.4832-1.533,10.8288-.7385,21.6565-1.5,32.4761-2.3603,1.9168-.1524,3.3432.3111,4.7371,1.6035,17.2331,15.9778,34.4742,31.9473,51.7956,47.8287,1.6702,1.5313,1.806,3.1795,1.7985,5.1337-.049,12.8104-.0169,25.6212-.1183,38.4311-.019,2.3956.3753,4.0591,2.6731,5.5093,26.3176,16.6109,53.0729,32.4925,79.9735,48.714Z"/><path class="cls-2" d="M499.5842,84.5148c31.6188-.3989,58.2882,25.9308,58.6964,57.9489.3995,31.3305-25.7773,58.3493-56.877,58.7067-33.122.3806-59.2396-24.1256-60.5376-55.1995-1.2664-30.3178,23.3537-62.9803,58.7182-61.4561Z"/><path class="cls-2" d="M500.5605,262.5648c.1163-16.3096,12.9744-29.1592,29.1909-29.1716,16.4475-.0126,29.6887,13.4707,29.5245,30.0644-.1573,15.9037-13.21,28.416-29.5065,28.2847-16.3745-.1319-29.3238-13.0672-29.2089-29.1775Z"/><path class="cls-2" d="M343.0764,156.048c12.1571-.0825,22.0537,9.7456,22.3059,22.1514.2292,11.2781-10.3833,21.4563-22.4874,21.5671-11.8207.1083-20.9315-9.0982-21.1419-21.3638-.2124-12.3824,9.2215-22.2726,21.3235-22.3547Z"/><path class="cls-2" d="M380.2079,126.1179c-10.9661-.1133-20.5854-9.7561-20.4787-20.5285.1146-11.566,9.4723-20.4497,21.5126-20.4231,11.2321.0249,20.7332,9.7597,20.4787,20.9825-.2533,11.172-9.8601,20.0895-21.5126,19.9691Z"/><path class="cls-2" d="M429.6311,282.0723c-11.1574.007-20.0155-8.8203-20.0488-19.9791-.0362-12.1638,8.766-21.43,20.3282-21.3998,11.4091.0298,21.0035,9.7757,20.8433,21.1724-.1601,11.3864-9.3723,20.199-21.1228,20.2065Z"/><path class="cls-2" d="M505.5384,347.4958c.0226,10.8561-8.5623,19.751-19.1461,19.8375-11.7851.0964-20.9639-8.7704-20.9356-20.2239.0258-10.4336,9.3716-19.6697,20.0196-19.7844,10.7663-.116,20.0392,9.2071,20.0621,20.1708Z"/><path class="cls-2" d="M629.0662,129.3006c-.1374-5.0897,1.13-9.8342,3.6323-14.2316,3.8222-6.7169,10.6119-7.1675,14.9011-.6909,2.6278,3.9679,4.5193,8.4349,6.6441,12.7262,3.049,6.1579,5.9536,12.3878,9.0233,18.535,2.8829,5.7732.4676,10.3756-6.0236,10.3954-14.6096.0445-28.7298-11.8219-28.1771-26.734Z"/><path class="cls-2" d="M446.3399,199.8983c-16.1311,10.3189-31.7665,20.3207-48.378,30.9468,0-7.1312-.0074-13.2287.0047-19.3262.0035-1.767,1.4946-2.3353,2.661-3.0836,9.784-6.2766,19.6014-12.5008,29.3721-18.798,1.4441-.9307,2.6022-1.6216,4.1997-.1933,3.7895,3.3879,7.6965,6.6438,12.1405,10.4543Z"/><path class="cls-2" d="M581.3624,65.9709c-.1679-2.2836.3848-4.4752,1.1324-6.5676,2.9386-8.2245,7.8406-9.4805,14.3069-3.6566,5.2144,4.6964,10.3199,9.514,15.4908,14.2591,2.3795,2.1835,4.9178,4.2734,3.8086,8.0881-1.1729,4.0339-3.9847,6.5182-7.8431,7.6962-12.5452,3.8303-26.802-6.7219-26.8956-19.8193Z"/><path class="cls-2" d="M320.3232,104.915c7.7283.0774,14.1422,6.6493,14.1453,14.4939.0031,7.9102-6.4057,14.1718-14.4032,14.0723-7.41-.0921-13.4632-6.3256-13.4768-13.8782-.0149-8.2916,6.0384-14.765,13.7348-14.688Z"/><path class="cls-2" d="M429.6595,312.2103c6.1687,5.6161,11.5462,10.5484,16.9737,15.4248,1.2101,1.0873,1.3908,2.3645,1.3843,3.8702-.0409,9.4401-.0207,18.8804-.0207,29.2979-6.1059-3.8657-11.672-7.3889-17.2371-10.9137-1.1185-.7084-1.1076-1.8264-1.1066-2.9712.0105-11.1971.0063-22.3943.0063-34.7079Z"/><path class="cls-2" d="M558.7658,355.65c5.4927-5.8434,10.465-10.9671,15.2246-16.2822,1.7935-2.0028,3.5607-2.1047,5.9149-1.4249,5.0155,1.4482,10.0935,2.6785,15.8384,4.1789-5.4772,6.2424-11.0466,12.1058-17.031,17.5841-.8039.7359-1.7539.4288-2.703.191-5.5303-1.3853-11.0704-2.7313-17.244-4.2469Z"/><path class="cls-2" d="M611.6611,206c6.1866-.0151,11.514,5.3792,11.4831,11.6275-.0307,6.2335-5.1025,11.1826-11.367,11.0923-6.2507-.0902-11.2539-5.1694-11.1628-11.3327.0947-6.4064,4.9121-11.3722,11.0467-11.3871Z"/><path class="cls-2" d="M593.0819,311.0434c-6.1192-.0175-11.0245-5.0465-11.0886-11.3681-.0598-5.9002,4.9934-10.9794,10.9055-10.9616,5.8632.0176,11.0694,5.3649,11.1558,11.458.0831,5.8609-4.9915,10.8888-10.9727,10.8717Z"/><path class="cls-2" d="M340.5974,241.0294c-9.3974.8936-17.5676,1.6705-26.0786,2.4798v-26.8662c8.8141,8.2422,16.9923,15.8897,26.0786,24.3863Z"/><path class="cls-2" d="M304.9784,199.5751c-5.5866-4.8989-10.3221-9.0545-15.062-13.2049-.7651-.6699-1.0864-1.4683-1.026-2.5092.374-6.4444.709-12.8911,1.1035-20.1974,5.1916,4.6975,9.7344,8.7977,14.2623,12.9143.7881.7165.7249,1.711.7244,2.672-.0039,6.3655-.002,12.731-.002,20.3252Z"/><path class="cls-2" d="M421.5117,56.9122c5.9704-.0519,10.4712,4.5189,10.4381,10.6004-.0312,5.7333-4.5607,10.6322-9.9693,10.7824-5.5604.1544-10.5986-4.8208-10.7256-10.5913-.1334-6.068,4.3068-10.7398,10.2567-10.7915Z"/><path class="cls-2" d="M369.2583,240.7831c-5.702-.0132-9.8476-4.5589-9.7196-10.6578.1107-5.2757,4.2237-9.5196,9.3206-9.6172,5.2286-.1001,10.2251,5.1215,10.1424,10.5995-.0807,5.3499-4.449,9.6878-9.7433,9.6755Z"/><path class="cls-2" d="M541.8752,329.7214c.0863,4.1484-4.0482,8.6304-7.9599,8.6291-4.3316-.0015-8.6095-4.1042-8.8185-8.4575-.2071-4.3124,3.5159-8.5347,7.699-8.7317,4.5538-.2144,8.9837,3.9622,9.0794,8.5601Z"/><path class="cls-2" d="M601.5119,140.824c.045,4.2059-3.2832,7.7469-7.3954,7.8682-4.4646.1318-8.2561-3.6466-8.2028-8.1744.0534-4.5285,3.498-8.2497,7.6269-8.2392,4.3161.011,7.9213,3.8758,7.9713,8.5453Z"/><path class="cls-2" d="M609.9199,257.9205c-.1424,4.228-3.9652,7.922-8.1079,7.8347-4.1895-.0882-7.8134-4.0397-7.5512-8.234.2821-4.511,3.8039-7.6959,8.2486-7.4593,4.0536.2158,7.5433,3.9164,7.4104,7.8585Z"/><path class="cls-2" d="M463.5606,235.6601c-3.6979-.1276-6.9154-3.5558-6.8479-7.2963.0713-3.9464,3.5107-7.5173,7.2367-7.5131,3.7179.0041,7.1208,3.633,7.1165,7.5889-.0041,3.7718-3.7244,7.3509-7.5053,7.2205Z"/><path class="cls-2" d="M462.2329,294.6839c-.0221-3.604,2.9796-6.8877,6.4074-7.0092,3.7538-.1331,7.4394,3.3915,7.4791,7.1524.0391,3.7018-3.3289,7.0789-6.9901,7.0092-3.6435-.0694-6.8735-3.4193-6.8964-7.1524Z"/><path class="cls-2" d="M414.4547,165.5143c-.1432,3.5863-3.743,6.9551-7.2769,6.8099-3.6001-.1479-6.5067-3.6585-6.2809-7.5859.2094-3.6415,3.4533-6.8064,6.7943-6.6289,3.4807.1849,6.9022,3.9309,6.7634,7.405Z"/><path class="cls-2" d="M576.3021,214.336c-.1074,3.2121-3.2365,6.2982-6.2899,5.912-3.5099-.4439-5.3747-2.6131-5.3287-6.1988.047-3.6638,2.2252-5.6266,5.6295-5.9346,3.1342-.2835,6.0958,3.0285,5.989,6.2213Z"/><path class="cls-2" d="M350.1561,80.958c-.4993,2.8265-2.0269,4.7865-5.0008,4.7397-3.0976-.0487-5.2086-1.8905-5.1613-5.0579.0432-2.8974,1.9672-4.7402,4.931-4.7368,3.1601.0036,4.8822,1.8818,5.2311,5.0549Z"/><text class="cls-1" transform="translate(16.0863 581.8384)"><tspan x="0" y="0">C</tspan><tspan class="cls-4" x="79.8665" y="0">R</tspan><tspan class="cls-3" x="156.8608" y="0">A</tspan><tspan x="231.4423" y="0">TERMAKER</tspan></text><text/></svg>