<?xml version="1.0" encoding="UTF-8"?>
<svg id="Layer_1" data-name="Layer 1" xmlns="http://www.w3.org/2000/svg" viewBox="0 0 1280 640">
  <defs>
    <style>
      .cls-1 {
        fill: #3a3a3a;
        stroke-width: 0px;
      }
    </style>
  </defs>
  <g>
    <path class="cls-1" d="M678.53,435.95c13.51-12.44,26.74-24.5,39.78-36.75,2.32-2.18,4.38-2.58,7.24-1.68,11.25,3.52,22.55,6.89,33.82,10.37,1.72.53,3.05.96,4.74-.52,26.11-22.88,48.68-48.47,62.31-80.97,8.23-19.62,13.06-40.08,14.73-61.3.12-1.58.34-3.19.78-4.7,1.91-6.56,7.17-10.19,13.19-9.22,5.91.96,10.39,6.84,9.84,13.4-3.4,40.11-15.38,77.26-38.31,110.58-34.53,50.15-81.75,82.21-140.97,94.31-87.1,17.79-160.95-7.27-219.42-74.81-25.57-29.54-42.62-63.92-48.38-102.8-10.29-69.45,7.02-131.64,51.94-185.78,34.23-41.26,77.74-67.31,130.27-77.34,33.87-6.47,67.68-4.45,100.87,5.34,7.96,2.35,12.24,8.19,10.73,14.14-1.65,6.5-9.3,10.55-17.05,8.43-23-6.3-46.36-9.09-70.14-7.37-33.21,2.41-63.36,13.82-91.23,31.8-22.61,14.59-40.84,33.64-56.65,55.21-1.79,2.45-3.38,5.14-5.54,7.22-7.89,7.59-8.81,17.65-10.25,27.59-2.11,14.56-4.26,29.12-6.54,43.66-.37,2.35.14,3.87,1.89,5.41,7.2,6.34,14.23,12.86,21.46,19.17,2.21,1.93,3.21,3.87,3.17,6.94-.19,15.19-.09,30.39-.09,46.35,8.4-.52,16.45-.98,24.48-1.53,10.83-.74,21.66-1.5,32.48-2.36,1.92-.15,3.34.31,4.74,1.6,17.23,15.98,34.47,31.95,51.8,47.83,1.67,1.53,1.81,3.18,1.8,5.13-.05,12.81-.02,25.62-.12,38.43-.02,2.4.38,4.06,2.67,5.51,26.32,16.61,53.07,32.49,79.97,48.71Z"/>
    <path class="cls-1" d="M689.58,109.51c31.62-.4,58.29,25.93,58.7,57.95.4,31.33-25.78,58.35-56.88,58.71-33.12.38-59.24-24.13-60.54-55.2-1.27-30.32,23.35-62.98,58.72-61.46Z"/>
    <path class="cls-1" d="M690.56,287.56c.12-16.31,12.97-29.16,29.19-29.17,16.45-.01,29.69,13.47,29.52,30.06-.16,15.9-13.21,28.42-29.51,28.28-16.37-.13-29.32-13.07-29.21-29.18Z"/>
    <path class="cls-1" d="M533.08,181.05c12.16-.08,22.05,9.75,22.31,22.15.23,11.28-10.38,21.46-22.49,21.57-11.82.11-20.93-9.1-21.14-21.36-.21-12.38,9.22-22.27,21.32-22.35Z"/>
    <path class="cls-1" d="M570.21,151.12c-10.97-.11-20.59-9.76-20.48-20.53.11-11.57,9.47-20.45,21.51-20.42,11.23.02,20.73,9.76,20.48,20.98-.25,11.17-9.86,20.09-21.51,19.97Z"/>
    <path class="cls-1" d="M619.63,307.07c-11.16,0-20.02-8.82-20.05-19.98-.04-12.16,8.77-21.43,20.33-21.4,11.41.03,21,9.78,20.84,21.17-.16,11.39-9.37,20.2-21.12,20.21Z"/>
    <path class="cls-1" d="M695.54,372.5c.02,10.86-8.56,19.75-19.15,19.84-11.79.1-20.96-8.77-20.94-20.22.03-10.43,9.37-19.67,20.02-19.78,10.77-.12,20.04,9.21,20.06,20.17Z"/>
    <path class="cls-1" d="M819.07,154.3c-.14-5.09,1.13-9.83,3.63-14.23,3.82-6.72,10.61-7.17,14.9-.69,2.63,3.97,4.52,8.43,6.64,12.73,3.05,6.16,5.95,12.39,9.02,18.54,2.88,5.77.47,10.38-6.02,10.4-14.61.04-28.73-11.82-28.18-26.73Z"/>
    <path class="cls-1" d="M636.34,224.9c-16.13,10.32-31.77,20.32-48.38,30.95,0-7.13,0-13.23,0-19.33,0-1.77,1.49-2.34,2.66-3.08,9.78-6.28,19.6-12.5,29.37-18.8,1.44-.93,2.6-1.62,4.2-.19,3.79,3.39,7.7,6.64,12.14,10.45Z"/>
    <path class="cls-1" d="M771.36,90.97c-.17-2.28.38-4.48,1.13-6.57,2.94-8.22,7.84-9.48,14.31-3.66,5.21,4.7,10.32,9.51,15.49,14.26,2.38,2.18,4.92,4.27,3.81,8.09-1.17,4.03-3.98,6.52-7.84,7.7-12.55,3.83-26.8-6.72-26.9-19.82Z"/>
    <path class="cls-1" d="M510.32,129.91c7.73.08,14.14,6.65,14.15,14.49,0,7.91-6.41,14.17-14.4,14.07-7.41-.09-13.46-6.33-13.48-13.88-.01-8.29,6.04-14.77,13.73-14.69Z"/>
    <path class="cls-1" d="M619.66,337.21c6.17,5.62,11.55,10.55,16.97,15.42,1.21,1.09,1.39,2.36,1.38,3.87-.04,9.44-.02,18.88-.02,29.3-6.11-3.87-11.67-7.39-17.24-10.91-1.12-.71-1.11-1.83-1.11-2.97.01-11.2,0-22.39,0-34.71Z"/>
    <path class="cls-1" d="M748.77,380.65c5.49-5.84,10.47-10.97,15.22-16.28,1.79-2,3.56-2.1,5.91-1.42,5.02,1.45,10.09,2.68,15.84,4.18-5.48,6.24-11.05,12.11-17.03,17.58-.8.74-1.75.43-2.7.19-5.53-1.39-11.07-2.73-17.24-4.25Z"/>
    <path class="cls-1" d="M801.66,231c6.19-.02,11.51,5.38,11.48,11.63-.03,6.23-5.1,11.18-11.37,11.09-6.25-.09-11.25-5.17-11.16-11.33.09-6.41,4.91-11.37,11.05-11.39Z"/>
    <path class="cls-1" d="M783.08,336.04c-6.12-.02-11.02-5.05-11.09-11.37-.06-5.9,4.99-10.98,10.91-10.96,5.86.02,11.07,5.36,11.16,11.46.08,5.86-4.99,10.89-10.97,10.87Z"/>
    <path class="cls-1" d="M530.6,266.03c-9.4.89-17.57,1.67-26.08,2.48v-26.87c8.81,8.24,16.99,15.89,26.08,24.39Z"/>
    <path class="cls-1" d="M494.98,224.58c-5.59-4.9-10.32-9.05-15.06-13.2-.77-.67-1.09-1.47-1.03-2.51.37-6.44.71-12.89,1.1-20.2,5.19,4.7,9.73,8.8,14.26,12.91.79.72.72,1.71.72,2.67,0,6.37,0,12.73,0,20.33Z"/>
    <path class="cls-1" d="M611.51,81.91c5.97-.05,10.47,4.52,10.44,10.6-.03,5.73-4.56,10.63-9.97,10.78-5.56.15-10.6-4.82-10.73-10.59-.13-6.07,4.31-10.74,10.26-10.79Z"/>
    <path class="cls-1" d="M559.26,265.78c-5.7-.01-9.85-4.56-9.72-10.66.11-5.28,4.22-9.52,9.32-9.62,5.23-.1,10.23,5.12,10.14,10.6-.08,5.35-4.45,9.69-9.74,9.68Z"/>
    <path class="cls-1" d="M731.88,354.72c.09,4.15-4.05,8.63-7.96,8.63-4.33,0-8.61-4.1-8.82-8.46-.21-4.31,3.52-8.53,7.7-8.73,4.55-.21,8.98,3.96,9.08,8.56Z"/>
    <path class="cls-1" d="M791.51,165.82c.04,4.21-3.28,7.75-7.4,7.87-4.46.13-8.26-3.65-8.2-8.17.05-4.53,3.5-8.25,7.63-8.24,4.32.01,7.92,3.88,7.97,8.55Z"/>
    <path class="cls-1" d="M799.92,282.92c-.14,4.23-3.97,7.92-8.11,7.83-4.19-.09-7.81-4.04-7.55-8.23.28-4.51,3.8-7.7,8.25-7.46,4.05.22,7.54,3.92,7.41,7.86Z"/>
    <path class="cls-1" d="M653.56,260.66c-3.7-.13-6.92-3.56-6.85-7.3.07-3.95,3.51-7.52,7.24-7.51,3.72,0,7.12,3.63,7.12,7.59,0,3.77-3.72,7.35-7.51,7.22Z"/>
    <path class="cls-1" d="M652.23,319.68c-.02-3.6,2.98-6.89,6.41-7.01,3.75-.13,7.44,3.39,7.48,7.15.04,3.7-3.33,7.08-6.99,7.01-3.64-.07-6.87-3.42-6.9-7.15Z"/>
    <path class="cls-1" d="M604.45,190.51c-.14,3.59-3.74,6.96-7.28,6.81-3.6-.15-6.51-3.66-6.28-7.59.21-3.64,3.45-6.81,6.79-6.63,3.48.18,6.9,3.93,6.76,7.4Z"/>
    <path class="cls-1" d="M766.3,239.34c-.11,3.21-3.24,6.3-6.29,5.91-3.51-.44-5.37-2.61-5.33-6.2.05-3.66,2.23-5.63,5.63-5.93,3.13-.28,6.1,3.03,5.99,6.22Z"/>
    <path class="cls-1" d="M540.16,105.96c-.5,2.83-2.03,4.79-5,4.74-3.1-.05-5.21-1.89-5.16-5.06.04-2.9,1.97-4.74,4.93-4.74,3.16,0,4.88,1.88,5.23,5.05Z"/>
  </g>
  <g>
    <path class="cls-1" d="M211.83,570.16c0-21.46,17.12-38.27,39.46-38.27,12.66,0,23.64,5.4,30.78,13.98l-12.39,9.7c-4.28-5.35-10.95-8.58-18.44-8.58-12.92,0-23.39,9.59-23.39,23.14s10.47,23.14,23.39,23.14c7.61,0,14.37-3.33,18.64-8.84l12.57,9.49c-7.13,8.83-18.28,14.39-31.17,14.39-22.34,0-39.46-16.7-39.46-38.15Z"/>
    <path class="cls-1" d="M340.17,606.84l-28.18-30.78v30.78h-16.14v-73.54h34.99c17.01,0,27.74,8.65,27.74,23.42s-8.68,21.9-24.59,22.44l27.65,27.69h-21.47ZM311.99,565.77h20.15c6.1,0,9.98-3.02,9.98-9.06s-3.88-8.99-9.98-8.99h-20.15v18.05Z"/>
    <path class="cls-1" d="M404.31,530.11l42.13,76.71h-17.29l-7.44-13.87h-35.06l-7.4,13.87h-17.62l42.68-76.71ZM414.55,579.6l-10.42-19.42-10.35,19.42h20.77Z"/>
    <path class="cls-1" d="M463.02,547.97h-23.35l-.09-14.68h62.65v14.68h-23.33v58.87h-15.89v-58.87Z"/>
    <path class="cls-1" d="M514.53,533.29h57.98v14.66h-41.93v12.86l29.44.07v14.2h-29.44v17.06h42.02v14.69h-58.07v-73.54Z"/>
    <path class="cls-1" d="M632.67,606.84l-28.18-30.78v30.78h-16.14v-73.54h34.99c17.01,0,27.74,8.65,27.74,23.42s-8.68,21.9-24.59,22.44l27.65,27.69h-21.47ZM604.48,565.77h20.15c6.1,0,9.98-3.02,9.98-9.06s-3.88-8.99-9.98-8.99h-20.15v18.05Z"/>
    <path class="cls-1" d="M683.6,562.42v44.42h-16.05v-73.54h16.08l25.73,47.09,26.18-47.09h15.66v73.54h-16.05v-44.23l-25.6,46.52-25.95-46.71Z"/>
    <path class="cls-1" d="M802.76,530.11l42.13,76.71h-17.29l-7.44-13.87h-35.06l-7.4,13.87h-17.62l42.68-76.71ZM812.99,579.6l-10.42-19.42-10.35,19.42h20.77Z"/>
    <path class="cls-1" d="M903.2,606.84l-33.32-36.74v36.74h-16.14v-73.54h16.14v29.04l27.19-29.04h21.5l-32.1,32.97,37.87,40.58h-21.15Z"/>
    <path class="cls-1" d="M930.88,533.29h57.98v14.66h-41.93v12.86l29.44.07v14.2h-29.44v17.06h42.02v14.69h-58.07v-73.54Z"/>
    <path class="cls-1" d="M1049.02,606.84l-28.18-30.78v30.78h-16.14v-73.54h34.99c17.01,0,27.74,8.65,27.74,23.42s-8.68,21.9-24.59,22.44l27.65,27.69h-21.47ZM1020.83,565.77h20.15c6.1,0,9.98-3.02,9.98-9.06s-3.88-8.99-9.98-8.99h-20.15v18.05Z"/>
  </g>
</svg>