<?xml version="1.0" encoding="UTF-8"?><svg id="Layer_1" xmlns="http://www.w3.org/2000/svg" xmlns:xlink="http://www.w3.org/1999/xlink" viewBox="0 0 200 150"><defs><style>.cls-1,.cls-2,.cls-3{fill:none;}.cls-4{fill:url(#radial-gradient-2);}.cls-5{fill:#414042;}.cls-6{stroke:#231f20;stroke-width:2px;}.cls-6,.cls-7{fill:#231f20;}.cls-6,.cls-8,.cls-2,.cls-3{stroke-miterlimit:10;}.cls-9{fill:url(#radial-gradient);}.cls-8{fill:url(#linear-gradient);stroke:#eaeaea;}.cls-8,.cls-3{stroke-width:.25px;}.cls-10{clip-path:url(#clippath-1);}.cls-11{clip-path:url(#clippath-2);}.cls-2{stroke-width:1.5495px;}.cls-2,.cls-3{stroke:#414042;}.cls-12{clip-path:url(#clippath);}</style><linearGradient id="linear-gradient" x1=".0983" y1="12.8857" x2="22.2447" y2="12.8857" gradientUnits="userSpaceOnUse"><stop offset="0" stop-color="#fff23b"/><stop offset=".0401" stop-color="#fee52d"/><stop offset=".1171" stop-color="#fcd41b"/><stop offset=".1964" stop-color="#fcc90f"/><stop offset=".2809" stop-color="#fcc60c"/><stop offset=".6685" stop-color="#f28f3f"/><stop offset=".8876" stop-color="#ec683c"/><stop offset="1" stop-color="#e83e3a"/></linearGradient><symbol id="Brush_Stroke_2" viewBox="0 0 22.3697 25.8122"><path class="cls-8" d="M6.0369,6.8847c1.5671,2.0008,11.1807,10.4092,14.0703,13.918.7726.9381,2.6834,5.4435,1.9878,4.8267C14.2107,18.6376,5.3615,6.7922.0983.0842l2.6678,2.9251c1.0506,1.5606,3.2707,3.8753,3.2707,3.8753Z"/></symbol><clipPath id="clippath"><rect class="cls-1" x="-26.3026" y="3.0648" width="253.2682" height="126.2157"/></clipPath><clipPath id="clippath-1"><path class="cls-1" d="M38.914,66.1726c0,33.8069,27.4973,61.2146,61.4175,61.2146s61.4175-27.4077,61.4175-61.2146S134.2517,4.958,100.3315,4.958s-61.4175,27.4065-61.4175,61.2146"/></clipPath><radialGradient id="radial-gradient" cx="-1.437" cy=".0458" fx="-1.437" fy=".0458" r=".6519" gradientTransform="translate(245.4287 -89.5838) rotate(-47.463) scale(126.4106 -126.4472) skewX(-.1889)" gradientUnits="userSpaceOnUse"><stop offset="0" stop-color="#fff"/><stop offset=".7248" stop-color="#fff"/><stop offset=".7777" stop-color="#e0e0e1"/><stop offset=".8921" stop-color="#949495"/><stop offset=".9975" stop-color="#4a494b"/><stop offset="1" stop-color="#4a494b"/></radialGradient><clipPath id="clippath-2"><rect class="cls-1" x="-26.3026" y="3.0648" width="253.2682" height="126.2157"/></clipPath><radialGradient id="radial-gradient-2" cx="244.4319" cy="56.2971" fx="244.4319" fy="56.2971" r="8.1434" gradientTransform="translate(35.6858 -64.6426) rotate(41.2503) scale(.8376) skewX(-.77)" gradientUnits="userSpaceOnUse"><stop offset=".7248" stop-color="#fff"/><stop offset=".777" stop-color="#e1e1e1"/><stop offset=".8896" stop-color="#969697"/><stop offset=".9975" stop-color="#4a494b"/></radialGradient></defs><g class="cls-12"><g class="cls-10"><polygon class="cls-9" points="-22.259 71.6302 94.8558 -56.0128 222.922 60.7151 105.8071 188.3581 -22.259 71.6302"/></g><g class="cls-11"><ellipse class="cls-2" cx="100.3315" cy="66.1726" rx="61.4175" ry="61.2146"/><path class="cls-5" d="M72.2638,58.3909c.58,4.232,4.4917,7.1956,8.739,6.6175,4.246-.5781,7.2194-4.4769,6.6394-8.7101-.58-4.232-4.493-7.1956-8.739-6.6175-4.246.5781-7.2194,4.4781-6.6394,8.7101"/><path class="cls-2" d="M72.2638,58.3909c.58,4.232,4.4917,7.1956,8.739,6.6175,4.246-.5781,7.2194-4.4769,6.6394-8.7101-.58-4.232-4.493-7.1956-8.739-6.6175-4.246.5781-7.2194,4.4781-6.6394,8.7101Z"/><path class="cls-5" d="M89.4272,15.8891c.1228,1.8251,3.2444,3.1024,6.9737,2.855,3.7281-.2486,6.6521-1.9286,6.5305-3.7537-.1228-1.8251-3.2444-3.1036-6.9737-2.855-3.7294.2486-6.6534,1.9286-6.5305,3.7537"/><path class="cls-2" d="M89.4272,15.8891c.1228,1.8251,3.2444,3.1024,6.9737,2.855,3.7281-.2486,6.6521-1.9286,6.5305-3.7537-.1228-1.8251-3.2444-3.1036-6.9737-2.855-3.7294.2486-6.6534,1.9286-6.5305,3.7537Z"/><path class="cls-5" d="M145.8802,54.6675c-2.6555.8734-3.7927,4.6498-2.539,8.435,1.2537,3.7839,4.4221,6.1442,7.0776,5.2708,2.6555-.8747,3.7927-4.6498,2.539-8.435-1.2537-3.7839-4.4221-6.1442-7.0776-5.2708"/><path class="cls-2" d="M145.8802,54.6675c-2.6555.8734-3.7927,4.6498-2.539,8.435,1.2537,3.7839,4.4221,6.1442,7.0776,5.2708,2.6555-.8747,3.7927-4.6498,2.539-8.435-1.2537-3.7839-4.4221-6.1442-7.0776-5.2708Z"/><path class="cls-5" d="M130.4262,24.2781c-.7446.8722.1393,2.8399,1.9742,4.3948,1.8337,1.555,3.9244,2.1078,4.669,1.2356.7446-.8734-.1393-2.8411-1.9742-4.3948-1.8337-1.555-3.9244-2.1078-4.669-1.2356"/><path class="cls-2" d="M130.4262,24.2781c-.7446.8722.1393,2.8399,1.9742,4.3948,1.8337,1.555,3.9244,2.1078,4.669,1.2356.7446-.8734-.1393-2.8411-1.9742-4.3948-1.8337-1.555-3.9244-2.1078-4.669-1.2356Z"/><path class="cls-5" d="M101.459,82.5519c-.333,1.0968.29,2.2542,1.3892,2.5849,1.1005.3319,2.2617-.289,2.5935-1.3846.333-1.0968-.2887-2.2542-1.3892-2.5849-1.0992-.3319-2.2604.2878-2.5935,1.3846"/><path class="cls-2" d="M101.459,82.5519c-.333,1.0968.29,2.2542,1.3892,2.5849,1.1005.3319,2.2617-.289,2.5935-1.3846.333-1.0968-.2887-2.2542-1.3892-2.5849-1.0992-.3319-2.2604.2878-2.5935,1.3846Z"/><path class="cls-5" d="M47.0388,62.2029c-.371,1.7645.0798,3.351,1.0067,3.5454.9282.1931,1.9806-1.0791,2.3516-2.8436s-.0798-3.351-1.0067-3.5454c-.9282-.1931-1.9806,1.0791-2.3516,2.8436"/><path class="cls-2" d="M47.0388,62.2029c-.371,1.7645.0798,3.351,1.0067,3.5454.9282.1931,1.9806-1.0791,2.3516-2.8436s-.0798-3.351-1.0067-3.5454c-.9282-.1931-1.9806,1.0791-2.3516,2.8436Z"/><path class="cls-5" d="M89.4312,110.2966c-.333,1.0981,1.4766,2.6139,4.0409,3.3864,2.5643.7724,4.9121.5086,5.2452-.5882.333-1.0981-1.4753-2.6152-4.0396-3.3876-2.5643-.7724-4.9134-.5086-5.2464.5894"/><path class="cls-2" d="M89.4312,110.2966c-.333,1.0981,1.4766,2.6139,4.0409,3.3864,2.5643.7724,4.9121.5086,5.2452-.5882.333-1.0981-1.4753-2.6152-4.0396-3.3876-2.5643-.7724-4.9134-.5086-5.2464.5894Z"/><path class="cls-5" d="M132.3057,104.5388c.9789,1.3013,4.3663.4203,7.5664-1.9702,3.2-2.3893,5.0008-5.3818,4.0219-6.6844-.9789-1.3013-4.3663-.419-7.5664,1.9702-3.2,2.3893-5.0008,5.3831-4.0219,6.6844"/><path class="cls-2" d="M132.3057,104.5388c.9789,1.3013,4.3663.4203,7.5664-1.9702,3.2-2.3893,5.0008-5.3818,4.0219-6.6844-.9789-1.3013-4.3663-.419-7.5664,1.9702-3.2,2.3893-5.0008,5.3831-4.0219,6.6844Z"/><path class="cls-5" d="M136.9471,54.6527c-.333,1.0968.29,2.2542,1.3892,2.5849,1.1005.3319,2.2617-.289,2.5935-1.3846.333-1.0968-.2887-2.2542-1.3892-2.5849-1.0992-.3319-2.2604.2878-2.5935,1.3846"/><path class="cls-2" d="M136.9471,54.6527c-.333,1.0968.29,2.2542,1.3892,2.5849,1.1005.3319,2.2617-.289,2.5935-1.3846.333-1.0968-.2887-2.2542-1.3892-2.5849-1.0992-.3319-2.2604.2878-2.5935,1.3846Z"/><path class="cls-5" d="M52.1593,38.8594c.9979.8999,4.3663-1.1927,7.5221-4.6725,3.1557-3.4798,4.9045-7.029,3.9067-7.9289-.9979-.8987-4.3663,1.1927-7.5221,4.6725-3.1557,3.4798-4.9045,7.029-3.9067,7.9289"/><path class="cls-2" d="M52.1593,38.8594c.9979.8999,4.3663-1.1927,7.5221-4.6725,3.1557-3.4798,4.9045-7.029,3.9067-7.9289-.9979-.8987-4.3663,1.1927-7.5221,4.6725-3.1557,3.4798-4.9045,7.029-3.9067,7.9289Z"/><path class="cls-5" d="M56.7852,88.2387c-1.3373,1.5676-.114,4.7949,2.7328,7.2082,2.8467,2.4132,6.2393,3.0986,7.5778,1.5297,1.3373-1.5676.114-4.7949-2.7328-7.2082-2.848-2.4132-6.2405-3.0973-7.5778-1.5297"/><path class="cls-2" d="M56.7852,88.2387c-1.3373,1.5676-.114,4.7949,2.7328,7.2082,2.8467,2.4132,6.2393,3.0986,7.5778,1.5297,1.3373-1.5676.114-4.7949-2.7328-7.2082-2.848-2.4132-6.2405-3.0973-7.5778-1.5297Z"/><path class="cls-5" d="M81.055,70.7482c-.333,1.0968.29,2.2542,1.3892,2.5849,1.1005.3319,2.2617-.289,2.5935-1.3846.333-1.0968-.2887-2.2542-1.3892-2.5849-1.1004-.3319-2.2604.2878-2.5935,1.3846"/><path class="cls-2" d="M81.055,70.7482c-.333,1.0968.29,2.2542,1.3892,2.5849,1.1005.3319,2.2617-.289,2.5935-1.3846.333-1.0968-.2887-2.2542-1.3892-2.5849-1.1004-.3319-2.2604.2878-2.5935,1.3846Z"/><path class="cls-5" d="M114.5306,23.1042c-.333,1.0968.29,2.2542,1.3892,2.5849,1.1005.3319,2.2617-.289,2.5935-1.3846.333-1.0968-.2887-2.2542-1.3892-2.5849-1.0992-.3319-2.2604.2878-2.5935,1.3846"/><path class="cls-2" d="M114.5306,23.1042c-.333,1.0968.29,2.2542,1.3892,2.5849,1.1005.3319,2.2617-.289,2.5935-1.3846.333-1.0968-.2887-2.2542-1.3892-2.5849-1.0992-.3319-2.2604.2878-2.5935,1.3846Z"/><path class="cls-5" d="M136.1082,77.6624c-.333,1.0968.29,2.2542,1.3892,2.5849,1.1005.3319,2.2617-.289,2.5935-1.3846.333-1.0968-.2887-2.2542-1.3892-2.5849-1.0992-.3319-2.2604.2878-2.5935,1.3846"/><path class="cls-2" d="M136.1082,77.6624c-.333,1.0968.29,2.2542,1.3892,2.5849,1.1005.3319,2.2617-.289,2.5935-1.3846.333-1.0968-.2887-2.2542-1.3892-2.5849-1.0992-.3319-2.2604.2878-2.5935,1.3846Z"/><path class="cls-5" d="M108.6493,45.0834c-1.9907,4.5311.7243,10.0935,6.0645,12.4247,5.3402,2.3312,11.2844.5478,13.2751-3.9834,1.9907-4.5311-.7244-10.0935-6.0658-12.4247-5.3402-2.3312-11.2831-.5478-13.2738,3.9834"/><path class="cls-2" d="M108.6493,45.0834c-1.9907,4.5311.7243,10.0935,6.0645,12.4247,5.3402,2.3312,11.2844.5478,13.2751-3.9834,1.9907-4.5311-.7244-10.0935-6.0658-12.4247-5.3402-2.3312-11.2831-.5478-13.2738,3.9834Z"/></g></g><rect class="cls-1" x="-26.3026" y="3.0648" width="252.4314" height="126.2157"/><path d="M159.0195,10.4536v1.7881h-3.9551c-1.9697,0-2.833.9849-2.833,3.333,0,2.3335.8486,3.3184,2.833,3.3184h3.9551v1.7881h-3.9551c-2.9844,0-4.6211-1.6816-4.6211-5.1064,0-3.4395,1.6514-5.1211,4.6211-5.1211h3.9551Z"/><path d="M166.5,12.6807v1.5459h-2.8184c-.7119,0-1.0303.333-1.0303,1.0303v5.4243h-1.6055v-5.667c0-1.606.5908-2.3335,2.166-2.3335h3.2881Z"/><path d="M173.1943,12.6807c2.001,0,2.7881,1.1216,2.7881,2.6367v3.7578c0,1.1514-.3027,1.606-1.6514,1.606h-3.7422c-1.8945,0-2.6816-.9243-2.6816-2.4395,0-1.4546.7266-2.3032,2.6963-2.3032h3.8037v-.606c0-.6211-.3486-1.106-1.2275-1.106h-4.7881v-1.5459h4.8027ZM174.4072,18.7114v-1.5h-3.7734c-.8486,0-1.1514.3486-1.1514.9395s.3184.9697,1.1211.9697h3.3643c.3184,0,.4395-.1211.4395-.4092Z"/><path d="M178.5391,12.6807v-1.8936h1.6211v1.8936h2.2119v1.5459h-2.2119v3.7881c0,.8936.3184,1.1968,1.0762,1.1968h1.1055v1.4697h-1.4395c-1.6514,0-2.3633-.6665-2.3633-2.7578v-3.6968h-1.0908v-1.5459h1.0908Z"/><path d="M189.1436,12.6807c1.8936,0,2.6963.9092,2.6963,2.4551,0,1.4697-.7422,2.3027-2.7119,2.3027h-3.8027v.5762c0,.6362.3477,1.106,1.2266,1.106h4.8945v1.5605h-4.8945c-2,0-2.7871-1.1211-2.7871-2.6362v-2.7275c0-1.5151.7871-2.6367,2.7871-2.6367h2.5918ZM185.3252,16.1812h3.7568c.8643,0,1.1826-.3638,1.1826-.9546,0-.6064-.3486-1-1.1367-1h-2.5762c-.8789,0-1.2266.4849-1.2266,1.106v.8486Z"/><path d="M199.2451,12.6807v1.5459h-2.8184c-.7119,0-1.0303.333-1.0303,1.0303v5.4243h-1.6055v-5.667c0-1.606.5908-2.3335,2.166-2.3335h3.2881Z"/><path d="M15.4204,2.4565v1.7881h-2.9849v8.4395h-1.8032V4.2446h-2.9849v-1.7881h7.7729Z"/><path d="M21.8267,4.6836c2,0,2.7881,1.1216,2.7881,2.6367v3.7578c0,1.1514-.3032,1.606-1.6519,1.606h-3.7422c-1.894,0-2.6821-.9243-2.6821-2.4395,0-1.4546.7275-2.3032,2.6973-2.3032h3.8027v-.606c0-.6211-.3481-1.106-1.2271-1.106h-4.7881v-1.5459h4.8032ZM23.0386,10.7144v-1.5h-3.7725c-.8486,0-1.1519.3486-1.1519.9395s.3184.9697,1.1216.9697h3.3638c.3179,0,.439-.1211.439-.4092Z"/><path d="M32.3228,4.6836v1.5459h-2.8184c-.7124,0-1.0303.333-1.0303,1.0303v5.4243h-1.6064v-5.667c0-1.606.5913-2.3335,2.167-2.3335h3.2881Z"/><path d="M39.1987,4.6836c1.9092,0,2.9395,1.1216,2.9395,3.4248v4.606c0,2.2729-.7876,3.167-3.0303,3.167h-4.7578v-1.5459h4.5762c1.1968,0,1.5908-.4697,1.5908-1.6211v-.3638h-3.5303c-2.1367,0-3.4697-1.2573-3.4697-3.8486,0-2.5757,1.333-3.8184,3.4697-3.8184h2.2119ZM37.1382,10.896h3.3789v-2.8027c0-1.3032-.5-1.8638-1.7881-1.8638h-1.5908c-1.3789,0-2,.6968-2,2.333s.6211,2.3335,2,2.3335Z"/><path d="M49.5884,4.6836c1.894,0,2.6973.9092,2.6973,2.4551,0,1.4697-.7427,2.3027-2.7124,2.3027h-3.8032v.5762c0,.6362.3486,1.106,1.2275,1.106h4.894v1.5605h-4.894c-2,0-2.7881-1.1211-2.7881-2.6362v-2.7275c0-1.5151.7881-2.6367,2.7881-2.6367h2.5908ZM45.77,8.1841h3.7578c.8638,0,1.1816-.3638,1.1816-.9546,0-.6064-.3481-1-1.1362-1h-2.5757c-.8789,0-1.2275.4849-1.2275,1.106v.8486Z"/><path d="M54.5391,4.6836v-1.8936h1.6211v1.8936h2.2124v1.5459h-2.2124v3.7881c0,.8936.3184,1.1968,1.0762,1.1968h1.106v1.4697h-1.4395c-1.6519,0-2.3638-.6665-2.3638-2.7578v-3.6968h-1.0908v-1.5459h1.0908Z"/><path d="M18.2427,24.8008h-1.2729l2.1113-5.6768c.2627-.7778.6968-1.2627,1.606-1.2627,1.0103,0,1.5151.5957,1.5151,1.4849v4.0303c0,.2324.1416.3838.3438.3838.1816,0,.3232-.1108.3838-.2827l1.6562-4.3535c.2627-.7778.6973-1.2627,1.6064-1.2627,1.0098,0,1.5151.5957,1.5151,1.4849v5.4546h-1.2021v-5.394c0-.2427-.1416-.394-.3433-.394-.1719,0-.3135.1211-.374.293l-1.6562,4.3535c-.2627.7778-.7075,1.2627-1.6162,1.2627-1.0005,0-1.5054-.5957-1.5054-1.4951v-4.02c0-.2427-.1514-.394-.3535-.394-.1816,0-.3032.1211-.3735.293l-2.0405,5.4951Z"/><path d="M32.4707,19.4673c1.4141,0,2.313.8687,2.313,2.6665s-.8989,2.667-2.313,2.667h-1.1211c-1.4243,0-2.3135-.8687-2.3135-2.667s.8892-2.6665,2.3135-2.6665h1.1211ZM31.4502,20.4976c-.9292,0-1.333.4849-1.333,1.6362s.4038,1.6265,1.333,1.6265h.9194c.9194,0,1.3335-.4746,1.3335-1.6265s-.4141-1.6362-1.3335-1.6362h-.9194Z"/><path d="M39.2456,19.4673c1.4141,0,2.313.8687,2.313,2.6665s-.8989,2.667-2.313,2.667h-1.1216c-1.4238,0-2.313-.8687-2.313-2.667s.8892-2.6665,2.313-2.6665h1.1216ZM38.2251,20.4976c-.9292,0-1.333.4849-1.333,1.6362s.4038,1.6265,1.333,1.6265h.9194c.9189,0,1.3335-.4746,1.3335-1.6265s-.4146-1.6362-1.3335-1.6362h-.9194Z"/><path d="M45.7886,19.4673c1.8081,0,2.687.8584,2.687,2.3335v3h-1.0811v-3c0-.8384-.4849-1.3032-1.606-1.3032h-1.7476c-.0908,0-.1313.0508-.1313.1514v4.1519h-1.0708v-4.5054c0-.626.2124-.8281.7476-.8281h2.2021Z"/><path d="M13.2183,119.0532v1.7881h-5.2427c-.9243,0-1.3335.5-1.3335,1.2119,0,.6211.3184,1.2124,1.5151,1.2124h2.394c2.7881,0,3.4395,1.5454,3.4395,3.0151,0,1.7271-.9238,3-3.2573,3h-5.6973v-1.7881h5.7578c.9697,0,1.4092-.5303,1.4092-1.2725,0-.667-.3486-1.2729-1.6064-1.2729h-2.3784c-2.7275,0-3.3638-1.5303-3.3638-2.9546,0-1.6973.9087-2.9395,3.1816-2.9395h5.1821Z"/><path d="M17.4565,121.2803v4.7881c0,.9395.6968,1.6519,1.9697,1.6519h1.3027c1.2729,0,1.9546-.7124,1.9546-1.6519v-4.7881h1.5762v4.8486c0,1.8486-1.1821,3.1519-3.4697,3.1519h-1.4854c-2.2876,0-3.4697-1.3032-3.4697-3.1519v-4.8486h1.6216Z"/><path d="M31.9526,121.2803v1.5459h-2.8184c-.7124,0-1.0303.333-1.0303,1.0303v5.4243h-1.6064v-5.667c0-1.606.5913-2.3335,2.167-2.3335h3.2881Z"/><path d="M34.1157,121.2803v-.7119c0-2.0908.7119-2.7578,2.3638-2.7578h1.4395v1.4697h-1.106c-.7578,0-1.0762.3032-1.0762,1.1973v.8027h2.2124v1.5459h-2.2124v6.4546h-1.6211v-6.4546h-1.0908v-1.5459h1.0908Z"/><path d="M44.2051,121.2803c2,0,2.7881,1.1216,2.7881,2.6367v3.7578c0,1.1514-.3032,1.606-1.6519,1.606h-3.7422c-1.894,0-2.6821-.9243-2.6821-2.4395,0-1.4546.7275-2.3032,2.6973-2.3032h3.8027v-.606c0-.6211-.3481-1.106-1.2271-1.106h-4.7881v-1.5459h4.8032ZM45.417,127.311v-1.5h-3.7725c-.8486,0-1.1519.3486-1.1519.9395s.3184.9697,1.1216.9697h3.3638c.3179,0,.439-.1211.439-.4092Z"/><path d="M56.4741,121.2803v1.5459h-3.9697c-1.394,0-2,.7271-2,2.4546s.606,2.4395,2,2.4395h3.9697v1.5605h-4.1211c-2.1367,0-3.4697-1.3032-3.4697-4s1.333-4.0005,3.4697-4.0005h4.1211Z"/><path d="M63.5913,121.2803c1.894,0,2.6973.9092,2.6973,2.4551,0,1.4697-.7427,2.3027-2.7124,2.3027h-3.8032v.5762c0,.6362.3486,1.106,1.2275,1.106h4.894v1.5605h-4.894c-2,0-2.7881-1.1211-2.7881-2.6362v-2.7275c0-1.5151.7881-2.6367,2.7881-2.6367h2.5908ZM59.7729,124.7808h3.7578c.8638,0,1.1816-.3638,1.1816-.9546,0-.6064-.3481-1-1.1362-1h-2.5757c-.8789,0-1.2275.4849-1.2275,1.106v.8486Z"/><path d="M9.5293,133.9194v5.9634h-1.0425v-5.9634h1.0425Z"/><path d="M15.1216,135.2178v.9014h-2.3149c-.8125,0-1.166.4243-1.166,1.4312s.3535,1.4224,1.166,1.4224h2.3149v.9102h-2.4033c-1.2456,0-2.0229-.7598-2.0229-2.3325s.7773-2.3325,2.0229-2.3325h2.4033Z"/><path d="M19.0181,135.2178c1.2368,0,2.0229.7603,2.0229,2.3325s-.7861,2.3325-2.0229,2.3325h-.981c-1.2456,0-2.0229-.7598-2.0229-2.3325s.7773-2.3325,2.0229-2.3325h.981ZM18.1255,136.1191c-.8125,0-1.166.4243-1.166,1.4312s.3535,1.4224,1.166,1.4224h.8042c.8037,0,1.166-.415,1.166-1.4224s-.3623-1.4312-1.166-1.4312h-.8042Z"/><path d="M26.0503,135.2178v.9014h-2.5796c-.4331,0-.6094.1768-.6094.5303,0,.3267.1411.5034.6626.5034h1.0952c1.29,0,1.6167.5918,1.6167,1.3164,0,.8306-.4326,1.4136-1.5283,1.4136h-2.7124v-.9102h2.7124c.4331,0,.6099-.1499.6099-.5122,0-.3711-.1943-.5215-.6626-.5215h-1.1045c-1.29,0-1.6079-.6445-1.6079-1.3604,0-.8394.4326-1.3608,1.5195-1.3608h2.5884Z"/><path d="M30.3267,135.2178c1.2368,0,2.0142.7603,2.0142,2.3325s-.7773,2.3325-2.0142,2.3325h-2.0674v1.873h-.9365v-4.541c0-1.3433.5918-1.9971,1.7139-1.9971h1.29ZM28.2593,138.9727h1.9702c.8125,0,1.166-.415,1.166-1.4224s-.3535-1.4312-1.166-1.4312h-.9189c-.7598,0-1.0513.3359-1.0513,1.1396v1.7139Z"/><path d="M34.3994,133.1948v2.0229h1.6436c1.5723,0,2.3496.7603,2.3496,2.041v2.624h-.9453v-2.624c0-.7153-.4326-1.1396-1.4043-1.1396h-1.6436v3.7637h-.9365v-6.688h.9365Z"/><path d="M42.7485,135.2178c1.1045,0,1.5728.5303,1.5728,1.4316,0,.8569-.4331,1.3428-1.5815,1.3428h-2.2173v.3359c0,.3706.2031.6445.7153.6445h2.854v.9102h-2.854c-1.166,0-1.6255-.6538-1.6255-1.5371v-1.5903c0-.8838.4595-1.5376,1.6255-1.5376h1.5107ZM40.5225,137.2588h2.1909c.5034,0,.689-.2119.689-.5566,0-.3535-.2031-.583-.6626-.583h-1.502c-.5122,0-.7153.2827-.7153.645v.4946Z"/><path d="M48.6416,135.2178v.9014h-1.6436c-.415,0-.6006.1943-.6006.6006v3.1631h-.9365v-3.3042c0-.9365.3447-1.3608,1.2632-1.3608h1.9175Z"/><path d="M52.5996,135.2178c1.1045,0,1.5728.5303,1.5728,1.4316,0,.8569-.4331,1.3428-1.5815,1.3428h-2.2173v.3359c0,.3706.2031.6445.7153.6445h2.854v.9102h-2.854c-1.166,0-1.6255-.6538-1.6255-1.5371v-1.5903c0-.8838.4595-1.5376,1.6255-1.5376h1.5107ZM50.3735,137.2588h2.1909c.5034,0,.689-.2119.689-.5566,0-.3535-.2031-.583-.6626-.583h-1.502c-.5122,0-.7153.2827-.7153.645v.4946Z"/><path d="M60.9131,133.9194c1.4048,0,1.9971.6626,1.9971,1.6343,0,.6802-.3008,1.1133-.8481,1.334.5566.23.8745.6626.8745,1.3521,0,.9541-.5918,1.6431-1.9966,1.6431h-1.458c-1.4048,0-1.9878-.689-1.9878-1.6431,0-.6895.3091-1.1221.8657-1.3521-.5474-.2207-.8481-.6538-.8481-1.334,0-.9717.5923-1.6343,1.9971-1.6343h1.4043ZM60.9663,138.8491c.6274,0,.9189-.2827.9189-.7686s-.3096-.7422-.9189-.7422h-1.5107c-.6006,0-.9189.2563-.9189.7422s.3003.7686.9189.7686h1.5107ZM60.9399,136.437c.6182,0,.9185-.2295.9185-.7241,0-.4595-.2734-.7686-.9097-.7686h-1.4668c-.6362,0-.9185.3091-.9185.7686,0,.4946.3091.7241.9272.7241h1.4492Z"/><path class="cls-4" d="M159.3632,109.2743c-1.8731,2.0787-5.0996,2.2658-7.2066.4179s-2.2967-5.0309-.4236-7.1096,5.0996-2.2658,7.2066-.4179,2.2967,5.0309.4236,7.1096Z"/><path class="cls-3" d="M159.3632,109.2743c-1.8731,2.0787-5.0996,2.2658-7.2066.4179s-2.2967-5.0309-.4236-7.1096,5.0996-2.2658,7.2066-.4179,2.2967,5.0309.4236,7.1096Z"/><use width="22.3697" height="25.8122" transform="translate(173.7512 119.8831) rotate(-110.4288) scale(.5231 -.3331) skewX(8.3181)" xlink:href="#Brush_Stroke_2"/><use width="22.3697" height="25.8122" transform="translate(188.4171 111.7371) rotate(173.1537) scale(.6675 .3148) skewX(30.7472)" xlink:href="#Brush_Stroke_2"/><use width="22.3697" height="25.8122" transform="translate(196.7541 121.3216) rotate(171.3402) scale(1.1798 .7123) skewX(12.4351)" xlink:href="#Brush_Stroke_2"/><path d="M128.6699,124.9897c2.3032,0,3.2881,1.4243,3.2881,3.0605,0,1.5454-.894,3.2124-3.2881,3.2124h-3.1816c-.167,0-.2578.0757-.2578.2573v3.6973h-1.7876v-4.0454c0-1.1519.4849-1.6216,1.606-1.6216h3.6816c1.0156,0,1.4243-.6968,1.4243-1.4092,0-.7422-.4395-1.3633-1.4092-1.3633h-5.3179v-1.7881h5.2422Z"/><path d="M138.7876,127.2168v1.5459h-2.8184c-.7124,0-1.0303.333-1.0303,1.0303v5.4243h-1.6064v-5.667c0-1.606.5913-2.3335,2.167-2.3335h3.2881Z"/><path d="M145.1333,127.2168c2.1216,0,3.4697,1.3032,3.4697,4.0005s-1.3481,4-3.4697,4h-1.6816c-2.1367,0-3.4697-1.3032-3.4697-4s1.333-4.0005,3.4697-4.0005h1.6816ZM143.603,128.7627c-1.394,0-2,.7271-2,2.4546s.606,2.4395,2,2.4395h1.3789c1.3789,0,2-.7124,2-2.4395s-.6211-2.4546-2-2.4546h-1.3789Z"/><path d="M152.3115,127.2168v8.4551c0,2.0908-.7129,2.7578-2.3491,2.7578h-1.4092v-1.5459h1.0454c.7881,0,1.0913-.3027,1.0913-1.1968v-8.4702h1.6216ZM152.3115,124.2017v1.8638h-1.6216v-1.8638h1.6216Z"/><path d="M159.8252,127.2168c1.8936,0,2.6963.9092,2.6963,2.4551,0,1.4697-.7422,2.3027-2.7119,2.3027h-3.8027v.5762c0,.6362.3477,1.106,1.2266,1.106h4.8945v1.5605h-4.8945c-2,0-2.7871-1.1211-2.7871-2.6362v-2.7275c0-1.5151.7871-2.6367,2.7871-2.6367h2.5918ZM156.0068,130.7173h3.7568c.8643,0,1.1826-.3638,1.1826-.9546,0-.6064-.3486-1-1.1367-1h-2.5762c-.8789,0-1.2266.4849-1.2266,1.106v.8486Z"/><path d="M171.7002,127.2168v1.5459h-3.9697c-1.3945,0-2.001.7271-2.001,2.4546s.6064,2.4395,2.001,2.4395h3.9697v1.5605h-4.1221c-2.1357,0-3.4697-1.3032-3.4697-4s1.334-4.0005,3.4697-4.0005h4.1221Z"/><path d="M173.8926,127.2168v-1.8936h1.6211v1.8936h2.2119v1.5459h-2.2119v3.7881c0,.8936.3184,1.1968,1.0762,1.1968h1.1055v1.4697h-1.4395c-1.6514,0-2.3633-.6665-2.3633-2.7578v-3.6968h-1.0908v-1.5459h1.0908Z"/><path d="M180.9053,124.2017v1.8638h-1.6211v-1.8638h1.6211ZM180.8906,127.2168v8.0005h-1.6064v-8.0005h1.6064Z"/><path d="M184.7988,123.7471v11.4702h-1.6064v-11.4702h1.6064Z"/><path d="M192.3125,127.2168c1.8936,0,2.6963.9092,2.6963,2.4551,0,1.4697-.7422,2.3027-2.7119,2.3027h-3.8027v.5762c0,.6362.3477,1.106,1.2266,1.106h4.8945v1.5605h-4.8945c-2,0-2.7871-1.1211-2.7871-2.6362v-2.7275c0-1.5151.7871-2.6367,2.7871-2.6367h2.5918ZM188.4941,130.7173h3.7578c.8633,0,1.1816-.3638,1.1816-.9546,0-.6064-.3486-1-1.1367-1h-2.5762c-.8789,0-1.2266.4849-1.2266,1.106v.8486Z"/><path d="M133.1914,147.334h-1.313l2.394-6.0605c.2524-.6367.7173-.8789,1.4346-.8789.707,0,1.1714.2422,1.4141.8789l2.3032,6.0605h-1.3232l-2.0708-5.4849c-.0605-.1616-.1719-.2324-.3335-.2324s-.2729.0708-.3433.2324l-2.1621,5.4849Z"/><path d="M144.8149,142.0005v1.0303h-2.9497c-.4951,0-.6968.2021-.6968.606,0,.374.1616.5762.7573.5762h1.2524c1.4751,0,1.8486.6768,1.8486,1.5049,0,.9497-.4946,1.6162-1.7476,1.6162h-3.1011v-1.0405h3.1011c.4951,0,.6973-.1714.6973-.5859,0-.4243-.2222-.5957-.7578-.5957h-1.2627c-1.4746,0-1.8384-.7373-1.8384-1.5557,0-.9595.4951-1.5557,1.7373-1.5557h2.96Z"/><path d="M146.479,142.0005v-1.2627h1.0811v1.2627h1.4746v1.0303h-1.4746v2.5254c0,.5962.2119.7979.7173.7979h.7373v.98h-.9595c-1.1011,0-1.5762-.4443-1.5762-1.8384v-2.4648h-.7271v-1.0303h.7271Z"/><path d="M153.5488,142.0005c1.2627,0,1.7979.606,1.7979,1.6362,0,.98-.4951,1.5356-1.8076,1.5356h-2.5361v.3838c0,.4243.2324.7373.8184.7373h3.2627v1.0405h-3.2627c-1.3335,0-1.8584-.7476-1.8584-1.7578v-1.8179c0-1.0103.5249-1.7578,1.8584-1.7578h1.7275ZM151.0029,144.334h2.5049c.5762,0,.7881-.2427.7881-.6367,0-.4038-.2324-.6665-.7568-.6665h-1.7178c-.5859,0-.8184.3232-.8184.7373v.5659Z"/><path d="M160.2842,142.0005v1.0303h-1.8789c-.4756,0-.6875.2222-.6875.687v3.6162h-1.0703v-3.7778c0-1.0708.3936-1.5557,1.4443-1.5557h2.1924Z"/><path d="M164.5137,142.0005c1.415,0,2.3135.8687,2.3135,2.6665s-.8984,2.667-2.3135,2.667h-1.1211c-1.4238,0-2.3125-.8687-2.3125-2.667s.8887-2.6665,2.3125-2.6665h1.1211ZM163.4941,143.0308c-.9297,0-1.334.4849-1.334,1.6362s.4043,1.6265,1.334,1.6265h.9189c.9189,0,1.333-.4746,1.333-1.6265s-.4141-1.6362-1.333-1.6362h-.9189Z"/><path d="M169.1885,139.9902v1.2427h-1.0811v-1.2427h1.0811ZM169.1787,142.0005v5.3335h-1.0713v-5.3335h1.0713Z"/><path d="M176.207,139.6875v5.3638c0,1.5352-.6865,2.2827-1.96,2.2827h-1.4746c-1.4238,0-2.3125-.8687-2.3125-2.667s.8887-2.6665,2.3125-2.6665h2.3535v-2.313h1.0811ZM175.126,145.0005v-1.9697h-2.252c-.9199,0-1.334.4849-1.334,1.6362s.4141,1.6265,1.334,1.6265h1.0605c.8584,0,1.1914-.3838,1.1914-1.293Z"/><path d="M181.1436,142.0005c1.334,0,1.8594.7476,1.8594,1.7578v2.5049c0,.7676-.2021,1.0708-1.1016,1.0708h-2.4951c-1.2627,0-1.7881-.6162-1.7881-1.6265,0-.9697.4854-1.5352,1.7988-1.5352h2.5352v-.4043c0-.4141-.2324-.7373-.8184-.7373h-3.1924v-1.0303h3.2021ZM181.9521,146.021v-1h-2.5156c-.5654,0-.7676.2319-.7676.626s.2119.6465.748.6465h2.2422c.2119,0,.293-.0806.293-.2725Z"/><path d="M185.5859,139.6875v7.6465h-1.0713v-7.6465h1.0713Z"/><rect class="cls-1" x="18.9959" y="71.1708" width="27.9965" height="8.1141"/><polygon class="cls-7" points="18.9959 76.0311 37.1852 76.0311 37.1852 79.2849 46.9924 75.228 37.1852 71.1708 37.1852 74.4243 18.9959 74.4243 18.9959 76.0311"/><polygon class="cls-7" points="20.233 74.4243 20.7722 119.3988 19.588 119.3988 18.9959 74.4243 20.233 74.4243"/><rect class="cls-1" x="154.5629" y="56.0015" width="24.8743" height="9.3707"/><polygon class="cls-7" points="179.4371 59.7592 163.2763 59.7592 163.2763 56.0015 154.5629 60.6866 163.2763 65.3722 163.2763 61.6148 179.4371 61.6148 179.4371 59.7592"/><line class="cls-6" x1="178.3879" y1="61.6148" x2="178.3879" y2="24.6278"/></svg>