<?xml version="1.0" encoding="UTF-8"?><svg id="Layer_1" xmlns="http://www.w3.org/2000/svg" xmlns:xlink="http://www.w3.org/1999/xlink" viewBox="0 0 200 150"><defs><style>.cls-1,.cls-2,.cls-3{fill:none;}.cls-4{fill:url(#radial-gradient-6);}.cls-5{fill:url(#radial-gradient-5);}.cls-6{fill:url(#radial-gradient-4);}.cls-7{fill:url(#radial-gradient-3);}.cls-8{fill:url(#radial-gradient-2);}.cls-9{fill:#414042;}.cls-10{fill:url(#linear-gradient-5);}.cls-11{fill:url(#linear-gradient-6);}.cls-12{fill:url(#linear-gradient-4);}.cls-13{fill:url(#linear-gradient-3);}.cls-14{fill:url(#linear-gradient-2);}.cls-15{fill:url(#radial-gradient);}.cls-16{fill:url(#linear-gradient);stroke:#f0f0f0;}.cls-16,.cls-2,.cls-3{stroke-miterlimit:10;}.cls-16,.cls-3{stroke-width:.25px;}.cls-17{clip-path:url(#clippath-1);}.cls-18{clip-path:url(#clippath-2);}.cls-2{stroke-width:1.5495px;}.cls-2,.cls-3{stroke:#414042;}.cls-19{clip-path:url(#clippath);}</style><linearGradient id="linear-gradient" x1=".0983" y1="12.8857" x2="22.2447" y2="12.8857" gradientUnits="userSpaceOnUse"><stop offset="0" stop-color="#fff33b"/><stop offset=".0401" stop-color="#fee62d"/><stop offset=".1171" stop-color="#fdd51b"/><stop offset=".1964" stop-color="#fdca0f"/><stop offset=".2809" stop-color="#fdc70c"/><stop offset=".6685" stop-color="#f3903f"/><stop offset=".8876" stop-color="#ed683c"/><stop offset="1" stop-color="#e93e3a"/></linearGradient><symbol id="Brush_Stroke_3" viewBox="0 0 22.3697 25.8122"><path class="cls-16" d="M6.0369,6.8847c1.5671,2.0008,11.1807,10.4092,14.0703,13.918.7726.9381,2.6834,5.4435,1.9878,4.8267C14.2107,18.6376,5.3615,6.7922.0983.0842l2.6678,2.9251c1.0506,1.5606,3.2707,3.8753,3.2707,3.8753Z"/></symbol><clipPath id="clippath"><rect class="cls-1" y="25" width="200" height="100"/></clipPath><clipPath id="clippath-1"><path class="cls-1" d="M51.5,75c0,26.785,21.714,48.5,48.5,48.5s48.5-21.715,48.5-48.5-21.714-48.5-48.5-48.5-48.5,21.714-48.5,48.5"/></clipPath><radialGradient id="radial-gradient" cx="-1.5395" cy="-.0087" fx="-1.5395" fy="-.0087" r=".5165" gradientTransform="translate(319.0061 70.6032) scale(126.2199 -126.2199)" gradientUnits="userSpaceOnUse"><stop offset="0" stop-color="#fff"/><stop offset=".7248" stop-color="#fff"/><stop offset=".7777" stop-color="#e0e0e1"/><stop offset=".8921" stop-color="#949495"/><stop offset=".9975" stop-color="#4a494b"/><stop offset="1" stop-color="#4a494b"/></radialGradient><clipPath id="clippath-2"><rect class="cls-1" y="25" width="200" height="100"/></clipPath><radialGradient id="radial-gradient-2" cx="128.2046" cy="45.4539" fx="128.2046" fy="45.4539" r="6.452" gradientTransform="translate(8.304 64.2246) rotate(-31.7513)" gradientUnits="userSpaceOnUse"><stop offset=".7248" stop-color="#fff"/><stop offset=".777" stop-color="#e1e1e1"/><stop offset=".8896" stop-color="#969697"/><stop offset=".9975" stop-color="#4a494b"/></radialGradient><radialGradient id="radial-gradient-3" cx="-187.766" cy="-229.0151" fx="-187.766" fy="-229.0151" r="6.3435" gradientTransform="translate(-67.7697 -58.2265) rotate(-90.6201) scale(.529 -.53) skewX(-2.4579)" xlink:href="#radial-gradient-2"/><radialGradient id="radial-gradient-4" cx="255.7866" cy="83.6597" fx="255.7866" fy="83.6597" r="6.5106" gradientTransform="translate(184.3516 312.7192) rotate(-84.1638) scale(.7689 -.7616) skewX(-3.2239)" xlink:href="#radial-gradient-2"/><linearGradient id="linear-gradient-2" x1="-8255.0655" y1="-7671.1125" x2="-8232.9191" y2="-7671.1125" gradientTransform="translate(2137.576 -2381.5074) rotate(-72.7379) scale(.4295 .1643) skewX(-9.8768)" gradientUnits="userSpaceOnUse"><stop offset="0" stop-color="#939598"/><stop offset=".0393" stop-color="#a9abad"/><stop offset=".0974" stop-color="#c3c5c7"/><stop offset=".1568" stop-color="#d6d8d9"/><stop offset=".2178" stop-color="#e2e3e4"/><stop offset=".2827" stop-color="#e6e7e8"/><stop offset=".6685" stop-color="#f9ed32"/><stop offset=".8876" stop-color="#ed683c"/><stop offset="1" stop-color="#f15a29"/></linearGradient><linearGradient id="linear-gradient-3" x1="-7713.8429" y1="-8358.6163" x2="-7692.7216" y2="-8358.6163" gradientTransform="translate(3808.9193 619.7185) rotate(40.7787) scale(.3489 -.2438) skewX(10.0332)" gradientUnits="userSpaceOnUse"><stop offset="0" stop-color="#939598"/><stop offset=".0393" stop-color="#a9abad"/><stop offset=".0974" stop-color="#c3c5c7"/><stop offset=".1568" stop-color="#d6d8d9"/><stop offset=".2178" stop-color="#e2e3e4"/><stop offset=".2827" stop-color="#e6e7e8"/><stop offset=".6685" stop-color="#f9ed32"/><stop offset=".8876" stop-color="#ed683c"/><stop offset="1" stop-color="#f15a29"/></linearGradient><linearGradient id="linear-gradient-4" x1="-7939.3432" y1="-8179.0535" x2="-7917.1969" y2="-8179.0535" gradientTransform="translate(5511.0235 -797.8934) rotate(43.391) scale(.6344 -.5363) skewX(-17.7421)" gradientUnits="userSpaceOnUse"><stop offset="0" stop-color="#939598"/><stop offset=".0393" stop-color="#a9abad"/><stop offset=".0974" stop-color="#c3c5c7"/><stop offset=".1568" stop-color="#d6d8d9"/><stop offset=".2178" stop-color="#e2e3e4"/><stop offset=".2827" stop-color="#e6e7e8"/><stop offset=".6685" stop-color="#f9ed32"/><stop offset=".8876" stop-color="#ed683c"/><stop offset="1" stop-color="#f15a29"/></linearGradient><linearGradient id="linear-gradient-5" x1="-7698.7194" y1="-8001.7378" x2="-7676.5731" y2="-8001.7378" gradientTransform="translate(2480.1844 2895.5162) rotate(80.9402) scale(.3489 -.2438) skewX(10.0332)" xlink:href="#linear-gradient-3"/><linearGradient id="linear-gradient-6" x1="-8660.2536" y1="-8653.7918" x2="-8644.465" y2="-8653.7918" gradientTransform="translate(-382.7975 -1802.168) rotate(152.7244) scale(.3658 .2164) skewX(-48.9495)" xlink:href="#linear-gradient-3"/><radialGradient id="radial-gradient-5" cx="-173.779" cy="-256.6585" fx="-173.779" fy="-256.6585" r="4.8" gradientTransform="translate(219.4689 -2.1993) rotate(-94.3919) scale(.4002 .6448) skewX(-4.361)" gradientUnits="userSpaceOnUse"><stop offset="0" stop-color="#939598"/><stop offset=".0393" stop-color="#a9abad"/><stop offset=".0974" stop-color="#c3c5c7"/><stop offset=".1568" stop-color="#d6d8d9"/><stop offset=".2178" stop-color="#e2e3e4"/><stop offset=".2827" stop-color="#e6e7e8"/><stop offset=".7735" stop-color="#f9ed32"/><stop offset=".8887" stop-color="#f7941d"/><stop offset="1" stop-color="#414042"/></radialGradient><radialGradient id="radial-gradient-6" cx="110.3083" cy="-92.3973" fx="110.3083" fy="-92.3973" r="6.452" gradientTransform="translate(-31.3289 232.697) rotate(-88.2367) scale(1.0473 -1.0349) skewX(-2.4085)" xlink:href="#radial-gradient-2"/></defs><g class="cls-19"><g class="cls-17"><rect class="cls-15" x="31.479" y="6.479" width="137.0421" height="137.0421" transform="translate(-22.8316 98.1817) rotate(-47.5575)"/></g><g class="cls-18"><circle class="cls-2" cx="100" cy="75" r="48.5"/><path class="cls-9" d="M77.8356,68.8346c.458,3.353,3.547,5.701,6.901,5.243,3.353-.458,5.701-3.547,5.243-6.901-.458-3.353-3.548-5.701-6.901-5.243-3.353.458-5.701,3.548-5.243,6.901"/><path class="cls-2" d="M77.8356,68.8346c.458,3.353,3.547,5.701,6.901,5.243,3.353-.458,5.701-3.547,5.243-6.901-.458-3.353-3.548-5.701-6.901-5.243-3.353.458-5.701,3.548-5.243,6.901Z"/><path class="cls-9" d="M91.3891,35.1606c.097,1.446,2.562,2.458,5.507,2.262,2.944-.197,5.253-1.528,5.157-2.974-.097-1.446-2.562-2.459-5.507-2.262s-5.254,1.528-5.157,2.974"/><path class="cls-2" d="M91.3891,35.1606c.097,1.446,2.562,2.458,5.507,2.262,2.944-.197,5.253-1.528,5.157-2.974-.097-1.446-2.562-2.459-5.507-2.262s-5.254,1.528-5.157,2.974Z"/><path class="cls-9" d="M135.9688,65.8845c-2.097.692-2.995,3.684-2.005,6.683.99,2.998,3.492,4.868,5.589,4.176,2.097-.693,2.995-3.684,2.005-6.683-.99-2.998-3.492-4.868-5.589-4.176"/><path class="cls-2" d="M135.9688,65.8845c-2.097.692-2.995,3.684-2.005,6.683.99,2.998,3.492,4.868,5.589,4.176,2.097-.693,2.995-3.684,2.005-6.683-.99-2.998-3.492-4.868-5.589-4.176Z"/><path class="cls-9" d="M123.7651,41.8072c-.588.691.11,2.25,1.559,3.482,1.448,1.232,3.099,1.67,3.687.979.588-.692-.11-2.251-1.559-3.482-1.448-1.232-3.099-1.67-3.687-.979"/><path class="cls-2" d="M123.7651,41.8072c-.588.691.11,2.25,1.559,3.482,1.448,1.232,3.099,1.67,3.687.979.588-.692-.11-2.251-1.559-3.482-1.448-1.232-3.099-1.67-3.687-.979Z"/><path class="cls-9" d="M100.8904,87.9772c-.263.869.229,1.786,1.097,2.048.869.263,1.786-.229,2.048-1.097.263-.869-.228-1.786-1.097-2.048-.868-.263-1.785.228-2.048,1.097"/><path class="cls-2" d="M100.8904,87.9772c-.263.869.229,1.786,1.097,2.048.869.263,1.786-.229,2.048-1.097.263-.869-.228-1.786-1.097-2.048-.868-.263-1.785.228-2.048,1.097Z"/><path class="cls-9" d="M57.916,71.8548c-.293,1.398.063,2.655.795,2.809.733.153,1.564-.855,1.857-2.253s-.063-2.655-.795-2.809c-.733-.153-1.564.855-1.857,2.253"/><path class="cls-2" d="M57.916,71.8548c-.293,1.398.063,2.655.795,2.809.733.153,1.564-.855,1.857-2.253s-.063-2.655-.795-2.809c-.733-.153-1.564.855-1.857,2.253Z"/><path class="cls-9" d="M91.3923,109.9592c-.263.87,1.166,2.071,3.191,2.683,2.025.612,3.879.403,4.142-.466.263-.87-1.165-2.072-3.19-2.684s-3.88-.403-4.143.467"/><path class="cls-2" d="M91.3923,109.9592c-.263.87,1.166,2.071,3.191,2.683,2.025.612,3.879.403,4.142-.466.263-.87-1.165-2.072-3.19-2.684s-3.88-.403-4.143.467Z"/><path class="cls-9" d="M125.2493,105.3973c.773,1.031,3.448.333,5.975-1.561,2.527-1.893,3.949-4.264,3.176-5.296-.773-1.031-3.448-.332-5.975,1.561-2.527,1.893-3.949,4.265-3.176,5.296"/><path class="cls-2" d="M125.2493,105.3973c.773,1.031,3.448.333,5.975-1.561,2.527-1.893,3.949-4.264,3.176-5.296-.773-1.031-3.448-.332-5.975,1.561-2.527,1.893-3.949,4.265-3.176,5.296Z"/><path class="cls-9" d="M128.9145,65.8728c-.263.869.229,1.786,1.097,2.048.869.263,1.786-.229,2.048-1.097.263-.869-.228-1.786-1.097-2.048-.868-.263-1.785.228-2.048,1.097"/><path class="cls-2" d="M128.9145,65.8728c-.263.869.229,1.786,1.097,2.048.869.263,1.786-.229,2.048-1.097.263-.869-.228-1.786-1.097-2.048-.868-.263-1.785.228-2.048,1.097Z"/><path class="cls-9" d="M61.9595,53.3599c.788.713,3.448-.945,5.94-3.702,2.492-2.757,3.873-5.569,3.085-6.282-.788-.712-3.448.945-5.94,3.702-2.492,2.757-3.873,5.569-3.085,6.282"/><path class="cls-2" d="M61.9595,53.3599c.788.713,3.448-.945,5.94-3.702,2.492-2.757,3.873-5.569,3.085-6.282-.788-.712-3.448.945-5.94,3.702-2.492,2.757-3.873,5.569-3.085,6.282Z"/><path class="cls-9" d="M65.6125,92.4828c-1.056,1.242-.09,3.799,2.158,5.711,2.248,1.912,4.927,2.455,5.984,1.212,1.056-1.242.09-3.799-2.158-5.711-2.249-1.912-4.928-2.454-5.984-1.212"/><path class="cls-2" d="M65.6125,92.4828c-1.056,1.242-.09,3.799,2.158,5.711,2.248,1.912,4.927,2.455,5.984,1.212,1.056-1.242.09-3.799-2.158-5.711-2.249-1.912-4.928-2.454-5.984-1.212Z"/><path class="cls-9" d="M84.7778,78.6252c-.263.869.229,1.786,1.097,2.048.869.263,1.786-.229,2.048-1.097.263-.869-.228-1.786-1.097-2.048-.869-.263-1.785.228-2.048,1.097"/><path class="cls-2" d="M84.7778,78.6252c-.263.869.229,1.786,1.097,2.048.869.263,1.786-.229,2.048-1.097.263-.869-.228-1.786-1.097-2.048-.869-.263-1.785.228-2.048,1.097Z"/><path class="cls-9" d="M111.2127,40.8771c-.263.869.229,1.786,1.097,2.048.869.263,1.786-.229,2.048-1.097.263-.869-.228-1.786-1.097-2.048-.868-.263-1.785.228-2.048,1.097"/><path class="cls-2" d="M111.2127,40.8771c-.263.869.229,1.786,1.097,2.048.869.263,1.786-.229,2.048-1.097.263-.869-.228-1.786-1.097-2.048-.868-.263-1.785.228-2.048,1.097Z"/><path class="cls-9" d="M128.252,84.1033c-.263.869.229,1.786,1.097,2.048.869.263,1.786-.229,2.048-1.097.263-.869-.228-1.786-1.097-2.048-.868-.263-1.785.228-2.048,1.097"/><path class="cls-2" d="M128.252,84.1033c-.263.869.229,1.786,1.097,2.048.869.263,1.786-.229,2.048-1.097.263-.869-.228-1.786-1.097-2.048-.868-.263-1.785.228-2.048,1.097Z"/><path class="cls-9" d="M106.5684,58.2911c-1.572,3.59.572,7.997,4.789,9.844,4.217,1.847,8.911.434,10.483-3.156,1.572-3.59-.572-7.997-4.79-9.844-4.217-1.847-8.91-.434-10.482,3.156"/><path class="cls-2" d="M106.5684,58.2911c-1.572,3.59.572,7.997,4.789,9.844,4.217,1.847,8.911.434,10.483-3.156,1.572-3.59-.572-7.997-4.79-9.844-4.217-1.847-8.91-.434-10.482,3.156Z"/></g></g><rect class="cls-1" x=".1962" y="18.8494" width="200" height="100"/><circle class="cls-8" cx="141.1087" cy="37.8715" r="4.8"/><circle class="cls-3" cx="141.1087" cy="37.8715" r="4.8"/><use width="22.3697" height="25.8122" transform="translate(158.7483 25.272) rotate(176.4369) scale(.4978 -.3138) skewX(8.0043)" xlink:href="#Brush_Stroke_3"/><use width="22.3697" height="25.8122" transform="translate(155.2508 9.8371) rotate(99.6741) scale(.6278 .3) skewX(30.6823)" xlink:href="#Brush_Stroke_3"/><use width="22.3697" height="25.8122" transform="translate(166.2463 4.9367) rotate(97.8368) scale(1.1098 .6787) skewX(12.3002)" xlink:href="#Brush_Stroke_3"/><path class="cls-7" d="M53.5426,32.8724c-1.3806.0741-2.4878,1.2519-2.4728,2.6306s1.1462,2.4362,2.5269,2.3621,2.4878-1.2519,2.4728-2.6306-1.1462-2.4362-2.5269-2.3621Z"/><path class="cls-3" d="M53.5426,32.8724c-1.3806.0741-2.4878,1.2519-2.4728,2.6306s1.1462,2.4362,2.5269,2.3621,2.4878-1.2519,2.4728-2.6306-1.1462-2.4362-2.5269-2.3621Z"/><use width="22.3697" height="25.8122" transform="translate(45.5967 27.1764) rotate(78.5169) scale(.2576 -.169) skewX(8.6024)" xlink:href="#Brush_Stroke_3"/><use width="22.3697" height="25.8122" transform="translate(37.5847 30.0011) rotate(2.1345) scale(.3386 .155) skewX(30.6169)" xlink:href="#Brush_Stroke_3"/><use width="22.3697" height="25.8122" transform="translate(34.1947 24.6968) rotate(.3751) scale(.5987 .3506) skewX(12.2812)" xlink:href="#Brush_Stroke_3"/><path class="cls-6" d="M139.3064,111.4991c-2.0386-.0919-3.8608,1.4924-4.07,3.5386s1.2739,3.7795,3.3126,3.8714,3.8608-1.4924,4.07-3.5386-1.2739-3.7795-3.3126-3.8714Z"/><path class="cls-3" d="M137.7206,111.7159c1.9504-.5967,4.072.4813,4.7386,2.4078s-.3741,3.972-2.3245,4.5687-4.072-.4813-4.7386-2.4078c-.6666-1.9265.3741-3.972,2.3245-4.5687Z"/><use width="22.3697" height="25.8122" transform="translate(148.1744 129.3927) rotate(-90.5495) scale(.3818 -.2527) skewX(8.7617)" xlink:href="#Brush_Stroke_3"/><use width="22.3697" height="25.8122" transform="translate(160.742 127.5871) rotate(-166.8159) scale(.5067 .2296) skewX(30.6118)" xlink:href="#Brush_Stroke_3"/><use width="22.3697" height="25.8122" transform="translate(164.2149 136.2746) rotate(-168.558) scale(.8959 .5195) skewX(12.292)" xlink:href="#Brush_Stroke_3"/><path class="cls-14" d="M52.235,79.2017c.4692-.4023,2.8269-3.3347,3.6678-4.0982.2248-.2041,1.0752-.4464.9035-.2353-1.9465,2.3934-4.6698,4.5994-6.2441,5.9519l.734-.7427c.3441-.2434.9388-.8758.9388-.8758Z"/><path class="cls-13" d="M49.7112,69.5583c.6917.1103,4.2686,1.6852,5.513,1.9305.3327.0656,1.5324-.2799,1.2721-.3919-2.95-1.2693-6.9505-1.7649-9.2716-2.1381l1.0946.2995c.5015.023,1.3919.3,1.3919.3Z"/><path class="cls-12" d="M45.223,75.8063c1.1645-.3758,7.4543-.6354,9.5616-1.2328.5634-.1597,2.4397-1.7111,1.9828-1.6878-5.1795.2637-11.8762,2.6752-15.7846,3.931l1.8762-.3852c.8291-.3679,2.3641-.6252,2.3641-.6252Z"/><path class="cls-10" d="M51.9116,63.9134c.5872.5852,3.2214,4.0877,4.2589,5.1626.2774.2874,1.5108,1.0475,1.3181.7939-2.1843-2.8746-5.6373-6.1914-7.6066-8.1564l.8792.9853c.4486.3973,1.1503,1.2145,1.1503,1.2145Z"/><path class="cls-11" d="M57.743,78.6448c.7376-2.1532-.4288-3.0778.0007-3.2643.2739-.1189.8412-.3786.903-.2713.7002,1.2161.1104,1.6433-.561,3.4042l-.5492,1.6711c.2577-.4546.2066-1.5398.2066-1.5398Z"/><ellipse class="cls-5" cx="59.1842" cy="72.0039" rx="3.1007" ry="1.9174" transform="translate(-22.7107 116.5072) rotate(-79.1018)"/><path class="cls-4" d="M65.9387,112.5767c-2.7457.0323-5.0408,2.308-5.1262,5.083s2.0712,4.9983,4.8169,4.966,5.0408-2.308,5.1262-5.083-2.0712-4.9983-4.8169-4.966Z"/><path class="cls-3" d="M65.9387,112.5767c-2.7457.0323-5.0408,2.308-5.1262,5.083s2.0712,4.9983,4.8169,4.966,5.0408-2.308,5.1262-5.083-2.0712-4.9983-4.8169-4.966Z"/><use width="22.3697" height="25.8122" transform="translate(43.1499 126.5622) rotate(10.092) scale(.5456 -.3496) skewX(9.5683)" xlink:href="#Brush_Stroke_3"/><use width="22.3697" height="25.8122" transform="translate(42.0842 144.0508) rotate(-64.5281) scale(.7061 .3257) skewX(31.2916)" xlink:href="#Brush_Stroke_3"/><use width="22.3697" height="25.8122" transform="translate(28.89 146.4637) rotate(-66.3034) scale(1.247 .7376) skewX(13.3809)" xlink:href="#Brush_Stroke_3"/></svg>