<?xml version="1.0" encoding="UTF-8"?><svg id="Layer_1" xmlns="http://www.w3.org/2000/svg" xmlns:xlink="http://www.w3.org/1999/xlink" viewBox="0 0 150 150"><defs><style>.cls-1,.cls-2{stroke-linecap:round;stroke-linejoin:round;}.cls-1,.cls-2,.cls-3,.cls-4{stroke:#414042;}.cls-1,.cls-3,.cls-4{stroke-width:3px;}.cls-1,.cls-4{fill:none;}.cls-2{fill:#fff;}.cls-3{fill:#414042;}.cls-3,.cls-4{stroke-miterlimit:10;}.cls-5{fill:url(#radial-gradient);}</style><radialGradient id="radial-gradient" cx="40.6651" cy="54.5083" fx="40.6651" fy="54.5083" r="64.5195" gradientTransform="translate(-1.8673 -.5208) scale(1.0104)" gradientUnits="userSpaceOnUse"><stop offset=".7248" stop-color="#fff"/><stop offset=".777" stop-color="#e1e1e1"/><stop offset=".8896" stop-color="#969697"/><stop offset=".9975" stop-color="#4a494b"/></radialGradient></defs><circle class="cls-5" cx="25" cy="75" r="48.5"/><circle class="cls-4" cx="25" cy="75" r="48.5"/><circle class="cls-3" cx="8.9075" cy="68.0057" r="6.1282"/><ellipse class="cls-3" cx="21.7209" cy="34.8044" rx="5.3437" ry="2.6237" transform="translate(-2.2713 1.525) rotate(-3.8214)"/><ellipse class="cls-3" cx="62.7609" cy="71.3138" rx="3.9984" ry="5.7174" transform="translate(-19.19 23.2655) rotate(-18.2667)"/><ellipse class="cls-3" cx="51.388" cy="44.0375" rx="1.643" ry="3.443" transform="translate(-15.4494 54.6578) rotate(-49.624)"/><circle class="cls-3" cx="27.4631" cy="88.4526" r="1.643"/><ellipse class="cls-3" cx="20.0589" cy="111.0675" rx="1.6455" ry="3.8305" transform="translate(-92.0618 98.1339) rotate(-73.1825)"/><ellipse class="cls-3" cx="54.8247" cy="101.969" rx="5.7174" ry="2.3338" transform="translate(-50.1944 53.241) rotate(-36.8439)"/><circle class="cls-3" cx="55.4872" cy="66.3482" r="1.643"/><ellipse class="cls-3" cx="-5.3166" cy="95.9445" rx="2.9528" ry="5.3437" transform="translate(-74.9639 29.7413) rotate(-49.624)"/><circle class="cls-3" cx="11.3506" cy="79.1006" r="1.643"/><circle class="cls-3" cx="37.7855" cy="41.3525" r="1.643"/><circle class="cls-3" cx="54.8247" cy="84.5786" r="1.643"/><ellipse class="cls-3" cx="39.2043" cy="61.635" rx="7.096" ry="8.3359" transform="translate(-32.981 72.8219) rotate(-66.35)"/><polygon class="cls-1" points="173.5 112.5 78.5 112.5 78.5 37.5 91.9019 37.5 173.5 37.5 173.5 112.5"/><line class="cls-1" x1="78.5" y1="60" x2="173.5" y2="60"/><line class="cls-1" x1="88" y1="37.5" x2="88" y2="112.5"/><rect class="cls-2" x="82.9333" y="40.625" width="10.1333" height="5"/><rect class="cls-2" x="82.9333" y="103.75" width="10.1333" height="5"/><rect class="cls-2" x="82.9333" y="96.25" width="10.1333" height="5"/><rect class="cls-2" x="82.9333" y="88.75" width="10.1333" height="5"/><rect class="cls-2" x="82.9333" y="81.25" width="10.1333" height="5"/><line class="cls-1" x1="145" y1="37.5" x2="145" y2="112.5"/><rect class="cls-2" x="139.9333" y="40.625" width="10.1333" height="5"/><rect class="cls-2" x="139.9333" y="86.25" width="10.1333" height="5"/><rect class="cls-2" x="139.9333" y="78.75" width="10.1333" height="5"/><rect class="cls-2" x="139.9333" y="71.25" width="10.1333" height="5"/><rect class="cls-2" x="139.9333" y="63.75" width="10.1333" height="5"/><line class="cls-1" x1="126" y1="37.5" x2="126" y2="112.5"/><rect class="cls-2" x="120.9333" y="40.625" width="10.1333" height="5"/><rect class="cls-2" x="120.9333" y="103.75" width="10.1333" height="5"/><rect class="cls-2" x="120.9333" y="96.25" width="10.1333" height="5"/><rect class="cls-2" x="120.9333" y="88.75" width="10.1333" height="5"/><rect class="cls-2" x="120.9333" y="81.25" width="10.1333" height="5"/><line class="cls-1" x1="107" y1="37.5" x2="107" y2="112.5"/><rect class="cls-2" x="101.9333" y="40.625" width="10.1333" height="5"/><rect class="cls-2" x="101.9333" y="103.75" width="10.1333" height="5"/><rect class="cls-2" x="101.9333" y="96.25" width="10.1333" height="5"/><rect class="cls-2" x="101.9333" y="88.75" width="10.1333" height="5"/><rect class="cls-2" x="101.9333" y="81.25" width="10.1333" height="5"/></svg>