<?xml version="1.0" encoding="UTF-8"?><svg id="Layer_1" xmlns="http://www.w3.org/2000/svg" xmlns:xlink="http://www.w3.org/1999/xlink" viewBox="0 0 200 150"><defs><style>.cls-1{fill:#414042;}.cls-1,.cls-2,.cls-3{stroke-width:3px;}.cls-1,.cls-3{stroke:#414042;stroke-miterlimit:10;}.cls-4{fill:url(#radial-gradient);}.cls-5{fill:gray;}.cls-5,.cls-2{stroke:#e6e6e6;stroke-linecap:round;stroke-linejoin:round;}.cls-2,.cls-3{fill:none;}</style><radialGradient id="radial-gradient" cx="65.4074" cy="54.5083" fx="65.4074" fy="54.5083" r="64.5195" gradientTransform="translate(-1.8673 -.5208) scale(1.0104)" gradientUnits="userSpaceOnUse"><stop offset=".7248" stop-color="#fff"/><stop offset=".777" stop-color="#e1e1e1"/><stop offset=".8896" stop-color="#969697"/><stop offset=".9975" stop-color="#4a494b"/></radialGradient></defs><circle class="cls-4" cx="50" cy="75" r="48.5"/><circle class="cls-3" cx="50" cy="75" r="48.5"/><circle class="cls-1" cx="33.9075" cy="68.0057" r="6.1282"/><ellipse class="cls-1" cx="46.7209" cy="34.8044" rx="5.3437" ry="2.6237" transform="translate(-2.2157 3.1912) rotate(-3.8214)"/><ellipse class="cls-1" cx="87.7609" cy="71.3138" rx="3.9984" ry="5.7174" transform="translate(-17.9302 31.1015) rotate(-18.2667)"/><ellipse class="cls-1" cx="76.388" cy="44.0375" rx="1.643" ry="3.443" transform="translate(-6.6444 73.7031) rotate(-49.624)"/><circle class="cls-1" cx="52.4631" cy="88.4526" r="1.643"/><ellipse class="cls-1" cx="9.2419" cy="72.1329" rx="2.5858" ry="1.3548" transform="translate(-63.2522 66.374) rotate(-78.1569)"/><ellipse class="cls-1" cx="45.0589" cy="111.0675" rx="1.6455" ry="3.8305" transform="translate(-74.295 122.0647) rotate(-73.1825)"/><ellipse class="cls-1" cx="79.8247" cy="101.969" rx="5.7174" ry="2.3338" transform="translate(-45.2011 68.232) rotate(-36.8439)"/><circle class="cls-1" cx="80.4872" cy="66.3482" r="1.643"/><ellipse class="cls-1" cx="16.4719" cy="48.3679" rx="6.7291" ry="1.924" transform="translate(-30.455 28.1529) rotate(-47.8882)"/><ellipse class="cls-1" cx="19.6834" cy="95.9445" rx="2.9528" ry="5.3437" transform="translate(-66.1589 48.7865) rotate(-49.624)"/><circle class="cls-1" cx="36.3506" cy="79.1006" r="1.643"/><circle class="cls-1" cx="62.7855" cy="41.3525" r="1.643"/><circle class="cls-1" cx="79.8247" cy="84.5786" r="1.643"/><ellipse class="cls-1" cx="64.2043" cy="61.635" rx="7.096" ry="8.3359" transform="translate(-18.0097 95.7222) rotate(-66.35)"/><polygon class="cls-2" points="198.5 112.5 103.5 112.5 103.5 37.5 116.9019 37.5 198.5 37.5 198.5 112.5"/><line class="cls-2" x1="103.5" y1="60" x2="198.5" y2="60"/><line class="cls-2" x1="113" y1="37.5" x2="113" y2="112.5"/><rect class="cls-5" x="107.9333" y="40.625" width="10.1333" height="5"/><rect class="cls-5" x="107.9333" y="103.75" width="10.1333" height="5"/><rect class="cls-5" x="107.9333" y="96.25" width="10.1333" height="5"/><rect class="cls-5" x="107.9333" y="88.75" width="10.1333" height="5"/><rect class="cls-5" x="107.9333" y="81.25" width="10.1333" height="5"/><line class="cls-2" x1="189" y1="37.5" x2="189" y2="112.5"/><rect class="cls-5" x="183.9333" y="40.625" width="10.1333" height="5"/><rect class="cls-5" x="183.9333" y="103.75" width="10.1333" height="5"/><rect class="cls-5" x="183.9333" y="96.25" width="10.1333" height="5"/><rect class="cls-5" x="183.9333" y="71.25" width="10.1333" height="5"/><rect class="cls-5" x="183.9333" y="63.75" width="10.1333" height="5"/><line class="cls-2" x1="170" y1="37.5" x2="170" y2="112.5"/><rect class="cls-5" x="164.9333" y="40.625" width="10.1333" height="5"/><rect class="cls-5" x="164.9333" y="86.25" width="10.1333" height="5"/><rect class="cls-5" x="164.9333" y="78.75" width="10.1333" height="5"/><rect class="cls-5" x="164.9333" y="71.25" width="10.1333" height="5"/><rect class="cls-5" x="164.9333" y="63.75" width="10.1333" height="5"/><line class="cls-2" x1="151" y1="37.5" x2="151" y2="112.5"/><rect class="cls-5" x="145.9333" y="40.625" width="10.1333" height="5"/><rect class="cls-5" x="145.9333" y="103.75" width="10.1333" height="5"/><rect class="cls-5" x="145.9333" y="96.25" width="10.1333" height="5"/><rect class="cls-5" x="145.9333" y="88.75" width="10.1333" height="5"/><rect class="cls-5" x="145.9333" y="81.25" width="10.1333" height="5"/><line class="cls-2" x1="132" y1="37.5" x2="132" y2="112.5"/><rect class="cls-5" x="126.9333" y="40.625" width="10.1333" height="5"/><rect class="cls-5" x="126.9333" y="103.75" width="10.1333" height="5"/><rect class="cls-5" x="126.9333" y="96.25" width="10.1333" height="5"/><rect class="cls-5" x="126.9333" y="88.75" width="10.1333" height="5"/><rect class="cls-5" x="126.9333" y="81.25" width="10.1333" height="5"/></svg>