<?xml version="1.0" encoding="UTF-8"?><svg id="Layer_1" xmlns="http://www.w3.org/2000/svg" xmlns:xlink="http://www.w3.org/1999/xlink" viewBox="0 0 200 150"><defs><style>.cls-1,.cls-2{fill:none;}.cls-3{fill:#414042;}.cls-3,.cls-2{stroke:#414042;stroke-miterlimit:10;stroke-width:3px;}.cls-4{fill:url(#radial-gradient);}</style><radialGradient id="radial-gradient" cx="122.147" cy="44.0785" fx="122.147" fy="44.0785" r="97.777" gradientTransform="translate(-1.8673 -.5208) scale(1.0104)" gradientUnits="userSpaceOnUse"><stop offset=".7248" stop-color="#fff"/><stop offset=".777" stop-color="#e1e1e1"/><stop offset=".8896" stop-color="#969697"/><stop offset=".9975" stop-color="#4a494b"/></radialGradient></defs><rect class="cls-1" y="25" width="200" height="100"/><circle class="cls-4" cx="100" cy="75" r="73.5"/><circle class="cls-2" cx="100" cy="75" r="73.5"/><circle class="cls-3" cx="75.6124" cy="64.4003" r="9.2871"/><ellipse class="cls-3" cx="95.0307" cy="14.0851" rx="8.0982" ry="3.9762" transform="translate(-.7274 6.3648) rotate(-3.8214)"/><ellipse class="cls-3" cx="157.2252" cy="69.4138" rx="6.0594" ry="8.6645" transform="translate(-13.8342 52.7788) rotate(-18.2667)"/><ellipse class="cls-3" cx="139.99" cy="28.0775" rx="2.4899" ry="5.2177" transform="translate(27.9146 116.5346) rotate(-49.624)"/><circle class="cls-3" cx="103.7328" cy="95.3869" r="2.4899"/><ellipse class="cls-3" cx="38.2326" cy="70.655" rx="3.9186" ry="2.0531" transform="translate(-38.765 93.5729) rotate(-78.1569)"/><ellipse class="cls-3" cx="92.512" cy="129.6589" rx="2.4937" ry="5.805" transform="translate(-58.3676 180.7007) rotate(-73.1825)"/><ellipse class="cls-3" cx="145.1983" cy="115.8705" rx="8.6645" ry="3.5368" transform="translate(-40.4801 110.2089) rotate(-36.8439)"/><circle class="cls-3" cx="146.2023" cy="61.8884" r="2.4899"/><ellipse class="cls-3" cx="49.1894" cy="34.6401" rx="10.1978" ry="2.9157" transform="translate(-9.4933 47.9018) rotate(-47.8882)"/><ellipse class="cls-3" cx="54.0563" cy="106.7406" rx="4.4748" ry="8.0982" transform="translate(-62.2774 78.7745) rotate(-49.624)"/><circle class="cls-3" cx="79.3148" cy="81.2143" r="2.4899"/><circle class="cls-3" cx="119.3759" cy="24.0084" r="2.4899"/><circle class="cls-3" cx="145.1983" cy="89.5161" r="2.4899"/><ellipse class="cls-3" cx="121.526" cy="54.7459" rx="10.7538" ry="12.6328" transform="translate(22.6281 144.1041) rotate(-66.35)"/></svg>