<?xml version="1.0" encoding="UTF-8"?><svg id="Layer_1" xmlns="http://www.w3.org/2000/svg" xmlns:xlink="http://www.w3.org/1999/xlink" viewBox="0 0 200 150"><defs><style>.cls-1,.cls-2,.cls-3{fill:none;}.cls-4{fill:url(#radial-gradient-2);}.cls-5{fill:url(#radial-gradient);}.cls-6{fill:url(#linear-gradient);stroke:#f0f0f0;}.cls-6,.cls-2{stroke-width:.25px;}.cls-6,.cls-2,.cls-3{stroke-miterlimit:10;}.cls-2,.cls-3{stroke:#414042;}.cls-3{stroke-width:3px;}</style><linearGradient id="linear-gradient" x1=".0983" y1="12.8857" x2="22.2447" y2="12.8857" gradientUnits="userSpaceOnUse"><stop offset="0" stop-color="#bcbec0"/><stop offset=".005" stop-color="#bebfba"/><stop offset=".0486" stop-color="#d0cd91"/><stop offset=".0931" stop-color="#ded86e"/><stop offset=".1381" stop-color="#eae154"/><stop offset=".1839" stop-color="#f2e841"/><stop offset=".2309" stop-color="#f7eb35"/><stop offset=".2809" stop-color="#f9ed32"/><stop offset=".6685" stop-color="#f3903f"/><stop offset=".8876" stop-color="#ed683c"/><stop offset="1" stop-color="#e93e3a"/></linearGradient><symbol id="Brush_Stroke_3" viewBox="0 0 22.3697 25.8122"><path class="cls-6" d="M6.0369,6.8847c1.5671,2.0008,11.1807,10.4092,14.0703,13.918.7726.9381,2.6834,5.4435,1.9878,4.8267C14.2107,18.6376,5.3615,6.7922.0983.0842l2.6678,2.9251c1.0506,1.5606,3.2707,3.8753,3.2707,3.8753Z"/></symbol><radialGradient id="radial-gradient" cx="101.0205" cy="44.0785" fx="101.0205" fy="44.0785" r="97.777" gradientTransform="translate(-.5208 -.5208) scale(1.0104)" gradientUnits="userSpaceOnUse"><stop offset=".7248" stop-color="#fff"/><stop offset=".777" stop-color="#e1e1e1"/><stop offset=".8896" stop-color="#969697"/><stop offset=".9975" stop-color="#4a494b"/></radialGradient><radialGradient id="radial-gradient-2" cx="168.9203" cy="22.2345" fx="168.9203" fy="22.2345" r="9.4844" gradientTransform="matrix(1,0,0,1,0,0)" xlink:href="#radial-gradient"/></defs><rect class="cls-1" x="-67" y=".4999" width="294" height="147"/><circle class="cls-5" cx="80" cy="75" r="73.5"/><circle class="cls-3" cx="80" cy="75" r="73.5"/><circle class="cls-4" cx="166.8513" cy="25.2089" r="7.056"/><circle class="cls-2" cx="166.8513" cy="25.2089" r="7.056"/><use width="22.3697" height="25.8122" transform="translate(192.4906 18.1059) rotate(-163.8298) scale(.6002 -.3783) skewX(8.0043)" xlink:href="#Brush_Stroke_3"/><use width="22.3697" height="25.8122" transform="translate(194.8049 -.8354) rotate(119.4075) scale(.7569 .3617) skewX(30.6823)" xlink:href="#Brush_Stroke_3"/><use width="22.3697" height="25.8122" transform="translate(199.5414 3.1589) rotate(116.1059) scale(1.0291 .6013) skewX(10.6659)" xlink:href="#Brush_Stroke_3"/></svg>