<?xml version="1.0" encoding="UTF-8"?><svg id="Layer_1" xmlns="http://www.w3.org/2000/svg" xmlns:xlink="http://www.w3.org/1999/xlink" viewBox="0 0 200 150"><defs><style>.cls-1,.cls-2,.cls-3,.cls-4,.cls-5{fill:none;}.cls-6{fill:url(#radial-gradient-2);}.cls-7{fill:url(#linear-gradient-4);}.cls-8{fill:url(#linear-gradient-3);}.cls-9{fill:#414042;}.cls-9,.cls-2,.cls-10,.cls-3,.cls-4,.cls-5{stroke-miterlimit:10;}.cls-9,.cls-3,.cls-5{stroke-width:3px;}.cls-9,.cls-4,.cls-5{stroke:#414042;}.cls-11{fill:url(#radial-gradient);}.cls-2{stroke:#e6e6e6;}.cls-10{fill:url(#linear-gradient);stroke:#f0f0f0;}.cls-10,.cls-4{stroke-width:.25px;}.cls-3{stroke:url(#linear-gradient-2);}</style><linearGradient id="linear-gradient" x1=".0983" y1="12.8857" x2="22.2447" y2="12.8857" gradientUnits="userSpaceOnUse"><stop offset="0" stop-color="#bcbec0"/><stop offset=".005" stop-color="#bebfba"/><stop offset=".0486" stop-color="#d0cd91"/><stop offset=".0931" stop-color="#ded86e"/><stop offset=".1381" stop-color="#eae154"/><stop offset=".1839" stop-color="#f2e841"/><stop offset=".2309" stop-color="#f7eb35"/><stop offset=".2809" stop-color="#f9ed32"/><stop offset=".6685" stop-color="#f3903f"/><stop offset=".8876" stop-color="#ed683c"/><stop offset="1" stop-color="#e93e3a"/></linearGradient><symbol id="Brush_Stroke_3" viewBox="0 0 22.3697 25.8122"><path class="cls-10" d="M6.0369,6.8847c1.5671,2.0008,11.1807,10.4092,14.0703,13.918.7726.9381,2.6834,5.4435,1.9878,4.8267C14.2107,18.6376,5.3615,6.7922.0983.0842l2.6678,2.9251c1.0506,1.5606,3.2707,3.8753,3.2707,3.8753Z"/></symbol><radialGradient id="radial-gradient" cx="101.0205" cy="43.0887" fx="101.0205" fy="43.0887" r="97.777" gradientTransform="translate(-.5208 -.5208) scale(1.0104)" gradientUnits="userSpaceOnUse"><stop offset=".7248" stop-color="#fff"/><stop offset=".777" stop-color="#e1e1e1"/><stop offset=".8896" stop-color="#969697"/><stop offset=".9975" stop-color="#4a494b"/></radialGradient><radialGradient id="radial-gradient-2" cx="168.9203" cy="22.2345" fx="168.9203" fy="22.2345" r="9.4844" gradientTransform="matrix(1,0,0,1,0,0)" xlink:href="#radial-gradient"/><linearGradient id="linear-gradient-2" x1="111.8303" y1="47.7451" x2="160.4294" y2="30.0565" gradientUnits="userSpaceOnUse"><stop offset=".5507" stop-color="#333"/><stop offset=".6563" stop-color="#e6e6e6"/></linearGradient><linearGradient id="linear-gradient-3" x1="112.0178" y1="48.2603" x2="160.6169" y2="30.5717" xlink:href="#linear-gradient-2"/><linearGradient id="linear-gradient-4" x1="111.6112" y1="47.1432" x2="160.2103" y2="29.4546" xlink:href="#linear-gradient-2"/></defs><rect class="cls-1" x="-67" y=".4999" width="294" height="147"/><circle class="cls-11" cx="80" cy="73.9999" r="73.5"/><circle class="cls-5" cx="80" cy="75" r="73.5"/><circle class="cls-6" cx="166.8513" cy="25.2089" r="7.056"/><circle class="cls-4" cx="166.8513" cy="25.2089" r="7.056"/><use width="22.3697" height="25.8122" transform="translate(192.4906 18.1059) rotate(-163.8298) scale(.6002 -.3783) skewX(8.0043)" xlink:href="#Brush_Stroke_3"/><use width="22.3697" height="25.8122" transform="translate(194.8049 -.8354) rotate(119.4075) scale(.7569 .3617) skewX(30.6823)" xlink:href="#Brush_Stroke_3"/><use width="22.3697" height="25.8122" transform="translate(199.5414 3.1589) rotate(116.1059) scale(1.0291 .6013) skewX(10.6659)" xlink:href="#Brush_Stroke_3"/><ellipse class="cls-9" cx="100" cy="50" rx="10.553" ry="12.8745" transform="translate(12.6346 119.766) rotate(-65.1743)"/><g id="_1_cm._Tick_Group"><path id="_1_cm._Tick_no._0" class="cls-2" d="M167.6676,148.4026h20"/><path id="_1_cm._Tick_no._1" class="cls-2" d="M167.6676,138.4026h20"/><path id="_1_cm._Tick_no._2" class="cls-2" d="M167.6676,128.4026h20"/><path id="_1_cm._Tick_no._3" class="cls-2" d="M167.6676,118.4026h20"/><path id="_1_cm._Tick_no._4" class="cls-2" d="M167.6676,108.4026h20"/><path id="_1_cm._Tick_no._5" class="cls-2" d="M167.6676,98.4026h20"/><path id="_1_cm._Tick_no._6" class="cls-2" d="M167.6676,88.4026h20"/><path id="_1_cm._Tick_no._7" class="cls-2" d="M167.6676,78.4026h20"/><path id="_1_cm._Tick_no._8" class="cls-2" d="M167.6676,68.4026h20"/><path id="_1_cm._Tick_no._9" class="cls-2" d="M167.6676,58.4026h20"/><path id="_1_cm._Tick_no._10" class="cls-2" d="M167.6676,48.4026h20"/></g><g id="_1_2_cm._Tick_Group"><path id="_1_2_cm._Tick_no._1" class="cls-2" d="M167.6676,143.4026h10"/><path id="_1_2_cm._Tick_no._3" class="cls-2" d="M167.6676,133.4026h10"/><path id="_1_2_cm._Tick_no._5" class="cls-2" d="M167.6676,123.4026h10"/><path id="_1_2_cm._Tick_no._7" class="cls-2" d="M167.6676,113.4026h10"/><path id="_1_2_cm._Tick_no._9" class="cls-2" d="M167.6676,103.4026h10"/><path id="_1_2_cm._Tick_no._11" class="cls-2" d="M167.6676,93.4026h10"/><path id="_1_2_cm._Tick_no._13" class="cls-2" d="M167.6676,83.4026h10"/><path id="_1_2_cm._Tick_no._15" class="cls-2" d="M167.6676,73.4026h10"/><path id="_1_2_cm._Tick_no._17" class="cls-2" d="M167.6676,63.4026h10"/><path id="_1_2_cm._Tick_no._19" class="cls-2" d="M167.6676,53.4026h10"/></g><g id="_1_4_cm._Tick_Group"><path id="_1_4_cm._Tick_no._1" class="cls-2" d="M167.6676,145.9026h5"/><path id="_1_4_cm._Tick_no._3" class="cls-2" d="M167.6676,140.9026h5"/><path id="_1_4_cm._Tick_no._5" class="cls-2" d="M167.6676,135.9026h5"/><path id="_1_4_cm._Tick_no._7" class="cls-2" d="M167.6676,130.9026h5"/><path id="_1_4_cm._Tick_no._9" class="cls-2" d="M167.6676,125.9026h5"/><path id="_1_4_cm._Tick_no._11" class="cls-2" d="M167.6676,120.9026h5"/><path id="_1_4_cm._Tick_no._13" class="cls-2" d="M167.6676,115.9026h5"/><path id="_1_4_cm._Tick_no._15" class="cls-2" d="M167.6676,110.9026h5"/><path id="_1_4_cm._Tick_no._17" class="cls-2" d="M167.6676,105.9026h5"/><path id="_1_4_cm._Tick_no._19" class="cls-2" d="M167.6676,100.9026h5"/><path id="_1_4_cm._Tick_no._21" class="cls-2" d="M167.6676,95.9026h5"/><path id="_1_4_cm._Tick_no._23" class="cls-2" d="M167.6676,90.9026h5"/><path id="_1_4_cm._Tick_no._25" class="cls-2" d="M167.6676,85.9026h5"/><path id="_1_4_cm._Tick_no._27" class="cls-2" d="M167.6676,80.9026h5"/><path id="_1_4_cm._Tick_no._29" class="cls-2" d="M167.6676,75.9026h5"/><path id="_1_4_cm._Tick_no._31" class="cls-2" d="M167.6676,70.9026h5"/><path id="_1_4_cm._Tick_no._33" class="cls-2" d="M167.6676,65.9026h5"/><path id="_1_4_cm._Tick_no._35" class="cls-2" d="M167.6676,60.9026h5"/><path id="_1_4_cm._Tick_no._37" class="cls-2" d="M167.6676,55.9026h5"/><path id="_1_4_cm._Tick_no._39" class="cls-2" d="M167.6676,50.9026h5"/></g><g id="_1_8_cm._Tick_Group"><path id="_1_8_cm._Tick_no._1" class="cls-2" d="M167.6676,147.1526h2.5"/><path id="_1_8_cm._Tick_no._3" class="cls-2" d="M167.6676,144.6526h2.5"/><path id="_1_8_cm._Tick_no._5" class="cls-2" d="M167.6676,142.1526h2.5"/><path id="_1_8_cm._Tick_no._7" class="cls-2" d="M167.6676,139.6526h2.5"/><path id="_1_8_cm._Tick_no._9" class="cls-2" d="M167.6676,137.1526h2.5"/><path id="_1_8_cm._Tick_no._11" class="cls-2" d="M167.6676,134.6526h2.5"/><path id="_1_8_cm._Tick_no._13" class="cls-2" d="M167.6676,132.1526h2.5"/><path id="_1_8_cm._Tick_no._15" class="cls-2" d="M167.6676,129.6526h2.5"/><path id="_1_8_cm._Tick_no._17" class="cls-2" d="M167.6676,127.1526h2.5"/><path id="_1_8_cm._Tick_no._19" class="cls-2" d="M167.6676,124.6526h2.5"/><path id="_1_8_cm._Tick_no._21" class="cls-2" d="M167.6676,122.1526h2.5"/><path id="_1_8_cm._Tick_no._23" class="cls-2" d="M167.6676,119.6526h2.5"/><path id="_1_8_cm._Tick_no._25" class="cls-2" d="M167.6676,117.1526h2.5"/><path id="_1_8_cm._Tick_no._27" class="cls-2" d="M167.6676,114.6526h2.5"/><path id="_1_8_cm._Tick_no._29" class="cls-2" d="M167.6676,112.1526h2.5"/><path id="_1_8_cm._Tick_no._31" class="cls-2" d="M167.6676,109.6526h2.5"/><path id="_1_8_cm._Tick_no._33" class="cls-2" d="M167.6676,107.1526h2.5"/><path id="_1_8_cm._Tick_no._35" class="cls-2" d="M167.6676,104.6526h2.5"/><path id="_1_8_cm._Tick_no._37" class="cls-2" d="M167.6676,102.1526h2.5"/><path id="_1_8_cm._Tick_no._39" class="cls-2" d="M167.6676,99.6526h2.5"/><path id="_1_8_cm._Tick_no._41" class="cls-2" d="M167.6676,97.1526h2.5"/><path id="_1_8_cm._Tick_no._43" class="cls-2" d="M167.6676,94.6526h2.5"/><path id="_1_8_cm._Tick_no._45" class="cls-2" d="M167.6676,92.1526h2.5"/><path id="_1_8_cm._Tick_no._47" class="cls-2" d="M167.6676,89.6526h2.5"/><path id="_1_8_cm._Tick_no._49" class="cls-2" d="M167.6676,87.1526h2.5"/><path id="_1_8_cm._Tick_no._51" class="cls-2" d="M167.6676,84.6526h2.5"/><path id="_1_8_cm._Tick_no._53" class="cls-2" d="M167.6676,82.1526h2.5"/><path id="_1_8_cm._Tick_no._55" class="cls-2" d="M167.6676,79.6526h2.5"/><path id="_1_8_cm._Tick_no._57" class="cls-2" d="M167.6676,77.1526h2.5"/><path id="_1_8_cm._Tick_no._59" class="cls-2" d="M167.6676,74.6526h2.5"/><path id="_1_8_cm._Tick_no._61" class="cls-2" d="M167.6676,72.1526h2.5"/><path id="_1_8_cm._Tick_no._63" class="cls-2" d="M167.6676,69.6526h2.5"/><path id="_1_8_cm._Tick_no._65" class="cls-2" d="M167.6676,67.1526h2.5"/><path id="_1_8_cm._Tick_no._67" class="cls-2" d="M167.6676,64.6526h2.5"/><path id="_1_8_cm._Tick_no._69" class="cls-2" d="M167.6676,62.1526h2.5"/><path id="_1_8_cm._Tick_no._71" class="cls-2" d="M167.6676,59.6526h2.5"/><path id="_1_8_cm._Tick_no._73" class="cls-2" d="M167.6676,57.1526h2.5"/><path id="_1_8_cm._Tick_no._75" class="cls-2" d="M167.6676,54.6526h2.5"/><path id="_1_8_cm._Tick_no._77" class="cls-2" d="M167.6676,52.1526h2.5"/><path id="_1_8_cm._Tick_no._79" class="cls-2" d="M167.6676,49.6526h2.5"/></g><line class="cls-3" x1="123.7015" y1="44.4004" x2="150.094" y2="32.8423"/><path class="cls-8" d="M126.1677,43.3203l.843-6.2693-.2181-.038-6.6682,6.7414c-2.5416,1.8503-5.0831,3.7004-7.6244,5.5514,3.0834-.6131,6.1666-1.2261,9.2503-1.8386l9.4765-.3289.1321-.1586-5.1911-3.6595Z"/><polygon class="cls-7" points="159.7953 28.5938 148.5712 40.1664 149.3688 33.1599 143.6792 28.9958 159.7953 28.5938"/></svg>