<?xml version="1.0" encoding="UTF-8"?><svg id="Layer_1" xmlns="http://www.w3.org/2000/svg" viewBox="0 0 200 150"><defs><style>.cls-1{fill:#e6e6e6;}.cls-2{fill:none;stroke:#e6e6e6;stroke-linecap:round;stroke-linejoin:round;stroke-width:2px;}</style></defs><path class="cls-1" d="M184.3425,2c.3197,3.0282.711,6.0618,1.0914,9.0118.3724,2.8873.7575,5.8729,1.0684,8.8036,4.435,41.7981,4.2086,84.8635-.671,128.0294h-4.08c.0175-.144.0341-.2885.0494-.4338.0638.0181.129.0332.1954.0451.138.0247.2781.0372.4164.0372.46,0,1.9912-.1672,2.3829-2.3185l.0112-.0607c.426-1.9542.8194-5.0845.9878-7.1667.0844-1.0437.1193-2.0482.105-3.1713.6302-.3272,1.0616-.9789,1.0787-1.7304.0311-1.3705.1888-2.742.3557-4.194.2871-2.4974.584-5.0797.2094-7.743-.0756-.5378-.3612-1.0017-.768-1.312.2469-.2821.4165-.6356.4736-1.0292.6669-4.5934.8698-9.1269.6029-13.4745-.0294-.4785-.2262-.9121-.5338-1.2418.1499-.2729.2378-.5841.2456-.9145.0279-1.1761.1196-2.3535.2166-3.6001.1607-2.0637.3248-4.1715.186-6.2965.6301-.335,1.0554-.9953,1.0618-1.7498.0091-1.0774.0513-2.1787.0921-3.2438.0941-2.4573.1914-4.9982-.091-7.5981l-.0069-.0653c-.1224-1.1728-.5901-1.8536-1.1383-2.2446.3108-.3238.5135-.7522.5509-1.228.0354-.4492.0744-.9078.114-1.3731.2968-3.4881.6332-7.4415-.2448-10.9262l-.0132-.0719c-.1983-1.1057-.7115-1.6773-1.2213-1.971l-.0369-.1694c.4883-.3558.8047-.9253.8222-1.5624.0186-.6788.0451-1.3562.0715-2.0326.128-3.2802.2603-6.672-.4931-10.0736l-.0141-.1184c-.0422-.3765-.1162-.6994-.2132-.976.022-.085.0387-.1723.0495-.2614.5056-4.1567.3538-8.548-.4076-12.0015l-.0141-.1182c-.0491-.4382-.1412-.8037-.2626-1.1082.0393-.1118.0688-.2278.0878-.3468.3321-2.0772.136-4.1338-.0535-6.1226-.1111-1.1652-.216-2.2658-.2142-3.3324.0003-.1869-.0256-.373-.077-.5527l-.8717-3.0507c-.003-.0106-.0061-.0212-.0094-.0317.2378-.3327.3708-.7347.3728-1.1533.0193-3.9958-.0741-8.2337-1.4159-12.2568-.1838-.551-.5971-.9927-1.1294-1.214-.1439-1.4848-.3289-2.9099-.5561-4.2858h1.6378M186.1514,0h-5.8558c.8448,4.0134,1.2082,8.1027,1.3146,12.1995-1.1911-.4465-1.3038-2.5959-1.5151-3.7244-.5215-2.7839-.7515-5.6468-.6779-8.4752h-3.2207c.383,3.5104.9436,6.9195.2899,10.4543C173.7681,8.1598,174.139,3.2971,173.5613,0h-3.5135c.0374,2.4785.013,4.9529-.282,7.4158-.0526.439-.0117.7201-.45.9999C166.5076,6.6644,166.3647,2.9984,165.9488,0h-.8784c.2002,2.4146,1.2923,4.6851,1.4746,7.1045.1005,1.3339-.2301,8.6953-.6578,9.531-.1827.357-.4443.502-.7231.502-.335,0-.6948-.2095-.9722-.5124-.4488-2.7837-2.4346-6.0473-2.8578-8.7089-.4179-2.6284.5235-5.2819.2228-7.9163h-.5856l-.736,7.2642c-.462-.1901-1.2034-.2123-1.5934-.4529-.7227-.4459-2.415-5.6106-2.3554-6.8113h-1.1712c.819,2.8611,2.3074,5.5464,2.6048,8.5367l-.9055,9.2657c-.3955.5597-1.0373.961-1.6265.961-.4357,0-.8426-.2195-1.0997-.7566-.7764-1.622-3.3216-7.9796-3.5875-9.5076-.448-2.5748.8233-5.8376.5154-8.4992h-.8784l-.6585,7.4781c-.2201.1883-.6773.2744-1.1752.2744-.7236,0-1.5328-.1819-1.8233-.496-.8143-.8804-2.0607-5.8747-2.7844-7.2565h-.8784c.4649,2.3757,2.1529,4.7301,2.7723,6.976,1.0026,3.6354-1.0566,9.4236-1.0561,13.3113l-3.003.5552c-.3938-.0726-.5161-.4431-.6907-.7332-.7751-1.2876-4.505-9.8979-4.6413-11.1027-.2865-2.5343,1.1176-6.3368,1.0557-9.0066h-.8784l-.9177,8.2374c-.1658.5014-1.1132.6918-2.1033.6918-.9218,0-1.8807-.1651-2.2798-.3981L127.3002,0h-.8784l4.1247,9.7254-2.1364,13.1519c-.1942.2693-1.8696.4988-3.1916.4988-.6835,0-1.2728-.0614-1.5135-.2105l-6.4921-12.683L118.8092,0h-.8784l-1.4955,10.1318c-1.0396.1247-2.0852.2744-3.1221.2744-.9629,0-1.9183-.1292-2.8538-.5275L105.3408,0h-.8784l5.4069,11.3617-3.0401,14.8726c-.2289.3723-4.8089.9867-5.8549.9867-.0565,0-.1028-.0018-.1374-.0055-.5221-.0561-1.0389-.5415-1.3088-.9777l-7.6019-13.389L94.5075,0h-.8784l-2.3454,12.1932c-.0146-.0002-.0296-.0003-.0452-.0003-1.062,0-4.3525.4455-6.5261.4455-.9645,0-1.7096-.0878-1.9417-.3412L75.476,0h-.8784l7.8234,13.4491-4.3696,17.5611-8.5924,1.1846-1.432-.8498-10.4197-15.5335L62.0075,0h-1.1711l-3.8197,15.3768-9.4696.5643-1.7129-.3372L34.4851,0h-.8784l11.0843,15.5756.3256,1.3779-6.2926,20.2109c-.7658.9262-10.74,1.3295-12.6038,1.7747l-.6511-.0907-14.6502-18.4378L17.5031,0h-.8784l-6.5103,19.6767c-.6009.7071-6.7278.5831-7.9799.654-1.3392.0758-3.9485.4797-5.9872.4797-.9786,0-1.8259-.0931-2.3377-.3602-.3756-.196-.733-.6785-1.0499-.9911C-12.1178,14.6467-18.147,7.0298-22.601,1.5903c-.3839-.4689-.782-.9722-.8867-1.5904h-1.1712L-6.5781,21.3842l-9.4656,25.0573c-6.7231.7735-13.4753,2.0476-20.22,2.5942-.7123.0577-1.4313.1833-2.1396.1833-.4729,0-.941-.056-1.3992-.2255l-18.5276-24.3097v1.1616l17.5125,22.8501.664,1.3936-9.2588,23.9498c-.626.8382-7.4679,1.6805-8.9177,1.7547v.8712c.0993.0115.2079.0168.3255.0168,1.8124,0,5.6725-1.2816,7.8116-1.2814.5254,0,.9474.0774,1.2093.2701l17.5902,21.4685.4561,1.1615-8.9355,24.9844c-.2324.2967-.557.4235-.8898.5695-3.7372,1.6389-10.1879,3.1221-14.3476,4.3553-1.0435.3094-2.1167.6855-3.2198.7268v.8712l18.6538-5.3062,17.1492,19.3335c.4362,1.0697-1.7945,4.5012-1.5463,6.0102h.8784c.0639-1.2656,1.1035-4.9759,2.0684-5.6441L-.1985,136.4676l.8822.2937c3.5244,3.4789,7.3513,6.6525,10.9677,10.0302.9051.8453,2.1995,1.9099,2.631,3.0533h1.1712c-3.8442-4.1564-8.3504-7.7034-12.4514-11.6082-.6481-.6172-2.4147-2.1132-2.3424-2.9404l8.926-25.3927,14.4974-4.7844c.5648.0575,1.6225,1.2848,2.0615,1.7429,2.9032,3.0294,5.9998,6.4368,8.7836,9.5832.5873.6638,2.6947,2.8869,2.639,3.5177l-7.6264,23.4874-13.3161,6.3946h1.7568l11.847-5.236c1.8046,1.3824,3.95,3.2622,5.1349,5.236h.8784l-5.4483-6.2393,7.3455-23.0967.818-.9311,11.2504-4.2347,1.4095,1.1034,9.8062,11.7686-6.1498,21.6299h.8784l6.0124-21.1889,9.9585-4.6602,9.1638,11.2509-3.7609,14.5981h.8784l3.6727-13.9264,8.44-4.6189,7.4406,10.0525-1.693,8.4928h.8784c.2702-1.7737.9456-6.8165,1.907-8.1273.3251-.4433,6.3309-4.0745,6.7408-4.0742.0006,0,.0012,0,.0018,0,.2486.0067.4296.0887.5682.2962,1.0713,2.5549,5.061,6.4091,5.7873,8.7937.2768.9088-.6047,2.1029-.3654,3.1115h.8784c-.6881-3.745,3.8172-5.0793,6.2775-6.9673l4.2631,6.9673h.8784l-4.6065-7.9298,3.7886-16.5487,5.0452-3.3971c.5025.108,4.7058,8.2944,4.6931,9.0359-.0755,4.397-2.8703,10.7457-3.2024,15.3635l-3.6686,3.4762h5.8559l-1.367-3.5765c1.2047-2.9309,2.0728-14.1845,3.731-16.0039.4109-.4508,3.3111-2.5079,3.8853-2.5078.0106,0,.0205.0007.0295.0022l3.965,8.0278-2.6311,14.0582h.8784c-.0278-.6073-.0237-1.2057.0746-1.8096.2959-1.8169,2.3091-11.9429,2.9807-12.729.3479-.4071,2.7119-2.3196,3.2028-2.3195.0089,0,.0173.0006.025.0019.4185.0705,3.2469,7.1958,3.2738,7.7505.1236,2.555-1.6091,6.3882-1.6515,9.1057h.8784c.6503-2.6207.7327-6.7725,1.7347-9.1693.2489-.5954,2.5725-3.0306,3.0934-3.0304.4731,2.2244,2.4399,4.7262,2.6533,6.9564.1447,1.5117-.905,3.6234-.7473,5.2434h.8784c.0904-2.905.4962-6.3485,3.3642-7.8438,1.0528,2.5344,2.0054,5.0892,2.1989,7.8438h.8784c-.3378-1.6734.742-3.3107,2.1931-4.0685l1.0276,4.0685h.8784c-.0867-1.864-1.3748-3.8397-1.4026-5.6616-.0264-1.7373,1.5362-10.746,2.2208-12.2562.2764-.6097.7599-1.4568,1.2182-1.4568.2114,0,.4174.1803.5953.6473.3276.8603,1.3047,4.4265,1.3163,5.2201.0222,1.5174-1.2686,9.347-1.7363,10.9094-.3092,1.0329-1.0704,1.6003-1.3335,2.5977h2.3424c.1746-.9146-.2339-1.8179-.2128-2.6778.0471-1.9196,1.4111-10.5908,2.3098-11.9402.218-.3273.4881-.7771.935-.7771.013,0,.0262.0004.0395.0012.0896,1.6608,1.1182,3.4552,1.1655,5.0783.086,2.9548-1.5262,7.2057-1.6018,10.3156h.8784c.6524-3.925.6018-8.299,2.3461-11.9056.5839.1111.4807.6111.5819,1.0156,1.0003,3.9964.0809,6.9226-.2929,10.89h.8784c.2204-2.6154.0602-6.3559,1.7536-8.4212.8171,2.9108.5255,5.5013.0031,8.4212h8.1982c5.0093-43.1891,5.465-86.989.8758-130.2404-.6941-6.5418-1.7162-13.0564-2.3398-19.6044h0ZM173.8512,17.4237c-2.247-.7622-2.8116-5.0144-3.1302-7.1989-.4439-3.0432-.0309-6.553.2081-9.6441,2.2449,1.2983,2.7886,5.0485,3.1448,7.4775.4569,3.1153.1481,6.2419-.2227,9.3654h0ZM179.707,18.8757c-1.4668-1.1202-1.7792-4.4357-2.0091-6.2807-.3418-2.743-.5026-5.4973-.0347-8.239,1.4187,1.3224,1.762,4.1203,2.0113,5.9882.3755,2.8148.5251,5.7176.0325,8.5315h0ZM161.5486,28.6157c-.2852,0-.5329-.1066-.702-.4599l-3.3126-9.7935,1.0971-10.8138,2.0242.7506c.5707,2.757,2.8873,6.7533,3.1138,9.4008.128,1.4965-.2844,5.1527-.4578,6.8363-.0667.6479-.3857,3.6831-.6467,3.8615-.3785.0648-.7741.2179-1.116.2179h0ZM170.1991,26.4034c-.1771-.1648-.5315-.1939-.6683-.341-.2569-.2764-2.115-6.3682-2.2806-7.1706-.7238-3.5067-.0274-7.4764.164-11.0497.0138-.0168.0358-.0246.0649-.0246.3952,0,2.0936,1.4545,2.2207,1.6753.329.5717,1.6608,6.419,1.7047,7.2512.0936,1.7726-.175,6.892-.5421,8.6018-.0863.4021-.3213.8141-.6633,1.0577h0ZM183.8062,19.7469c-.5846-.1623-.6386-.9431-.7438-1.4374-.5558-2.6125-.8187-6.2689-.943-8.9649-.0241-.5217-.1758-.8395.3735-1.2121,1.2333,3.6979,1.3319,7.737,1.3132,11.6144h0ZM150.5085,31.4187c-.4756,0-.9051-.1107-1.104-.3457l-4.0799-10.4096,1.5877-11.8091c.2645-.2299.909-.3376,1.5316-.3376.5646,0,1.1113.0887,1.3394.2553.3882.2836,3.206,8.0298,3.4341,8.9373.9579,3.8094-.5936,8.9109-.8013,12.8639-.2087.5433-1.1214.8455-1.9076.8455h0ZM135.462,35.0391c-.4661,0-.8572-.074-1.0598-.2691l-5.1389-11.31,1.8893-13.1052c.1632-.4676,1.0844-.6509,2.067-.6509.9835,0,2.0284.1837,2.4354.4497.8516,3.2941,4.2342,7.9179,4.6387,11.1071.2508,1.9772-.8962,8.5062-1.3288,10.7816-.1069.5623-.3,2.1374-.6059,2.4485-.5838.2161-1.9091.5485-2.897.5485h0ZM177.6576,26.1357c-1.9344-1.0835-2.3404-4.4958-2.5984-6.5676-.3707-2.977-.1324-6.1321.262-9.1135,1.7944,1.0791,2.0448,4.0331,2.3016,5.9901.4209,3.2065.4942,6.4803.0347,9.691h0ZM114.8384,39.982c-2.0634-3.5991-4.2935-7.2211-6.1367-10.9361-.4329-.8726-1.0633-1.7353-1.0293-2.7477l2.9506-14.9597c1.1086-.1203,2.1415-.2007,3.1776-.2007.9486,0,1.8999.0675,2.9143.2337,1.8385,4.4637,4.7736,8.5363,6.1349,13.1632l-2.6443,14.3092-5.367,1.1382h0ZM88.7421,46.0843c-.0022,0-.0044,0-.0065,0-.4064-.0043-.633-.1144-.9505-.3512l-9.0297-14.0119,4.403-18.0051c1.6019-.313,3.2583-.5187,4.9015-.5187,1.09,0,2.1745.0906,3.2326.3004l8.0063,13.8611.1139.8761c-1.4946,4.9685-1.9369,10.8117-3.5216,15.6806-.1532.4708-.1837.8131-.7157,1.0325-.5048.2082-5.7961,1.1363-6.4333,1.1363h0ZM182.3421,26.426c-.514-.1168-.6253-.7209-.7401-1.1505-.9651-3.6116-1.2284-8.2193-.718-11.9171,1.0379,1.0903,1.2694,3.5624,1.4565,5.0863.3236,2.6354.4771,5.3541.0016,7.9814h0ZM52.0617,54.159c-.0993,0-.199-.0009-.2981-.0028l-12.2499-16.0364c-.2197-.7529.4414-2.4016.6816-3.2714,1.6578-6.0033,3.8123-11.9297,5.7042-17.8646,2.3256-.3665,4.7149-.6526,7.0946-.6526,1.4522,0,2.9011.1066,4.3289.3665l10.4086,15.5246.0014,1.7681-5.2093,18.5045c-3.429.5503-7.0092,1.664-10.462,1.664h0ZM174.2896,34.8683c-.2077,0-.4143-.0068-.431-.0204-.3698-.3017-1.8887-8.1064-2.268-9.2279l.5083-8.1948c2.2747.2316,2.6344,3.832,2.8924,5.695.2168,1.565.5034,11.1076-.2637,11.7274-.017.0137-.228.0206-.4381.0206h0ZM167.4337,37.5462c-.2462,0-.5535-.0895-.9325-.258l-2.7866-9.3116.7563-9.7804c.0577-.2526.463-.3792.8726-.3792.3369,0,.6766.0856.828.2571.2713.2796,2.1858,6.5787,2.3429,7.4046.5567,2.9281.1216,7.8912-.2523,10.9453-.0949.7749-.3433,1.1222-.8284,1.1222h0ZM180.5855,33.686c-1.2851-.738-1.5197-3.1289-1.7198-4.5349-.4659-3.273-.4477-6.7072-.0311-9.985,1.3206,1.0745,1.5391,3.2162,1.7509,4.7945.4307,3.2099.3637,6.5223.0001,9.7253h0ZM157.3777,41.1524c-.3365,0-.6219-.1158-.7457-.4015l-3.4018-9.6336c.3033-1.437.8829-11.2055,1.3558-11.6045.1577-.133.6322-.2321,1.1231-.2321.5585,0,1.1382.1283,1.2962.4809l3.3042,9.7915-1.1681,10.5943c-.1566.5113-1.069,1.005-1.7637,1.005h0ZM2.5516,65.5052l-1.4593-.8776-15.8145-17.1337-.2726-.8513L-5.8573,21.8397c3.3786-.6161,6.8921-.4857,10.3282-.6436.8202-.0377,3.1356-.414,4.6494-.414.5872,0,1.0541.0567,1.2659.2117l13.9762,17.3577.6784,1.5283-7.6841,22.846-14.8051,2.7795h0ZM144.5754,45.3976c-.4418,0-.793-.0781-.9015-.2891l-4.2664-10.7386,1.9111-12.7147c.1247-.1775,1.2053-.3299,2.1392-.3299.6162,0,1.1687.0664,1.3401.2357l4.0659,10.8604-1.6405,12.3969c-.0861.1526-1.6151.5793-2.648.5793h0ZM184.6841,33.6843c-.5944-.2604-.6797-1.6482-.789-2.2616-.558-3.1317-.9307-6.7968-.3755-9.9315l.8717,3.0507c-.0049,3.03.7665,6.1792.2928,9.1425h0ZM127.4844,50.9306c-.3221,0-.5704-.0517-.6947-.178l-5.7969-11.6846,2.6444-14.3871c.8229-.3566,2.0696-.7489,3.1772-.7489.8271,0,1.5767.2188,2.014.8346.6695.9428,5.0924,10.5891,5.105,11.3313l-2.3781,13.8601c-.6673.2612-2.8766.9727-4.071.9727h0ZM177.8905,42.4299c-.2711,0-.1443-.1271-.2598-.4377-.8796-2.3674-1.3083-5.4685-1.9411-7.9506l.5097-8.1962c1.9001,1.0231,2.0432,3.4576,2.3033,5.4082.496,3.7208.1792,7.434-.2584,11.1455-.1622.0202-.2748.0309-.3537.0309h0ZM183.2206,40.9459c-1.0921-.904-1.2821-3.3655-1.4579-4.7947-.3712-3.018-.4251-6.1294-.0003-9.1429.4953.2657.9181,1.5047,1.0398,2.0136.8652,3.6187.8226,8.2338.4184,11.924h0ZM172.028,45.8576c-.308,0-.632-.2336-.8336-.6777-.5873-1.294-2.2133-7.1108-2.2584-8.4444-.0376-1.1129.5159-8.2481.821-8.9997.2058-.5071.3437-.718.5761-.718.1845,0,.4286.133.8135.3564l2.3598,8.7765c-.7546,2.2095.0332,7.3845-.828,9.2196-.1545.3292-.397.4873-.6503.4873h0ZM104.552,58.1722c-.2797,0-.4895-.0475-.6001-.1606l-7.2599-12.4113-.0598-1.5199,3.7892-16.0085c1.0438-.0766,3.3698-.6228,5.0667-.6228.7746,0,1.4184.1139,1.7487.4383l6.7574,12.4703-3.4433,16.5035c-.0138-.0005-.0279-.0007-.0425-.0007-1.0867,0-4.4867,1.3117-5.9563,1.3117h0ZM163.7817,49.824c-.3786,0-.7694-.2632-1.0683-.8795-.4265-.8794-2.7678-7.4862-2.8181-8.1814-.1139-1.5713.5712-6.498.8192-8.3483.0807-.6025.3263-2.7554.6236-3.0116.1317-.1135.8778-.3035,1.1508-.3035.0231,0,.0429.0014.0585.0043.3899.1003.5255.4194.6998.7297.5371.9562,2.0119,5.5422,2.2772,6.7421.5046,2.2818.1014,9.7155-.5217,11.9987-.2063.756-.7023,1.2496-1.2209,1.2496h0ZM152.0387,54.9052c-.0617,0-.1075-.0087-.1334-.0273-1.0439-3.6025-3.141-6.8709-3.7572-10.5924l1.6001-11.703c.1634-.3703,1.2564-.6257,2.0394-.6257.3028,0,.5594.0382.6977.1228l3.7441,10.1686-1.4789,11.2586c-.0478.5904-2.1181,1.3985-2.7119,1.3985h0ZM73.9753,67.5186l-.7997-.6245-9.8836-14.1822,5.5185-19.5378c.2964-.2917,7.3667-1.1707,8.2767-1.1707.0015,0,.0031,0,.0045,0,.4116.0014.8594.148,1.2359.3083l8.6986,13.8783.1778.9809-4.5539,18.1692-8.6748,2.1785h0ZM181.171,49.6564l-2.017-8.597.5589-7.083c.7116.2737.9409.9539,1.1541,1.6112,1.3886,4.28.6347,9.6681.304,14.0688h0ZM185.2701,47.3333l-.841-2.7915c-.1649-3.2409-.6806-6.4734-.0314-9.6926.0126-.0013.0248-.002.0367-.002.4122,0,.379.7815.4512,1.1094.7832,3.5582.8232,7.7706.3845,11.3768h0ZM176.0458,53.7207l-.8731-2.0312c-1.479-4.5398-2.0353-10.486-.9636-15.183.1054-.462.4236-1.0894.9698-1.0894.0444,0,.0903.0041.1376.0129.1977,2.8667,1.8107,5.767,1.9402,8.6142.0916,2.0149-.2212,5.9885-.5018,8.0553-.0786.5795-.2625,1.2095-.7092,1.6213h0ZM137.4346,61.0069l-5.0561-11.1473,2.2908-13.799,4.0083-.5897,4.6241,11.0799-2.0208,12.7627c-.5018,1.0722-2.7626,1.3032-3.8463,1.6934h0ZM168.3846,58.1069c-.0396,0-.0708-.0088-.0914-.028-.2385-2.8414-2.4869-6.4308-2.5825-9.1434-.0708-2.0089.5596-7.3817.9067-9.5154.1106-.6799.4484-1.3879,1.1784-1.3879.1012,0,.2101.0136.3268.0428.5404.1352,2.6302,8.2572,2.7726,9.4375-.7407,2.5736-.0175,7.1628-.9035,9.4949-.1218.3208-1.2356,1.0994-1.6072,1.0994h0ZM32.6193,79.7807l-.892-.5266c-3.7603-4.8266-8.2132-9.1436-12.0332-13.9099-.492-.6138-1.63-1.786-1.6034-2.4394l7.7608-22.8264c.3368-.3496,1.0124-.4757,1.488-.5569,2.3633-.4033,7.5806-1.1094,9.9175-1.1094.0305,0,.0606.0001.0901.0004.6533.0054,1.4292.0904,1.958.5125l11.5341,15.2738.3267,1.3782-6.4169,20.9587-12.1297,3.245h0ZM118.3587,68.8183c-.0026,0-.0051,0-.0075,0-.303-.0083-.3713-.0976-.5666-.2787-.3104-.2878-2.6641-4.7808-3.1247-5.6187-.7079-1.2877-3.0975-5.279-3.1208-6.4306l3.2145-15.3561c.3134-.5168,3.4147-1.1384,4.9384-1.1384.4054,0,.6993.044.799.1457l5.8506,11.9303-2.8946,14.818c-.2273.3822-4.5313,1.9286-5.0882,1.9286h0ZM183.8062,55.4657c-.5628-.1011-.4827-.6069-.5969-1.0023-1.2312-4.2654-1.2195-8.5698-.5683-12.9364.6105.1748.6441.8941.7872,1.3938.3773,1.3174.6002,3.7374.6707,5.1427.1245,2.4834-.0996,4.9394-.2928,7.4021h0ZM159.066,63.2999l-3.5007-9.4242,1.5011-11.7073,2.4201-.6196c.3787,2.5644,1.9279,5.08,2.5182,7.5189.9186,3.7951-.7095,8.8708-.8681,12.8135l-2.0707,1.4188h0ZM179.3427,60.4312c-.2841,0-.1282-.1234-.226-.4537-1.7169-5.7966-1.8141-9.6494-1.1346-15.6702.0514-.4558.1343-1.0756.623-1.0756.0671,0,.1418.0117.2252.0371-.0125,2.3002,1.2428,4.6042,1.4628,6.8272.3274,3.3079-.4281,6.9853-.5844,10.3072-.1684.0181-.285.0281-.3659.0281h0ZM146.4756,69.9769l-4.3775-10.2938,1.9442-13.0218c.1652-.42,2.3124-1.006,2.7896-1.006h.0008c.2546.0003.3423.0316.5401.1925.4221.3434,3.9399,9.2424,3.965,10.0519l-1.8505,12.4242-3.0117,1.653h0ZM92.3576,78.7156c-.0153,0-.0285-.0008-.0393-.0025-.3349-.0509-.552-.1839-.7071-.4845l-8.148-12.9801,4.4665-17.9038c.2251-.3473.5942-.3939.9495-.5103.7382-.2419,5.4474-1.1122,6.3023-1.1122.0275,0,.0512.0009.0704.0028.8062.0777,1.1477.9335,1.5393,1.5223,1.7595,2.6456,4.7829,7.4575,6.0723,10.2382.2676.5772.6192,1.1916.6232,1.847l-3.8579,17.0395c-.2214.3022-6.5029,2.3437-7.2712,2.3437h0ZM173.0775,65.364c-.0452,0-.0797-.0075-.0993-.0243-.1843-2.5738-1.9661-5.644-2.1813-8.0871-.1601-1.8178.4813-7.4017.7956-9.4147.1257-.8053.4963-1.369.8982-1.369.2848,0,.5853.2832.8253.9643,1.8136,5.1464,1.9842,8.8775,1.4129,14.2726-.0688.6494-.3443,2.9353-.6585,3.2675-.1432.1514-.7376.3907-.9929.3907h0ZM-29.9683,97.4233l-1.2849-1.0062c-4.7756-6.9595-12.0415-13.4594-16.6547-20.361-.446-.6672-1.0113-1.1733-.7033-2.0749l9.3167-23.5934,22.4781-2.9767c.003,0,.0058,0,.0088,0,1.6914,0,3.0372,1.8247,4.1609,2.9652,4.0667,4.1271,9.0211,9.3931,12.7324,13.7979.4513.5356,1.5193,1.7513,1.4683,2.3554l-9.2318,25.3802-22.2905,5.5135h0ZM185.7909,60.9875c-.3496,0-.3656-.5361-.4332-.8115-.969-3.9475-.8522-7.9375-.3746-11.9688.0126-.0013.0247-.0019.0365-.0019.4128,0,.3789.7811.4515,1.1094.8571,3.8764.4918,7.7492.3845,11.6671-.0228.0038-.0443.0056-.0647.0056h0ZM164.9421,70.8494l-2.9844-8.8963,1.4255-11.3542c.3669-.1047.8473-.3339,1.2574-.3339.2227,0,.4247.0676.5766.2595l2.686,8.3186c-.7894,3.1222-.3102,7.3681-1.1422,10.351-.2417.8664-.9256,1.4929-1.8188,1.6554h0ZM182.3421,66.4993c-.4944-.2611-.5991-1.4798-.734-2.0265-1.0627-4.3074-1.0823-9.0982-.4269-13.5056.0559-.3758-.0569-.4625.1796-.4625.0826,0,.2077.0106.3974.0231,1.0403,5.2895,1.526,10.6167.5838,15.9715h0ZM130.0771,78.0422c-.6268-.0496-5.4004-9.582-5.8511-10.9897l2.9245-15.0748c.66-.2737,2.8682-.9782,4.0627-.9782.3232,0,.5723.0516.6963.1773l4.9065,10.707-2.6462,14.1893-4.0927,1.9691h0ZM57.5087,91.7076l-11.6131-14.0177-.2796-1.1337,6.3019-20.7885c.2889-.507.8038-.5819,1.2986-.7448,1.7083-.5626,6.2591-1.3173,8.1431-1.5135.3037-.0316.6027-.0919.8851-.0919.3481,0,.6709.0916.9455.4416l9.937,14.489-5.532,20.102-10.0863,3.2576h0ZM177.3383,72.0303c-.1612,0-.3451-.2112-.5527-.7414-1.9048-4.8626-1.6944-11.0914-.8006-16.1914.0465-.2654.1775-.5176.2295-.7813l.8586-.0134c.0945,2.4271,1.5231,5.0986,1.6513,7.4526.0897,1.6455-.2851,5.4271-.4829,7.2092-.0734.6613-.3591,3.0657-.903,3.0657h0ZM154.0856,77.797l-3.8515-9.1541,1.7891-12.3235c.1197-.7119,1.8239-1.3528,2.4189-1.3883.021-.0013.0412-.0019.0607-.0019.4295,0,.4994.2983.6771.6189.4689.846,3.0049,7.7664,3.0602,8.5214.1027,1.4052-1.0927,9.8459-1.4934,11.4545-.3768,1.5122-1.4853,1.5554-2.661,2.2731h0ZM184.6816,72.3074c-.4485,0-.4079-1.022-.4825-1.4015-.3729-1.8939-.6382-3.8119-.9748-5.7125l.5877-7.9839,1.43,6.5653-.5574,8.5325c-.001,0-.0019,0-.0029,0h0ZM107.8209,88.4805c-.7151-.0815-6.8204-10.6903-7.3599-12.1978l3.8503-17.0464c.1709-.254,5.4251-1.6739,5.9225-1.6739.0001,0,.0003,0,.0004,0,.6202.001,1.0115.7325,1.3121,1.1869,1.4531,2.1959,4.1478,6.9995,5.1806,9.3795.2687.6191.484,1.2751.5137,1.9541l-3.2681,15.8691-6.1517,2.5285h0ZM169.9756,77.8438c-.0708,0-.1435-.0055-.2178-.017l-2.2342-8.5184,1.1321-10.1414,1.6823-1.0882,2.1827,8.5646-1.0871,10.0889c-.2708.6119-.7839,1.1115-1.4579,1.1115h0ZM139.6398,86.2561c-.018,0-.031-.0027-.0385-.0082l-4.5452-10.0117,2.488-14.169,3.6339-1.3376,4.4673,10.2157-2.0771,12.9973c-.0578.7428-3.4904,2.3135-3.9284,2.3135h0ZM180.2991,77.8257c-.6692-2.738-1.5455-5.1306-1.4803-8.0002.0478-2.1046.2529-5.478.6322-7.5086.0893-.4777.1042-1.0778.6109-1.0778.0681,0,.1451.0109.2323.0343-.055,1.8956.9491,3.8816,1.1419,5.6936.2223,2.0902-.0948,7.7918-.5581,9.8399-.0936.4138.0148.9002-.5789,1.0188h0ZM160.3894,85.0858l-3.0846-8.5553,1.6722-12.1527,1.8626-1.0745c.0285-.0026.0553-.0038.0807-.0038.3431,0,.4252.2254.5838.4963.47.8029,2.6455,7.7389,2.6584,8.627-.7825,3.2113-.5246,7.2306-1.2669,10.3614-.2687,1.1332-1.3878,2.0257-2.5062,2.3017h0ZM9.5658,108.7599l-16.223-16.1325-.0229-1.1641,9.0274-24.8909,15.0744-2.7595,14.2087,16.4263.0224.7109c-2.7575,7.0189-4.3134,15.0838-7.1097,22.0086-.2168.5368-.3606,1.0977-.9064,1.4242l-14.0711,4.377h0ZM186.4411,76.9536l-.547-2.2119c-.345-3.474-.371-6.7991-.0326-10.2721.0228-.0038.0443-.0056.0647-.0056.3511,0,.3631.5351.4328.8117.9135,3.6272.3742,7.9666.082,11.6779h0ZM174.4461,84.2427c-.0912,0-.1898-.0089-.2963-.0272-.1803-2.1971-1.4171-4.4849-1.684-6.6084-.421-3.3499.7698-7.7019.9296-11.1331l1.3347-.8448c.2132,1.9223,1.0827,3.8584,1.3917,5.7376.4252,2.5864.0829,9.224-.5791,11.7642-.1748.6707-.4533,1.1117-1.0966,1.1117h0ZM78.2653,101.6564l-9.6622-12.5195-.15-.9642,5.4141-19.6374c.2498-.3503,7.5659-2.1964,8.4639-2.1964.0136,0,.0259.0004.0365.0013.4985.0406.852.3946,1.1488.7551,1.8652,2.2665,6.1553,8.8282,7.4871,11.4504.2206.4344.506.8252.419,1.3494l-4.6852,18.5384-8.472,3.2229h0ZM183.2206,83.0535c-.5631-.1011-.4824-.6073-.5969-1.0023-1.133-3.9071-1.0176-9.9551-.2687-13.9495.0681-.3635-.0823-.4641.1883-.4641.083,0,.2055.0095.386.0237l1.0715,5.9961-.7803,9.3961h0ZM121.0006,96.9217c-.6386-.0513-5.8305-9.6301-6.1936-11.0559l3.4405-16.0016,5.5119-1.8902,5.3043,11.149-2.9946,15.0514c-.5196.9975-3.9895,1.9354-5.0685,2.7473h0ZM148.2645,93.4845c-.3096-.1101-.3898-.3914-.5314-.642-.7134-1.2628-3.4973-7.6715-3.4592-8.7581.1427-4.0616,1.8727-8.8582,2.1209-13.0196l3.4474-1.6606,3.4661,9.4282-2.0712,12.7165-2.9726,1.9357h0ZM166.1391,91.5344c-.0753,0-.1393-.0182-.1875-.059-.3385-2.7742-2.4258-5.8199-2.3646-8.572.0735-3.3074,1.2267-7.1717,1.3797-10.5523-.027-.5827,1.3669-1.5522,1.9587-1.5522.0807,0,.1465.0181.1918.0576l2.2848,8.5667-1.4156,10.9501c-.2738.307-1.3308,1.1611-1.8472,1.1611h0ZM178.2263,89.7461c-.1643,0-.3517-.2094-.5624-.7429-1.6044-4.0633-1.2885-10.7422-.5189-15.0276.0961-.535.3083-1.3858.9665-1.3858.042,0,.0858.0035.1315.0107.3038.227,1.456,6.602,1.4669,7.4039.0235,1.7353-.3772,5.3996-.6212,7.2245-.0901.674-.3746,2.5173-.8624,2.5173h0ZM185.2054,87.704c-.3512,0-.3632-.535-.433-.8117-1.0283-4.0754-.3206-8.6904-.082-12.8398.0228-.0038.0443-.0056.0646-.0056.3512,0,.3632.535.433.8117,1.0204,4.044.3012,8.7143.0821,12.8397-.0228.0038-.0443.0056-.0647.0056h0ZM131.866,104.2747l-5.0088-9.9262,3.0039-14.9986c.2626-.7529,3.841-2.1054,4.6061-2.1054.0581,0,.1.0078.123.0242l4.4323,10.2686-2.6989,14.194-4.4576,2.5434h0ZM95.4323,110.3088l-7.8699-11.9551,4.7607-18.483,7.2709-2.5715.6086.5405c2.0326,4.0399,5.3195,7.6545,6.7382,11.9286l-4.0999,17.3771-7.4086,3.1634h0ZM155.8537,100.1199c-.2782,0-.5484-.1675-.7998-.5987-.379-.6499-3.0655-7.4215-3.0726-7.8421l2.1595-12.9131,2.7063-1.2084c.6284,2.6649,3.0471,6.5082,2.9714,9.1314-.1049,3.6366-1.4715,7.9311-1.721,11.6418-.6627.5376-1.4833,1.7891-2.2438,1.7891h0ZM38.4334,118.949c-.6147-.0251-1.7382-1.291-2.1992-1.7663-2.9328-3.0231-6.1447-6.5601-8.9266-9.7318-.5629-.6417-2.4323-2.6512-2.4115-3.2928l7.6813-23.4323,12.0162-3.0661c.4087.0267.7519.3113,1.0172.6029,2.9027,4.0281,6.412,7.6409,9.3575,11.6273.5259.7117,1.6952,1.9878,1.6861,2.837l-6.3924,21.5106-11.8285,4.7115h0ZM170.9283,97.5728c-.4139-2.5616-1.9239-5.3891-1.9909-7.9869-.0442-1.7135.7523-8.4189,1.2407-10.0333.2259-.7467.705-1.714,1.6234-1.7253.3304,2.4964,1.8809,5.4778,1.9412,7.9355.0438,1.7861-.7099,8.3854-1.1855,10.0884-.2053.7352-.7377,1.7176-1.6288,1.7215h0ZM181.1211,94.7057c-.2259,0-.1746-.111-.3096-.4042-.4021-.8733-1.0384-3.9697-1.1108-4.9929-.1546-2.1865.3371-6.3985.6301-8.6879.0323-.2524.1832-2.0381.6329-2.0381.0631,0,.132.0351.2074.1145l1.1445,6.5659-.8501,9.4069c-.1589.0228-.2675.0356-.3443.0356h0ZM186.6358,91.4999c-.2592,0-.1145-.1027-.1819-.4624-.7123-3.8003.0901-7.3723-.0067-11.1783.5295.1088.5467.5707.5939,1.0052.3866,3.5602.0175,7.0454-.0127,10.6091-.1855.016-.3096.0264-.3925.0264h0ZM175.0592,102.8087c-.0122,0-.0224-.0029-.0303-.0089-.2954-2.1753-1.6488-4.9895-1.7002-7.1134-.0367-1.5128.8109-8.631,1.242-10.0349.1862-.6064.4621-1.4385,1.2434-1.4385.0287,0,.0581.0011.0882.0034.2625,2.5319,1.4039,5.0936,1.4366,7.663.0178,1.4043-.7994,9.0596-1.3112,10.0274-.118.2233-.7807.9018-.9684.9018h0ZM183.4752,99.3156c-.41,0-.3789-.7829-.4498-1.1088-.959-4.411-.4685-9.3194.3445-13.7043,1.7907,4.7471.7451,9.9438.1427,14.811-.0129.0014-.0253.0021-.0374.0021h0ZM161.6879,106.293c-.0428,0-.0856-.0024-.128-.0074-.4174-2.6795-2.5872-5.8872-2.6065-8.5368-.0125-1.7126,1.1134-9.5465,1.6252-11.1645.2908-.9192,1.501-1.79,2.4389-2.0781.4877,2.6338,2.4835,5.8954,2.5258,8.5161.0284,1.7611-1.0034,9.5779-1.5448,11.1831-.2831.8394-1.3366,2.0875-2.3105,2.0875h0ZM141.3585,110.9311c-1.0965-3.3074-3.6894-6.2413-4.1109-9.712l2.6957-13.9021,3.7492-1.9403,3.7519,9.4342-2.4887,13.7159-3.5973,2.4043h0ZM110.4814,117.8995l-6.7572-10.7723,4.1075-17.6827,6.1521-2.5782,6.2087,11.088-3.5931,16.4483-6.1181,3.4969h0ZM61.9233,127.446c-3.1045-3.4846-6.3495-6.94-9.2777-10.5685-.4748-.5883-1.6782-1.8606-1.6241-2.4887l6.4492-21.7509,10.6295-3.1432,9.2728,12.4484.1417.9593-5.4193,19.9222-10.1721,4.6215h0ZM185.1722,103.1158c-.2603,0-.1145-.1032-.1822-.4625-.7802-4.1406-.2361-8.5156.4295-12.6332,1.196,4.2484.2482,8.7109.1449,13.0693-.1852.016-.3092.0264-.3921.0264h0ZM178.3729,107.4541c-.04,0-.0818-.0028-.1254-.0087-.0091-2.1211-1.1117-4.4162-1.1421-6.5028-.018-1.2408.8929-9.2407,1.3108-10.0247.096-.18.5062-.6197.6642-.6197.0167,0,.0305.0049.0409.0155.1424,1.6573.9715,3.5045,1.1431,5.1117.2287,2.1419-.4278,8.4422-.9217,10.6407-.1236.5501-.2822,1.388-.9698,1.388h0ZM167.2656,111.797c-.2998,0-1.8423-4.9941-1.9847-5.5745-.5996-2.4436.3201-10.4816,1.0911-13.0209.1641-.5405.9979-1.9072,1.4844-2.0155.0464-.0103.0892-.0152.1289-.0152.2897,0,.4094.2582.5354.512.3257.6559,2.0024,6.5143,2.0138,7.1393.029,1.596-1.0545,9.0283-1.491,10.6777-.2813,1.0631-1.0377,1.5592-1.7772,2.2971-.0003,0-.0005,0-.0007,0h0ZM-21.8177,143.4133l-16.9116-18.9615-.2183-1.3935,8.8716-24.6141,21.4525-5.4464c.2713-.0319.5377-.1007.8105-.1007.0882,0,.177.0072.2669.0251l15.9883,15.8154.2178,1.3917L-.2211,135.3147l-21.5966,8.0986h0ZM149.6986,117.0232c-.0006,0-.0012,0-.0018,0l-3.8642-8.5012,2.3883-13.576c.147-.6534,2.4541-2.0359,3.1911-2.0359.07,0,.1259.0125.1644.0393.5174,2.419,3.2874,6.5349,3.2547,8.82-.0176,1.2257-1.8651,12.0884-2.2596,12.8604-.1288.252-2.6719,2.3935-2.8729,2.3935h0ZM181.3969,111.516c-.352,0-.3482-.5347-.4257-.8159-1.1442-4.151-.7004-8.4057-.0541-12.6555.0599-.394.4386-2.507.6951-2.507.0003,0,.0007,0,.001,0,.2523,1.6073,1.1325,3.8714,1.2159,5.4166.0871,1.6147-.5439,6.2343-.8113,8.0556-.1234.8402-.3815,1.6729-.5547,2.5005-.0234.0039-.0454.0058-.0662.0058h0ZM123.0723,124.2876c-1.9199-3.2263-4.3394-6.4743-5.6293-9.963l3.4788-16.2531c.1935-.4011,4.3349-2.42,4.8377-2.49.1065-.0148.2089-.0438.3133-.0438.0518,0,.1041.0071.1576.0266,1.8166,3.1593,3.923,6.4356,5.0719,9.9416l-3.1843,15.3843-5.0457,3.3975h0ZM171.7148,116.5309c-.0708,0-.1383-.0255-.2008-.0821-.2455-2.1608-1.6476-4.6882-1.6989-6.8232-.0377-1.5692.9879-9.2222,1.4822-10.6678.2439-.7131.8235-1.6675,1.677-1.6734.1079,1.9081,1.1528,3.8797,1.3892,5.7349.2356,1.8494-.6268,9.5918-1.1725,11.4654-.1013.3478-.8984,2.0463-1.4762,2.0463h0ZM156.7745,122.2613c-.0157,0-.0305-.0016-.0443-.0048l-3.285-7.9265c1.0658-2.5647,1.1579-11.7117,2.5664-13.3995.0835-.1,1.7705-1.5847,1.8922-1.6117.0485-.0108.0926-.0158.1332-.0158.2963,0,.3965.2676.535.5051.35,2.2033,2.568,5.7191,2.6423,7.7739.0496,1.3728-1.4364,10.6388-1.9006,12.0147-.1954.5791-1.9686,2.6647-2.5391,2.6647h0ZM82.0564,134.7415l-.7301-.4274-8.4873-11.0451,5.6333-20.6909,8.4336-3.1156,8.1871,11.636-4.7385,19.0911-8.2981,4.5519h0ZM183.2573,115.2873c-.0101,0-.0204-.0004-.0309-.0012.0966-1.241-.488-2.4356-.5831-3.6329-.1979-2.492.4049-7.8976.8827-10.4477.0677-.3616-.0789-.4628.1848-.4628.0829,0,.2064.01.3897.0251-.08,1.6159.5457,3.4831.5582,5.0506.0159,1.9884-.4747,6.4315-.8869,8.4169-.0653.3147-.0796,1.0521-.5145,1.0521h0ZM133.4531,129.8068c-1.0883-3.1609-3.6485-5.9069-4.407-9.1296l3.0923-15.256,4.5268-2.6204,4.114,9.4204-2.8084,14.3757-4.5177,3.21h0ZM175.3645,120.8217c-.0174,0-.032-.0053-.0433-.0169-.16-1.9774-1.3411-4.2488-1.3543-6.1929-.0099-1.4535,1.0695-9.8086,1.5821-10.8562.1877-.3836.4755-.6742.7938-.9493h.0002c.4117,0,1.5357,5.5548,1.5492,6.239.0319,1.6077-1.05,9.838-1.7402,10.9896-.1181.197-.605.7867-.7876.7867h0ZM185.2697,118.4801l-.7623-3.8705c.5055-2.6457.377-5.5242.7923-8.1537.0462-.2923.1131-1.0422.5204-1.0422.0116,0,.0234.0006.0355.0018.2682,4.3702.0453,8.7168-.5859,13.0646h0ZM162.5214,127.2231c-.0334,0-.0618-.0096-.0842-.0302-.1797-2.3601-2.384-5.407-2.3541-7.6802.0201-1.5374,1.4069-10.5053,1.9077-11.7806.2136-.5439,1.5511-2.1083,2.2572-2.1083.0892,0,.1684.025.2339.0802.2402,2.1376,1.666,4.5623,1.9816,6.6036.2467,1.5951-1.3366,11.7927-2.1397,13.1295-.1501.2498-1.3798,1.786-1.8025,1.786h0ZM178.8279,124.5781c-.4859-.2555-.6111-1.493-.7321-2.027-.7741-3.4146-.361-9.7278.5164-13.1439.1682-.6549.382-1.4078,1.0949-1.6699.0236,1.9128.8464,4.0333.8525,5.9221.0063,1.9379-.541,6.1182-.882,8.13-.1658.9781-.5449,1.8604-.8497,2.7887h0ZM98.6047,140.8715c-.0825,0-.1664-.0193-.2524-.0686l-7.2798-10.5035,4.762-18.7777,7.2804-3.4707,6.7704,10.7504-4.1819,17.6091c-.2516.4708-5.7534,3.9646-6.5264,4.2762-.1891.0762-.3766.1848-.5722.1848h0ZM142.9698,135.0248c-.0029,0-.0057,0-.0084-.0003l-4.1452-8.5033c1.3587-4.0407,1.2374-10.5702,2.8096-14.3039.4826-1.146,2.6234-2.3532,3.823-2.7374.4068,2.3671,3.5683,6.7128,3.5286,8.8394-.0282,1.5113-1.966,11.8819-2.4941,13.2355-.2473.634-3.0245,3.4699-3.5135,3.4699h0ZM167.6004,131.2792c-.0566,0-.1182-.0065-.1857-.0207-.0645-1.615-.9925-3.1342-1.3289-4.6355-.6008-2.6808.4144-10.2838,1.1641-13.0941.2648-.9924.8754-2.3145,2.0578-2.3145.0495,0,.1001.0023.1517.0071.1495,2.124,1.612,4.7161,1.6512,6.771.0407,2.1367-1.4101,11.2201-2.6978,12.6615-.2564.287-.4056.625-.8125.625h0ZM181.087,127.5104c-.2836,0-.1204-.1139-.2016-.4603-.9292-3.966-.3158-8.9617.3643-12.9941.0891-.5285.1981-1.4735.7996-1.6723,1.3792,5.0102.0554,10.0634-.5857,15.1009-.1744.0163-.2943.0259-.3766.0259h0ZM150.6538,139.4088c-.0226,0-.0442-.0017-.0648-.0052-.4163-.0704-3.3174-7.2803-3.3278-7.699-.0923-3.7049,2.3972-9.7193,2.5524-13.6895.3464-.4142,2.6698-2.7493,3.1825-2.7493.0281,0,.0507.007.0673.0217.2701,2.3951,2.4666,5.2896,2.8636,7.4756.2056,1.1324-1.7186,12.6159-2.2536,13.8906-.2874.6849-2.2321,2.7552-3.0197,2.7552h0ZM112.8434,146.0471c-.498-.0857-5.3124-7.3585-5.7511-8.2462-.2645-.5353-.6152-1.0269-.5083-1.6711l4.0831-17.1566c.3651-.6399,5.4481-3.3726,6.2605-3.3726.0352,0,.0625.0051.0809.0158.9996,2.7357,4.273,6.1679,5.0848,8.7541.1571.5004.357.9253.2106,1.4764l-3.6539,16.1445-5.8066,4.0557h0ZM172.1738,134.7652c-.3176,0-.4338-.1952-.5937-.5245-.244-.5027-1.0764-3.7129-1.1621-4.3622-.2491-1.8884,1.13-11.688,2.1386-13.1191.2326-.33.6142-.7495,1.0018-.891.0542,2.0524,1.2576,4.2304,1.3044,6.2394.0434,1.867-.8935,8.19-1.3828,10.0874-.259,1.0045-.7396,1.6299-1.095,2.5473-.0793.0154-.1491.0228-.2112.0228h0ZM183.2198,130.6764l-.7619-3.87c.4379-2.4778.4212-5.0844.8035-7.5609.116-.7516.1271-2.1568.8376-2.5059.7767,4.6422-.111,9.3369-.8792,13.9368h0ZM175.5545,137.9746c-.2212,0-.1727-.1118-.3055-.4028-.4382-.9606-1.0345-3.9554-1.0409-5.0063-.0111-1.8171.958-8.6311,1.4796-10.3772.1832-.6132.6336-1.1318.9465-1.6722.5773.2606,1.3559,5.0817,1.3396,5.9551-.0387,2.0835-.7878,7.1231-1.2652,9.2165-.1803.7906-.6452,1.4604-.8096,2.2497-.1595.0239-.2681.0373-.3446.0373h0ZM157.3031,143.496c-.0511,0-.0963-.013-.1347-.0408-.4137-2.246-2.6025-5.0859-2.559-7.3246.0401-2.063,1.5302-10.0001,2.1705-12.0776.3764-1.2212,1.4083-2.3846,2.5767-2.957.3855.0912,2.6729,6.5304,2.6772,7.3535.0083,1.568-1.5455,10.6396-2.0853,12.1045-.2094.5684-1.9564,2.942-2.6454,2.942h0ZM184.5714,133.0263c-.2058,0-.1264-.0827-.174-.4578-.3536-2.7862.1919-6.9822.6179-9.8413.0483-.3243.1042-1.3401.5385-1.3401.003,0,.0061,0,.0091.0001.5433,3.8629-.4958,7.7246-.5842,11.613-.1983.013-.3254.0261-.4073.0261h0ZM178.467,141.1368c-.3584,0-.2996-.569-.3681-.8713-.8756-3.8614-.3559-9.5387.5096-13.4383.1431-.6448.4457-1.6783,1.0983-1.9564,1.3687,5.2582.1612,11.1039-1.1717,16.2597-.0243.0042-.0469.0062-.0681.0062h0ZM162.8744,146.9942c-.0552,0-.1039-.0171-.1443-.054-.2064-2.0581-1.9343-4.4452-1.944-6.4815-.0082-1.7103,1.4622-10.1916,2.02-11.8807.2843-.8606,1.1952-2.26,2.1134-2.5453.5234.1185,2.0806,5.8829,2.0872,6.7738.013,1.7439-1.274,9.8248-1.8364,11.4746-.1579.4632-1.6626,2.7131-2.2958,2.7131h0ZM180.8774,143.4538l-.7933-2.5459c.1225-3.3391.364-7.6276,1.1722-10.8736.1234-.4954.2057-1.2207.7931-1.3885.8493,4.9449-.3461,9.9233-1.172,14.808h0ZM182.4126,145.4933c-.0204,0-.0418-.0019-.0644-.006-.4986-3.9668.1379-8.6737.8851-12.6288.0679-.3592-.0785-.4626.1823-.4626.0829,0,.2069.0105.392.0265.1105,1.861.1434,3.5109-.0065,5.3636-.1565,1.935-.541,5.0327-.9484,6.902-.0579.2656-.0992.8052-.44.8052h0ZM179.4172,0h.005-.005ZM156.2866,0h.005-.005ZM118.8092,0h.005-.005ZM94.5075,0h.005-.005ZM62.0075,0h.005-.005ZM17.5031,0h.005-.005Z"/><path class="cls-2" d="M87.1877,99.1705c-2.8996,1.1864-5.7926,2.3899-8.8179,3.3653-1.8323,6.7469-3.6698,13.5275-5.496,20.3108-.2024.7517-.6208,1.0494-1.206,1.2935-2.8603,1.1927-5.614,2.6194-8.4854,3.7885-.5276.2148-.9989.4426-1.1988,1.1461-1.9568,6.885-4.0591,13.7288-5.9751,20.6257-.025.09-.0031.1928-.0031.2895"/><path class="cls-2" d="M2.4244,66.3557c-3.0633,8.4738-6.0882,16.9614-9.216,25.4123-.1729.4671-.1369.8778-.8769,1.0498-6.9483,1.6152-13.8364,3.4759-20.794,5.0578-.5365.122-1.0554.2956-1.6131.2786"/><path class="cls-2" d="M188.3473,104.2525c-.2.0292-.4064.0801-.5914.1136-.6294.1138-1.3986-.1799-1.8761.3412-.6077.6632-.6649,1.6071-.7309,2.4509-.2165,2.7684-.2671,5.5645-.9383,8.2654-.3604,1.4504-.8564,2.8448-1.0221,4.3614-.286,2.6181-.4805,5.2521-.9617,7.8496-.0195.1051.1818.3-.0295.4282-1.9262,1.1681-1.0573,3.2097-1.3773,4.8106-.4839,2.42-.84,4.9004-.9602,7.3885-.0101.2083-.1073.5021-.1699.5587-2.0325,1.8383-1.3601,4.4722-1.9913,6.7116-.2144.7605-.292,1.6259-.1845,2.4578"/><path class="cls-2" d="M17.3568.726c-2.1066,6.3538-4.378,12.6527-6.4478,19.019-.1724.5303-.443.8366-1.1609.9106-2.9727.3066-5.966.2596-8.9311.5714-1.4665.1542-2.9347.0123-4.3983.2405-1.23.1918-2.2814.0933-3.261-1.1045-3.5966-4.3978-7.374-8.6501-11.0736-12.9653-1.8617-2.1715-3.7637-4.3098-5.5724-6.5261-.1894-.2321-.4365-.3751-.7314-.436"/><path class="cls-2" d="M34.0459.5808c1.7412,1.5095,2.7291,3.585,4.1109,5.3633,2.6645,3.4291,4.9992,7.0966,7.7788,10.5617-2.2887,7.182-4.5033,14.4753-6.7615,21.7029-4.455.4739-8.9044.9069-13.3264,1.5757"/><path class="cls-2" d="M186.737,79.5687c-.6457,1.5522-.3534,3.1879-.4463,4.7911-.1287,2.2207-.6661,4.3703-1.1237,6.5427-.5914,2.8078-.1991,5.7714-.9771,8.5422-.4211,1.4997-.8497,2.9467-1.0034,4.5137-.2232,2.2757-.4636,4.5525-.6717,6.83-.0737.807-.2595,1.4181-1.0481,1.7403"/><path class="cls-2" d="M73.8656,68.3885c-1.7793,6.6377-3.6212,13.2588-5.3891,19.8994-.1748.6568-.4209.9908-1.0507,1.1605-3.353.9033-6.6031,2.1397-9.9566,3.0431"/><path class="cls-2" d="M83.3814,13.5035c-1.0476,1.8503-1.1963,3.964-1.7354,5.9588-1.1214,4.1494-2.1222,8.3308-3.1528,12.4162-2.879.2776-5.6695.5074-8.4297.9608-.8377.1376-1.282-.0251-1.7829-.7351-3.2056-4.5439-6.2044-9.2244-9.3497-13.8075-.4117-.6-.7278-1.2734-1.3151-1.744"/><path class="cls-2" d="M185.5658,121.0955c-.8633.8701-.5652,2.0299-.7024,3.0531-.3176,2.3676-.1488,4.8953-1.0043,7.0736-1.0366,2.6392-.9362,5.3697-1.5206,8.0217-.4031,1.8291-.3766,3.7066-.9187,5.5478-.319,1.0834.1989,2.5101,1.2182,3.456"/><path class="cls-2" d="M62.1539.5808c-.1887.1097-.5217.031-.5774.2921-1.0291,4.8227-2.5569,9.508-3.9336,14.2355-.1096.3763-.1599.7821-.3522,1.2056-3.7324-.2247-7.4801.2458-11.2403.2386"/><path class="cls-2" d="M78.6967,32.234c2.8233,4.3297,5.556,8.7165,8.3237,13.0809.7032,1.1089,1.3263,1.744,2.8148,1.3389,1.6131-.439,3.3149-.5935,4.9584-.9464,1.0392-.2231,1.7174.0103,2.2014.9019,1.4729,2.7133,3.1614,5.3027,4.6659,7.9963.4009.7177.7478,1.5686,1.2442,2.12,1.4036,1.5591,1.3307,3.129.857,4.9918-1.236,4.8604-2.1766,9.7918-3.4222,14.6512-.1567.6111.0562,1.0333.3259,1.4516,2.2546,3.4977,4.3143,7.1139,6.5763,10.6068.3761.5808.492,1.1515.32,1.8923-1.2702,5.4688-2.4815,10.9507-3.781,16.4135-.2186.9191-.6599,1.3276-1.3735,1.5703-1.9737.6715-3.6828,1.9167-5.6959,2.5112-.522.1542-.8987.5759-1.0647,1.2715-1.4011,5.8712-2.9687,11.7024-4.3509,17.5786-.2251.9572-.6832,1.6294-1.615,2.0412-2.3765,1.0501-4.5875,2.4177-6.8894,3.6118-.504.2615-.7432.5835-.9005,1.1622-1.2105,4.4552-2.4193,8.911-3.6338,13.3652"/><path class="cls-2" d="M24.5302,104.8333c-4.3982,1.5357-8.8738,2.8308-13.3231,4.2072-1.1283.3491-1.8336.9788-2.221,2.1731-2.5901,7.9848-5.5751,15.8372-8.1866,23.8162-.2208.6747-.5828,1.1904-1.435,1.4959-6.6655,2.3894-13.249,4.999-19.915,7.391-.3785.1358-.8342.2098-1.0792.8285-.6805,1.7187-1.4959,3.3801-1.7115,5.2448"/><path class="cls-2" d="M45.3184,77.536c2.8745,3.2254,5.4448,6.6957,8.1974,10.0193,1.0352,1.25,1.96,2.5975,3.0941,3.7562.795.8122.8694,1.6892.5546,2.628-1.4479,4.318-2.6053,8.7212-3.9441,13.0708-.6988,2.2703-1.3399,4.5576-2.0154,6.8343-.2766.9325-.7465,1.4201-1.6352,1.7493-3.1408,1.1634-6.2404,2.45-9.399,3.5469-1.4879.5167-2.0835,1.3356-2.4792,2.6766-1.9813,6.7147-4.337,13.3163-6.2474,20.0508-.5912,2.084-1.9124,3.0599-3.825,3.8034-3.1292,1.2163-6.1858,2.6269-9.2154,4.0741-.4938.2359-.9029.1381-1.3399.2443"/><path class="cls-2" d="M83.235,66.2105c-3.0513.3552-5.9386,1.4192-9.1676,2.0558-1.3245-1.0201-2.0832-2.6879-3.1001-4.1094-2.3335-3.262-4.7476-6.4709-6.9226-9.8448-.5213-.8087-1.21-1.1769-2.3387-.9165-2.8503.6576-5.7528,1.0878-8.6359,1.5936-.7642.1341-1.1253.4518-1.301,1.06-1.2755,4.4169-2.6517,8.8039-3.9588,13.2113-.732,2.4684-1.5669,4.9075-2.1893,7.4066-.1823.732-.7526.8626-1.3283,1.0104-3.4602.8887-6.9294,1.7457-10.4031,2.5762-1.0308.2464-1.4673.6765-1.767,1.6319-2.2374,7.1322-4.7194,14.1872-6.874,21.3464-.1481.4922-.3577.9796-.6877,1.5096,4.6474,5.0295,9.14,10.1477,13.8769,15.047"/><path class="cls-2" d="M10.7689,20.9086c2.209,2.9223,4.5802,5.7167,6.8872,8.5615,2.479,3.0568,4.8729,6.1817,7.4518,9.1594.626.7228.6763,1.4898.333,2.4729-2.6108,7.4769-5.0204,15.0217-7.6451,22.4946"/><path class="cls-2" d="M143.2574.5808c.7373.0814.5221.7633.7188,1.1679.6179,1.2713.8985,2.7274,1.6609,3.8899,1.6872,2.5726.7982,5.2699.4725,7.8554-.305,2.4212-.2999,4.9133-1.0933,7.27-.1047.311.1976.4814.293.7244,1.2956,3.2998,2.6673,6.5695,3.968,9.8675.2951.7483.3038,1.3727.1887,2.1931-.5223,3.7211-.992,7.4508-1.4844,11.1771-.1913,1.4477.7619,2.7413,1.3065,4.0488.9098,2.1843,1.5978,4.4646,2.7634,6.5399.2127.3786.024.7057-.0302,1.0187-.7106,4.1029-1.0532,8.2621-1.9152,12.3386-.085.4018.0737.6073.1851.8751,1.2025,2.8917,2.2697,5.8423,3.5682,8.6871.4119.9024-.0075,1.5367-.1183,2.1962-.6503,3.8699-1.0222,7.7851-1.8848,11.6167-.0691.3068-.0561.5458.0522.7265,1.5094,2.5187,2.1711,5.3979,3.4819,8.0028.5324,1.058-.1194,2.1273-.2792,3.1848-.5422,3.5884-.9978,7.1957-1.8103,10.7322-.1753.7627.3983.8853.5564,1.2975.9318,2.4297,1.7208,4.9273,3.015,7.2097"/><path class="cls-2" d="M68.7418,32.96c-1.7181,6.3509-3.4865,12.688-5.2512,19.0262-.1151.4132-.3143.7683-.4583,1.1564"/><path class="cls-2" d="M178.246,90.749c.9458-.4245,1.2665-1.0811,1.3722-2.1728.2721-2.8081.4156-5.6283.7804-8.4323.2377-1.8269-.3931-3.6987-1.0598-5.3354-1.2013-2.949-.308-5.8437-.2902-8.7429.0084-1.3754.3137-2.8316.4113-4.2184.0848-1.2046-.5577-2.5221-.9564-3.7567-.4364-1.3513-.7919-2.7372-1.1323-4.0957-.3432-1.3695.0882-2.8874.1875-4.334.1295-1.8873.255-3.7793.3659-5.6674.086-1.4632-.6789-2.8002-1.027-4.2015-.3872-1.5586-.8116-3.1145-1.265-4.6602-.3203-1.092.0457-2.2418.1739-3.3276.5118-4.3355-.0393-8.5689-.9404-12.7805-.4927-2.3028.0519-4.5592.2088-6.8236.083-1.1977.0276-2.3535-.2209-3.4828-.4351-1.9778-.9942-3.9236-1.1722-5.9563-.0513-.5863-.3777-1.24-.8748-1.566-.479-.3141-1.0241-.8321-1.7338-.4677-.6156.316-.1959.8709-.2849,1.3072-.3519,1.7253-.0266,3.4884-.2732,5.2293-.0871.6146-.1311,1.2047-.4673,1.7385"/><path class="cls-2" d="M88.0661,46.8991c-1.5508,5.835-2.863,11.7292-4.421,17.5613-.3103,1.1614-.1044,1.9101.5581,2.9472,2.5512,3.9931,5.3443,7.8282,7.8135,11.872.1363.2233.3967.3926.2973.7254-1.8782,6.2838-3.1758,12.7173-4.989,19.1292,2.8743,3.8022,5.4382,7.921,8.3538,11.7974"/><path class="cls-2" d="M182.4915,1.9602c1.1505.6004,1.7487,1.4765,1.6236,2.8326-.1494,1.619.9862,2.911,1.2238,4.4902.4291,2.8523.8476,5.7113.9118,8.5775.0776,3.4667.8935,6.8482.9337,10.308.0236,2.0346.4241,4.0328.3705,6.1006-.0508,1.9593.3198,3.9669.5468,5.9456.1114.9704.2188,1.9789.1881,2.9074-.1484,4.4772.7357,8.9074.5736,13.3576-.0756,2.078-.0009,4.1769-.0721,6.2511-.0639,1.8609.5827,3.8354.5827,5.8028,0,2.8556.2511,5.7048.0246,8.5688-.1724,2.1798.3864,4.3475.4061,6.5319.03,3.3091-.0856,6.6062-.7037,9.8775-.2418,1.2798-.0988,2.6154-.1204,3.9171-.0617,3.7245-.4822,7.4358-.1216,11.1865.1864,1.9381-.154,3.9599-.2455,5.945-.1094,2.3721-.7074,4.6905-.453,7.1201.3452,3.2966-.1699,6.6033-.596,9.8628-.5758,4.4052-1.2903,8.7921-1.7183,13.2184-.174,1.7991-.8093,3.4505-1.8607,4.9586-.2204.3161-.398.2571-.6159.2621-.6834.0157-1.3691.0403-2.0494-.0649"/><path class="cls-2" d="M138.5727,127.4842c-1.5822.7278-2.8036,1.9745-4.2458,2.9034-.9163.5902-.829,1.6579-.9738,2.4777-.7898,4.4721-1.9659,8.8648-2.7098,13.3455-.2025,1.2196-.4324,2.4546-.8543,3.6339"/><path class="cls-2" d="M-14.9968,47.6251c4.4236,4.5288,8.6779,9.211,12.8939,13.9294,1.1441,1.2805,2.4969,2.3773,3.4986,3.7876.6475.9116,1.4163.9537,2.4997.7623,4.5424-.8026,9.0658-1.7052,13.8912-2.5392,4.9387,5.5236,9.793,11.3365,14.7955,17.02"/><path class="cls-2" d="M117.1989,115.2875c-1.9155.7073-3.5546,1.9434-5.4084,2.7769-.8777.3946-1.2813,1.1409-1.5089,2.1517-1.223,5.4306-2.5447,10.8395-3.8178,16.2592-.1357.5778.0175,1.009.224,1.2971,1.8757,2.6171,3.5541,5.3659,5.4278,7.978.6432.8967,1.0147,1.6167.5499,2.6445-.2288.506-.1402,1.0592-.1514,1.595"/><path class="cls-2" d="M100.3633,28.0233c-.8953,2.2964-1.1651,4.7447-1.746,7.1173-.8505,3.4739-1.5162,6.9908-2.4263,10.4517"/><path class="cls-2" d="M128.6178,121.8215c-1.121.6037-2.1297,1.4986-3.2511,1.9602-2.0564.8464-2.5512,2.4568-2.8944,4.2839-.8593,4.5744-2.0153,9.0857-2.9478,13.6447-.0882.4311-.1951.8658-.699,1.1897-1.9415,1.2479-3.6984,2.7666-5.7256,3.8956"/><path class="cls-2" d="M126.5682,95.2502c-1.5893.6672-3.1565,1.3771-4.7101,2.1261-.6992.3371-1.0102.7488-1.1342,1.3609-1.0795,5.333-2.2712,10.6427-3.4274,15.9591-.0988.4544.076.6469.2109.8724,1.8868,3.1555,3.6269,6.3986,5.6937,9.4471"/><path class="cls-2" d="M132.1313,50.8194c-1.4141-.0233-2.719.5488-4.0924.7671-.8251.1311-1.1042.0205-1.5067-.7485-1.6899-3.2283-3.2936-6.4987-4.9233-9.7558-.4944-.9882-.9186-1.649-2.2257-1.1852-.9681.3435-2.0554.472-3.0675.5515-1.2965.1019-1.7002.719-1.9056,1.8028-.6718,3.5451-1.5286,7.0536-2.1656,10.6049-.0957.5334-.1719,1.1403-.3625,1.5729-1.0613,2.4091.0549,4.3297,1.2206,6.2621,1.5487,2.5673,2.861,5.2664,4.4123,7.8286.6735,1.1125.358,2.0992.1466,3.2125-.9122,4.8051-2.0085,9.5721-2.9886,14.3628-.093.4547.0266.7218.1917,1.0195,1.9812,3.5718,3.9275,7.164,6.1406,10.6039"/><path class="cls-2" d="M-6.7986,92.927c5.5706,5.4643,10.9474,11.1159,16.3964,16.6978"/><path class="cls-2" d="M39.4626,38.6228c3.8496,4.8678,7.5113,9.8763,11.2591,14.8202.4608.6079,1.0839,1.0919,1.4041,1.805"/><path class="cls-2" d="M124.0795,67.8077c1.9928,3.5347,3.547,7.3002,5.7285,10.7328.2707.426.0144.7314-.0485,1.022-.9701,4.4844-1.6407,9.0289-2.6666,13.4959-.3514,1.5302-.1576,2.6581.6138,3.9533,1.0417,1.749,2.0022,3.5536,2.953,5.3571,1.4981,2.8418,1.5629,2.872.8649,5.9444-.9323,4.1038-1.5689,8.2669-2.5884,12.3529-.1354.5428-.1617,1.1397.2419,1.7524,1.7459,2.6508,2.9528,5.6101,4.7099,8.2599"/><path class="cls-2" d="M104.9016.5808c1.3447,1.485,1.9362,3.3976,2.9388,5.0755.8254,1.3813,1.4149,2.8838,2.3164,4.2271.4588.6836.5461,1.417.3472,2.3218-1.0596,4.8219-1.9902,9.6716-2.9712,14.5105-.0429.2117-.0821.4421-.2889.5816"/><path class="cls-2" d="M127.1538,51.8358c-.9823,3.9786-1.5357,8.0392-2.3388,12.0522-.0279.1397.0401.307-.0103.4322-.4522,1.1238-.0924,2.6928-.9473,3.397-.7999.6589-2.1659.7827-3.2817,1.1368-.7875.2499-1.6144.4366-2.352.8413"/><path class="cls-2" d="M106.3656,137.3577c-2.5426,1.1498-4.779,2.8127-7.1806,4.1984-.2099.1211-.3965.1867-.433.4478-.3794,2.7065-1.6369,5.2231-1.7557,7.9861"/><path class="cls-2" d="M145.5997,109.3344c-1.4926.4136-2.4666,1.6521-3.7838,2.3642-.6474.3499-.447,1.32-.5801,1.9972-.8461,4.3042-1.6302,8.6211-2.5539,12.9094-.1166.5413.0098.9497.2047,1.3032,1.3416,2.433,2.4608,4.9782,3.8192,7.3978.2676.4766.3324.9216.2354,1.32-.9494,3.8967-1.558,7.863-2.4884,11.7613-.1311.5491-.0535,1.0721-.1233,1.6026"/><path class="cls-2" d="M141.647,60.4025c-.9273.4767-1.9293.7413-2.9277,1.0171-.8232.2274-1.3239.7191-1.4713,1.5952-.7598,4.5136-1.3282,9.062-2.4746,13.5064-.0595.2308.1762.4014.2602.5902,1.3753,3.0923,2.8573,6.1331,4.4282,9.1308.3005.5734.3923,1.1799.2629,1.7436-.9715,4.2332-1.4915,8.5508-2.4645,12.7829-.2435,1.0591-.1508,2.0262.3989,3.0664,1.3667,2.5866,2.5178,5.2845,3.988,7.8224"/><path class="cls-2" d="M.5212,136.1961c3.9962,3.7846,8.0006,7.561,12.1572,11.1731.9883.8589,1.6515,2.0737,2.9216,2.6208"/><path class="cls-2" d="M170.0478,130.243c.8175.6284.6363,1.6615,1.0119,2.4742,1.1604,2.5107.9064,5.0525.3547,7.6997-.6532,3.134-.9776,6.3375-1.4417,9.4837-.4617.167-.8521.0789-1.2425.0167"/><path class="cls-2" d="M118.6628.726c.0102,2.3741-.6583,4.6508-1.0455,6.9661-.1635.9776-.0706,2.0297-.6952,2.9185-.1174.167.1641.3906.2519.581,1.8537,4.0173,4.0344,7.8745,5.9027,11.8849.3689.7918.5087,1.3953.3456,2.3459-.5897,3.4354-1.2537,6.8589-1.8459,10.294-.227,1.3168-.3741,2.6595-.864,3.9228"/><path class="cls-2" d="M134.7664,35.864c-.8212,3.8967-1.2472,7.8652-2.0885,11.7528-.4603,2.1269-.1489,3.9055.8549,5.848,1.2901,2.4965,2.5213,5.0457,3.6049,7.6519.076.1828.1619.5969.5566.5926"/><path class="cls-2" d="M149.9916,69.2596c-.4361.1029-.7995.5104-1.1745.5481-2.3884.2401-2.7362,1.9359-2.9287,3.8075-.3661,3.558-1.2116,7.0441-1.6501,10.5946-.0808.6543-.1074,1.1613.1788,1.7532,1.2666,2.6195,2.3463,5.3227,3.5525,7.9681.5128,1.1247-.0303,2.0673-.1996,3.0572-.6723,3.9304-1.0581,7.9146-2.1652,11.7668-.0827.2876.1404.488.2682.7346,1.3486,2.6021,2.3337,5.3708,3.6804,7.9754.4669.9031-.0288,1.7715-.1814,2.608-.7153,3.9231-1.4561,7.842-2.1888,11.7622-.0788.4217-.0326.6569.15,1.0324,1.1192,2.3013,1.9761,4.7249,3.2495,6.9553.6093,1.0672-.0044,2.0458-.1618,3.0508-.373,2.3828-.9807,4.7242-1.3078,7.1162"/><path class="cls-2" d="M75.0368.5808c1.1424.7872,1.4759,2.1213,2.2022,3.1902,1.9245,2.8323,3.6206,5.8037,5.3748,8.737.4465.7465.9064.9035,1.6462.8546,1.9988-.1321,3.996-.2841,6.0018-.3078.8119-.0096,1.4538.0454,1.9194.8754,2.2425,3.9972,4.6102,7.9245,6.8544,11.9207,1.1572,2.0606,1.1102,2.0936,3.377,1.8791,1.1217-.1061,2.261-.161,3.3596-.3358,1.2139-.1931,1.7718.0735,2.3936,1.1859,2.2662,4.0547,4.3296,8.2182,6.6908,12.2205"/><path class="cls-2" d="M159.6537,120.9503c-2.5996,1.2232-3.1661,3.5649-3.5336,6.0955-.4665,3.2127-.9404,6.4292-1.7261,9.5886-.0689.277-.0161.5785.1272.8727,1.0381,2.1306,1.7142,4.4165,2.8024,6.5236.4864.9418-.0497,1.7522-.1595,2.6197-.141,1.1139-.5051,2.1989-.4384,3.3397"/><path class="cls-2" d="M173.8541,115.5779c.7348,2.0152,1.1174,4.1298,1.6935,6.1883.3507,1.2533-.2426,2.6461-.4118,3.971-.3338,2.6142-.7507,5.217-1.063,7.8365-.0942.7903-.9965,1.5463-1.8291,2.0415"/><path class="cls-2" d="M144.1357,46.3183c-.6998,3.3138-1.026,6.6875-1.6309,10.015-.2204,1.2122-.0964,2.4942-.7038,3.6376-.1269.2388.0366.5039.1454.7187,1.6591,3.2749,2.8138,6.7738,4.5316,10.022"/><path class="cls-2" d="M126.861.5808c1.4954,1.6234,1.7473,3.9016,2.9586,5.6417,1.689,2.4264,1.4346,4.9678.8373,7.569-.7281,3.1707-.8305,6.4502-1.7398,9.5873-.0939.3238.1369.5861.2756.8744,1.6924,3.5176,3.351,7.0512,4.9819,10.5973.3319.7217.6765,1.1734,1.6238.8923,1.04-.3087,2.178-.2034,3.2135-.6047"/><path class="cls-2" d="M137.1087.726c-.3855,2.7111-.5259,5.46-1.195,8.1252-.1419.565.148.9001.3225,1.3102,1.4869,3.4957,3.017,6.9753,4.5908,10.4306.5204,1.1425.2031,2.1143.0368,3.0665-.6327,3.6241-.8358,7.3144-1.7131,10.8969-.1248.5096.1674.9163.3287,1.2967,1.356,3.1986,2.8243,6.3495,4.0849,9.5895.2366.6082.6371.842,1.4642.6465.895-.2116,1.7987-.6093,2.767-.4959"/><path class="cls-2" d="M165.3632,125.7418c-1.5207,1.0179-2.5294,2.2373-2.839,4.2018-.5732,3.6371-1.1604,7.2783-1.8857,10.8909-.0798.3973-.0472.7814.0701,1.009.8875,1.7214,1.3057,3.6103,2.0434,5.3778.3828.9172.2572,1.8509.4152,2.7686"/><path class="cls-2" d="M161.5569,63.0161c-2.4292.7126-2.6345.899-3.06,3.9223-.4637,3.2952-.5362,6.6468-1.4818,9.8705-.0696.2373.0745.426.1634.5738,1.5322,2.5469,1.8876,5.5701,3.363,8.1338.217.3771.0152.6991-.028,1.0192-.5099,3.7787-1.067,7.5511-1.6088,11.3255-.0822.5726-.0622,1.0437.1372,1.6087.9077,2.5726,1.7406,5.1727,2.8381,7.6733.1227.2795.1431.5366.0973.7347-.9219,3.9788-1.191,8.0648-2.0321,12.0555-.0609.2889-.1321.7982-.1029.8464,1.3772,2.2704,1.7984,4.9093,2.8909,7.2827.0084.0183.0926.0023.1414.0023"/><path class="cls-2" d="M169.4623,110.9316c-1.4186.8051-2.1599,1.8855-2.409,3.6206-.487,3.3924-.8542,6.8086-1.5237,10.1772-.0704.3544-.0555.754.1045,1.166.7547,1.9432,1.161,4.0154,1.9778,5.9225.4472,1.0443.0415,1.928-.1165,2.7693-.6174,3.2871-.8883,6.6316-1.6789,9.8886-.1169.4817.0657.9778.2703,1.4521.5623,1.3031,1.0006,2.6469,1.1794,4.0621"/><path class="cls-2" d="M50.8815,115.1423c3.7265,4.2925,7.3042,8.711,11.1261,12.9227"/><path class="cls-2" d="M155.5546.5808c.1887.1097.5533.0366.5712.2914.0979,1.3995.6712,2.7292,1.2658,3.8785,1.124,2.1726,1.0517,4.356.7658,6.5706-.3185,2.4668-.3276,4.9618-.8071,7.4167-.1663.8511.555,1.6361.8319,2.4634.7976,2.3829,1.5297,4.7952,2.5258,7.0997.7595,1.7571.0563,3.4289-.1007,5.0879-.2384,2.5195-.1888,5.0949-.9442,7.5598-.1374.4484.3328.744.4682,1.146.6553,1.9443,1.2243,3.9343,2.0534,5.8022.8522,1.9202,1.0124,3.8426.6715,5.8233-.4896,2.8447-.5342,5.7401-1.1155,8.5773-.2146,1.0477.5229,2.0434.8748,3.0297.726,2.0345,1.334,4.1087,2.1346,6.121.4908,1.2338-.1722,2.5061-.2785,3.7633-.2426,2.8658-.7029,5.7084-1.0058,8.5684-.0303.2859-.1779.5543-.014.8747,1.23,2.4049,1.7043,5.0835,2.7613,7.5581.4169.9759-.1403,2.0241-.2688,3.0367-.3939,3.1037-.6675,6.2245-1.3107,9.2938-.0194.0928-.0322.2051.0019.2881,1.0359,2.5268,1.4012,5.2917,2.7772,7.6973"/><path class="cls-2" d="M68.449,89.4422c3.2279,4.2538,6.3155,8.612,9.6621,12.7775"/><path class="cls-2" d="M173.1222,96.9925c-1.3264.7931-2.005,1.9593-2.2081,3.4832-.4259,3.196-.6943,6.4118-1.2832,9.5887-.1879,1.0139.4869,1.9444.7791,2.8786.4411,1.4105.5839,2.9314,1.3594,4.2524.1129.1922.1509.608.0791,1.0039-.5497,3.0306-1.0488,6.0772-1.3296,9.1425-.1875,2.0465-.9738,3.6323-2.667,4.7887"/><path class="cls-2" d="M150.87.726c.0775,1.9047-.0629,3.8231-.488,5.6516-.5715,2.4579.8946,4.3055,1.5362,6.3928.5302,1.7248,1.1828,3.4272,1.9161,5.0731.7443,1.6704.4443,3.3363.2066,4.9455-.4144,2.8054-.2862,5.682-1.1183,8.4296-.1172.3871.1664.6916.2993,1.0116,1.3117,3.1604,2.3677,6.4173,3.6769,9.5762.3079.7429-.1223,1.2866-.2131,1.8924-.5216,3.4809-.5453,7.0289-1.414,10.4626-.0455.1797.0223.3761.1178.5868,1.3755,3.0357,2.1632,6.3013,3.6789,9.2842"/><path class="cls-2" d="M94.3611.726c-.3365,2.5112-1.0738,4.9367-1.6091,7.4054-.3585,1.6532-.6049,3.3322-1.1724,4.9365"/><path class="cls-2" d="M177.2212,1.089c.7057.3367,1.2261.7693,1.039,1.6727-.0461.2225-.0641.4724.1203.7314,1.6415,2.3052,1.399,5.1172,2.0408,7.6923.1981.7948.1508,1.5657,1.178,1.9213.6594.2283.811,1.0849.8593,1.7061.1069,1.3745.4291,2.7083.6004,4.0653.2369,1.8764.1052,2.1298,2.3603,2.032.2435-.0106.4879-.0014.7319-.0014"/><path class="cls-2" d="M170.6334,57.9342c-1.3257.3032-2.0476.9752-2.2399,2.4628-.4129,3.1927-.5326,6.4143-1.0637,9.5991-.1603.9613.5101,2.0421.864,3.0213.6622,1.8325.9614,3.7802,1.8301,5.5466.1318.2681.2412.6487.1706,1.0048-.6277,3.1658-.9316,6.3688-1.1829,9.5822-.2637,3.3733,1.1814,6.2931,2.3538,9.2936"/><path class="cls-2" d="M179.4172,90.1682c.6281.7603.5203,1.7665.8833,2.6115,1.4698,3.4213.4627,6.9049.0556,10.301-.3173,2.6474-.3757,5.239.456,7.6797.6865,2.0148.3412,3.9251.1491,5.8272-.2298,2.2751-.4935,4.5593-.8026,6.8322-.0592.4351-.0513.831-.439,1.171-.9103.798-1.0428,1.884-1.2172,3.0331-.448,2.9514-.8943,5.9152-1.1862,8.8718-.1816,1.8393.462,3.7921,1.2227,5.5809"/><path class="cls-2" d="M176.7821,102.5101c-.9592.677-1.504,1.4327-1.6854,2.7486-.3869,2.8073-.6685,5.6301-1.047,8.4382-.2138,1.5859-.784,2.7642-2.0987,3.6234"/><path class="cls-2" d="M177.0748,54.0138c-1.0866.3407-1.2213,1.2208-1.328,2.1768-.324,2.9012-.1523,5.8505-.8522,8.7168-.0241.0988.027.2853.0946.4467.9947,2.3762,1.4694,4.9113,2.0343,7.4017.4178,1.8422-.1538,3.7644-.2731,5.6493-.1043,1.6479-.2689,3.3018-.5365,4.9415-.133.815.3934,1.5406.5716,2.3196.3799,1.6607.9177,3.3051,1.2284,4.9534.3349,1.7768-.2113,3.6657-.3989,5.497-.1836,1.7919-.3624,3.5942-.6385,5.3842-.2196,1.4239.4285,2.8749.9011,4.1783,1.0572,2.9154.4324,5.7335.0654,8.5906-.2241,1.7445-.4761,3.4986-.6373,5.2361-.1279,1.3775.6243,2.7939.9309,4.2051.1367.6294.1847,1.2763.5951,1.8129"/><path class="cls-2" d="M165.8024.726c.1565,1.888.8771,3.6556,1.233,5.5058.1619.8417.3167,1.6623.2109,2.4775-.3258,2.5096-.1291,5.0507-.5459,7.5561-.1898,1.1408.2155,2.265.5847,3.3299.7489,2.1597,1.3109,4.3733,2.0237,6.5426.7122,2.1675-.0286,4.3587-.0748,6.5299-.0324,1.5253-.099,3.111-.4404,4.6618-.1786.8112.4374,1.7264.6903,2.5937.622,2.1328,1.1773,4.2903,1.9117,6.3845.4945,1.4099-.0079,2.7388-.0937,4.0719-.1465,2.2753-.251,4.5667-.6342,6.8341-.2035,1.2044.5748,2.3232.9095,3.4601.5004,1.6997.7965,3.4723,1.5432,5.1016.4196.9155.0794,1.8738-.0459,2.7513-.3657,2.5608-.3766,5.1537-.8215,7.7038-.2695,1.5449.5142,2.9171.8817,4.3512.3763,1.4681.6239,2.9746,1.2761,4.3724.1031.2209.2402.5559.1724.8573-.7531,3.3484-.7134,6.8001-1.3473,10.1585-.1725.9136.2978,1.5727.5023,2.321.4985,1.824.7432,3.7254,1.5798,5.4531"/><path class="cls-2" d="M164.6312,17.8594c-.531,2.3425-.3917,4.7574-.7675,7.1091-.1782,1.1148.1452,2.2645-.3746,3.3587-.2019.425.1083.9781.2761,1.4339.953,2.5897,1.7508,5.2296,2.6371,7.8404.5509,1.623.0551,3.2305-.0931,4.789-.2209,2.3229-.1394,4.6987-.7929,6.9788-.0513.1791-.0704.4137.0027.5747,1.2545,2.7634,1.8189,5.7567,2.9078,8.575.0681.1762.0944.3001.3034.2864"/><path class="cls-2" d="M72.8409,123.9994c2.8218,3.502,5.6642,6.9879,8.35,10.5955.2027.2723.4826.488.7265.73"/><path class="cls-2" d="M183.8091,21.0538c-.3034.2721-.4016.6028-.4545,1.0145-.3819,2.9725-.3577,5.9423.3309,8.8537.7671,3.2432.4632,6.4809.2756,9.7339-.1187,2.0579.3346,4.0931.6661,6.0839.3945,2.3684-.1267,4.6591.0156,6.9863.0729,1.1927-.2378,2.3966-.934,3.5105-.4133.6611-.122,1.6269-.1434,2.4412-.0612,2.3268-.4198,4.6378-.3423,6.9683.0032.0967.0392.2536-.0052.2818-1.9023,1.2097-.9921,3.2042-1.2356,4.8116-.2505,1.6535-.2608,3.3772-.3709,5.0705-.1448,2.2278.7264,4.2703,1.1891,6.3853.1378.6297.3827,1.2542.2646,1.8889-.5275,2.8342-.5542,5.722-.776,8.5758-.1651,2.124.2143,4.3686,1.2272,6.3818"/><path class="cls-2" d="M174.1469,134.3085c.6831,1.4883.8768,3.1256,1.3807,4.673.3902,1.1981-.3091,2.5874-.4885,3.8956-.3257,2.3742-.7228,4.7376-1.0386,7.1129"/><path class="cls-2" d="M103.584,107.8824c2.2092,3.1227,4.1503,6.4186,6.2607,9.6054.2787.4208.6159.755.9127,1.1392"/><path class="cls-2" d="M177.9532,3.63c-.7095,1.0245-.4508,2.2232-.5657,3.3416-.287,2.7936.0031,5.5378.6823,8.2815.8269,3.3404.6224,6.7564.3263,10.157-.1589,1.8247.3188,3.5993.6257,5.3645.3626,2.0852.7731,4.1505.3812,6.2484-.7737,4.1419.0885,8.1296,1.2357,12.0395.6569,2.2387.2769,4.3793.0702,6.5461-.39,4.089.2356,8.0072,1.6361,11.8361"/><path class="cls-2" d="M184.9802,73.7608c-.8387,1.6097-.6147,3.3896-.6773,5.0839-.0571,1.5472-.4545,3.0705-.2254,4.6478.2519,1.7343.3721,3.4826,1.1954,5.0785"/><path class="cls-2" d="M167.5591,7.6955c2.2818.6476,3.1889,2.3388,3.5199,4.5002.2423,1.5823.6946,3.1177,1.0901,4.6661.2043.8-.1469,1.8191-.2523,2.7361-.2556,2.224-.171,4.4644-.4843,6.6923-.1536,1.0923.5993,2.2223.9589,3.3299.6577,2.0257.965,4.1405,1.8294,6.1297.3616.832-.1344,2.0105-.2714,3.0113-.2847,2.0801-.1007,4.1832-.4984,6.2572-.1939,1.0113.2756,2.0543.5758,3.0345.5309,1.733.9048,3.5051,1.4383,5.2349.1415.4587.0926,1.0024.5849,1.307"/><path class="cls-2" d="M90.994,131.1142c2.5526,3.4254,5.0762,6.8719,7.6126,10.3091"/><path class="cls-2" d="M161.5569.4356c-.2237,2.1244-.1567,4.2668-.4231,6.3907-.0848.6761-.038,1.3519.2557,2.0396.9876,2.313,1.6136,4.7563,2.4982,7.1101.7014,1.8662.6557,1.8831,2.6466,1.5929"/><path class="cls-2" d="M186.1514,64.3229c-.8592,1.3127-.3689,2.813-.5401,4.2162-.1986,1.6277-.0054,3.2994-.3383,4.9313"/><path class="cls-2" d="M181.0275,13.0679c-.5693.5877-.3467,1.3826-.3925,2.036-.2047,2.9159-.2123,5.8351.5285,8.7113.6276,2.4369.4384,4.9417.2584,7.3992-.1596,2.1801.0325,4.2903.4952,6.3895.7357,3.3382.5101,6.6849.1098,10.0181-.2633,2.1926.5914,4.1683.9127,6.2452.148.9565.2721,1.9359.8694,2.7601"/><path class="cls-2" d="M100.0705,77.1004c-2.5384.8202-5.0522,1.7149-7.6126,2.4684"/><path class="cls-2" d="M119.3948,142.73c1.6107,2.3101,2.9782,4.7728,4.5383,7.1147"/><path class="cls-2" d="M111.1966,57.4986c-2.0628.155-3.9813.9594-5.9964,1.3373-.2421.0454-.4939.0658-.7378.1147"/><path class="cls-2" d="M114.4173,86.6835c-2.1375,1.0161-4.3741,1.7865-6.5878,2.6136"/><path class="cls-2" d="M183.2235,67.5173c.7559,1.3561.5673,2.9294,1.0087,4.3608.0911.2955.0044.6111.3015.8744,1.3543,1.2001,1.4427,2.863,1.6401,4.4903.0131.1078.085.3511.2703.4383"/><path class="cls-2" d="M30.6788,144.3272c1.9038,1.8869,3.8052,3.7763,5.7094,5.6627"/><path class="cls-2" d="M110.9038,11.0351c2.0007,0,4.0015,0,6.0022,0"/><path class="cls-2" d="M182.6379,7.6955c-1.1616,1.2473-.2909,2.7141-.3843,4.0693-.0282.4097.0538.7962-.2013,1.1579"/><path class="cls-2" d="M128.7642,23.8125c-1.6163-.0012-3.2088.3891-4.8311.2904"/><path class="cls-2" d="M184.3947,57.063c.7994,1.1361.585,2.54.9902,3.7862.1213.373.1339.7488.4738,1.0053"/><path class="cls-2" d="M134.7664,76.9552c-1.5935.5511-3.1184,1.27-4.6847,1.8876"/><path class="cls-2" d="M136.8159,102.6553c-1.6302.6104-2.9673,1.7508-4.5383,2.4684"/><path class="cls-2" d="M135.6448,9.5831c-1.3664.0002-2.7327.0002-4.0991,0"/><path class="cls-2" d="M147.0637,132.7113c-1.6068.6476-2.3961,2.3376-3.9527,3.0492"/><path class="cls-2" d="M143.8429,85.2315c-1.3284.4526-2.4779,1.2898-3.8063,1.7424"/><path class="cls-2" d="M182.3451,112.2384c.8746,1.1106.3967,2.634,1.1712,3.7752"/><path class="cls-2" d="M145.0141,21.199c-1.2489-.2624-2.426.3669-3.6599.2904"/><path class="cls-2" d="M180.0028,124.7254c.9288.9836.4076,2.4466,1.1712,3.4848"/><path class="cls-2" d="M154.2371,137.5029c-1.2968.7101-1.8642,2.2961-3.3671,2.7588"/><path class="cls-2" d="M151.7483,92.6366c-1.2381.3609-2.1604,1.3219-3.3671,1.7424"/><path class="cls-2" d="M184.3947,100.6225c.6656.9639.2127,2.2304.8784,3.1944"/><path class="cls-2" d="M131.3993,149.9174c-1.6083.16-3.221.0306-4.8311.0726"/><path class="cls-2" d="M188.2009,48.0607h-3.0743"/><path class="cls-2" d="M152.9195,115.2875c-1.1023.7278-1.7974,1.9545-3.0743,2.4684"/><path class="cls-2" d="M179.71,141.2781c.6465.5929.5749,1.4363.6997,2.1833.0654.3911.2201.6275.4714.8659"/><path class="cls-2" d="M160.3857,141.7136c-.9615.8352-1.7125,1.8909-2.7815,2.6136"/><path class="cls-2" d="M182.3451,128.5006c.6656.8571.1686,2.06.8784,2.904"/><path class="cls-2" d="M158.7753,99.1705c-.6858-.0366-1.0429.4702-1.464.8712s-.7782.9078-1.464.8712"/><path class="cls-2" d="M152.7731,31.6533c-.9368.3876-1.965.3224-2.9279.5808"/><path class="cls-2" d="M147.0637,8.4215h2.7815"/><path class="cls-2" d="M165.656,145.4888c-1.0686.5226-1.3086,1.9182-2.4887,2.3232"/><path class="cls-2" d="M157.0186,77.2456c-.9767.3319-1.8508.8786-2.7815,1.3068"/><path class="cls-2" d="M155.1154,54.5946c-.8978.4178-1.8086.8008-2.7815,1.0164"/><path class="cls-2" d="M184.3947,116.5943c.7699.7135.0642,1.9148.8784,2.6136"/><path class="cls-2" d="M157.0186,19.1662c-.8557-.123-1.6466.2995-2.4887.2904"/><path class="cls-2" d="M168.7303,91.0394c-1.0637-.0632-1.3492,1.2457-2.3423,1.3068"/><path class="cls-2" d="M185.8586,89.8778c.8021.5849.2562,1.6713.8784,2.3232"/><path class="cls-2" d="M163.1672,84.3603c-.9125.2749-1.3927,1.2359-2.3423,1.452"/><path class="cls-2" d="M164.4848,105.414c-.9838.3122-1.3585,1.4301-2.3423,1.7424"/><path class="cls-2" d="M159.5073,41.2363c-.7376.379-1.5996.3633-2.3423.726"/><path class="cls-2" d="M158.6289,7.5503c.7663-.1585,1.4356.4046,2.1959.2904"/><path class="cls-2" d="M163.3136,29.0397c-.7203-.1611-1.3418.364-2.0495.2904"/><path class="cls-2" d="M167.1199,70.5664c-.7037.3516-1.2946.8989-2.0495,1.1616"/><path class="cls-2" d="M165.3632,49.9483c-.6691.2425-1.3033.606-2.0495.5808"/><path class="cls-2" d="M168.7303,37.8968c-.6224.1968-1.2797.2433-1.9031.4356"/><path class="cls-2" d="M172.5366,17.2786c.7433.0564,1.1084.9255,1.9031.8712"/><path class="cls-2" d="M171.951,77.6811c-.7564.0483-.933,1.0826-1.7568,1.0164"/><path class="cls-2" d="M177.0748,11.1803c-.8165.1676-.9403-1.0388-1.7568-.8712"/><path class="cls-2" d="M176.3429,25.7001c.8256.0301.9311,1.1315,1.7568,1.1616"/><path class="cls-2" d="M177.0748,137.6481c-.6752.1238-.5182,1.1762-1.3176,1.1616"/><path class="cls-2" d="M175.7573,84.2151c-.3175.3868-.7255.6538-1.1712.8712"/></svg>