<?xml version="1.0" encoding="UTF-8"?>
<svg id="Layer_1" data-name="Layer 1" xmlns="http://www.w3.org/2000/svg" viewBox="0 0 300 300">
  <defs>
    <style>
      .cls-1 {
        fill: #394b5e;
      }

      .cls-1, .cls-2, .cls-3, .cls-4, .cls-5 {
        stroke-width: 0px;
      }

      .cls-2 {
        fill: #090c18;
      }

      .cls-3 {
        fill: #abc0c7;
      }

      .cls-4 {
        fill: #fbfcfc;
      }

      .cls-5 {
        fill: #040914;
      }
    </style>
  </defs>
  <path class="cls-5" d="M197.91,200.98c-2.86-1.48-3.8-5.13-5.68-7.58-2.23-3.16-5.9-5.42-9.76-7.04-4.84-1.79-18.51-3.84-21.06,1.82-.86,4.76,5.26,4.7,8.61,4.57,7.23.46,5.9,8.54.79,11.37-4.06,2.74-4.37,7.6-4.18,12.09.37,10.93-7.27,31.41-17.87,35.74-3.64.45-6.14-3.06-7.98-5.73-10.24-13.95-10.38-22.91-12.24-38.9-1.86-3.88-8.49-5.81-6.97-10.97,1.32-4.74,7.35-1.93,10.81-3.58,1.73-.81,2.93-2.79,2.4-4.42-3.24-6.34-16.5-3.79-22.04-1.92-3.23,1.34-6.3,3.36-8.43,6.11-2.21,2.6-3.57,6.69-6.81,8.05-10.78,3.06-6.76-26.89-6.37-32.91,4.03-16.06,24.19-25.25,23.8-42.74-.16-33.45-2.87-68.51,17.6-97.43,5.01-5.91,11.42-20.3,20.67-12.98,16.2,14.61,24.27,36.36,27.32,57.35,1.54,14.08.21,29.1.69,43.39-.22,8.84-.68,18.42,5.68,25.53,6.39,9.41,16.45,16.97,18.03,28.57-.37,6.19,4.2,34.74-6.85,31.67l-.15-.07Z"/>
  <path class="cls-5" d="M45.96,176.14c48.27-1.33,42.09,72.26-5.7,62.86-8.13-1.57-15.45-6.4-19.74-12.93-1.71-2.59-3.02-5.49-3.93-8.69-.64-2.98-1.56-5.09-1.05-7.38,2.25-6.82,33.6-.19,46.97-13.27,2.63-2.71-1.06-6.7-4.02-4.56-9.97,6.86-22.68,10.4-34.93,9.44-5.35-.43-7.34-4.31-4.62-8.88,3.18-5.38,7.63-9.56,12.4-12.9,4.33-2.6,9.62-3.52,14.37-3.69h.26Z"/>
  <path class="cls-5" d="M236.76,114.99c52.27-.18,52.34-8.36,50.01,46.33,1.35,19.54-52.9,1.66-58.74,10.96,2.87,15.79-11.85,21.67-11.37,3.14,2.93-10.36-7.08-74.49,8.01-66.86,6.37,2.28-1.05,7.81,12.09,6.42Z"/>
  <path class="cls-5" d="M55.29,98.61c22.14-5.56,29.9,23.24,6.43,25.38-2.66.9-.18,6.58-1.45,9.14-.18,1.18-.29,1.43,1.01,1.42,10.35-1.06,18.81,10.24,13,19.3-2.47,7.09-11.83,4.38-17.96,5.91-6.84,2.18-15.16-5.2-6.74-9.68,4.54-1.78,14.76,2.49,16.56-2.84,2.35-5.3-38.84-5.66-35.32.44,1.41,3.94,7.09.56,9.42,3.67,4.43,16.81-25,5.88-19.32-6.61.92-7.41,8.58-8.55,13.81-11.49-5.19-28.09,28.03-10.63,31.98-22.39-2.32-8.16-16.39,1.31-19.82-6.14-1.83-5.3,4.13-7.3,8.38-6.11Z"/>
  <path class="cls-5" d="M251.88,94.08c-8.89,1.89-17.18.83-24.46-4.92-1.35-1.06-2.54-2.33-3.73-3.58-1.45-1.54-2.3-3.4-4.87-4.05-2.87-.73-3.43-4.78-1.62-7.35.43-.61.51-1.53.56-2.32.25-3.57.44-7.13.66-10.7,2.95-8.31,8.21-14.56,16.72-17.79,10.9-4.14,22.99-.72,31.11,8.63.49.56,1.41.75,2.13,1.13,1.43.75,3.57,1.18,4.1,2.33.58,1.26-.28,3.19-.63,4.81-.14.66-.96,1.35-.83,1.88,3.28,14.2-5.55,28.15-19.13,31.94Z"/>
  <path class="cls-5" d="M237.63,184.55c4.96-1.37,9.65,3.08,14.34,3.38,6.38,1.09,15.69-9.01,19.56-.33,2.86,8.75.25,14.31,9.62,20.39,11.03,8.32-.33,10.85-5.52,17.16-4.03,4.65-1.01,13.58-6.49,17.46-5.13,1.94-10.37-3.34-15.61-3.28-5.63-.58-12.43,5.42-17.39,2.89-4.5-2.82-3.39-9.71-4.94-13.85-1.7-6.77-16.12-9.29-10.33-17.54,2.45-3.33,7.24-5.05,9.73-8.44,3.75-4.92.08-14.63,6.84-17.77l.19-.06Z"/>
  <path class="cls-5" d="M229.18,274.29c-18.19-8.25-30-2.99-36.35-11.5-6.86-11.89,1.91-20.92-14.8-30.56-2.65-1.59-6.38-3.11-6.89-6.42-.35-2.74,2.77-4.75,5.54-4.63,9.28.71,18.26,8.6,21.29,17.05,3.18,7.56,2.78,14.57,6.8,17.82,3.08,1.64,6.91.76,10.36,1.35,9.67,1.09,16.99,9.02,25.98,11.83,2.37.74,4.78,1.03,7.28,1.11,6.21.04,32.27.06,17.34,9.93"/>
  <path class="cls-5" d="M86.12,274.8c-22.29,2.19-16.81,14.02-48.13,12.57-3.8.02-14.17-.56-12.06-6.11,4.44-5.91,19.49-2.28,26.74-4.71,7.91-1.73,14.17-7.83,21.83-10.42,6.45-2.59,16.15-.93,18.83-8.81.63-1.61,1.08-3.49,1.54-5.23,1.83-8.02,7.04-14.99,13.75-19.92,3.31-2.35,7.43-4.72,11.59-4.28,2.24.3,4.07,1.39,4.18,3.52-.6,5.26-6.85,6.91-10.68,10.68-16.11,14.91,1.84,32.58-27.33,32.67l-.24.02Z"/>
  <path class="cls-5" d="M104.8,36.22c3.8-.38,5.11,4.83,2.15,6.78-1.16.65-2.05.54-3.49.56-4.15-.25-2.39,3.43-4.04,5.98-1.89,2.74-5.73,1.26-6.47-1.56-.18-.85.08-1.76-.04-2.61-.07-.4-.27-.75-.55-1.01-1.76-1.57-6.75-.21-7.7-3.1-.48-1.2-.24-2.95.75-3.65,1.88-1.47,6.14-.75,7.17-2.94.73-1.61.42-3.86,1.89-5.09,1.93-1.71,5.3-.79,5.79,2.18.39,2.8.8,4.7,4.3,4.44h.25Z"/>
  <path class="cls-5" d="M197.1,50.35c-1.67-1.58-1.11-4.78-3.23-6.06-1.4-.88-4.11-.49-5.58-1.71-1.86-1.3-1.65-4.27.23-5.46,1.56-1.1,4.24-.67,5.49-1.76,1.37-1.02,1.02-3.92,2.31-5.4,1.74-2.09,5.26-1.04,5.72,1.59.38,1.16.42,2.53,1.26,3.47,1.56,1.64,6.02,1.14,6.91,4.03.8,2-.85,4.01-2.89,4.39-1.4.4-3.17.21-4.18,1.39-.89,1.02-.69,3.28-1.73,4.62-.9,1.21-2.87,2.05-4.17,1.01l-.14-.12Z"/>
  <path class="cls-5" d="M62.2,61.94c-1.44,0-2.88.04-4.32,0-2.49-.09-4.39-2.06-4.4-4.47,0-2.45,1.87-4.39,4.39-4.44,2.82-.05,5.64-.06,8.46-.01,2.45.04,4.42,2.09,4.4,4.46-.02,2.46-1.9,4.38-4.39,4.45-1.38.04-2.76,0-4.14,0v.02Z"/>
  <path class="cls-5" d="M33.66,61.94c-1.37,0-2.75.07-4.12-.02-2.34-.15-4.2-2.29-4.18-4.7.02-2.28,1.78-4.1,4.2-4.18,2.69-.09,5.38-.07,8.07-.03,2.47.04,4.33,1.89,4.36,4.22.03,2.43-1.96,4.6-4.38,4.7-1.31.06-2.63.01-3.94,0Z"/>
  <path class="cls-5" d="M43.08,45.24c0-1.12-.02-2.24,0-3.35.07-2.75,1.81-4.7,4.26-4.8,2.25-.09,4.43,1.82,4.59,4.33.17,2.64.17,5.3,0,7.94-.15,2.4-2.32,4.25-4.54,4.17-2.31-.08-4.25-2.12-4.32-4.58-.04-1.23,0-2.47,0-3.71,0,0,0,0,.01,0Z"/>
  <path class="cls-5" d="M36.65,79.55c-4.63-1.26-3.92-6.79-1.12-9.75,1.73-2.16,3.99-4.96,6.72-4.71,4.69.72,5.08,5.23,2.18,8.39-1.99,2.2-4.39,6.35-7.57,6.11l-.2-.03Z"/>
  <path class="cls-2" d="M62.13,73.9c-.24,1.16-.49,2.33-.73,3.49-2.87,2.85-4.9,2.78-7.6-.3-1.28-1.47-2.57-2.95-3.73-4.5-1.58-2.11-1.12-4.99.95-6.59,1.95-1.51,4.22-1.19,6.07,1.09,1.78,2.2,3.37,4.54,5.05,6.82Z"/>
  <path class="cls-2" d="M272.36,100.14c0-1.88-.11-3.78.08-5.64.05-.43,1.39-1.23,1.71-1.06,3.44,1.78,6.81,3.69,10.14,5.65.17.1.11,1.16-.15,1.33-3.36,2.25-6.76,4.45-10.23,6.54-.2.12-1.44-.71-1.48-1.17-.17-1.87-.07-3.76-.08-5.65Z"/>
  <path class="cls-2" d="M211.99,247.13c-1.16-1.08-3.19-2.08-3.31-3.27-.23-2.23,1.39-4.03,3.59-5.03.6-.04,1.2-.07,1.8-.11,2.9,1.03,4.37,3.15,3.46,5.92-.37,1.13-2.02,1.84-3.09,2.75-.81-.09-1.63-.17-2.44-.26Z"/>
  <path class="cls-2" d="M21.38,128.11c.05,2.15-2.08,4.41-4.25,4.51-2.27.11-4.58-2.04-4.63-4.3-.05-2.34,2.03-4.43,4.43-4.47,2.27-.03,4.39,1.99,4.44,4.25Z"/>
  <path class="cls-2" d="M86.55,241c.86,2.13.53,3.99-1.25,5.53-1.84-.08-3.69-.15-5.53-.23-.12-.12-.23-.25-.35-.37-.88-.45-1.41-1.08-1.06-2.12.39-4.62,2.68-6.06,6.81-4.28.46.49.92.98,1.38,1.48Z"/>
  <path class="cls-2" d="M35.15,251.23c2.3,0,4.2,1.86,4.23,4.16.03,2.09-1.97,4.18-4.04,4.23-2.33.05-4.35-1.88-4.41-4.23-.06-2.23,1.88-4.14,4.21-4.15Z"/>
  <path class="cls-2" d="M242.35,251.26c2.37.04,4.17,1.9,4.08,4.24-.09,2.23-2.01,4.15-4.11,4.11-2.35-.05-4.17-1.89-4.14-4.21.03-2.41,1.81-4.18,4.17-4.14Z"/>
  <path class="cls-2" d="M262.75,255.38c-.01,2.29-1.88,4.17-4.17,4.2-2.23.03-4.17-1.87-4.1-4.03.07-2.38,1.93-4.26,4.17-4.22,2.31.04,4.12,1.83,4.1,4.04Z"/>
  <path class="cls-2" d="M56.03,255.52c0,2.23-1.71,4.01-3.87,4.05-2.34.04-4.33-1.82-4.31-4.04.02-2.44,1.73-4.22,4.09-4.25,2.29-.03,4.09,1.84,4.09,4.23Z"/>
  <path class="cls-5" d="M14.43,167.16c0-2.29,1.73-4.07,4-4.1,2.37-.03,4.2,1.76,4.2,4.1,0,2.19-2.05,4.22-4.22,4.18-2.18-.04-3.97-1.93-3.98-4.18Z"/>
  <path class="cls-2" d="M31.81,103.17c0-2.26,1.66-3.92,3.95-3.94,2.35-.02,4.19,1.84,4.15,4.19-.04,2.2-1.8,3.97-3.97,3.98-2.3.01-4.13-1.86-4.13-4.24Z"/>
  <path class="cls-2" d="M23.63,103.2c.03,2.27-1.79,4.28-3.89,4.28-2.23,0-4.15-1.98-4.14-4.28.01-2.1,1.86-4,3.96-4.06,2.19-.07,4.04,1.78,4.07,4.06Z"/>
  <path class="cls-2" d="M118.56,268.01c-.51.51-1.02,1.03-1.54,1.54-1.98.76-4.14.68-5.03-1.19-.65-1.37-.03-3.33.02-5.02,3.45-2.45,6.42-1.3,7.11,2.76.42.81.25,1.45-.56,1.91Z"/>
  <path class="cls-2" d="M98.12,90.8c0,2.62-2.56,5.38-4.94,5.32-2.36-.07-5.05-2.61-5.11-4.83-.08-2.98,2.21-5.34,5.2-5.32,2.6.01,4.84,2.25,4.85,4.84Z"/>
  <path class="cls-2" d="M91.34,75.59c-2.27-.05-4.45-2.19-4.37-4.3.09-2.68,2.6-5.14,5.16-5.07,2.63.07,4.79,2.16,4.8,4.66.01,2.72-2.42,4.78-5.59,4.72Z"/>
  <path class="cls-2" d="M206.15,225.1c-.6,0-1.2,0-1.8.01-2.14.16-4.05-1.52-4.42-3.89-.32-2.04.39-3.59,2-4.41.71-.37,1.41-.75,2.12-1.12.21-.68.62-.39,1.01-.2.29.02.59.05.88.07,2.36,0,4.3,1.75,4.51,4.04.25,2.8-1.3,5.21-3.63,5.66-.24.05-.47-.03-.68-.16Z"/>
  <path class="cls-2" d="M200.06,106.38c-.59-.28-1.18-.55-1.77-.83-2.03-.68-2.82-2.64-1.9-4.76.98-2.63,2.85-3.94,5.75-3.7,1.6-.18,2.82.5,3.7,2.08.95,1.7.88,3.08-.2,4.31l.14.03-.14-.03c-.73,2.64-3.46,4.05-5.58,2.88Z"/>
  <path class="cls-2" d="M87.46,220.33c-.22-3.11,2.28-4.73,4.98-4.53,2.62.2,4.31,2.04,4.25,4.99-.05,2.36-2.26,4.27-4.87,4.22-2.7-.06-4.39-1.87-4.35-4.68Z"/>
  <path class="cls-2" d="M128.98,251.65c1.88,1.79,2.56,3.8,1.02,6.12-1.18,1.79-4.43,2.56-6.6,1.22-.76-.47-.88-2.08-1.09-3.2-.12-.65.16-1.37.26-2.06.36-.55.72-1.1,1.08-1.65,1.05-1.58,2.08-1.88,3.64-1.08.56.22,1.12.44,1.69.66Z"/>
  <path class="cls-3" d="M170.85,190.39c-.16,5.25-4.27,2.11-6.51,2.96-.78-3.23-1.11-6.45.1-9.66,2.15.01,4.3.02,6.45.03.74.91.63,1.82.02,2.74,0,.59,0,1.18,0,1.77.53.73.61,1.45-.06,2.16Z"/>
  <path class="cls-5" d="M173.05,252.65c.26.59.51,1.18.77,1.78-.08,3.45-1.68,5.24-4.52,5.04-2.88-.2-4.21-2.27-3.69-5.75.13-.06.17-.16.13-.29-.09-1.09.62-1.53,1.54-1.79.6-.21,1.19-.42,1.79-.62.49-.48.95-.69,1.36.08.87.52,1.74,1.04,2.61,1.55Z"/>
  <path class="cls-2" d="M94.55,113.19c-2.82-.05-3.63-.94-3.45-4.31.12-2.29,1.61-3.45,3.92-3.48,2.29-.02,3.84,1.6,3.82,3.89-.02,2.43-1.69,3.94-4.3,3.89Z"/>
  <path class="cls-3" d="M131.22,183.94c1.57-.09,3.14-.22,4.71-.2.2,0,.55.78.56,1.2.03,2.18-.14,4.36-.02,6.54.09,1.6-.47,2.08-2.02,1.89-.94-.11-1.9.04-2.86.08-.12-3.17-.25-6.33-.37-9.5Z"/>
  <path class="cls-2" d="M196.1,75.87c2.87-2.03,7.16-.97,6.84,3.04-1.31,6.75-12.08,1.96-6.84-3.04Z"/>
  <path class="cls-4" d="M158.44,152.07c-1.12-3.34-2.01-6.77-3.42-9.99-1.26-2.88-3.54-4.97-7.05-4.84-3.43.12-5.65,2.2-6.96,5.08-3.02,6.58-4.02,13.61-4.47,20.74-.38,1.76-1.03,3.47-1.57,5.17-.65,2.02-1.48,4.05-2.63,5.9q-7.33.41-7.33-6.6c.02-29.23-.25-58.47.26-87.7.13-7.46,2.72-14.88,4.28-22.29.12-.56,1.06-.93,1.56-1.46.66-.7,1.75-1.44,1.81-2.21.73-10.77,7.06-18.83,13.3-26.94.34-.44,1.09-.58,1.65-.86,1.69,6.33,5.01,12.05,7.06,18.25.32.96,1.11,1.88.45,2.99-4.31.03-8.61.05-12.92.1-3.33.04-5.43,1.78-5.37,4.4.06,2.73,2.08,4.38,5.36,4.4,5.38.03,10.77.06,16.15.08.98.9,1.08,2.2,1.51,3.33,1.35,3.64,2.41,7.37,3.17,11.17.17.84.44,1.75-.41,2.45-.97,0-1.27-.81-1.65-1.43-5.17-8.33-16.54-8.71-22.69-3.93-6.16,4.79-8.98,14.91-2.12,22.58,6.75,7.55,19.87,6.68,25.33-2.96.35-.62.61-1.29,1.05-1.85.3-.39.64-.78,1.14-.19.45.83.38,1.73.38,2.6,0,24.7.01,49.41,0,74.11,0,1.02.35,2.65-.73,2.83-1.22.21-1.2-1.47-1.5-2.4-1.14-3.54-2.61-6.97-3.62-10.55Z"/>
  <path class="cls-3" d="M162.6,73.18c.06-.66.33-1.37.16-1.97-1.21-4.36-2.52-8.69-3.77-13.03-.18-.61-.27-1.25-.4-1.88,2.04-.03,4.09-.24,6.1,0,.7.08,1.55,1.13,1.87,1.92,3.04,7.66,4.49,15.71,4.55,23.86.19,30.15.11,60.29.17,90.44,0,1.31-.29,1.72-1.67,1.67-2.94-.11-5.88,0-8.82-.08-.42,0-1.17-.46-1.19-.74-.43-7.1-.79-14.2-1.16-21.3,1.5,3.74,2.99,7.47,4.49,11.21.21.52.43,1.04.64,1.55.04-.56.13-1.13.13-1.69,0-25.29-.01-50.59-.04-75.88,0-.67-.21-1.35-.32-2.02-.5-.52-.23-1.1-.15-1.67.41-2.93.56-5.85-.52-8.69-.21-.55-.41-1.12-.07-1.7Z"/>
  <path class="cls-4" d="M139.03,214.37c.11-1.07.21-2.13.32-3.2.49.92.91,1.88,1.48,2.74,1.74,2.6,3.55,5.16,5.3,7.75,1.29,1.92,2.55,2.17,3.9.08,2.17-3.36,4.34-6.73,6.52-10.09.15-.23.31-.45.46-.67.05.26.13.52.14.78.55,9.73-2.86,18.24-8.39,26.07-.15.21-1.16.21-1.31,0-4.98-7.05-8.24-14.71-8.42-23.46Z"/>
  <path class="cls-1" d="M194.75,167.34c-.12,2.34-.19,3.99-.32,5.63-.01.14-.44.24-.67.36-.71-1.75-3.91.26-3.94-2.52,0-.05-.19-.14-.29-.15-1.1-.1-1.76-.79-2.71-2.14-.48-.68-1.5-.98-2.11-1.61-.35-.36-.4-1.01-.54-1.54-.06-.22.05-.6-.07-.68-2-1.27-3-2.57-2.55-5.36.25-1.55-.54-3.36.61-4.98.04-.06-.72-.68-1.11-1.04.4-.16.89-.54,1.2-.44.52.18.91.68,1.39,1.01.69.48,1.59.79,2.09,1.42,2.83,3.53,5.58,7.12,8.32,10.72.44.58.69,1.3.71,1.34Z"/>
  <path class="cls-3" d="M155.37,47.3c-2.37-5.97-4.79-11.93-7.09-17.92-.39-1.02-.3-2.21-.43-3.32.93.53,2.22.82,2.73,1.61,3.88,6.05,7.62,12.19,11.34,18.34.13.22-.5,1.28-.81,1.29-1.91.1-3.82.02-5.74,0Z"/>
  <path class="cls-1" d="M114.99,153.47c.01,2.63.1,5.26-.02,7.88-.03.71-.65,1.39-1,2.09-.76.94-1.73,1.37-2.95,1.24.99,1.32-.48,1.38-.9,2.07-.59.97-1.27,1.96-1.72,3.04-.12.12-.27.2-.43.24-1.56.59-2.84,1.6-3.97,2.76-.86.88-1.81,1.42-3.07,1.34.03-1.68.06-3.35.1-5.03.85-1.73,2.51-2.8,3.69-4.27,2.83-3.56,5.7-7.09,8.69-10.52.39-.45.73-1.16,1.58-.84Z"/>
  <path class="cls-4" d="M145.99,197.8c-.02-.24-.04-.48-.05-.72.06-.23.06-.46,0-.69.24-15.52-1.13-31.08,1.23-46.54.01-.09.16-.16.24-.24,1.03.13.89.93.95,1.6.16,1.94.1,3.88.12,5.82.06,8.82-.14,17.64.11,26.45.12.84.06,1.68-.22,2.49-.1.68-.19,1.37-.06,2.07.18,2.8.25,5.61-.08,8.4-.18,1.57-.7,1.82-2.24,1.36Z"/>
  <path class="cls-1" d="M147.96,185.99c-.02-.7-.03-1.41-.05-2.11.63-.15.82.2.93.72.03.15.08-.05.09-.07.23-.44.54-.75,1.1-.7.06,0,.11.03.17.04.02,5.74.19,11.49,0,17.23-.08,2.39-.86,4.76-1.39,7.12-.09.42-.5.77-.77,1.16-.31-.3-.7-.56-.93-.91-2.18-3.36-1.52-7.03-1.14-10.67,1.1.05,1.73.08,1.62-1.55-.19-2.88.19-5.79.33-8.69,1.02-.51.49-1.04.03-1.57Z"/>
  <path class="cls-3" d="M114.99,153.47c-2.4,2.73-4.79,5.47-7.21,8.19-2.23,2.5-4.5,4.97-6.75,7.45.34-1.12.41-2.44,1.07-3.33,3.89-5.19,7.93-10.29,11.93-15.4.23-.29.58-.48.87-.72.04.33.1.67.1,1,0,.94,0,1.88-.01,2.82Z"/>
  <path class="cls-1" d="M164.45,183.69c-.03,3.22-.07,6.44-.1,9.66-1.12.07-2.26.31-3.34.15-.53-.08-1.33-.85-1.37-1.36-.16-2.1.04-4.22-.11-6.31-.13-1.76.4-2.51,2.26-2.24.88.13,1.78.07,2.67.1Z"/>
  <path class="cls-4" d="M44.62,218.15c-5.49.42-10.99,1.09-16.48,1.03-.86,0-1.68-3.3-2.52-5.07.58-.07,1.15-.22,1.73-.21,10.21.11,19.99-1.81,29.32-5.9.85-.37,1.72-.7,2.58-1.05-.09,1.9-1.57,2.99-2.77,4.09-3.29,3.04-7.06,5.38-11.46,6.62-.25.07-.42.2-.4.48Z"/>
  <path class="cls-4" d="M47.12,184.93c1.76.3,3.53.56,5.29.91.49.1.93.47,1.4.71-.38.35-.7.83-1.15,1.02-5.35,2.16-10.67,4.36-16.09,6.33-1.87.68-3.98.75-5.98,1.05-.48.07-1-.09-1.5-.15.25-.45.45-.94.75-1.35,3.76-5.1,10.58-8.39,17.29-8.53Z"/>
  <path class="cls-3" d="M44.62,218.15c.23-.32.38-.83.69-.95,5.61-2.16,10.53-5.2,13.94-10.25.96-.48,1.93-.96,2.9-1.44,1.47,1.82,1.24,3.53-.33,5.16-.08.13-.16.26-.25.39-.51.45-.32,1.08-.44,1.63-5.31,1.84-10.61,3.68-15.92,5.52-.06-.43-.28-.4-.56-.18,0,0-.02.12-.02.12Z"/>
  <path class="cls-3" d="M44.87,205.25c.38-.61.61-1.53,1.16-1.79,4.42-2.07,8.26-4.79,10.92-8.91.31-.49.29-1.18.42-1.78.38-.39.75-.78,1.13-1.18.24.01.47.04.68.18.3.21.62.5.57.84-.16,1.2,1.69,2.18.39,3.48-.02.15-.05.31-.06.47.3.78-.4,1.57.02,2.35-5.08,2.12-10.15,4.23-15.23,6.35Z"/>
  <path class="cls-1" d="M38.38,226.47c4.68-1.06,9.36-2.11,14.03-3.19,1.95-.45,3.87-1.01,5.82-1.46.46-.11.97.03,1.45.05-.32.26-.67.49-.96.78-1.23,1.2-2.42,2.44-3.7,3.57-.17.15-.83-.24-1.26-.38-.38-.12-.83-.42-1.15-.32-1.49.47-3.1,1.74-4.36,1.44-1.92-.45-3.52,1.58-5.53.07-1.01-.76-2.87-.43-4.35-.59l.02.02Z"/>
  <path class="cls-1" d="M61.4,210.9c.44-.85.91-1.68,1.29-2.56.08-.18-.28-.51-.32-.78-.11-.68-.15-1.36-.21-2.05,1.62-1.04,3.23-2.1,4.88-3.1.16-.1.78.15.77.21-.16,2.11.33,4.69-.74,6.19-1.27,1.78-3.89,2.63-5.92,3.88.1-.61.2-1.21.29-1.82,0,0-.02.02-.02.02Z"/>
  <path class="cls-1" d="M60.1,198.91c-.17-.36-.41-.71-.48-1.09-.09-.45-.03-.93-.04-1.4.11.03.16.02.16-.03,0-.08-.02-.11-.05-.11.21-1.08,1.39-2.43-.8-2.88-.08-.02-.11-.27-.17-.41.14.06.27.13.41.19-.21-.52-.43-1.04-.64-1.56,2.33-1.86,3.91-1.3,5.39,1.89,1.06,2.28.25,3.44-3.79,5.43Z"/>
  <path class="cls-4" d="M274.86,160.41c-15.48.03-30.95.07-46.43.04-.38,0-1.08-.77-1.09-1.19-.08-11.15-.11-22.29-.07-33.44,0-.44.66-1.25,1.02-1.25,15.54-.05,31.07-.02,46.61,0,.68.64.66,1.49.66,2.31.02,10.42.02,20.84,0,31.27,0,.81.06,1.68-.7,2.28Z"/>
  <path class="cls-3" d="M274.86,160.41c.01-11.95.03-23.9.04-35.85,1.59-.42,2.15.04,2.14,1.78-.07,10.75-.06,21.51.03,32.26.02,1.8-.51,2.35-2.21,1.81Z"/>
  <path class="cls-3" d="M254.39,67.1c2.27-.85,4.54-1.74,6.85-2.49.17-.06.92.86.99,1.38,1.25,9.12-5.48,18.02-14.76,19.56-6.9,1.14-12.44-1.25-16.89-6.39-.27-.31-.51-1.13-.48-1.14,1.27-.62,2.57-1.18,3.88-1.72.14-.06.35.03.53.04.63-.34,1.21-.04,1.68.28,1.63,1.14,3.44,1.33,5.38,1.46,6.37.44,10.86-2.85,12.05-9.05.13-.69.25-1.4.77-1.94Z"/>
  <path class="cls-4" d="M251.17,58.69c-7.54,3.3-15.1,6.57-22.6,9.94-1.42.64-1.28-.05-1.28-.96,0-7.91,5.12-14.16,13.05-15.93,4.15-.1,7.33,1.75,9.87,4.82.51.61,1.22,1.18.96,2.14Z"/>
  <path class="cls-4" d="M254.39,67.1c-.51,6.07-3.47,10.24-8.74,11.3-3.84.77-7.78.46-11.14-2.05.45-.48.82-1.15,1.38-1.4,5.79-2.63,11.61-5.21,17.43-7.77.31-.13.71-.06,1.07-.08Z"/>
  <path class="cls-3" d="M251.17,58.69c-2.42-3.64-5.45-6.34-10.18-6.47-.22,0-.44-.32-.65-.49,4.96-1.76,12.88.16,16.3,4.01.16.18-.04,1-.25,1.09-1.71.68-3.47,1.26-5.22,1.86Z"/>
  <path class="cls-4" d="M242.03,225.27c1.36-3.82-1.29-5.84-4.56-7.57-1.42-.75-2.7-1.76-4.11-2.53-1.84-1-1.4-1.77.1-2.62,1.35-.77,2.56-1.84,3.98-2.39,3.96-1.54,5.21-4.34,4.67-8.31-.21-1.56.04-3.18.07-4.77.03-1.66.89-1.92,2.24-1.24,2.24,1.12,4.41,2.42,6.74,3.32,1.04.4,2.51.32,3.57-.08,2.34-.88,4.58-2.03,6.79-3.2,1.69-.89,2.17-.12,2.22,1.35.1,2.83.04,5.66.26,8.48.07.84.64,1.89,1.32,2.4,2.37,1.79,4.88,3.42,7.38,5.04,1.07.69,1.14,1.16.02,1.86-2.37,1.48-4.81,2.9-7,4.62-.93.73-1.67,2.12-1.81,3.28-.28,2.39-.11,4.82-.11,7.24,0,1.86-.67,2.51-2.51,1.51-2.04-1.11-4.07-2.31-6.25-3.08-1.28-.45-2.99-.53-4.24-.08-2.17.78-4.17,2.05-6.19,3.2-1.39.79-2.06.25-2.22-1.06-.2-1.63-.22-3.29-.35-5.37Z"/>
  <path class="cls-5" d="M162.6,73.18c1.72,3.93,2.1,7.94.74,12.06-3.05,7.18-8.74,11.07-15.88,10.86-6.75-.2-12.58-4.51-14.85-10.98-2.58-7.34,1.31-16.12,8.61-19.45,7.43-3.38,16.34-.78,20.48,5.98.31.5.6,1.02.9,1.53Z"/>
  <path class="cls-5" d="M147.94,103.14c7.55-.01,13.46,5.57,13.52,12.77.06,6.99-6.31,13.2-13.5,13.17-7.29-.03-13.45-5.9-13.4-12.79.05-7.4,5.88-13.13,13.37-13.15Z"/>
  <path class="cls-5" d="M251.4,139.78c-3.96,0-7.92.02-11.88,0-2.68-.02-4.38-1.51-4.47-3.84-.09-2.46,1.71-4.3,4.41-4.32,8.1-.05,16.2-.05,24.3-.01,2.48.01,4.35,1.85,4.36,4.05,0,2.22-1.8,4.04-4.3,4.09-4.14.07-8.28.02-12.42.02v.02Z"/>
  <path class="cls-2" d="M261.52,153.28c-.95,0-2.13.35-2.81-.08-1.16-.72-2.77-1.93-2.77-2.93,0-1.03,1.53-2.62,2.7-2.95,1.76-.51,3.9-.54,5.65-.02,1.28.38,2.83,1.82,3.11,3.04.38,1.7-1.13,2.82-3.01,2.94-.95.06-1.91.01-2.86.01,0,0,0-.01,0-.02Z"/>
  <path class="cls-2" d="M241.04,153.27c-.48,0-.96-.02-1.43,0-2.19.11-3.98-.61-4.02-2.96-.04-2.37,1.81-3.06,3.95-3.09,1.19-.01,2.39-.03,3.58-.03,1.97,0,3.31.93,3.36,2.87.05,2-1.27,3.07-3.29,3.2-.71.05-1.43,0-2.15,0Z"/>
  <path class="cls-4" d="M147.96,87.1c-3.74,0-6.97-3.24-6.92-6.94.05-3.72,3.33-6.91,7.04-6.85,3.78.06,6.92,3.23,6.91,6.97,0,3.72-3.2,6.82-7.02,6.82Z"/>
  <path class="cls-4" d="M152.03,116.22c.04,2.07-1.86,3.91-4.04,3.92-2.03,0-4.01-1.85-4.03-3.77-.02-2.06,1.92-4.04,3.97-4.04,2.15,0,4.07,1.82,4.11,3.9Z"/>
</svg>