<?xml version="1.0" encoding="UTF-8"?>
<svg id="Layer_1" xmlns="http://www.w3.org/2000/svg" xmlns:xlink="http://www.w3.org/1999/xlink" version="1.1" viewBox="0 0 160 130">
  <!-- Generator: Adobe Illustrator 30.2.1, SVG Export Plug-In . SVG Version: 2.1.1 Build 1)  -->
  <defs>
    <style>
      .st0, .st1, .st2 {
        fill: none;
      }

      .st3 {
        fill: #414042;
      }

      .st4 {
        fill: #231f20;
      }

      .st5 {
        fill: url(#radial-gradient);
      }

      .st6 {
        fill: url(#linear-gradient);
      }

      .st7 {
        clip-path: url(#clippath-1);
      }

      .st8 {
        clip-path: url(#clippath-2);
      }

      .st1 {
        stroke-width: 1.55px;
      }

      .st1, .st2 {
        stroke: #414042;
        stroke-miterlimit: 10;
      }

      .st2 {
        stroke-width: .25px;
      }

      .st9 {
        fill: url(#radial-gradient1);
      }

      .st10 {
        clip-path: url(#clippath);
      }
    </style>
    <linearGradient id="linear-gradient" x1="0" y1="12.8" x2="22.15" y2="12.8" gradientUnits="userSpaceOnUse">
      <stop offset="0" stop-color="#fff23b"/>
      <stop offset=".04" stop-color="#fee52d"/>
      <stop offset=".12" stop-color="#fcd41b"/>
      <stop offset=".2" stop-color="#fcc90f"/>
      <stop offset=".28" stop-color="#fcc60c"/>
      <stop offset=".67" stop-color="#f28f3f"/>
      <stop offset=".89" stop-color="#ec683c"/>
      <stop offset="1" stop-color="#e83e3a"/>
    </linearGradient>
    <symbol id="Brush_Stroke_2" viewBox="0 0 22.15 25.6">
      <path class="st6" d="M5.94,6.8c1.57,2,11.18,10.41,14.07,13.92.77.94,2.68,5.44,1.99,4.83C14.11,18.55,5.26,6.71,0,0l2.67,2.93c1.05,1.56,3.27,3.88,3.27,3.88Z"/>
    </symbol>
    <clipPath id="clippath">
      <rect class="st0" x="-20" y="9" width="200.66" height="100"/>
    </clipPath>
    <clipPath id="clippath-1">
      <path class="st0" d="M31.67,59c0,26.78,21.79,48.5,48.66,48.5s48.66-21.72,48.66-48.5S107.21,10.5,80.33,10.5,31.67,32.21,31.67,59"/>
    </clipPath>
    <radialGradient id="radial-gradient" cx="-1.55" cy=".19" fx="-1.55" fy=".19" r=".52" gradientTransform="translate(245.43 -89.58) rotate(-47.46) scale(126.41 -126.45) skewX(-.19)" gradientUnits="userSpaceOnUse">
      <stop offset="0" stop-color="#fff"/>
      <stop offset=".72" stop-color="#fff"/>
      <stop offset=".78" stop-color="#e0e0e1"/>
      <stop offset=".89" stop-color="#949495"/>
      <stop offset="1" stop-color="#4a494b"/>
      <stop offset="1" stop-color="#4a494b"/>
    </radialGradient>
    <clipPath id="clippath-2">
      <rect class="st0" x="-20" y="9" width="200.66" height="100"/>
    </clipPath>
    <radialGradient id="radial-gradient1" cx="203.82" cy="67.77" fx="203.82" fy="67.77" r="6.45" gradientTransform="translate(35.69 -64.64) rotate(41.25) scale(.84) skewX(-.77)" gradientUnits="userSpaceOnUse">
      <stop offset=".72" stop-color="#fff"/>
      <stop offset=".78" stop-color="#e1e1e1"/>
      <stop offset=".89" stop-color="#969697"/>
      <stop offset="1" stop-color="#4a494b"/>
    </radialGradient>
  </defs>
  <g class="st10">
    <g class="st7">
      <polygon class="st5" points="-16.8 63.32 75.99 -37.81 177.46 54.68 84.67 155.81 -16.8 63.32"/>
    </g>
    <g class="st8">
      <ellipse class="st1" cx="80.33" cy="59" rx="48.66" ry="48.5"/>
      <path class="st3" d="M58.09,52.83c.46,3.35,3.56,5.7,6.92,5.24,3.36-.46,5.72-3.55,5.26-6.9-.46-3.35-3.56-5.7-6.92-5.24-3.36.46-5.72,3.55-5.26,6.9"/>
      <path class="st1" d="M58.09,52.83c.46,3.35,3.56,5.7,6.92,5.24,3.36-.46,5.72-3.55,5.26-6.9-.46-3.35-3.56-5.7-6.92-5.24-3.36.46-5.72,3.55-5.26,6.9Z"/>
      <path class="st3" d="M71.69,19.16c.1,1.45,2.57,2.46,5.53,2.26,2.95-.2,5.27-1.53,5.17-2.97-.1-1.45-2.57-2.46-5.53-2.26-2.95.2-5.27,1.53-5.17,2.97"/>
      <path class="st1" d="M71.69,19.16c.1,1.45,2.57,2.46,5.53,2.26,2.95-.2,5.27-1.53,5.17-2.97-.1-1.45-2.57-2.46-5.53-2.26-2.95.2-5.27,1.53-5.17,2.97Z"/>
      <path class="st3" d="M116.42,49.88c-2.1.69-3,3.68-2.01,6.68.99,3,3.5,4.87,5.61,4.18,2.1-.69,3-3.68,2.01-6.68-.99-3-3.5-4.87-5.61-4.18"/>
      <path class="st1" d="M116.42,49.88c-2.1.69-3,3.68-2.01,6.68.99,3,3.5,4.87,5.61,4.18,2.1-.69,3-3.68,2.01-6.68-.99-3-3.5-4.87-5.61-4.18Z"/>
      <path class="st3" d="M104.18,25.81c-.59.69.11,2.25,1.56,3.48,1.45,1.23,3.11,1.67,3.7.98.59-.69-.11-2.25-1.56-3.48-1.45-1.23-3.11-1.67-3.7-.98"/>
      <path class="st1" d="M104.18,25.81c-.59.69.11,2.25,1.56,3.48,1.45,1.23,3.11,1.67,3.7.98.59-.69-.11-2.25-1.56-3.48-1.45-1.23-3.11-1.67-3.7-.98Z"/>
      <path class="st3" d="M81.22,71.98c-.26.87.23,1.79,1.1,2.05.87.26,1.79-.23,2.05-1.1.26-.87-.23-1.79-1.1-2.05-.87-.26-1.79.23-2.05,1.1"/>
      <path class="st1" d="M81.22,71.98c-.26.87.23,1.79,1.1,2.05.87.26,1.79-.23,2.05-1.1.26-.87-.23-1.79-1.1-2.05-.87-.26-1.79.23-2.05,1.1Z"/>
      <path class="st3" d="M38.11,55.85c-.29,1.4.06,2.65.8,2.81.74.15,1.57-.86,1.86-2.25s-.06-2.65-.8-2.81c-.74-.15-1.57.85-1.86,2.25"/>
      <path class="st1" d="M38.11,55.85c-.29,1.4.06,2.65.8,2.81.74.15,1.57-.86,1.86-2.25s-.06-2.65-.8-2.81c-.74-.15-1.57.85-1.86,2.25Z"/>
      <path class="st3" d="M71.7,93.96c-.26.87,1.17,2.07,3.2,2.68,2.03.61,3.89.4,4.16-.47.26-.87-1.17-2.07-3.2-2.68s-3.89-.4-4.16.47"/>
      <path class="st1" d="M71.7,93.96c-.26.87,1.17,2.07,3.2,2.68,2.03.61,3.89.4,4.16-.47.26-.87-1.17-2.07-3.2-2.68s-3.89-.4-4.16.47Z"/>
      <path class="st3" d="M105.66,89.4c.78,1.03,3.46.33,5.99-1.56,2.54-1.89,3.96-4.26,3.19-5.3-.78-1.03-3.46-.33-5.99,1.56-2.54,1.89-3.96,4.26-3.19,5.3"/>
      <path class="st1" d="M105.66,89.4c.78,1.03,3.46.33,5.99-1.56,2.54-1.89,3.96-4.26,3.19-5.3-.78-1.03-3.46-.33-5.99,1.56-2.54,1.89-3.96,4.26-3.19,5.3Z"/>
      <path class="st3" d="M109.34,49.87c-.26.87.23,1.79,1.1,2.05.87.26,1.79-.23,2.05-1.1.26-.87-.23-1.79-1.1-2.05-.87-.26-1.79.23-2.05,1.1"/>
      <path class="st1" d="M109.34,49.87c-.26.87.23,1.79,1.1,2.05.87.26,1.79-.23,2.05-1.1.26-.87-.23-1.79-1.1-2.05-.87-.26-1.79.23-2.05,1.1Z"/>
      <path class="st3" d="M42.16,37.36c.79.71,3.46-.94,5.96-3.7,2.5-2.76,3.89-5.57,3.1-6.28-.79-.71-3.46.94-5.96,3.7-2.5,2.76-3.89,5.57-3.1,6.28"/>
      <path class="st1" d="M42.16,37.36c.79.71,3.46-.94,5.96-3.7,2.5-2.76,3.89-5.57,3.1-6.28-.79-.71-3.46.94-5.96,3.7-2.5,2.76-3.89,5.57-3.1,6.28Z"/>
      <path class="st3" d="M45.83,76.48c-1.06,1.24-.09,3.8,2.17,5.71,2.26,1.91,4.94,2.45,6,1.21,1.06-1.24.09-3.8-2.17-5.71-2.26-1.91-4.94-2.45-6-1.21"/>
      <path class="st1" d="M45.83,76.48c-1.06,1.24-.09,3.8,2.17,5.71,2.26,1.91,4.94,2.45,6,1.21,1.06-1.24.09-3.8-2.17-5.71-2.26-1.91-4.94-2.45-6-1.21Z"/>
      <path class="st3" d="M65.06,62.63c-.26.87.23,1.79,1.1,2.05.87.26,1.79-.23,2.05-1.1.26-.87-.23-1.79-1.1-2.05-.87-.26-1.79.23-2.05,1.1"/>
      <path class="st1" d="M65.06,62.63c-.26.87.23,1.79,1.1,2.05.87.26,1.79-.23,2.05-1.1.26-.87-.23-1.79-1.1-2.05-.87-.26-1.79.23-2.05,1.1Z"/>
      <path class="st3" d="M91.58,24.88c-.26.87.23,1.79,1.1,2.05.87.26,1.79-.23,2.05-1.1.26-.87-.23-1.79-1.1-2.05-.87-.26-1.79.23-2.05,1.1"/>
      <path class="st1" d="M91.58,24.88c-.26.87.23,1.79,1.1,2.05.87.26,1.79-.23,2.05-1.1.26-.87-.23-1.79-1.1-2.05-.87-.26-1.79.23-2.05,1.1Z"/>
      <path class="st3" d="M108.68,68.1c-.26.87.23,1.79,1.1,2.05.87.26,1.79-.23,2.05-1.1.26-.87-.23-1.79-1.1-2.05-.87-.26-1.79.23-2.05,1.1"/>
      <path class="st1" d="M108.68,68.1c-.26.87.23,1.79,1.1,2.05.87.26,1.79-.23,2.05-1.1.26-.87-.23-1.79-1.1-2.05-.87-.26-1.79.23-2.05,1.1Z"/>
      <path class="st3" d="M86.92,42.29c-1.58,3.59.57,8,4.8,9.84,4.23,1.85,8.94.43,10.52-3.16,1.58-3.59-.57-8-4.81-9.84-4.23-1.85-8.94-.43-10.52,3.16"/>
      <path class="st1" d="M86.92,42.29c-1.58,3.59.57,8,4.8,9.84,4.23,1.85,8.94.43,10.52-3.16,1.58-3.59-.57-8-4.81-9.84-4.23-1.85-8.94-.43-10.52,3.16Z"/>
    </g>
  </g>
  <rect class="st0" x="-20" y="9" width="200" height="100"/>
  <g>
    <rect class="st0" x="122.98" y="51.58" width="22.84" height="7.42"/>
    <polygon class="st4" points="145.82 54.55 130.98 54.55 130.98 51.58 122.98 55.29 130.98 59 130.98 56.02 145.82 56.02 145.82 54.55"/>
  </g>
  <polygon class="st4" points="144.17 56 143.64 26.58 144.79 26.58 145.36 56 144.17 56"/>
  <g>
    <path d="M126.82,14.86v1.42h-3.13c-1.56,0-2.24.78-2.24,2.64s.67,2.63,2.24,2.63h3.13v1.42h-3.13c-2.36,0-3.66-1.33-3.66-4.04s1.31-4.05,3.66-4.05h3.13Z"/>
    <path d="M132.75,16.62v1.22h-2.23c-.56,0-.82.26-.82.82v4.29h-1.27v-4.49c0-1.27.47-1.85,1.72-1.85h2.6Z"/>
    <path d="M138.06,16.62c1.58,0,2.21.89,2.21,2.09v2.97c0,.91-.24,1.27-1.31,1.27h-2.96c-1.5,0-2.12-.73-2.12-1.93s.58-1.82,2.13-1.82h3.01v-.48c0-.49-.28-.88-.97-.88h-3.79v-1.22h3.8ZM139.01,21.4v-1.19h-2.99c-.67,0-.91.28-.91.74s.25.77.89.77h2.66c.25,0,.35-.1.35-.32Z"/>
    <path d="M142.29,16.62v-1.5h1.28v1.5h1.75v1.22h-1.75v3c0,.71.25.95.85.95h.88v1.16h-1.14c-1.31,0-1.87-.53-1.87-2.18v-2.93h-.86v-1.22h.86Z"/>
    <path d="M150.69,16.62c1.5,0,2.13.72,2.13,1.94s-.59,1.82-2.15,1.82h-3.01v.46c0,.5.28.88.97.88h3.87v1.24h-3.87c-1.58,0-2.21-.89-2.21-2.09v-2.16c0-1.2.62-2.09,2.21-2.09h2.05ZM147.67,19.4h2.97c.68,0,.94-.29.94-.76s-.28-.79-.9-.79h-2.04c-.7,0-.97.38-.97.88v.67Z"/>
    <path d="M158.7,16.62v1.22h-2.23c-.56,0-.82.26-.82.82v4.29h-1.27v-4.49c0-1.27.47-1.85,1.71-1.85h2.6Z"/>
  </g>
  <g>
    <path d="M13.05,8.53v1.42h-2.36v6.68h-1.43v-6.68h-2.36v-1.42h6.15Z"/>
    <path d="M18.13,10.29c1.58,0,2.21.89,2.21,2.09v2.97c0,.91-.24,1.27-1.31,1.27h-2.96c-1.5,0-2.12-.73-2.12-1.93s.58-1.82,2.13-1.82h3.01v-.48c0-.49-.28-.88-.97-.88h-3.79v-1.22h3.8ZM19.09,15.06v-1.19h-2.99c-.67,0-.91.28-.91.74s.25.77.89.77h2.66c.25,0,.35-.1.35-.32Z"/>
    <path d="M26.44,10.29v1.22h-2.23c-.56,0-.82.26-.82.82v4.29h-1.27v-4.49c0-1.27.47-1.85,1.72-1.85h2.6Z"/>
    <path d="M31.89,10.29c1.51,0,2.33.89,2.33,2.71v3.65c0,1.8-.62,2.51-2.4,2.51h-3.77v-1.22h3.62c.95,0,1.26-.37,1.26-1.28v-.29h-2.79c-1.69,0-2.75-1-2.75-3.05s1.06-3.02,2.75-3.02h1.75ZM30.26,15.21h2.67v-2.22c0-1.03-.4-1.48-1.42-1.48h-1.26c-1.09,0-1.58.55-1.58,1.85s.49,1.85,1.58,1.85Z"/>
    <path d="M40.12,10.29c1.5,0,2.13.72,2.13,1.94s-.59,1.82-2.15,1.82h-3.01v.46c0,.5.28.88.97.88h3.87v1.24h-3.87c-1.58,0-2.21-.89-2.21-2.09v-2.16c0-1.2.62-2.09,2.21-2.09h2.05ZM37.1,13.06h2.97c.68,0,.94-.29.94-.76s-.28-.79-.9-.79h-2.04c-.7,0-.97.38-.97.88v.67Z"/>
    <path d="M44.05,10.29v-1.5h1.28v1.5h1.75v1.22h-1.75v3c0,.71.25.95.85.95h.88v1.16h-1.14c-1.31,0-1.87-.53-1.87-2.18v-2.93h-.86v-1.22h.86Z"/>
    <path d="M15.29,26.22h-1.01l1.67-4.49c.21-.62.55-1,1.27-1,.8,0,1.2.47,1.2,1.18v3.19c0,.18.11.3.27.3.14,0,.26-.09.3-.22l1.31-3.45c.21-.62.55-1,1.27-1,.8,0,1.2.47,1.2,1.18v4.32h-.95v-4.27c0-.19-.11-.31-.27-.31-.14,0-.25.1-.3.23l-1.31,3.45c-.21.62-.56,1-1.28,1-.79,0-1.19-.47-1.19-1.18v-3.18c0-.19-.12-.31-.28-.31-.14,0-.24.1-.3.23l-1.62,4.35Z"/>
    <path d="M26.56,22c1.12,0,1.83.69,1.83,2.11s-.71,2.11-1.83,2.11h-.89c-1.13,0-1.83-.69-1.83-2.11s.7-2.11,1.83-2.11h.89ZM25.76,22.82c-.74,0-1.06.38-1.06,1.3s.32,1.29,1.06,1.29h.73c.73,0,1.06-.38,1.06-1.29s-.33-1.3-1.06-1.3h-.73Z"/>
    <path d="M31.93,22c1.12,0,1.83.69,1.83,2.11s-.71,2.11-1.83,2.11h-.89c-1.13,0-1.83-.69-1.83-2.11s.7-2.11,1.83-2.11h.89ZM31.12,22.82c-.74,0-1.06.38-1.06,1.3s.32,1.29,1.06,1.29h.73c.73,0,1.06-.38,1.06-1.29s-.33-1.3-1.06-1.3h-.73Z"/>
    <path d="M37.12,22c1.43,0,2.13.68,2.13,1.85v2.37h-.86v-2.37c0-.66-.38-1.03-1.27-1.03h-1.38c-.07,0-.1.04-.1.12v3.29h-.85v-3.57c0-.5.17-.66.59-.66h1.74Z"/>
  </g>
  <g>
    <path d="M11.31,100.9v1.42h-4.15c-.73,0-1.06.4-1.06.96,0,.49.25.96,1.2.96h1.9c2.21,0,2.72,1.22,2.72,2.39,0,1.37-.73,2.37-2.58,2.37h-4.51v-1.42h4.56c.77,0,1.12-.42,1.12-1.01,0-.53-.28-1.01-1.27-1.01h-1.88c-2.16,0-2.66-1.21-2.66-2.34,0-1.34.72-2.33,2.52-2.33h4.1Z"/>
    <path d="M14.67,102.67v3.79c0,.74.55,1.31,1.56,1.31h1.03c1.01,0,1.55-.56,1.55-1.31v-3.79h1.25v3.84c0,1.46-.94,2.49-2.75,2.49h-1.18c-1.81,0-2.75-1.03-2.75-2.49v-3.84h1.28Z"/>
    <path d="M26.15,102.67v1.22h-2.23c-.56,0-.82.26-.82.82v4.29h-1.27v-4.49c0-1.27.47-1.85,1.72-1.85h2.6Z"/>
    <path d="M27.87,102.67v-.56c0-1.66.56-2.18,1.87-2.18h1.14v1.16h-.88c-.6,0-.85.24-.85.95v.64h1.75v1.22h-1.75v5.11h-1.28v-5.11h-.86v-1.22h.86Z"/>
    <path d="M35.86,102.67c1.58,0,2.21.89,2.21,2.09v2.97c0,.91-.24,1.27-1.31,1.27h-2.96c-1.5,0-2.12-.73-2.12-1.93s.58-1.82,2.13-1.82h3.01v-.48c0-.49-.28-.88-.97-.88h-3.79v-1.22h3.8ZM36.82,107.44v-1.19h-2.99c-.67,0-.91.28-.91.74s.25.77.89.77h2.66c.25,0,.35-.1.35-.32Z"/>
    <path d="M45.58,102.67v1.22h-3.14c-1.1,0-1.58.58-1.58,1.94s.48,1.93,1.58,1.93h3.14v1.24h-3.26c-1.69,0-2.75-1.03-2.75-3.17s1.06-3.17,2.75-3.17h3.26Z"/>
    <path d="M51.22,102.67c1.5,0,2.13.72,2.13,1.94s-.59,1.82-2.15,1.82h-3.01v.46c0,.5.28.88.97.88h3.87v1.24h-3.87c-1.58,0-2.21-.89-2.21-2.09v-2.16c0-1.2.62-2.09,2.21-2.09h2.05ZM48.2,105.44h2.97c.68,0,.94-.29.94-.76s-.28-.79-.9-.79h-2.04c-.7,0-.97.38-.97.88v.67Z"/>
    <path d="M8.39,112.67v4.73h-.83v-4.73h.83Z"/>
    <path d="M12.82,113.7v.71h-1.83c-.64,0-.92.34-.92,1.13s.28,1.13.92,1.13h1.83v.72h-1.91c-.99,0-1.6-.6-1.6-1.85s.62-1.85,1.6-1.85h1.91Z"/>
    <path d="M15.91,113.7c.98,0,1.6.6,1.6,1.85s-.62,1.85-1.6,1.85h-.78c-.99,0-1.6-.6-1.6-1.85s.62-1.85,1.6-1.85h.78ZM15.2,114.42c-.64,0-.92.34-.92,1.13s.28,1.13.92,1.13h.64c.64,0,.92-.33.92-1.13s-.29-1.13-.92-1.13h-.64Z"/>
    <path d="M21.48,113.7v.71h-2.04c-.34,0-.48.14-.48.42,0,.26.11.4.53.4h.87c1.02,0,1.28.47,1.28,1.04,0,.66-.34,1.12-1.21,1.12h-2.15v-.72h2.15c.34,0,.48-.12.48-.41s-.15-.41-.53-.41h-.88c-1.02,0-1.27-.51-1.27-1.08,0-.67.34-1.08,1.2-1.08h2.05Z"/>
    <path d="M24.87,113.7c.98,0,1.6.6,1.6,1.85s-.62,1.85-1.6,1.85h-1.64v1.48h-.74v-3.6c0-1.06.47-1.58,1.36-1.58h1.02ZM23.23,116.68h1.56c.64,0,.92-.33.92-1.13s-.28-1.13-.92-1.13h-.73c-.6,0-.83.27-.83.9v1.36Z"/>
    <path d="M28.09,112.1v1.6h1.3c1.25,0,1.86.6,1.86,1.62v2.08h-.75v-2.08c0-.57-.34-.9-1.11-.9h-1.3v2.98h-.74v-5.3h.74Z"/>
    <path d="M34.71,113.7c.88,0,1.25.42,1.25,1.13s-.34,1.06-1.25,1.06h-1.76v.27c0,.29.16.51.57.51h2.26v.72h-2.26c-.92,0-1.29-.52-1.29-1.22v-1.26c0-.7.36-1.22,1.29-1.22h1.2ZM32.95,115.32h1.74c.4,0,.55-.17.55-.44s-.16-.46-.53-.46h-1.19c-.41,0-.57.22-.57.51v.39Z"/>
    <path d="M39.38,113.7v.71h-1.3c-.33,0-.48.15-.48.48v2.51h-.74v-2.62c0-.74.27-1.08,1-1.08h1.52Z"/>
    <path d="M42.52,113.7c.88,0,1.25.42,1.25,1.13s-.34,1.06-1.25,1.06h-1.76v.27c0,.29.16.51.57.51h2.26v.72h-2.26c-.92,0-1.29-.52-1.29-1.22v-1.26c0-.7.36-1.22,1.29-1.22h1.2ZM40.75,115.32h1.74c.4,0,.55-.17.55-.44s-.16-.46-.53-.46h-1.19c-.41,0-.57.22-.57.51v.39Z"/>
    <path d="M49.1,112.67c1.11,0,1.58.53,1.58,1.3,0,.54-.24.88-.67,1.06.44.18.69.53.69,1.07,0,.76-.47,1.3-1.58,1.3h-1.16c-1.11,0-1.58-.55-1.58-1.3,0-.55.25-.89.69-1.07-.43-.17-.67-.52-.67-1.06,0-.77.47-1.3,1.58-1.3h1.11ZM49.14,116.58c.5,0,.73-.22.73-.61s-.25-.59-.73-.59h-1.2c-.48,0-.73.2-.73.59s.24.61.73.61h1.2ZM49.12,114.67c.49,0,.73-.18.73-.57,0-.36-.22-.61-.72-.61h-1.16c-.5,0-.73.25-.73.61,0,.39.25.57.74.57h1.15Z"/>
  </g>
  <g>
    <g>
      <path class="st9" d="M127.1,93.15c-1.48,1.65-4.04,1.8-5.71.33s-1.82-3.99-.34-5.63,4.04-1.8,5.71-.33,1.82,3.99.34,5.63Z"/>
      <path class="st2" d="M127.1,93.15c-1.48,1.65-4.04,1.8-5.71.33s-1.82-3.99-.34-5.63,4.04-1.8,5.71-.33,1.82,3.99.34,5.63Z"/>
    </g>
    <g>
      <use width="22.15" height="25.6" transform="translate(138.46 101.52) rotate(-110.43) scale(.41 -.26) skewX(8.32)" xlink:href="#Brush_Stroke_2"/>
      <use width="22.15" height="25.6" transform="translate(150.04 95.09) rotate(173.15) scale(.53 .25) skewX(30.75)" xlink:href="#Brush_Stroke_2"/>
      <use width="22.15" height="25.6" transform="translate(156.61 102.66) rotate(171.34) scale(.93 .56) skewX(12.44)" xlink:href="#Brush_Stroke_2"/>
    </g>
  </g>
  <g>
    <path d="M102.78,105.61c1.82,0,2.6,1.13,2.6,2.42,0,1.22-.71,2.54-2.6,2.54h-2.52c-.13,0-.2.06-.2.2v2.93h-1.42v-3.2c0-.91.38-1.28,1.27-1.28h2.91c.8,0,1.13-.55,1.13-1.12s-.35-1.08-1.12-1.08h-4.21v-1.42h4.15Z"/>
    <path d="M110.79,107.37v1.22h-2.23c-.56,0-.82.26-.82.82v4.29h-1.27v-4.49c0-1.27.47-1.85,1.72-1.85h2.6Z"/>
    <path d="M115.82,107.37c1.68,0,2.75,1.03,2.75,3.17s-1.07,3.17-2.75,3.17h-1.33c-1.69,0-2.75-1.03-2.75-3.17s1.06-3.17,2.75-3.17h1.33ZM114.61,108.59c-1.1,0-1.58.58-1.58,1.94s.48,1.93,1.58,1.93h1.09c1.09,0,1.58-.56,1.58-1.93s-.49-1.94-1.58-1.94h-1.09Z"/>
    <path d="M121.51,107.37v6.69c0,1.65-.56,2.18-1.86,2.18h-1.12v-1.22h.83c.62,0,.86-.24.86-.95v-6.7h1.28ZM121.51,104.98v1.48h-1.28v-1.48h1.28Z"/>
    <path d="M127.46,107.37c1.5,0,2.13.72,2.13,1.94s-.59,1.82-2.15,1.82h-3.01v.46c0,.5.28.88.97.88h3.87v1.24h-3.87c-1.58,0-2.21-.89-2.21-2.09v-2.16c0-1.2.62-2.09,2.21-2.09h2.05ZM124.44,110.14h2.97c.68,0,.94-.29.94-.76s-.28-.79-.9-.79h-2.04c-.7,0-.97.38-.97.88v.67Z"/>
    <path d="M136.87,107.37v1.22h-3.14c-1.1,0-1.58.58-1.58,1.94s.48,1.93,1.58,1.93h3.14v1.24h-3.26c-1.69,0-2.75-1.03-2.75-3.17s1.06-3.17,2.75-3.17h3.26Z"/>
    <path d="M138.61,107.37v-1.5h1.28v1.5h1.75v1.22h-1.75v3c0,.71.25.95.85.95h.88v1.16h-1.14c-1.31,0-1.87-.53-1.87-2.18v-2.93h-.86v-1.22h.86Z"/>
    <path d="M144.17,104.98v1.48h-1.28v-1.48h1.28ZM144.16,107.37v6.33h-1.27v-6.33h1.27Z"/>
    <path d="M147.25,104.62v9.08h-1.27v-9.08h1.27Z"/>
    <path d="M153.2,107.37c1.5,0,2.13.72,2.13,1.94s-.59,1.82-2.15,1.82h-3.01v.46c0,.5.28.88.97.88h3.87v1.24h-3.87c-1.58,0-2.21-.89-2.21-2.09v-2.16c0-1.2.62-2.09,2.21-2.09h2.05ZM150.18,110.14h2.98c.68,0,.94-.29.94-.76s-.28-.79-.9-.79h-2.04c-.7,0-.97.38-.97.88v.67Z"/>
    <path d="M106.37,123.3h-1.04l1.9-4.8c.2-.5.57-.7,1.14-.7s.93.19,1.12.7l1.82,4.8h-1.05l-1.64-4.34c-.05-.13-.14-.18-.26-.18s-.22.06-.27.18l-1.71,4.34Z"/>
    <path d="M115.57,119.08v.82h-2.33c-.39,0-.55.16-.55.48,0,.3.13.46.6.46h.99c1.17,0,1.46.54,1.46,1.19,0,.75-.39,1.28-1.38,1.28h-2.45v-.82h2.45c.39,0,.55-.14.55-.46s-.18-.47-.6-.47h-1c-1.17,0-1.46-.58-1.46-1.23,0-.76.39-1.23,1.38-1.23h2.34Z"/>
    <path d="M116.89,119.08v-1h.86v1h1.17v.82h-1.17v2c0,.47.17.63.57.63h.58v.78h-.76c-.87,0-1.25-.35-1.25-1.46v-1.95h-.58v-.82h.58Z"/>
    <path d="M122.49,119.08c1,0,1.42.48,1.42,1.3s-.39,1.22-1.43,1.22h-2.01v.3c0,.34.18.58.65.58h2.58v.82h-2.58c-1.06,0-1.47-.59-1.47-1.39v-1.44c0-.8.42-1.39,1.47-1.39h1.37ZM120.48,120.93h1.98c.46,0,.62-.19.62-.5s-.18-.53-.6-.53h-1.36c-.46,0-.65.26-.65.58v.45Z"/>
    <path d="M127.83,119.08v.82h-1.49c-.38,0-.54.18-.54.54v2.86h-.85v-2.99c0-.85.31-1.23,1.14-1.23h1.73Z"/>
    <path d="M131.18,119.08c1.12,0,1.83.69,1.83,2.11s-.71,2.11-1.83,2.11h-.89c-1.13,0-1.83-.69-1.83-2.11s.7-2.11,1.83-2.11h.89ZM130.37,119.9c-.74,0-1.06.38-1.06,1.3s.32,1.29,1.06,1.29h.73c.73,0,1.06-.38,1.06-1.29s-.33-1.3-1.06-1.3h-.73Z"/>
    <path d="M134.88,117.49v.98h-.86v-.98h.86ZM134.88,119.08v4.22h-.85v-4.22h.85Z"/>
    <path d="M140.44,117.25v4.25c0,1.22-.54,1.81-1.55,1.81h-1.17c-1.13,0-1.83-.69-1.83-2.11s.7-2.11,1.83-2.11h1.86v-1.83h.86ZM139.59,121.46v-1.56h-1.78c-.73,0-1.06.38-1.06,1.3s.33,1.29,1.06,1.29h.84c.68,0,.94-.3.94-1.02Z"/>
    <path d="M144.36,119.08c1.05,0,1.47.59,1.47,1.39v1.98c0,.61-.16.85-.87.85h-1.98c-1,0-1.42-.49-1.42-1.29s.38-1.22,1.42-1.22h2.01v-.32c0-.33-.18-.58-.65-.58h-2.53v-.82h2.54ZM145,122.26v-.79h-1.99c-.45,0-.61.18-.61.5s.17.51.59.51h1.77c.17,0,.23-.06.23-.22Z"/>
    <path d="M147.88,117.25v6.05h-.85v-6.05h.85Z"/>
  </g>
  <g>
    <rect class="st0" x="15.89" y="62.96" width="22.18" height="6.43"/>
    <polygon class="st4" points="15.89 66.81 30.3 66.81 30.3 69.39 38.07 66.17 30.3 62.96 30.3 65.54 15.89 65.54 15.89 66.81"/>
  </g>
  <polygon class="st4" points="16.87 65.54 17.3 101.17 16.36 101.17 15.89 65.54 16.87 65.54"/>
</svg>