<?xml version="1.0" encoding="UTF-8"?><svg id="Layer_1" xmlns="http://www.w3.org/2000/svg" xmlns:xlink="http://www.w3.org/1999/xlink" viewBox="0 0 200.663 266.8023"><defs><style>.cls-1,.cls-2,.cls-3{fill:none;}.cls-4{fill:url(#radial-gradient-2);}.cls-5{fill:#414042;}.cls-6{fill:url(#radial-gradient);}.cls-7{fill:url(#linear-gradient);}.cls-8{clip-path:url(#clippath-1);}.cls-9{clip-path:url(#clippath-2);}.cls-2{stroke-width:1.5495px;}.cls-2,.cls-3{stroke:#414042;stroke-miterlimit:10;}.cls-3{stroke-width:.25px;}.cls-10{fill:#f0f0f0;}.cls-11{clip-path:url(#clippath);}</style><linearGradient id="linear-gradient" x1="0" y1="12.8015" x2="22.1463" y2="12.8015" gradientUnits="userSpaceOnUse"><stop offset="0" stop-color="#fff23b"/><stop offset=".0401" stop-color="#fee52d"/><stop offset=".1171" stop-color="#fcd41b"/><stop offset=".1964" stop-color="#fcc90f"/><stop offset=".2809" stop-color="#fcc60c"/><stop offset=".6685" stop-color="#f28f3f"/><stop offset=".8876" stop-color="#ec683c"/><stop offset="1" stop-color="#e83e3a"/></linearGradient><symbol id="Brush_Stroke_2" viewBox="0 0 22.1463 25.6029"><path class="cls-7" d="M5.9385,6.8005c1.5671,2.0008,11.1807,10.4092,14.0703,13.918.7726.9381,2.6834,5.4435,1.9878,4.8267C14.1124,18.5534,5.2632,6.7079,0,0l2.6678,2.9251c1.0506,1.5606,3.2707,3.8753,3.2707,3.8753Z"/></symbol><clipPath id="clippath"><rect class="cls-1" y="119.9954" width="200.663" height="100"/></clipPath><clipPath id="clippath-1"><path class="cls-1" d="M51.6707,169.9954c0,26.785,21.786,48.5,48.6608,48.5s48.6608-21.715,48.6608-48.5-21.786-48.5-48.6608-48.5-48.6608,21.714-48.6608,48.5"/></clipPath><radialGradient id="radial-gradient" cx="18.4471" cy="111.1892" fx="18.4471" fy="111.1892" r=".5165" gradientTransform="translate(8929.0852 11338.8393) rotate(-47.463) scale(126.4106 -126.4472) skewX(-.1889)" gradientUnits="userSpaceOnUse"><stop offset="0" stop-color="#fff"/><stop offset=".7248" stop-color="#fff"/><stop offset=".7777" stop-color="#e0e0e1"/><stop offset=".8921" stop-color="#949495"/><stop offset=".9975" stop-color="#4a494b"/><stop offset="1" stop-color="#4a494b"/></radialGradient><clipPath id="clippath-2"><rect class="cls-1" y="119.9954" width="200.663" height="100"/></clipPath><radialGradient id="radial-gradient-2" cx="223.8163" cy="178.7632" fx="223.8163" fy="178.7632" r="6.452" gradientTransform="translate(105.2266 -33.6484) rotate(41.2503) scale(.8376) skewX(-.77)" gradientUnits="userSpaceOnUse"><stop offset=".7248" stop-color="#fff"/><stop offset=".777" stop-color="#e1e1e1"/><stop offset=".8896" stop-color="#969697"/><stop offset=".9975" stop-color="#4a494b"/></radialGradient></defs><g class="cls-11"><g class="cls-8"><polygon class="cls-6" points="3.2037 174.3194 95.9932 73.1885 197.4593 165.6714 104.6698 266.8023 3.2037 174.3194"/></g><g class="cls-9"><ellipse class="cls-2" cx="100.3315" cy="169.9954" rx="48.6608" ry="48.5"/><path class="cls-5" d="M78.0936,163.83c.4595,3.353,3.5588,5.701,6.9239,5.243,3.3641-.458,5.7199-3.547,5.2604-6.901-.4595-3.353-3.5598-5.701-6.9239-5.243-3.3641.458-5.7199,3.548-5.2604,6.901"/><path class="cls-2" d="M78.0936,163.83c.4595,3.353,3.5588,5.701,6.9239,5.243,3.3641-.458,5.7199-3.547,5.2604-6.901-.4595-3.353-3.5598-5.701-6.9239-5.243-3.3641.458-5.7199,3.548-5.2604,6.901Z"/><path class="cls-5" d="M91.692,130.156c.0973,1.446,2.5705,2.458,5.5253,2.262,2.9538-.197,5.2704-1.528,5.1741-2.974-.0973-1.446-2.5705-2.459-5.5253-2.262-2.9548.197-5.2714,1.528-5.1741,2.974"/><path class="cls-2" d="M91.692,130.156c.0973,1.446,2.5705,2.458,5.5253,2.262,2.9538-.197,5.2704-1.528,5.1741-2.974-.0973-1.446-2.5705-2.459-5.5253-2.262-2.9548.197-5.2714,1.528-5.1741,2.974Z"/><path class="cls-5" d="M136.4195,160.8799c-2.104.692-3.0049,3.684-2.0117,6.683.9933,2.998,3.5036,4.868,5.6075,4.176,2.104-.693,3.0049-3.684,2.0117-6.683-.9933-2.998-3.5036-4.868-5.6075-4.176"/><path class="cls-2" d="M136.4195,160.8799c-2.104.692-3.0049,3.684-2.0117,6.683.9933,2.998,3.5036,4.868,5.6075,4.176,2.104-.693,3.0049-3.684,2.0117-6.683-.9933-2.998-3.5036-4.868-5.6075-4.176Z"/><path class="cls-5" d="M124.1754,136.8026c-.5899.691.1104,2.25,1.5642,3.482,1.4528,1.232,3.1093,1.67,3.6992.979.59-.692-.1104-2.251-1.5642-3.482-1.4528-1.232-3.1093-1.67-3.6992-.979"/><path class="cls-2" d="M124.1754,136.8026c-.5899.691.1104,2.25,1.5642,3.482,1.4528,1.232,3.1093,1.67,3.6992.979.59-.692-.1104-2.251-1.5642-3.482-1.4528-1.232-3.1093-1.67-3.6992-.979Z"/><path class="cls-5" d="M101.2248,182.9726c-.2639.869.2298,1.786,1.1006,2.048.8719.263,1.7919-.229,2.0548-1.097.2639-.869-.2288-1.786-1.1006-2.048-.8709-.263-1.7909.228-2.0548,1.097"/><path class="cls-2" d="M101.2248,182.9726c-.2639.869.2298,1.786,1.1006,2.048.8719.263,1.7919-.229,2.0548-1.097.2639-.869-.2288-1.786-1.1006-2.048-.8709-.263-1.7909.228-2.0548,1.097Z"/><path class="cls-5" d="M58.108,166.8502c-.294,1.398.0632,2.655.7976,2.809.7354.153,1.5692-.855,1.8632-2.253s-.0632-2.655-.7976-2.809c-.7354-.153-1.5692.855-1.8632,2.253"/><path class="cls-2" d="M58.108,166.8502c-.294,1.398.0632,2.655.7976,2.809.7354.153,1.5692-.855,1.8632-2.253s-.0632-2.655-.7976-2.809c-.7354-.153-1.5692.855-1.8632,2.253Z"/><path class="cls-5" d="M91.6953,204.9546c-.2639.87,1.1699,2.071,3.2016,2.683,2.0317.612,3.8919.403,4.1557-.466.2639-.87-1.1689-2.072-3.2006-2.684s-3.8929-.403-4.1567.467"/><path class="cls-2" d="M91.6953,204.9546c-.2639.87,1.1699,2.071,3.2016,2.683,2.0317.612,3.8919.403,4.1557-.466.2639-.87-1.1689-2.072-3.2006-2.684s-3.8929-.403-4.1567.467Z"/><path class="cls-5" d="M125.6645,200.3927c.7756,1.031,3.4594.333,5.9948-1.561,2.5354-1.893,3.9621-4.264,3.1865-5.296-.7756-1.031-3.4594-.332-5.9948,1.561-2.5354,1.893-3.9621,4.265-3.1865,5.296"/><path class="cls-2" d="M125.6645,200.3927c.7756,1.031,3.4594.333,5.9948-1.561,2.5354-1.893,3.9621-4.264,3.1865-5.296-.7756-1.031-3.4594-.332-5.9948,1.561-2.5354,1.893-3.9621,4.265-3.1865,5.296Z"/><path class="cls-5" d="M129.3418,160.8682c-.2639.869.2298,1.786,1.1006,2.048.8719.263,1.7919-.229,2.0548-1.097.2639-.869-.2288-1.786-1.1006-2.048-.8709-.263-1.7909.228-2.0548,1.097"/><path class="cls-2" d="M129.3418,160.8682c-.2639.869.2298,1.786,1.1006,2.048.8719.263,1.7919-.229,2.0548-1.097.2639-.869-.2288-1.786-1.1006-2.048-.8709-.263-1.7909.228-2.0548,1.097Z"/><path class="cls-5" d="M62.1649,148.3553c.7906.713,3.4594-.945,5.9597-3.702,2.5003-2.757,3.8858-5.569,3.0952-6.282-.7906-.712-3.4594.945-5.9597,3.702-2.5003,2.757-3.8858,5.569-3.0952,6.282"/><path class="cls-2" d="M62.1649,148.3553c.7906.713,3.4594-.945,5.9597-3.702,2.5003-2.757,3.8858-5.569,3.0952-6.282-.7906-.712-3.4594.945-5.9597,3.702-2.5003,2.757-3.8858,5.569-3.0952,6.282Z"/><path class="cls-5" d="M65.83,187.4782c-1.0595,1.242-.0903,3.799,2.1652,5.711,2.2555,1.912,4.9433,2.455,6.0038,1.212,1.0595-1.242.0903-3.799-2.1652-5.711-2.2565-1.912-4.9443-2.454-6.0038-1.212"/><path class="cls-2" d="M65.83,187.4782c-1.0595,1.242-.0903,3.799,2.1652,5.711,2.2555,1.912,4.9433,2.455,6.0038,1.212,1.0595-1.242.0903-3.799-2.1652-5.711-2.2565-1.912-4.9443-2.454-6.0038-1.212Z"/><path class="cls-5" d="M85.0588,173.6206c-.2639.869.2298,1.786,1.1006,2.048.8719.263,1.7919-.229,2.0548-1.097.2639-.869-.2288-1.786-1.1006-2.048-.8719-.263-1.7909.228-2.0548,1.097"/><path class="cls-2" d="M85.0588,173.6206c-.2639.869.2298,1.786,1.1006,2.048.8719.263,1.7919-.229,2.0548-1.097.2639-.869-.2288-1.786-1.1006-2.048-.8719-.263-1.7909.228-2.0548,1.097Z"/><path class="cls-5" d="M111.5814,135.8725c-.2639.869.2298,1.786,1.1006,2.048.8719.263,1.7919-.229,2.0548-1.097.2639-.869-.2288-1.786-1.1006-2.048-.8709-.263-1.7909.228-2.0548,1.097"/><path class="cls-2" d="M111.5814,135.8725c-.2639.869.2298,1.786,1.1006,2.048.8719.263,1.7919-.229,2.0548-1.097.2639-.869-.2288-1.786-1.1006-2.048-.8709-.263-1.7909.228-2.0548,1.097Z"/><path class="cls-5" d="M128.6771,179.0987c-.2639.869.2298,1.786,1.1006,2.048.8719.263,1.7919-.229,2.0548-1.097.2639-.869-.2288-1.786-1.1006-2.048-.8709-.263-1.7909.228-2.0548,1.097"/><path class="cls-2" d="M128.6771,179.0987c-.2639.869.2298,1.786,1.1006,2.048.8719.263,1.7919-.229,2.0548-1.097.2639-.869-.2288-1.786-1.1006-2.048-.8709-.263-1.7909.228-2.0548,1.097Z"/><path class="cls-5" d="M106.9217,153.2865c-1.5772,3.59.5739,7.997,4.8049,9.844,4.231,1.847,8.9405.434,10.5178-3.156,1.5772-3.59-.5739-7.997-4.8059-9.844-4.231-1.847-8.9395-.434-10.5167,3.156"/><path class="cls-2" d="M106.9217,153.2865c-1.5772,3.59.5739,7.997,4.8049,9.844,4.231,1.847,8.9405.434,10.5178-3.156,1.5772-3.59-.5739-7.997-4.8059-9.844-4.231-1.847-8.9395-.434-10.5167,3.156Z"/></g></g><rect class="cls-1" y="119.9954" width="200" height="100"/><rect class="cls-1" x="142.9833" y="162.571" width="22.8382" height="7.4244"/><polygon class="cls-10" points="165.8214 165.5483 150.9835 165.5483 150.9835 162.571 142.9833 166.2831 150.9835 169.9954 150.9835 167.0184 165.8214 167.0184 165.8214 165.5483"/><polygon class="cls-10" points="164.165 166.9981 163.6433 137.5799 164.7891 137.5799 165.362 166.9981 164.165 166.9981"/><path class="cls-10" d="M146.8223,125.8572v1.4155h-3.1299c-1.5596,0-2.2432.7793-2.2432,2.6382,0,1.8472.6719,2.627,2.2432,2.627h3.1299v1.415h-3.1299c-2.3628,0-3.6582-1.3311-3.6582-4.042,0-2.7222,1.3071-4.0537,3.6582-4.0537h3.1299Z"/><path class="cls-10" d="M152.752,127.6204v1.2231h-2.231c-.5635,0-.8154.2642-.8154.8159v4.2935h-1.2715v-4.4854c0-1.2715.4678-1.8472,1.7153-1.8472h2.6025Z"/><path class="cls-10" d="M158.0557,127.6204c1.583,0,2.207.8877,2.207,2.0869v2.9741c0,.9116-.2402,1.2715-1.3076,1.2715h-2.9619c-1.5,0-2.123-.7314-2.123-1.9312,0-1.1514.5752-1.8228,2.1348-1.8228h3.0098v-.48c0-.4917-.2754-.8755-.9707-.8755h-3.79v-1.2231h3.8018ZM159.0146,132.3939v-1.1875h-2.9863c-.6709,0-.9111.2759-.9111.7437s.252.7676.8877.7676h2.6621c.252,0,.3477-.0957.3477-.3237Z"/><path class="cls-10" d="M162.2939,127.6204v-1.499h1.2832v1.499h1.751v1.2231h-1.751v2.9985c0,.7075.252.9473.8516.9473h.875v1.1636h-1.1387c-1.3076,0-1.8711-.5278-1.8711-2.1826v-2.9268h-.8643v-1.2231h.8643Z"/><path class="cls-10" d="M170.6914,127.6204c1.499,0,2.1348.7197,2.1348,1.9429,0,1.1636-.5879,1.8232-2.1465,1.8232h-3.0107v.4556c0,.5039.2764.8755.9717.8755h3.874v1.2354h-3.874c-1.583,0-2.207-.8877-2.207-2.0869v-2.1587c0-1.1992.624-2.0869,2.207-2.0869h2.0508ZM167.6689,130.3909h2.9746c.6836,0,.9355-.2881.9355-.7554,0-.48-.2764-.792-.8994-.792h-2.0391c-.6953,0-.9717.3838-.9717.8755v.6719Z"/><path class="cls-10" d="M178.6953,127.6204v1.2231h-2.2305c-.5635,0-.8154.2642-.8154.8159v4.2935h-1.2715v-4.4854c0-1.2715.4678-1.8472,1.7148-1.8472h2.6025Z"/><path class="cls-10" d="M33.0513,119.5213v1.4155h-2.3628v6.6802h-1.4272v-6.6802h-2.3628v-1.4155h6.1528Z"/><path class="cls-10" d="M38.1284,121.2845c1.583,0,2.2065.8877,2.2065,2.0869v2.9741c0,.9116-.2397,1.2715-1.3071,1.2715h-2.9624c-1.499,0-2.1226-.7314-2.1226-1.9312,0-1.1514.5757-1.8228,2.1348-1.8228h3.0103v-.48c0-.4917-.2759-.8755-.9717-.8755h-3.7896v-1.2231h3.8018ZM39.0879,126.0579v-1.1875h-2.9863c-.6719,0-.9116.2759-.9116.7437s.252.7676.8877.7676h2.6626c.2515,0,.3477-.0957.3477-.3237Z"/><path class="cls-10" d="M46.4443,121.2845v1.2231h-2.231c-.5635,0-.8154.2642-.8154.8159v4.2935h-1.2715v-4.4854c0-1.2715.4678-1.8472,1.7153-1.8472h2.6025Z"/><path class="cls-10" d="M51.8921,121.2845c1.5112,0,2.3267.8877,2.3267,2.7104v3.646c0,1.7993-.624,2.5068-2.3989,2.5068h-3.7656v-1.2236h3.6216c.9478,0,1.2598-.3716,1.2598-1.2832v-.2876h-2.7949c-1.6909,0-2.7461-.9956-2.7461-3.0464,0-2.0391,1.0552-3.0225,2.7461-3.0225h1.7515ZM50.2607,126.202h2.6748v-2.2188c0-1.0317-.396-1.4756-1.4155-1.4756h-1.2593c-1.0913,0-1.583.5518-1.583,1.8472s.4917,1.8472,1.583,1.8472Z"/><path class="cls-10" d="M60.124,121.2845c1.4995,0,2.1348.7197,2.1348,1.9429,0,1.1636-.5874,1.8232-2.1465,1.8232h-3.0107v.4556c0,.5039.2759.8755.9717.8755h3.874v1.2354h-3.874c-1.583,0-2.2065-.8877-2.2065-2.0869v-2.1587c0-1.1992.6235-2.0869,2.2065-2.0869h2.0508ZM57.1016,124.055h2.9746c.6836,0,.9355-.2881.9355-.7554,0-.48-.2759-.792-.8994-.792h-2.0391c-.6958,0-.9717.3838-.9717.8755v.6719Z"/><path class="cls-10" d="M64.0498,121.2845v-1.499h1.2832v1.499h1.751v1.2231h-1.751v2.9985c0,.7075.252.9473.8516.9473h.875v1.1636h-1.1387c-1.3076,0-1.8711-.5278-1.8711-2.1826v-2.9268h-.8643v-1.2231h.8643Z"/><path class="cls-10" d="M35.292,137.2171h-1.0073l1.6714-4.4937c.2075-.6157.5513-.9995,1.271-.9995.7998,0,1.1992.4722,1.1992,1.1753v3.1904c0,.1841.1123.3037.272.3037.144,0,.2559-.0879.3037-.2236l1.3115-3.4463c.208-.6157.5518-.9995,1.2715-.9995.7993,0,1.1992.4722,1.1992,1.1753v4.3179h-.9517v-4.2695c0-.1919-.1118-.312-.272-.312-.1357,0-.2476.0962-.2959.2319l-1.311,3.4463c-.208.6157-.5596.9995-1.2793.9995-.7915,0-1.1914-.4722-1.1914-1.1836v-3.1821c0-.1919-.1196-.312-.2798-.312-.144,0-.2397.0962-.2959.2319l-1.6152,4.3496Z"/><path class="cls-10" d="M46.563,132.9954c1.1191,0,1.8306.6875,1.8306,2.1108s-.7114,2.1108-1.8306,2.1108h-.8877c-1.1274,0-1.8311-.6875-1.8311-2.1108s.7036-2.1108,1.8311-2.1108h.8877ZM45.7554,133.8108c-.7358,0-1.0557.3838-1.0557,1.2954s.3198,1.2871,1.0557,1.2871h.7275c.7275,0,1.0552-.3755,1.0552-1.2871s-.3276-1.2954-1.0552-1.2954h-.7275Z"/><path class="cls-10" d="M51.9312,132.9954c1.1191,0,1.8306.6875,1.8306,2.1108s-.7114,2.1108-1.8306,2.1108h-.8877c-1.1274,0-1.8311-.6875-1.8311-2.1108s.7036-2.1108,1.8311-2.1108h.8877ZM51.1235,133.8108c-.7358,0-1.0557.3838-1.0557,1.2954s.3198,1.2871,1.0557,1.2871h.7275c.7275,0,1.0552-.3755,1.0552-1.2871s-.3276-1.2954-1.0552-1.2954h-.7275Z"/><path class="cls-10" d="M57.1152,132.9954c1.4312,0,2.127.6797,2.127,1.8472v2.3745h-.8555v-2.3745c0-.6641-.3838-1.0317-1.2715-1.0317h-1.3833c-.0718,0-.104.04-.104.1201v3.2861h-.8477v-3.5659c0-.4961.168-.6558.5918-.6558h1.7432Z"/><path class="cls-10" d="M31.3052,211.8997v1.4155h-4.1494c-.7319,0-1.0557.3955-1.0557.9595,0,.4917.252.9595,1.1992.9595h1.895c2.207,0,2.7227,1.2231,2.7227,2.3867,0,1.3672-.7314,2.3745-2.5786,2.3745h-4.5098v-1.415h4.5576c.7676,0,1.1157-.4199,1.1157-1.0078,0-.5273-.2759-1.0073-1.2715-1.0073h-1.8828c-2.1592,0-2.6626-1.2114-2.6626-2.3389,0-1.3433.7192-2.3267,2.5186-2.3267h4.1016Z"/><path class="cls-10" d="M34.668,213.6629v3.79c0,.7437.5518,1.3071,1.5591,1.3071h1.0317c1.0073,0,1.5469-.5635,1.5469-1.3071v-3.79h1.2476v3.8379c0,1.4634-.9355,2.4946-2.7466,2.4946h-1.1753c-1.811,0-2.7466-1.0312-2.7466-2.4946v-3.8379h1.2832Z"/><path class="cls-10" d="M46.1504,213.6629v1.2231h-2.231c-.5635,0-.8154.2642-.8154.8159v4.2935h-1.2715v-4.4854c0-1.2715.4678-1.8472,1.7153-1.8472h2.6025Z"/><path class="cls-10" d="M47.8682,213.6629v-.5635c0-1.6553.564-2.1831,1.8711-2.1831h1.1396v1.1636h-.8755c-.6001,0-.8516.2397-.8516.9473v.6357h1.751v1.2231h-1.751v5.1094h-1.2837v-5.1094h-.8633v-1.2231h.8633Z"/><path class="cls-10" d="M55.8584,213.6629c1.583,0,2.2065.8877,2.2065,2.0869v2.9741c0,.9116-.2397,1.2715-1.3071,1.2715h-2.9624c-1.499,0-2.1226-.7314-2.1226-1.9312,0-1.1514.5757-1.8228,2.1348-1.8228h3.0103v-.48c0-.4917-.2759-.8755-.9717-.8755h-3.7896v-1.2231h3.8018ZM56.8179,218.4363v-1.1875h-2.9863c-.6719,0-.9116.2759-.9116.7437s.252.7676.8877.7676h2.6626c.2515,0,.3477-.0957.3477-.3237Z"/><path class="cls-10" d="M65.5771,213.6629v1.2231h-3.1421c-1.1035,0-1.583.5757-1.583,1.9434s.4795,1.9307,1.583,1.9307h3.1421v1.2354h-3.2617c-1.6914,0-2.7466-1.0312-2.7466-3.166s1.0552-3.1665,2.7466-3.1665h3.2617Z"/><path class="cls-10" d="M71.2178,213.6629c1.499,0,2.1348.7197,2.1348,1.9429,0,1.1636-.5879,1.8232-2.1465,1.8232h-3.0107v.4556c0,.5039.2764.8755.9717.8755h3.874v1.2354h-3.874c-1.583,0-2.207-.8877-2.207-2.0869v-2.1587c0-1.1992.624-2.0869,2.207-2.0869h2.0508ZM68.1953,216.4334h2.9746c.6836,0,.9355-.2881.9355-.7554,0-.48-.2764-.792-.8994-.792h-2.0391c-.6953,0-.9717.3838-.9717.8755v.6719Z"/><path class="cls-10" d="M28.3901,223.6678v4.7275h-.8267v-4.7275h.8267Z"/><path class="cls-10" d="M32.8223,224.6976v.7144h-1.835c-.6445,0-.9248.3359-.9248,1.1343s.2803,1.1279.9248,1.1279h1.835v.7212h-1.9053c-.9873,0-1.6035-.6025-1.6035-1.8491s.6162-1.8486,1.6035-1.8486h1.9053Z"/><path class="cls-10" d="M35.9082,224.6976c.981,0,1.604.6021,1.604,1.8486s-.623,1.8491-1.604,1.8491h-.7773c-.9873,0-1.6035-.6025-1.6035-1.8491s.6162-1.8486,1.6035-1.8486h.7773ZM35.2012,225.4119c-.6445,0-.9248.3359-.9248,1.1343s.2803,1.1279.9248,1.1279h.6372c.6372,0,.9243-.3296.9243-1.1279s-.2871-1.1343-.9243-1.1343h-.6372Z"/><path class="cls-10" d="M41.481,224.6976v.7144h-2.0449c-.3433,0-.4834.1396-.4834.4199,0,.2593.1123.3994.5254.3994h.8687c1.0225,0,1.2817.4692,1.2817,1.0435,0,.6582-.3433,1.1206-1.2119,1.1206h-2.1499v-.7212h2.1499c.3433,0,.4834-.1191.4834-.4062,0-.2944-.1543-.4136-.5254-.4136h-.8755c-1.0225,0-1.2744-.5112-1.2744-1.0786,0-.665.3428-1.0781,1.2046-1.0781h2.0518Z"/><path class="cls-10" d="M44.8687,224.6976c.9805,0,1.5972.6021,1.5972,1.8486s-.6167,1.8491-1.5972,1.8491h-1.6387v1.4849h-.7427v-3.6001c0-1.0645.4692-1.5825,1.3589-1.5825h1.0225ZM43.23,227.6741h1.562c.644,0,.9243-.3296.9243-1.1279s-.2803-1.1343-.9243-1.1343h-.7285c-.6025,0-.8335.2661-.8335.9033v1.3589Z"/><path class="cls-10" d="M48.0947,223.0936v1.604h1.3027c1.2466,0,1.8628.6021,1.8628,1.6177v2.0801h-.7495v-2.0801c0-.5674-.3433-.9033-1.1133-.9033h-1.3027v2.9834h-.7427v-5.3018h.7427Z"/><path class="cls-10" d="M54.7104,224.6976c.8755,0,1.2471.4199,1.2471,1.1343,0,.6797-.3433,1.0645-1.2539,1.0645h-1.7578v.2661c0,.2944.1611.5117.5674.5117h2.2622v.7212h-2.2622c-.9248,0-1.2891-.5181-1.2891-1.2188v-1.2607c0-.7002.3643-1.2183,1.2891-1.2183h1.1973ZM52.9458,226.3152h1.7368c.3994,0,.5464-.168.5464-.4414,0-.2798-.1611-.4619-.5254-.4619h-1.1904c-.4062,0-.5674.2241-.5674.5112v.3921Z"/><path class="cls-10" d="M59.3799,224.6976v.7144h-1.3027c-.3296,0-.4766.1538-.4766.4761v2.5073h-.7422v-2.6196c0-.7422.2729-1.0781,1.0015-1.0781h1.52Z"/><path class="cls-10" d="M62.5151,224.6976c.8755,0,1.2471.4199,1.2471,1.1343,0,.6797-.3433,1.0645-1.2539,1.0645h-1.7578v.2661c0,.2944.1611.5117.5674.5117h2.2622v.7212h-2.2622c-.9248,0-1.2891-.5181-1.2891-1.2188v-1.2607c0-.7002.3643-1.2183,1.2891-1.2183h1.1973ZM60.7505,226.3152h1.7368c.3994,0,.5464-.168.5464-.4414,0-.2798-.1611-.4619-.5254-.4619h-1.1904c-.4062,0-.5674.2241-.5674.5112v.3921Z"/><path class="cls-10" d="M69.1025,223.6678c1.1133,0,1.583.5254,1.583,1.2959,0,.5391-.2383.8823-.6729,1.0571.4414.1821.6934.5254.6934,1.0718,0,.7563-.4688,1.3027-1.583,1.3027h-1.1553c-1.1133,0-1.5762-.5464-1.5762-1.3027,0-.5464.2451-.8896.6865-1.0718-.4336-.1748-.6719-.5181-.6719-1.0571,0-.7705.4688-1.2959,1.583-1.2959h1.1133ZM69.1445,227.576c.4971,0,.7285-.2241.7285-.6094s-.2451-.5884-.7285-.5884h-1.1973c-.4766,0-.7285.2031-.7285.5884s.2383.6094.7285.6094h1.1973ZM69.123,225.6639c.4912,0,.7285-.1821.7285-.5742,0-.3643-.2168-.6094-.7207-.6094h-1.1631c-.5039,0-.7285.2451-.7285.6094,0,.3921.2451.5742.7354.5742h1.1484Z"/><path class="cls-4" d="M147.102,204.1446c-1.484,1.6469-4.0404,1.7952-5.7097.3311s-1.8197-3.986-.3357-5.6329,4.0404-1.7952,5.7097-.3311,1.8197,3.986.3357,5.6329Z"/><path class="cls-3" d="M147.102,204.1446c-1.484,1.6469-4.0404,1.7952-5.7097.3311s-1.8197-3.986-.3357-5.6329,4.0404-1.7952,5.7097-.3311,1.8197,3.986.3357,5.6329Z"/><use width="22.1463" height="25.6029" transform="translate(158.4647 212.5147) rotate(-110.4288) scale(.4145 -.2639) skewX(8.3181)" xlink:href="#Brush_Stroke_2"/><use width="22.1463" height="25.6029" transform="translate(170.0408 206.0844) rotate(173.1537) scale(.5288 .2494) skewX(30.7472)" xlink:href="#Brush_Stroke_2"/><use width="22.1463" height="25.6029" transform="translate(176.6114 213.6591) rotate(171.3402) scale(.9348 .5644) skewX(12.4351)" xlink:href="#Brush_Stroke_2"/><path class="cls-10" d="M122.7793,216.6033c1.8228,0,2.6025,1.1274,2.6025,2.4229,0,1.2231-.7075,2.5425-2.6025,2.5425h-2.519c-.1318,0-.2036.0601-.2036.2041v2.9263h-1.415v-3.2021c0-.9116.3838-1.2832,1.271-1.2832h2.9146c.8037,0,1.1274-.5518,1.1274-1.1157,0-.5874-.3481-1.0791-1.1157-1.0791h-4.2095v-1.4155h4.1499Z"/><path class="cls-10" d="M130.7949,218.3665v1.2231h-2.231c-.5635,0-.8154.2642-.8154.8159v4.2935h-1.2715v-4.4854c0-1.2715.4678-1.8472,1.7153-1.8472h2.6025Z"/><path class="cls-10" d="M135.8232,218.3665c1.6792,0,2.7466,1.0312,2.7466,3.1665s-1.0674,3.166-2.7466,3.166h-1.3315c-1.6909,0-2.7461-1.0312-2.7461-3.166s1.0552-3.1665,2.7461-3.1665h1.3315ZM134.6118,219.5897c-1.1035,0-1.583.5757-1.583,1.9434s.4795,1.9307,1.583,1.9307h1.0913c1.0913,0,1.5835-.5635,1.5835-1.9307s-.4922-1.9434-1.5835-1.9434h-1.0913Z"/><path class="cls-10" d="M141.5122,218.3665v6.6924c0,1.6548-.5635,2.1826-1.8589,2.1826h-1.1152v-1.2231h.8271c.624,0,.8638-.2397.8638-.9478v-6.7041h1.2832ZM141.5122,215.9798v1.4751h-1.2832v-1.4751h1.2832Z"/><path class="cls-10" d="M147.4629,218.3665c1.4995,0,2.1348.7197,2.1348,1.9429,0,1.1636-.5874,1.8232-2.1465,1.8232h-3.0103v.4556c0,.5039.2754.8755.9712.8755h3.874v1.2354h-3.874c-1.583,0-2.2065-.8877-2.2065-2.0869v-2.1587c0-1.1992.6235-2.0869,2.2065-2.0869h2.0508ZM144.4409,221.137h2.9741c.6836,0,.9355-.2881.9355-.7554,0-.48-.2759-.792-.8994-.792h-2.0391c-.6958,0-.9712.3838-.9712.8755v.6719Z"/><path class="cls-10" d="M156.8696,218.3665v1.2231h-3.1421c-1.1035,0-1.583.5757-1.583,1.9434s.4795,1.9307,1.583,1.9307h3.1421v1.2354h-3.2617c-1.6914,0-2.7466-1.0312-2.7466-3.166s1.0552-3.1665,2.7466-3.1665h3.2617Z"/><path class="cls-10" d="M158.6123,218.3665v-1.499h1.2837v1.499h1.751v1.2231h-1.751v2.9985c0,.7075.2515.9473.8516.9473h.8755v1.1636h-1.1396c-1.3071,0-1.8711-.5278-1.8711-2.1826v-2.9268h-.8633v-1.2231h.8633Z"/><path class="cls-10" d="M164.1675,215.9798v1.4751h-1.2832v-1.4751h1.2832ZM164.1558,218.3665v6.3325h-1.2715v-6.3325h1.2715Z"/><path class="cls-10" d="M167.2515,215.6199v9.0791h-1.2715v-9.0791h1.2715Z"/><path class="cls-10" d="M173.2031,218.3665c1.499,0,2.1348.7197,2.1348,1.9429,0,1.1636-.5879,1.8232-2.1465,1.8232h-3.0112v.4556c0,.5039.2764.8755.9722.8755h3.874v1.2354h-3.874c-1.5835,0-2.2075-.8877-2.2075-2.0869v-2.1587c0-1.1992.624-2.0869,2.2075-2.0869h2.0508ZM170.1802,221.137h2.9751c.6836,0,.9355-.2881.9355-.7554,0-.48-.2764-.792-.8994-.792h-2.0391c-.6958,0-.9722.3838-.9722.8755v.6719Z"/><path class="cls-10" d="M126.3652,234.2991h-1.0396l1.895-4.7974c.1997-.5039.5679-.6958,1.1353-.6958.5596,0,.9277.1919,1.1196.6958l1.8228,4.7974h-1.0474l-1.6392-4.3418c-.0479-.1279-.1357-.1836-.2637-.1836s-.2158.0557-.272.1836l-1.7109,4.3418Z"/><path class="cls-10" d="M135.5718,230.0774v.8154h-2.335c-.3916,0-.5518.1602-.5518.48,0,.2959.1279.4556.5996.4556h.9917c1.1675,0,1.4629.5356,1.4629,1.1914,0,.7515-.3916,1.2793-1.3833,1.2793h-2.4546v-.8237h2.4546c.3921,0,.5518-.1357.5518-.4634,0-.3359-.1758-.4722-.5996-.4722h-.9995c-1.167,0-1.4551-.5835-1.4551-1.231,0-.7598.3921-1.2314,1.3755-1.2314h2.3428Z"/><path class="cls-10" d="M136.8936,230.0774v-.9995h.8555v.9995h1.1675v.8154h-1.1675v1.999c0,.4717.168.6318.5674.6318h.584v.7754h-.7598c-.8716,0-1.2471-.3521-1.2471-1.4551v-1.9512h-.5757v-.8154h.5757Z"/><path class="cls-10" d="M142.4917,230.0774c.9995,0,1.4233.48,1.4233,1.2954,0,.7754-.3916,1.2153-1.4312,1.2153h-2.0068v.3037c0,.3359.1841.5835.6475.5835h2.583v.8237h-2.583c-1.0552,0-1.4712-.5918-1.4712-1.3911v-1.4395c0-.7993.416-1.3911,1.4712-1.3911h1.3672ZM140.4771,231.9246h1.9829c.4556,0,.6235-.1919.6235-.5039,0-.3198-.1836-.5278-.5996-.5278h-1.3594c-.4634,0-.6475.2559-.6475.584v.4478Z"/><path class="cls-10" d="M147.8276,230.0774v.8154h-1.4873c-.3755,0-.5435.1763-.5435.5439v2.8623h-.8477v-2.9902c0-.8477.312-1.2314,1.1436-1.2314h1.7349Z"/><path class="cls-10" d="M151.1802,230.0774c1.1191,0,1.8311.6875,1.8311,2.1108s-.7119,2.1108-1.8311,2.1108h-.8877c-1.1274,0-1.8311-.6875-1.8311-2.1108s.7036-2.1108,1.8311-2.1108h.8877ZM150.3726,230.8929c-.7358,0-1.0557.3838-1.0557,1.2954s.3198,1.2871,1.0557,1.2871h.7275c.7275,0,1.0552-.3755,1.0552-1.2871s-.3276-1.2954-1.0552-1.2954h-.7275Z"/><path class="cls-10" d="M154.8848,228.4861v.9834h-.856v-.9834h.856ZM154.8765,230.0774v4.2217h-.8477v-4.2217h.8477Z"/><path class="cls-10" d="M160.4429,228.2464v4.2456c0,1.2153-.5435,1.8071-1.5508,1.8071h-1.1675c-1.1274,0-1.8311-.6875-1.8311-2.1108s.7036-2.1108,1.8311-2.1108h1.8628v-1.8311h.8555ZM159.5874,232.452v-1.5591h-1.7827c-.7275,0-1.0557.3838-1.0557,1.2954s.3281,1.2871,1.0557,1.2871h.8394c.6797,0,.9434-.3037.9434-1.0234Z"/><path class="cls-10" d="M164.356,230.0774c1.0547,0,1.4707.5918,1.4707,1.3911v1.9829c0,.6079-.1602.8477-.8711.8477h-1.9756c-.999,0-1.415-.4878-1.415-1.2871,0-.7676.3838-1.2153,1.4238-1.2153h2.0068v-.3198c0-.3281-.1846-.584-.6484-.584h-2.5264v-.8154h2.5352ZM164.9956,233.2596v-.7915h-1.9912c-.4482,0-.6074.1841-.6074.4956,0,.312.168.5117.5918.5117h1.7744c.168,0,.2324-.064.2324-.2158Z"/><path class="cls-10" d="M167.8765,228.2464v6.0527h-.8477v-6.0527h.8477Z"/><rect class="cls-1" x="35.8898" y="173.9554" width="22.1814" height="6.4288"/><polygon class="cls-10" points="35.8898 177.8062 50.301 177.8062 50.301 180.3842 58.0712 177.1699 50.301 173.9554 50.301 176.5332 35.8898 176.5332 35.8898 177.8062"/><polygon class="cls-10" points="36.8699 176.5332 37.2971 212.1662 36.3589 212.1662 35.8898 176.5332 36.8699 176.5332"/></svg>