<?xml version="1.0" encoding="UTF-8"?><svg id="Layer_1" xmlns="http://www.w3.org/2000/svg" xmlns:xlink="http://www.w3.org/1999/xlink" viewBox="0 0 200.663 266.8023"><defs><style>.cls-1,.cls-2,.cls-3{fill:none;}.cls-4{fill:url(#radial-gradient-2);}.cls-5{fill:#414042;}.cls-6{fill:#231f20;}.cls-7{fill:url(#radial-gradient);}.cls-8{fill:url(#linear-gradient);}.cls-9{font-size:7px;}.cls-10{font-size:8px;}.cls-11{clip-path:url(#clippath-1);}.cls-12{clip-path:url(#clippath-2);}.cls-2{stroke-width:1.5495px;}.cls-2,.cls-3{stroke:#414042;stroke-miterlimit:10;}.cls-13,.cls-14{font-size:12px;}.cls-3{stroke-width:.25px;}.cls-14,.cls-15{font-family:NasalizationRg-Regular, Nasalization;}.cls-16{letter-spacing:-.02em;}.cls-17{letter-spacing:-.02em;}.cls-18{letter-spacing:-.028em;}.cls-19{letter-spacing:.02em;}.cls-20{clip-path:url(#clippath);}</style><linearGradient id="linear-gradient" x1="0" y1="12.8015" x2="22.1463" y2="12.8015" gradientUnits="userSpaceOnUse"><stop offset="0" stop-color="#fff23b"/><stop offset=".0401" stop-color="#fee52d"/><stop offset=".1171" stop-color="#fcd41b"/><stop offset=".1964" stop-color="#fcc90f"/><stop offset=".2809" stop-color="#fcc60c"/><stop offset=".6685" stop-color="#f28f3f"/><stop offset=".8876" stop-color="#ec683c"/><stop offset="1" stop-color="#e83e3a"/></linearGradient><symbol id="Brush_Stroke_2" viewBox="0 0 22.1463 25.6029"><path class="cls-8" d="M5.9385,6.8005c1.5671,2.0008,11.1807,10.4092,14.0703,13.918.7726.9381,2.6834,5.4435,1.9878,4.8267C14.1124,18.5534,5.2632,6.7079,0,0l2.6678,2.9251c1.0506,1.5606,3.2707,3.8753,3.2707,3.8753Z"/></symbol><clipPath id="clippath"><rect class="cls-1" y="119.9954" width="200.663" height="100"/></clipPath><clipPath id="clippath-1"><path class="cls-1" d="M51.6707,169.9954c0,26.785,21.786,48.5,48.6608,48.5s48.6608-21.715,48.6608-48.5-21.786-48.5-48.6608-48.5-48.6608,21.714-48.6608,48.5"/></clipPath><radialGradient id="radial-gradient" cx="18.4471" cy="111.1892" fx="18.4471" fy="111.1892" r=".5165" gradientTransform="translate(8929.0852 11338.8393) rotate(-47.463) scale(126.4106 -126.4472) skewX(-.1889)" gradientUnits="userSpaceOnUse"><stop offset="0" stop-color="#fff"/><stop offset=".7248" stop-color="#fff"/><stop offset=".7777" stop-color="#e0e0e1"/><stop offset=".8921" stop-color="#949495"/><stop offset=".9975" stop-color="#4a494b"/><stop offset="1" stop-color="#4a494b"/></radialGradient><clipPath id="clippath-2"><rect class="cls-1" y="119.9954" width="200.663" height="100"/></clipPath><radialGradient id="radial-gradient-2" cx="223.8163" cy="178.7632" fx="223.8163" fy="178.7632" r="6.452" gradientTransform="translate(105.2266 -33.6484) rotate(41.2503) scale(.8376) skewX(-.77)" gradientUnits="userSpaceOnUse"><stop offset=".7248" stop-color="#fff"/><stop offset=".777" stop-color="#e1e1e1"/><stop offset=".8896" stop-color="#969697"/><stop offset=".9975" stop-color="#4a494b"/></radialGradient></defs><g class="cls-20"><g class="cls-11"><polygon class="cls-7" points="3.2037 174.3194 95.9932 73.1885 197.4593 165.6714 104.6698 266.8023 3.2037 174.3194"/></g><g class="cls-12"><ellipse class="cls-2" cx="100.3315" cy="169.9954" rx="48.6608" ry="48.5"/><path class="cls-5" d="M78.0936,163.83c.4595,3.353,3.5588,5.701,6.9239,5.243,3.3641-.458,5.7199-3.547,5.2604-6.901-.4595-3.353-3.5598-5.701-6.9239-5.243-3.3641.458-5.7199,3.548-5.2604,6.901"/><path class="cls-2" d="M78.0936,163.83c.4595,3.353,3.5588,5.701,6.9239,5.243,3.3641-.458,5.7199-3.547,5.2604-6.901-.4595-3.353-3.5598-5.701-6.9239-5.243-3.3641.458-5.7199,3.548-5.2604,6.901Z"/><path class="cls-5" d="M91.692,130.156c.0973,1.446,2.5705,2.458,5.5253,2.262,2.9538-.197,5.2704-1.528,5.1741-2.974-.0973-1.446-2.5705-2.459-5.5253-2.262-2.9548.197-5.2714,1.528-5.1741,2.974"/><path class="cls-2" d="M91.692,130.156c.0973,1.446,2.5705,2.458,5.5253,2.262,2.9538-.197,5.2704-1.528,5.1741-2.974-.0973-1.446-2.5705-2.459-5.5253-2.262-2.9548.197-5.2714,1.528-5.1741,2.974Z"/><path class="cls-5" d="M136.4195,160.8799c-2.104.692-3.0049,3.684-2.0117,6.683.9933,2.998,3.5036,4.868,5.6075,4.176,2.104-.693,3.0049-3.684,2.0117-6.683-.9933-2.998-3.5036-4.868-5.6075-4.176"/><path class="cls-2" d="M136.4195,160.8799c-2.104.692-3.0049,3.684-2.0117,6.683.9933,2.998,3.5036,4.868,5.6075,4.176,2.104-.693,3.0049-3.684,2.0117-6.683-.9933-2.998-3.5036-4.868-5.6075-4.176Z"/><path class="cls-5" d="M124.1754,136.8026c-.5899.691.1104,2.25,1.5642,3.482,1.4528,1.232,3.1093,1.67,3.6992.979.59-.692-.1104-2.251-1.5642-3.482-1.4528-1.232-3.1093-1.67-3.6992-.979"/><path class="cls-2" d="M124.1754,136.8026c-.5899.691.1104,2.25,1.5642,3.482,1.4528,1.232,3.1093,1.67,3.6992.979.59-.692-.1104-2.251-1.5642-3.482-1.4528-1.232-3.1093-1.67-3.6992-.979Z"/><path class="cls-5" d="M101.2248,182.9726c-.2639.869.2298,1.786,1.1006,2.048.8719.263,1.7919-.229,2.0548-1.097.2639-.869-.2288-1.786-1.1006-2.048-.8709-.263-1.7909.228-2.0548,1.097"/><path class="cls-2" d="M101.2248,182.9726c-.2639.869.2298,1.786,1.1006,2.048.8719.263,1.7919-.229,2.0548-1.097.2639-.869-.2288-1.786-1.1006-2.048-.8709-.263-1.7909.228-2.0548,1.097Z"/><path class="cls-5" d="M58.108,166.8502c-.294,1.398.0632,2.655.7976,2.809.7354.153,1.5692-.855,1.8632-2.253s-.0632-2.655-.7976-2.809c-.7354-.153-1.5692.855-1.8632,2.253"/><path class="cls-2" d="M58.108,166.8502c-.294,1.398.0632,2.655.7976,2.809.7354.153,1.5692-.855,1.8632-2.253s-.0632-2.655-.7976-2.809c-.7354-.153-1.5692.855-1.8632,2.253Z"/><path class="cls-5" d="M91.6953,204.9546c-.2639.87,1.1699,2.071,3.2016,2.683,2.0317.612,3.8919.403,4.1557-.466.2639-.87-1.1689-2.072-3.2006-2.684s-3.8929-.403-4.1567.467"/><path class="cls-2" d="M91.6953,204.9546c-.2639.87,1.1699,2.071,3.2016,2.683,2.0317.612,3.8919.403,4.1557-.466.2639-.87-1.1689-2.072-3.2006-2.684s-3.8929-.403-4.1567.467Z"/><path class="cls-5" d="M125.6645,200.3927c.7756,1.031,3.4594.333,5.9948-1.561,2.5354-1.893,3.9621-4.264,3.1865-5.296-.7756-1.031-3.4594-.332-5.9948,1.561-2.5354,1.893-3.9621,4.265-3.1865,5.296"/><path class="cls-2" d="M125.6645,200.3927c.7756,1.031,3.4594.333,5.9948-1.561,2.5354-1.893,3.9621-4.264,3.1865-5.296-.7756-1.031-3.4594-.332-5.9948,1.561-2.5354,1.893-3.9621,4.265-3.1865,5.296Z"/><path class="cls-5" d="M129.3418,160.8682c-.2639.869.2298,1.786,1.1006,2.048.8719.263,1.7919-.229,2.0548-1.097.2639-.869-.2288-1.786-1.1006-2.048-.8709-.263-1.7909.228-2.0548,1.097"/><path class="cls-2" d="M129.3418,160.8682c-.2639.869.2298,1.786,1.1006,2.048.8719.263,1.7919-.229,2.0548-1.097.2639-.869-.2288-1.786-1.1006-2.048-.8709-.263-1.7909.228-2.0548,1.097Z"/><path class="cls-5" d="M62.1649,148.3553c.7906.713,3.4594-.945,5.9597-3.702,2.5003-2.757,3.8858-5.569,3.0952-6.282-.7906-.712-3.4594.945-5.9597,3.702-2.5003,2.757-3.8858,5.569-3.0952,6.282"/><path class="cls-2" d="M62.1649,148.3553c.7906.713,3.4594-.945,5.9597-3.702,2.5003-2.757,3.8858-5.569,3.0952-6.282-.7906-.712-3.4594.945-5.9597,3.702-2.5003,2.757-3.8858,5.569-3.0952,6.282Z"/><path class="cls-5" d="M65.83,187.4782c-1.0595,1.242-.0903,3.799,2.1652,5.711,2.2555,1.912,4.9433,2.455,6.0038,1.212,1.0595-1.242.0903-3.799-2.1652-5.711-2.2565-1.912-4.9443-2.454-6.0038-1.212"/><path class="cls-2" d="M65.83,187.4782c-1.0595,1.242-.0903,3.799,2.1652,5.711,2.2555,1.912,4.9433,2.455,6.0038,1.212,1.0595-1.242.0903-3.799-2.1652-5.711-2.2565-1.912-4.9443-2.454-6.0038-1.212Z"/><path class="cls-5" d="M85.0588,173.6206c-.2639.869.2298,1.786,1.1006,2.048.8719.263,1.7919-.229,2.0548-1.097.2639-.869-.2288-1.786-1.1006-2.048-.8719-.263-1.7909.228-2.0548,1.097"/><path class="cls-2" d="M85.0588,173.6206c-.2639.869.2298,1.786,1.1006,2.048.8719.263,1.7919-.229,2.0548-1.097.2639-.869-.2288-1.786-1.1006-2.048-.8719-.263-1.7909.228-2.0548,1.097Z"/><path class="cls-5" d="M111.5814,135.8725c-.2639.869.2298,1.786,1.1006,2.048.8719.263,1.7919-.229,2.0548-1.097.2639-.869-.2288-1.786-1.1006-2.048-.8709-.263-1.7909.228-2.0548,1.097"/><path class="cls-2" d="M111.5814,135.8725c-.2639.869.2298,1.786,1.1006,2.048.8719.263,1.7919-.229,2.0548-1.097.2639-.869-.2288-1.786-1.1006-2.048-.8709-.263-1.7909.228-2.0548,1.097Z"/><path class="cls-5" d="M128.6771,179.0987c-.2639.869.2298,1.786,1.1006,2.048.8719.263,1.7919-.229,2.0548-1.097.2639-.869-.2288-1.786-1.1006-2.048-.8709-.263-1.7909.228-2.0548,1.097"/><path class="cls-2" d="M128.6771,179.0987c-.2639.869.2298,1.786,1.1006,2.048.8719.263,1.7919-.229,2.0548-1.097.2639-.869-.2288-1.786-1.1006-2.048-.8709-.263-1.7909.228-2.0548,1.097Z"/><path class="cls-5" d="M106.9217,153.2865c-1.5772,3.59.5739,7.997,4.8049,9.844,4.231,1.847,8.9405.434,10.5178-3.156,1.5772-3.59-.5739-7.997-4.8059-9.844-4.231-1.847-8.9395-.434-10.5167,3.156"/><path class="cls-2" d="M106.9217,153.2865c-1.5772,3.59.5739,7.997,4.8049,9.844,4.231,1.847,8.9405.434,10.5178-3.156,1.5772-3.59-.5739-7.997-4.8059-9.844-4.231-1.847-8.9395-.434-10.5167,3.156Z"/></g></g><rect class="cls-1" y="119.9954" width="200" height="100"/><rect class="cls-1" x="142.9833" y="162.571" width="22.8382" height="7.4244"/><polygon class="cls-6" points="165.8214 165.5483 150.9835 165.5483 150.9835 162.571 142.9833 166.2831 150.9835 169.9954 150.9835 167.0184 165.8214 167.0184 165.8214 165.5483"/><polygon class="cls-6" points="164.165 166.9981 163.6433 137.5799 164.7891 137.5799 165.362 166.9981 164.165 166.9981"/><text class="cls-14" transform="translate(139.3508 133.9529)"><tspan x="0" y="0">Crater</tspan></text><text class="cls-15" transform="translate(26.5509 127.6168)"><tspan class="cls-13"><tspan class="cls-16" x="0" y="0">T</tspan><tspan x="6.6123" y="0">arget</tspan></tspan><tspan class="cls-10"><tspan x="7.582" y="9.6001">Moon</tspan></tspan></text><text class="cls-15" transform="translate(24.0735 219.9955)"><tspan class="cls-13"><tspan x="0" y="0">Su</tspan><tspan class="cls-19" x="16.8599" y="0">r</tspan><tspan class="cls-18" x="22.6558" y="0">f</tspan><tspan x="26.8198" y="0">ace</tspan></tspan><tspan class="cls-9"><tspan x="2.916" y="8.3999">Icosphere 8</tspan></tspan></text><path class="cls-4" d="M147.102,204.1446c-1.484,1.6469-4.0404,1.7952-5.7097.3311s-1.8197-3.986-.3357-5.6329,4.0404-1.7952,5.7097-.3311,1.8197,3.986.3357,5.6329Z"/><path class="cls-3" d="M147.102,204.1446c-1.484,1.6469-4.0404,1.7952-5.7097.3311s-1.8197-3.986-.3357-5.6329,4.0404-1.7952,5.7097-.3311,1.8197,3.986.3357,5.6329Z"/><use width="22.1463" height="25.6029" transform="translate(158.4647 212.5147) rotate(-110.4288) scale(.4145 -.2639) skewX(8.3181)" xlink:href="#Brush_Stroke_2"/><use width="22.1463" height="25.6029" transform="translate(170.0408 206.0844) rotate(173.1537) scale(.5288 .2494) skewX(30.7472)" xlink:href="#Brush_Stroke_2"/><use width="22.1463" height="25.6029" transform="translate(176.6114 213.6591) rotate(171.3402) scale(.9348 .5644) skewX(12.4351)" xlink:href="#Brush_Stroke_2"/><text class="cls-15" transform="translate(117.6701 224.6992)"><tspan class="cls-13"><tspan class="cls-17" x="0" y="0">P</tspan><tspan x="7.9077" y="0">rojectile</tspan></tspan><tspan class="cls-10"><tspan x="7.5039" y="9.6001">Asteroidal</tspan></tspan></text><rect class="cls-1" x="35.8898" y="173.9554" width="22.1814" height="6.4288"/><polygon class="cls-6" points="35.8898 177.8062 50.301 177.8062 50.301 180.3842 58.0712 177.1699 50.301 173.9554 50.301 176.5332 35.8898 176.5332 35.8898 177.8062"/><polygon class="cls-6" points="36.8699 176.5332 37.2971 212.1662 36.3589 212.1662 35.8898 176.5332 36.8699 176.5332"/></svg>