<?xml version="1.0" encoding="UTF-8"?>
<svg id="Layer_1" xmlns="http://www.w3.org/2000/svg" xmlns:xlink="http://www.w3.org/1999/xlink" version="1.1" viewBox="0 0 180 140">
  <!-- Generator: Adobe Illustrator 30.2.1, SVG Export Plug-In . SVG Version: 2.1.1 Build 1)  -->
  <defs>
    <style>
      .st0, .st1, .st2 {
        fill: none;
      }

      .st3 {
        fill: url(#linear-gradient2);
      }

      .st4 {
        fill: url(#linear-gradient1);
      }

      .st5 {
        fill: url(#linear-gradient3);
      }

      .st6 {
        fill: url(#linear-gradient5);
      }

      .st7 {
        fill: url(#linear-gradient4);
      }

      .st8 {
        fill: #414042;
      }

      .st9 {
        fill: url(#radial-gradient);
      }

      .st10 {
        fill: url(#linear-gradient);
      }

      .st11 {
        clip-path: url(#clippath-1);
      }

      .st12 {
        clip-path: url(#clippath-2);
      }

      .st1 {
        stroke-width: 1.5495px;
      }

      .st1, .st2 {
        stroke: #414042;
        stroke-miterlimit: 10;
      }

      .st2 {
        stroke-width: .25px;
      }

      .st13 {
        fill: url(#radial-gradient1);
      }

      .st14 {
        fill: url(#radial-gradient3);
      }

      .st15 {
        fill: url(#radial-gradient2);
      }

      .st16 {
        fill: url(#radial-gradient5);
      }

      .st17 {
        fill: url(#radial-gradient4);
      }

      .st18 {
        clip-path: url(#clippath);
      }
    </style>
    <linearGradient id="linear-gradient" x1="0" y1="12.8015" x2="22.1463" y2="12.8015" gradientUnits="userSpaceOnUse">
      <stop offset="0" stop-color="#fff33b"/>
      <stop offset=".0401" stop-color="#fee62d"/>
      <stop offset=".1171" stop-color="#fdd51b"/>
      <stop offset=".1964" stop-color="#fdca0f"/>
      <stop offset=".2809" stop-color="#fdc70c"/>
      <stop offset=".6685" stop-color="#f3903f"/>
      <stop offset=".8876" stop-color="#ed683c"/>
      <stop offset="1" stop-color="#e93e3a"/>
    </linearGradient>
    <symbol id="Brush_Stroke_3" viewBox="0 0 22.1463 25.6029">
      <path class="st10" d="M5.9385,6.8005c1.5671,2.0008,11.1807,10.4092,14.0703,13.918.7726.9381,2.6834,5.4435,1.9878,4.8267C14.1124,18.5534,5.2632,6.7079,0,0l2.6678,2.9251c1.0506,1.5606,3.2707,3.8753,3.2707,3.8753Z"/>
    </symbol>
    <clipPath id="clippath">
      <rect class="st0" x="-8.817" y="13.8494" width="200" height="100"/>
    </clipPath>
    <clipPath id="clippath-1">
      <path class="st0" d="M42.683,63.8494c0,26.785,21.714,48.5,48.5,48.5s48.5-21.715,48.5-48.5S117.969,15.3494,91.183,15.3494s-48.5,21.714-48.5,48.5"/>
    </clipPath>
    <radialGradient id="radial-gradient" cx="-1.5215" cy=".1025" fx="-1.5215" fy=".1025" r=".5165" gradientTransform="translate(307.9107 73.4842) scale(126.2199 -126.2199)" gradientUnits="userSpaceOnUse">
      <stop offset="0" stop-color="#fff"/>
      <stop offset=".7248" stop-color="#fff"/>
      <stop offset=".7777" stop-color="#e0e0e1"/>
      <stop offset=".8921" stop-color="#949495"/>
      <stop offset=".9975" stop-color="#4a494b"/>
      <stop offset="1" stop-color="#4a494b"/>
    </radialGradient>
    <clipPath id="clippath-2">
      <rect class="st0" x="-8.817" y="13.8494" width="200" height="100"/>
    </clipPath>
    <radialGradient id="radial-gradient1" cx="144.4965" cy="34.6826" fx="144.4965" fy="34.6826" r="6.452" gradientUnits="userSpaceOnUse">
      <stop offset=".7248" stop-color="#fff"/>
      <stop offset=".777" stop-color="#e1e1e1"/>
      <stop offset=".8896" stop-color="#969697"/>
      <stop offset=".9975" stop-color="#4a494b"/>
    </radialGradient>
    <radialGradient id="radial-gradient2" cx="-196.7423" cy="-189.8286" fx="-196.7423" fy="-189.8286" r="6.452" gradientTransform="translate(43.8076 -99.4647) rotate(-130.4175) scale(.5259) skewX(-2.4505)" xlink:href="#radial-gradient1"/>
    <radialGradient id="radial-gradient3" cx="275.6325" cy="57.321" fx="275.6325" fy="57.321" gradientTransform="translate(52.1518 -96.4776) rotate(49.047) scale(.7826) skewX(-3.0188)" xlink:href="#radial-gradient1"/>
    <linearGradient id="linear-gradient1" x1="-8249.0651" y1="-7742.182" x2="-8226.9188" y2="-7742.182" gradientTransform="translate(2137.576 -2381.5074) rotate(-72.7379) scale(.4295 .1643) skewX(-9.8768)" gradientUnits="userSpaceOnUse">
      <stop offset="0" stop-color="#939598"/>
      <stop offset=".0393" stop-color="#a9abad"/>
      <stop offset=".0974" stop-color="#c3c5c7"/>
      <stop offset=".1568" stop-color="#d6d8d9"/>
      <stop offset=".2178" stop-color="#e2e3e4"/>
      <stop offset=".2827" stop-color="#e6e7e8"/>
      <stop offset=".6685" stop-color="#f9ed32"/>
      <stop offset=".8876" stop-color="#ed683c"/>
      <stop offset="1" stop-color="#f15a29"/>
    </linearGradient>
    <linearGradient id="linear-gradient2" x1="-7755.4181" y1="-8348.0447" x2="-7734.2969" y2="-8348.0447" gradientTransform="translate(3808.9193 619.7185) rotate(40.7787) scale(.3489 -.2438) skewX(10.0332)" gradientUnits="userSpaceOnUse">
      <stop offset="0" stop-color="#939598"/>
      <stop offset=".0393" stop-color="#a9abad"/>
      <stop offset=".0974" stop-color="#c3c5c7"/>
      <stop offset=".1568" stop-color="#d6d8d9"/>
      <stop offset=".2178" stop-color="#e2e3e4"/>
      <stop offset=".2827" stop-color="#e6e7e8"/>
      <stop offset=".6685" stop-color="#f9ed32"/>
      <stop offset=".8876" stop-color="#ed683c"/>
      <stop offset="1" stop-color="#f15a29"/>
    </linearGradient>
    <linearGradient id="linear-gradient3" x1="-7960.1845" y1="-8175.4307" x2="-7938.0381" y2="-8175.4307" gradientTransform="translate(5511.0235 -797.8934) rotate(43.391) scale(.6344 -.5363) skewX(-17.7421)" gradientUnits="userSpaceOnUse">
      <stop offset="0" stop-color="#939598"/>
      <stop offset=".0393" stop-color="#a9abad"/>
      <stop offset=".0974" stop-color="#c3c5c7"/>
      <stop offset=".1568" stop-color="#d6d8d9"/>
      <stop offset=".2178" stop-color="#e2e3e4"/>
      <stop offset=".2827" stop-color="#e6e7e8"/>
      <stop offset=".6685" stop-color="#f9ed32"/>
      <stop offset=".8876" stop-color="#ed683c"/>
      <stop offset="1" stop-color="#f15a29"/>
    </linearGradient>
    <linearGradient id="linear-gradient4" x1="-7728.7708" y1="-8030.3125" x2="-7706.6245" y2="-8030.3125" gradientTransform="translate(2480.1844 2895.5162) rotate(80.9402) scale(.3489 -.2438) skewX(10.0332)" xlink:href="#linear-gradient2"/>
    <linearGradient id="linear-gradient5" x1="-8579.3353" y1="-8589.9606" x2="-8563.5467" y2="-8589.9606" gradientTransform="translate(-382.7975 -1802.168) rotate(152.7244) scale(.3658 .2164) skewX(-48.9495)" xlink:href="#linear-gradient2"/>
    <radialGradient id="radial-gradient4" cx="-147.6218" cy="-241.2564" fx="-147.6218" fy="-241.2564" r="4.8" gradientTransform="translate(201.5243 -2.4709) rotate(-94.3919) scale(.4002 .6448) skewX(-4.361)" gradientUnits="userSpaceOnUse">
      <stop offset="0" stop-color="#939598"/>
      <stop offset=".0393" stop-color="#a9abad"/>
      <stop offset=".0974" stop-color="#c3c5c7"/>
      <stop offset=".1568" stop-color="#d6d8d9"/>
      <stop offset=".2178" stop-color="#e2e3e4"/>
      <stop offset=".2827" stop-color="#e6e7e8"/>
      <stop offset=".7735" stop-color="#f9ed32"/>
      <stop offset=".8887" stop-color="#f7941d"/>
      <stop offset="1" stop-color="#414042"/>
    </radialGradient>
    <radialGradient id="radial-gradient5" cx="138.1095" cy="-63.8387" fx="138.1095" fy="-63.8387" r="6.452" gradientTransform="translate(179.6768 -8.114) rotate(168.7413) scale(1.1204 1.09) skewX(-2.1457)" xlink:href="#radial-gradient1"/>
  </defs>
  <g class="st18">
    <g class="st11">
      <rect class="st9" x="22.662" y="-4.6716" width="137.0421" height="137.0421" transform="translate(-17.4699 88.0496) rotate(-47.5575)"/>
    </g>
    <g class="st12">
      <circle class="st1" cx="91.183" cy="63.8494" r="48.5"/>
      <path class="st8" d="M69.0186,57.684c.458,3.353,3.547,5.701,6.901,5.243,3.353-.458,5.701-3.547,5.243-6.901-.458-3.353-3.548-5.701-6.901-5.243-3.353.458-5.701,3.548-5.243,6.901"/>
      <path class="st1" d="M69.0186,57.684c.458,3.353,3.547,5.701,6.901,5.243,3.353-.458,5.701-3.547,5.243-6.901-.458-3.353-3.548-5.701-6.901-5.243-3.353.458-5.701,3.548-5.243,6.901Z"/>
      <path class="st8" d="M82.5721,24.01c.097,1.446,2.562,2.458,5.507,2.262,2.944-.197,5.253-1.528,5.157-2.974-.097-1.446-2.562-2.459-5.507-2.262s-5.254,1.528-5.157,2.974"/>
      <path class="st1" d="M82.5721,24.01c.097,1.446,2.562,2.458,5.507,2.262,2.944-.197,5.253-1.528,5.157-2.974-.097-1.446-2.562-2.459-5.507-2.262s-5.254,1.528-5.157,2.974Z"/>
      <path class="st8" d="M127.1518,54.7339c-2.097.692-2.995,3.684-2.005,6.683.99,2.998,3.492,4.868,5.589,4.176,2.097-.693,2.995-3.684,2.005-6.683-.99-2.998-3.492-4.868-5.589-4.176"/>
      <path class="st1" d="M127.1518,54.7339c-2.097.692-2.995,3.684-2.005,6.683.99,2.998,3.492,4.868,5.589,4.176,2.097-.693,2.995-3.684,2.005-6.683-.99-2.998-3.492-4.868-5.589-4.176Z"/>
      <path class="st8" d="M114.9481,30.6566c-.588.691.11,2.25,1.559,3.482,1.448,1.232,3.099,1.67,3.687.979.588-.692-.11-2.251-1.559-3.482-1.448-1.232-3.099-1.67-3.687-.979"/>
      <path class="st1" d="M114.9481,30.6566c-.588.691.11,2.25,1.559,3.482,1.448,1.232,3.099,1.67,3.687.979.588-.692-.11-2.251-1.559-3.482-1.448-1.232-3.099-1.67-3.687-.979Z"/>
      <path class="st8" d="M92.0734,76.8266c-.263.869.229,1.786,1.097,2.048.869.263,1.786-.229,2.048-1.097.263-.869-.228-1.786-1.097-2.048-.868-.263-1.785.228-2.048,1.097"/>
      <path class="st1" d="M92.0734,76.8266c-.263.869.229,1.786,1.097,2.048.869.263,1.786-.229,2.048-1.097.263-.869-.228-1.786-1.097-2.048-.868-.263-1.785.228-2.048,1.097Z"/>
      <path class="st8" d="M49.099,60.7042c-.293,1.398.063,2.655.795,2.809.733.153,1.564-.855,1.857-2.253s-.063-2.655-.795-2.809c-.733-.153-1.564.855-1.857,2.253"/>
      <path class="st1" d="M49.099,60.7042c-.293,1.398.063,2.655.795,2.809.733.153,1.564-.855,1.857-2.253s-.063-2.655-.795-2.809c-.733-.153-1.564.855-1.857,2.253Z"/>
      <path class="st8" d="M82.5753,98.8086c-.263.87,1.166,2.071,3.191,2.683,2.025.612,3.879.403,4.142-.466.263-.87-1.165-2.072-3.19-2.684s-3.88-.403-4.143.467"/>
      <path class="st1" d="M82.5753,98.8086c-.263.87,1.166,2.071,3.191,2.683,2.025.612,3.879.403,4.142-.466.263-.87-1.165-2.072-3.19-2.684s-3.88-.403-4.143.467Z"/>
      <path class="st8" d="M116.4323,94.2467c.773,1.031,3.448.333,5.975-1.561,2.527-1.893,3.949-4.264,3.176-5.296-.773-1.031-3.448-.332-5.975,1.561-2.527,1.893-3.949,4.265-3.176,5.296"/>
      <path class="st1" d="M116.4323,94.2467c.773,1.031,3.448.333,5.975-1.561,2.527-1.893,3.949-4.264,3.176-5.296-.773-1.031-3.448-.332-5.975,1.561-2.527,1.893-3.949,4.265-3.176,5.296Z"/>
      <path class="st8" d="M120.0975,54.7222c-.263.869.229,1.786,1.097,2.048.869.263,1.786-.229,2.048-1.097.263-.869-.228-1.786-1.097-2.048-.868-.263-1.785.228-2.048,1.097"/>
      <path class="st1" d="M120.0975,54.7222c-.263.869.229,1.786,1.097,2.048.869.263,1.786-.229,2.048-1.097.263-.869-.228-1.786-1.097-2.048-.868-.263-1.785.228-2.048,1.097Z"/>
      <path class="st8" d="M53.1425,42.2093c.788.713,3.448-.945,5.94-3.702,2.492-2.757,3.873-5.569,3.085-6.282-.788-.712-3.448.945-5.94,3.702-2.492,2.757-3.873,5.569-3.085,6.282"/>
      <path class="st1" d="M53.1425,42.2093c.788.713,3.448-.945,5.94-3.702,2.492-2.757,3.873-5.569,3.085-6.282-.788-.712-3.448.945-5.94,3.702-2.492,2.757-3.873,5.569-3.085,6.282Z"/>
      <path class="st8" d="M56.7955,81.3322c-1.056,1.242-.09,3.799,2.158,5.711,2.248,1.912,4.927,2.455,5.984,1.212,1.056-1.242.09-3.799-2.158-5.711-2.249-1.912-4.928-2.454-5.984-1.212"/>
      <path class="st1" d="M56.7955,81.3322c-1.056,1.242-.09,3.799,2.158,5.711,2.248,1.912,4.927,2.455,5.984,1.212,1.056-1.242.09-3.799-2.158-5.711-2.249-1.912-4.928-2.454-5.984-1.212Z"/>
      <path class="st8" d="M75.9608,67.4746c-.263.869.229,1.786,1.097,2.048.869.263,1.786-.229,2.048-1.097.263-.869-.228-1.786-1.097-2.048-.869-.263-1.785.228-2.048,1.097"/>
      <path class="st1" d="M75.9608,67.4746c-.263.869.229,1.786,1.097,2.048.869.263,1.786-.229,2.048-1.097.263-.869-.228-1.786-1.097-2.048-.869-.263-1.785.228-2.048,1.097Z"/>
      <path class="st8" d="M102.3957,29.7265c-.263.869.229,1.786,1.097,2.048.869.263,1.786-.229,2.048-1.097.263-.869-.228-1.786-1.097-2.048-.868-.263-1.785.228-2.048,1.097"/>
      <path class="st1" d="M102.3957,29.7265c-.263.869.229,1.786,1.097,2.048.869.263,1.786-.229,2.048-1.097.263-.869-.228-1.786-1.097-2.048-.868-.263-1.785.228-2.048,1.097Z"/>
      <path class="st8" d="M119.435,72.9527c-.263.869.229,1.786,1.097,2.048.869.263,1.786-.229,2.048-1.097.263-.869-.228-1.786-1.097-2.048-.868-.263-1.785.228-2.048,1.097"/>
      <path class="st1" d="M119.435,72.9527c-.263.869.229,1.786,1.097,2.048.869.263,1.786-.229,2.048-1.097.263-.869-.228-1.786-1.097-2.048-.868-.263-1.785.228-2.048,1.097Z"/>
      <path class="st8" d="M97.7514,47.1405c-1.572,3.59.572,7.997,4.789,9.844,4.217,1.847,8.911.434,10.483-3.156,1.572-3.59-.572-7.997-4.79-9.844-4.217-1.847-8.91-.434-10.482,3.156"/>
      <path class="st1" d="M97.7514,47.1405c-1.572,3.59.572,7.997,4.789,9.844,4.217,1.847,8.911.434,10.483-3.156,1.572-3.59-.572-7.997-4.79-9.844-4.217-1.847-8.91-.434-10.482,3.156Z"/>
    </g>
  </g>
  <rect class="st0" x="-8.817" y="13.8494" width="200" height="100"/>
  <g>
    <g>
      <circle class="st13" cx="143.089" cy="36.706" r="4.8"/>
      <circle class="st2" cx="143.089" cy="36.706" r="4.8"/>
    </g>
    <g>
      <use width="22.1463" height="25.6029" transform="translate(164.6581 35.272) rotate(-151.8118) scale(.4978 -.3138) skewX(8.0043)" xlink:href="#Brush_Stroke_3"/>
      <use width="22.1463" height="25.6029" transform="translate(169.7867 20.3624) rotate(131.4255) scale(.6278 .3) skewX(30.6823)" xlink:href="#Brush_Stroke_3"/>
      <use width="22.1463" height="25.6029" transform="translate(181.6693 21.9919) rotate(129.5881) scale(1.1098 .6787) skewX(12.3002)" xlink:href="#Brush_Stroke_3"/>
    </g>
  </g>
  <g>
    <g>
      <path class="st15" d="M31.2095,39.2587c1.1083-.8655,2.7395-.7067,3.6433.3546s.738,2.6233-.3703,3.4888-2.7395.7067-3.6433-.3546-.738-2.6233.3703-3.4888Z"/>
      <path class="st2" d="M31.2095,39.2587c1.1083-.8655,2.7395-.7067,3.6433.3546s.738,2.6233-.3703,3.4888-2.7395.7067-3.6433-.3546-.738-2.6233.3703-3.4888Z"/>
    </g>
    <g>
      <use width="22.1463" height="25.6029" transform="translate(24.8927 33.0133) rotate(78.5169) scale(.2576 -.169) skewX(8.6024)" xlink:href="#Brush_Stroke_3"/>
      <use width="22.1463" height="25.6029" transform="translate(16.9106 35.8277) rotate(2.1345) scale(.3386 .155) skewX(30.6169)" xlink:href="#Brush_Stroke_3"/>
      <use width="22.1463" height="25.6029" transform="translate(13.5406 30.5385) rotate(.3751) scale(.5987 .3506) skewX(12.2812)" xlink:href="#Brush_Stroke_3"/>
    </g>
  </g>
  <g>
    <g>
      <path class="st14" d="M158.2782,97.2962c-1.6525,1.2892-4.0944,1.0642-5.4541-.5026s-1.1224-3.8821.5301-5.1713,4.0944-1.0642,5.4541.5026,1.1224,3.8821-.5301,5.1713Z"/>
      <path class="st2" d="M158.2782,97.2962c-1.6525,1.2892-4.0944,1.0642-5.4541-.5026s-1.1224-3.8821.5301-5.1713,4.0944-1.0642,5.4541.5026,1.1224,3.8821-.5301,5.1713Z"/>
    </g>
    <g>
      <use width="22.1463" height="25.6029" transform="translate(167.7734 106.5099) rotate(-101.8598) scale(.3818 -.2527) skewX(8.7617)" xlink:href="#Brush_Stroke_3"/>
      <use width="22.1463" height="25.6029" transform="translate(179.6979 102.29) rotate(-178.1261) scale(.5067 .2296) skewX(30.6118)" xlink:href="#Brush_Stroke_3"/>
      <use width="22.1463" height="25.6029" transform="translate(184.7771 110.1055) rotate(-179.8683) scale(.8959 .5195) skewX(12.292)" xlink:href="#Brush_Stroke_3"/>
    </g>
  </g>
  <g>
    <path class="st4" d="M43.4271,68.2014c.4692-.4023,2.8269-3.3347,3.6678-4.0982.2248-.2041,1.0752-.4464.9035-.2353-1.9465,2.3934-4.6698,4.5994-6.2441,5.9519l.734-.7427c.3441-.2434.9388-.8758.9388-.8758Z"/>
    <path class="st3" d="M40.9033,58.5579c.6917.1103,4.2686,1.6852,5.513,1.9305.3327.0656,1.5324-.2799,1.2721-.3919-2.95-1.2693-6.9505-1.7649-9.2716-2.1381l1.0946.2995c.5015.023,1.3919.3,1.3919.3Z"/>
    <path class="st5" d="M36.4151,64.8059c1.1645-.3758,7.4543-.6354,9.5616-1.2328.5634-.1597,2.4397-1.7111,1.9828-1.6878-5.1795.2637-11.8762,2.6752-15.7846,3.931l1.8762-.3852c.8291-.3679,2.3641-.6252,2.3641-.6252Z"/>
    <path class="st7" d="M43.1037,52.913c.5872.5852,3.2214,4.0877,4.2589,5.1626.2774.2874,1.5108,1.0475,1.3181.7939-2.1843-2.8746-5.6373-6.1914-7.6066-8.1564l.8792.9853c.4486.3973,1.1503,1.2145,1.1503,1.2145Z"/>
    <path class="st6" d="M48.9351,67.6444c.7376-2.1532-.4288-3.0778.0007-3.2643.2739-.1189.8412-.3786.903-.2713.7002,1.2161.1104,1.6433-.561,3.4042l-.5492,1.6711c.2577-.4546.2066-1.5398.2066-1.5398Z"/>
    <ellipse class="st17" cx="50.3763" cy="61.0035" rx="3.1007" ry="1.9174" transform="translate(-19.0514 98.9376) rotate(-79.1018)"/>
  </g>
  <g>
    <g>
      <path class="st16" d="M34.8035,89.4249c-.455-2.8556,1.5375-5.6406,4.4504-6.2205s5.6431,1.265,6.0981,4.1206c.455,2.8556-1.5375,5.6406-4.4504,6.2205-2.9129.5799-5.6431-1.265-6.0981-4.1206Z"/>
      <path class="st2" d="M34.8035,89.4249c-.455-2.8556,1.5375-5.6406,4.4504-6.2205s5.6431,1.265,6.0981,4.1206c.455,2.8556-1.5375,5.6406-4.4504,6.2205-2.9129.5799-5.6431-1.265-6.0981-4.1206Z"/>
    </g>
    <g>
      <use width="22.1463" height="25.6029" transform="translate(16.6237 94.6376) rotate(16.7576) scale(.5456 -.3496) skewX(9.5683)" xlink:href="#Brush_Stroke_3"/>
      <use width="22.1463" height="25.6029" transform="translate(13.5475 111.8199) rotate(-57.8625) scale(.7061 .3257) skewX(31.2916)" xlink:href="#Brush_Stroke_3"/>
      <use width="22.1463" height="25.6029" transform="translate(.2111 112.6639) rotate(-59.6378) scale(1.247 .7376) skewX(13.3809)" xlink:href="#Brush_Stroke_3"/>
    </g>
  </g>
</svg>