<?xml version="1.0" encoding="UTF-8"?><svg id="Layer_1" xmlns="http://www.w3.org/2000/svg" xmlns:xlink="http://www.w3.org/1999/xlink" viewBox="0 0 200 193.6137"><defs><style>.cls-1,.cls-2,.cls-3{fill:none;}.cls-4{fill:url(#radial-gradient-6);}.cls-5{fill:url(#radial-gradient-5);}.cls-6{fill:url(#radial-gradient-4);}.cls-7{fill:url(#radial-gradient-3);}.cls-8{fill:url(#radial-gradient-2);}.cls-9{fill:#414042;}.cls-10{fill:url(#linear-gradient-5);}.cls-11{fill:url(#linear-gradient-6);}.cls-12{fill:url(#linear-gradient-4);}.cls-13{fill:url(#linear-gradient-3);}.cls-14{fill:url(#linear-gradient-2);}.cls-15{fill:url(#radial-gradient);}.cls-16{fill:url(#linear-gradient);}.cls-17{clip-path:url(#clippath-1);}.cls-18{clip-path:url(#clippath-2);}.cls-2{stroke-width:1.5495px;}.cls-2,.cls-3{stroke:#414042;stroke-miterlimit:10;}.cls-3{stroke-width:.25px;}.cls-19{clip-path:url(#clippath);}</style><linearGradient id="linear-gradient" x1="0" y1="12.8015" x2="22.1463" y2="12.8015" gradientUnits="userSpaceOnUse"><stop offset="0" stop-color="#fff33b"/><stop offset=".0401" stop-color="#fee62d"/><stop offset=".1171" stop-color="#fdd51b"/><stop offset=".1964" stop-color="#fdca0f"/><stop offset=".2809" stop-color="#fdc70c"/><stop offset=".6685" stop-color="#f3903f"/><stop offset=".8876" stop-color="#ed683c"/><stop offset="1" stop-color="#e93e3a"/></linearGradient><symbol id="Brush_Stroke_3" viewBox="0 0 22.1463 25.6029"><path class="cls-16" d="M5.9385,6.8005c1.5671,2.0008,11.1807,10.4092,14.0703,13.918.7726.9381,2.6834,5.4435,1.9878,4.8267C14.1124,18.5534,5.2632,6.7079,0,0l2.6678,2.9251c1.0506,1.5606,3.2707,3.8753,3.2707,3.8753Z"/></symbol><clipPath id="clippath"><rect class="cls-1" y="46.8069" width="200" height="100"/></clipPath><clipPath id="clippath-1"><path class="cls-1" d="M51.5,96.8069c0,26.785,21.714,48.5,48.5,48.5s48.5-21.715,48.5-48.5-21.714-48.5-48.5-48.5-48.5,21.714-48.5,48.5"/></clipPath><radialGradient id="radial-gradient" cx="7.2955" cy="33.0599" fx="7.2955" fy="33.0599" r=".5165" gradientTransform="translate(-796.1508 4266.3244) scale(126.2199 -126.2199)" gradientUnits="userSpaceOnUse"><stop offset="0" stop-color="#fff"/><stop offset=".7248" stop-color="#fff"/><stop offset=".7777" stop-color="#e0e0e1"/><stop offset=".8921" stop-color="#949495"/><stop offset=".9975" stop-color="#4a494b"/><stop offset="1" stop-color="#4a494b"/></radialGradient><clipPath id="clippath-2"><rect class="cls-1" y="46.8069" width="200" height="100"/></clipPath><radialGradient id="radial-gradient-2" cx="153.3135" cy="67.6401" fx="153.3135" fy="67.6401" r="6.452" gradientUnits="userSpaceOnUse"><stop offset=".7248" stop-color="#fff"/><stop offset=".777" stop-color="#e1e1e1"/><stop offset=".8896" stop-color="#969697"/><stop offset=".9975" stop-color="#4a494b"/></radialGradient><radialGradient id="radial-gradient-3" cx="-187.9253" cy="-156.8712" fx="-187.9253" fy="-156.8712" r="6.452" gradientTransform="translate(41.8516 -52.2174) rotate(-130.4175) scale(.5259) skewX(-2.4505)" xlink:href="#radial-gradient-2"/><radialGradient id="radial-gradient-4" cx="284.4494" cy="90.2784" fx="284.4494" fy="90.2784" gradientTransform="translate(76.9904 -84.7595) rotate(49.047) scale(.7826) skewX(-3.0188)" xlink:href="#radial-gradient-2"/><linearGradient id="linear-gradient-2" x1="-8240.2482" y1="-7709.2246" x2="-8218.1018" y2="-7709.2246" gradientTransform="translate(2140.8302 -2348.8939) rotate(-72.7379) scale(.4295 .1643) skewX(-9.8768)" gradientUnits="userSpaceOnUse"><stop offset="0" stop-color="#939598"/><stop offset=".0393" stop-color="#a9abad"/><stop offset=".0974" stop-color="#c3c5c7"/><stop offset=".1568" stop-color="#d6d8d9"/><stop offset=".2178" stop-color="#e2e3e4"/><stop offset=".2827" stop-color="#e6e7e8"/><stop offset=".6685" stop-color="#f9ed32"/><stop offset=".8876" stop-color="#ed683c"/><stop offset="1" stop-color="#f15a29"/></linearGradient><linearGradient id="linear-gradient-3" x1="-7746.6011" y1="-8315.0873" x2="-7725.4799" y2="-8315.0873" gradientTransform="translate(3808.6184 655.4214) rotate(40.7787) scale(.3489 -.2438) skewX(10.0332)" gradientUnits="userSpaceOnUse"><stop offset="0" stop-color="#939598"/><stop offset=".0393" stop-color="#a9abad"/><stop offset=".0974" stop-color="#c3c5c7"/><stop offset=".1568" stop-color="#d6d8d9"/><stop offset=".2178" stop-color="#e2e3e4"/><stop offset=".2827" stop-color="#e6e7e8"/><stop offset=".6685" stop-color="#f9ed32"/><stop offset=".8876" stop-color="#ed683c"/><stop offset="1" stop-color="#f15a29"/></linearGradient><linearGradient id="linear-gradient-4" x1="-7951.3675" y1="-8142.4733" x2="-7929.2212" y2="-8142.4733" gradientTransform="translate(5508.4944 -751.3385) rotate(43.391) scale(.6344 -.5363) skewX(-17.7421)" gradientUnits="userSpaceOnUse"><stop offset="0" stop-color="#939598"/><stop offset=".0393" stop-color="#a9abad"/><stop offset=".0974" stop-color="#c3c5c7"/><stop offset=".1568" stop-color="#d6d8d9"/><stop offset=".2178" stop-color="#e2e3e4"/><stop offset=".2827" stop-color="#e6e7e8"/><stop offset=".6685" stop-color="#f9ed32"/><stop offset=".8876" stop-color="#ed683c"/><stop offset="1" stop-color="#f15a29"/></linearGradient><linearGradient id="linear-gradient-5" x1="-7719.9539" y1="-7997.3551" x2="-7697.8075" y2="-7997.3551" gradientTransform="translate(2480.2626 2924.6913) rotate(80.9402) scale(.3489 -.2438) skewX(10.0332)" xlink:href="#linear-gradient-3"/><linearGradient id="linear-gradient-6" x1="-8570.5183" y1="-8557.0032" x2="-8554.7297" y2="-8557.0032" gradientTransform="translate(-380.1507 -1758.0046) rotate(152.7244) scale(.3658 .2164) skewX(-48.9495)" xlink:href="#linear-gradient-3"/><radialGradient id="radial-gradient-5" cx="-138.8048" cy="-208.299" fx="-138.8048" fy="-208.299" r="4.8" gradientTransform="translate(189.3455 34.6292) rotate(-94.3919) scale(.4002 .6448) skewX(-4.361)" gradientUnits="userSpaceOnUse"><stop offset="0" stop-color="#939598"/><stop offset=".0393" stop-color="#a9abad"/><stop offset=".0974" stop-color="#c3c5c7"/><stop offset=".1568" stop-color="#d6d8d9"/><stop offset=".2178" stop-color="#e2e3e4"/><stop offset=".2827" stop-color="#e6e7e8"/><stop offset=".7735" stop-color="#f9ed32"/><stop offset=".8887" stop-color="#f7941d"/><stop offset="1" stop-color="#414042"/></radialGradient><radialGradient id="radial-gradient-6" cx="146.9265" cy="-30.8813" fx="146.9265" fy="-30.8813" r="6.452" gradientTransform="translate(203.8386 58.4162) rotate(168.7413) scale(1.1204 1.09) skewX(-2.1457)" xlink:href="#radial-gradient-2"/></defs><g class="cls-19"><g class="cls-17"><rect class="cls-15" x="31.479" y="28.2858" width="137.0421" height="137.0421" transform="translate(-38.9241 105.2722) rotate(-47.5575)"/></g><g class="cls-18"><circle class="cls-2" cx="100" cy="96.8069" r="48.5"/><path class="cls-9" d="M77.8356,90.6415c.458,3.353,3.547,5.701,6.901,5.243,3.353-.458,5.701-3.547,5.243-6.901-.458-3.353-3.548-5.701-6.901-5.243-3.353.458-5.701,3.548-5.243,6.901"/><path class="cls-2" d="M77.8356,90.6415c.458,3.353,3.547,5.701,6.901,5.243,3.353-.458,5.701-3.547,5.243-6.901-.458-3.353-3.548-5.701-6.901-5.243-3.353.458-5.701,3.548-5.243,6.901Z"/><path class="cls-9" d="M91.3891,56.9675c.097,1.446,2.562,2.458,5.507,2.262,2.944-.197,5.253-1.528,5.157-2.974-.097-1.446-2.562-2.459-5.507-2.262s-5.254,1.528-5.157,2.974"/><path class="cls-2" d="M91.3891,56.9675c.097,1.446,2.562,2.458,5.507,2.262,2.944-.197,5.253-1.528,5.157-2.974-.097-1.446-2.562-2.459-5.507-2.262s-5.254,1.528-5.157,2.974Z"/><path class="cls-9" d="M135.9688,87.6914c-2.097.692-2.995,3.684-2.005,6.683.99,2.998,3.492,4.868,5.589,4.176,2.097-.693,2.995-3.684,2.005-6.683-.99-2.998-3.492-4.868-5.589-4.176"/><path class="cls-2" d="M135.9688,87.6914c-2.097.692-2.995,3.684-2.005,6.683.99,2.998,3.492,4.868,5.589,4.176,2.097-.693,2.995-3.684,2.005-6.683-.99-2.998-3.492-4.868-5.589-4.176Z"/><path class="cls-9" d="M123.7651,63.6141c-.588.691.11,2.25,1.559,3.482,1.448,1.232,3.099,1.67,3.687.979.588-.692-.11-2.251-1.559-3.482-1.448-1.232-3.099-1.67-3.687-.979"/><path class="cls-2" d="M123.7651,63.6141c-.588.691.11,2.25,1.559,3.482,1.448,1.232,3.099,1.67,3.687.979.588-.692-.11-2.251-1.559-3.482-1.448-1.232-3.099-1.67-3.687-.979Z"/><path class="cls-9" d="M100.8904,109.7841c-.263.869.229,1.786,1.097,2.048.869.263,1.786-.229,2.048-1.097.263-.869-.228-1.786-1.097-2.048-.868-.263-1.785.228-2.048,1.097"/><path class="cls-2" d="M100.8904,109.7841c-.263.869.229,1.786,1.097,2.048.869.263,1.786-.229,2.048-1.097.263-.869-.228-1.786-1.097-2.048-.868-.263-1.785.228-2.048,1.097Z"/><path class="cls-9" d="M57.916,93.6617c-.293,1.398.063,2.655.795,2.809.733.153,1.564-.855,1.857-2.253s-.063-2.655-.795-2.809c-.733-.153-1.564.855-1.857,2.253"/><path class="cls-2" d="M57.916,93.6617c-.293,1.398.063,2.655.795,2.809.733.153,1.564-.855,1.857-2.253s-.063-2.655-.795-2.809c-.733-.153-1.564.855-1.857,2.253Z"/><path class="cls-9" d="M91.3923,131.7661c-.263.87,1.166,2.071,3.191,2.683,2.025.612,3.879.403,4.142-.466.263-.87-1.165-2.072-3.19-2.684s-3.88-.403-4.143.467"/><path class="cls-2" d="M91.3923,131.7661c-.263.87,1.166,2.071,3.191,2.683,2.025.612,3.879.403,4.142-.466.263-.87-1.165-2.072-3.19-2.684s-3.88-.403-4.143.467Z"/><path class="cls-9" d="M125.2493,127.2042c.773,1.031,3.448.333,5.975-1.561,2.527-1.893,3.949-4.264,3.176-5.296-.773-1.031-3.448-.332-5.975,1.561-2.527,1.893-3.949,4.265-3.176,5.296"/><path class="cls-2" d="M125.2493,127.2042c.773,1.031,3.448.333,5.975-1.561,2.527-1.893,3.949-4.264,3.176-5.296-.773-1.031-3.448-.332-5.975,1.561-2.527,1.893-3.949,4.265-3.176,5.296Z"/><path class="cls-9" d="M128.9145,87.6797c-.263.869.229,1.786,1.097,2.048.869.263,1.786-.229,2.048-1.097.263-.869-.228-1.786-1.097-2.048-.868-.263-1.785.228-2.048,1.097"/><path class="cls-2" d="M128.9145,87.6797c-.263.869.229,1.786,1.097,2.048.869.263,1.786-.229,2.048-1.097.263-.869-.228-1.786-1.097-2.048-.868-.263-1.785.228-2.048,1.097Z"/><path class="cls-9" d="M61.9595,75.1668c.788.713,3.448-.945,5.94-3.702,2.492-2.757,3.873-5.569,3.085-6.282-.788-.712-3.448.945-5.94,3.702-2.492,2.757-3.873,5.569-3.085,6.282"/><path class="cls-2" d="M61.9595,75.1668c.788.713,3.448-.945,5.94-3.702,2.492-2.757,3.873-5.569,3.085-6.282-.788-.712-3.448.945-5.94,3.702-2.492,2.757-3.873,5.569-3.085,6.282Z"/><path class="cls-9" d="M65.6125,114.2897c-1.056,1.242-.09,3.799,2.158,5.711,2.248,1.912,4.927,2.455,5.984,1.212,1.056-1.242.09-3.799-2.158-5.711-2.249-1.912-4.928-2.454-5.984-1.212"/><path class="cls-2" d="M65.6125,114.2897c-1.056,1.242-.09,3.799,2.158,5.711,2.248,1.912,4.927,2.455,5.984,1.212,1.056-1.242.09-3.799-2.158-5.711-2.249-1.912-4.928-2.454-5.984-1.212Z"/><path class="cls-9" d="M84.7778,100.4321c-.263.869.229,1.786,1.097,2.048.869.263,1.786-.229,2.048-1.097.263-.869-.228-1.786-1.097-2.048-.869-.263-1.785.228-2.048,1.097"/><path class="cls-2" d="M84.7778,100.4321c-.263.869.229,1.786,1.097,2.048.869.263,1.786-.229,2.048-1.097.263-.869-.228-1.786-1.097-2.048-.869-.263-1.785.228-2.048,1.097Z"/><path class="cls-9" d="M111.2127,62.684c-.263.869.229,1.786,1.097,2.048.869.263,1.786-.229,2.048-1.097.263-.869-.228-1.786-1.097-2.048-.868-.263-1.785.228-2.048,1.097"/><path class="cls-2" d="M111.2127,62.684c-.263.869.229,1.786,1.097,2.048.869.263,1.786-.229,2.048-1.097.263-.869-.228-1.786-1.097-2.048-.868-.263-1.785.228-2.048,1.097Z"/><path class="cls-9" d="M128.252,105.9102c-.263.869.229,1.786,1.097,2.048.869.263,1.786-.229,2.048-1.097.263-.869-.228-1.786-1.097-2.048-.868-.263-1.785.228-2.048,1.097"/><path class="cls-2" d="M128.252,105.9102c-.263.869.229,1.786,1.097,2.048.869.263,1.786-.229,2.048-1.097.263-.869-.228-1.786-1.097-2.048-.868-.263-1.785.228-2.048,1.097Z"/><path class="cls-9" d="M106.5684,80.098c-1.572,3.59.572,7.997,4.789,9.844,4.217,1.847,8.911.434,10.483-3.156,1.572-3.59-.572-7.997-4.79-9.844-4.217-1.847-8.91-.434-10.482,3.156"/><path class="cls-2" d="M106.5684,80.098c-1.572,3.59.572,7.997,4.789,9.844,4.217,1.847,8.911.434,10.483-3.156,1.572-3.59-.572-7.997-4.79-9.844-4.217-1.847-8.91-.434-10.482,3.156Z"/></g></g><rect class="cls-1" y="46.8069" width="200" height="100"/><circle class="cls-8" cx="151.906" cy="69.6634" r="4.8"/><circle class="cls-3" cx="151.906" cy="69.6634" r="4.8"/><use width="22.1463" height="25.6029" transform="translate(173.4751 68.2295) rotate(-151.8118) scale(.4978 -.3138) skewX(8.0043)" xlink:href="#Brush_Stroke_3"/><use width="22.1463" height="25.6029" transform="translate(178.6037 53.3198) rotate(131.4255) scale(.6278 .3) skewX(30.6823)" xlink:href="#Brush_Stroke_3"/><use width="22.1463" height="25.6029" transform="translate(190.4863 54.9493) rotate(129.5881) scale(1.1098 .6787) skewX(12.3002)" xlink:href="#Brush_Stroke_3"/><path class="cls-7" d="M40.0265,72.2161c1.1083-.8655,2.7395-.7067,3.6433.3546s.738,2.6233-.3703,3.4888-2.7395.7067-3.6433-.3546-.738-2.6233.3703-3.4888Z"/><path class="cls-3" d="M40.0265,72.2161c1.1083-.8655,2.7395-.7067,3.6433.3546s.738,2.6233-.3703,3.4888-2.7395.7067-3.6433-.3546-.738-2.6233.3703-3.4888Z"/><use width="22.1463" height="25.6029" transform="translate(33.7097 65.9707) rotate(78.5169) scale(.2576 -.169) skewX(8.6024)" xlink:href="#Brush_Stroke_3"/><use width="22.1463" height="25.6029" transform="translate(25.7276 68.7852) rotate(2.1345) scale(.3386 .155) skewX(30.6169)" xlink:href="#Brush_Stroke_3"/><use width="22.1463" height="25.6029" transform="translate(22.3576 63.4959) rotate(.3751) scale(.5987 .3506) skewX(12.2812)" xlink:href="#Brush_Stroke_3"/><path class="cls-6" d="M167.0952,130.2536c-1.6525,1.2892-4.0944,1.0642-5.4541-.5026s-1.1224-3.8821.5301-5.1713,4.0944-1.0642,5.4541.5026,1.1224,3.8821-.5301,5.1713Z"/><path class="cls-3" d="M167.0952,130.2536c-1.6525,1.2892-4.0944,1.0642-5.4541-.5026s-1.1224-3.8821.5301-5.1713,4.0944-1.0642,5.4541.5026,1.1224,3.8821-.5301,5.1713Z"/><use width="22.1463" height="25.6029" transform="translate(176.5904 139.4673) rotate(-101.8598) scale(.3818 -.2527) skewX(8.7617)" xlink:href="#Brush_Stroke_3"/><use width="22.1463" height="25.6029" transform="translate(188.5149 135.2474) rotate(-178.1261) scale(.5067 .2296) skewX(30.6118)" xlink:href="#Brush_Stroke_3"/><use width="22.1463" height="25.6029" transform="translate(193.5941 143.0629) rotate(-179.8683) scale(.8959 .5195) skewX(12.292)" xlink:href="#Brush_Stroke_3"/><path class="cls-14" d="M52.244,101.1588c.4692-.4023,2.8269-3.3347,3.6678-4.0982.2248-.2041,1.0752-.4464.9035-.2353-1.9465,2.3934-4.6698,4.5994-6.2441,5.9519l.734-.7427c.3441-.2434.9388-.8758.9388-.8758Z"/><path class="cls-13" d="M49.7203,91.5153c.6917.1103,4.2686,1.6852,5.513,1.9305.3327.0656,1.5324-.2799,1.2721-.3919-2.95-1.2693-6.9505-1.7649-9.2716-2.1381l1.0946.2995c.5015.023,1.3919.3,1.3919.3Z"/><path class="cls-12" d="M45.232,97.7633c1.1645-.3758,7.4543-.6354,9.5616-1.2328.5634-.1597,2.4397-1.7111,1.9828-1.6878-5.1795.2637-11.8762,2.6752-15.7846,3.931l1.8762-.3852c.8291-.3679,2.3641-.6252,2.3641-.6252Z"/><path class="cls-10" d="M51.9207,85.8704c.5872.5852,3.2214,4.0877,4.2589,5.1626.2774.2874,1.5108,1.0475,1.3181.7939-2.1843-2.8746-5.6373-6.1914-7.6066-8.1564l.8792.9853c.4486.3973,1.1503,1.2145,1.1503,1.2145Z"/><path class="cls-11" d="M57.752,100.6018c.7376-2.1532-.4288-3.0778.0007-3.2643.2739-.1189.8412-.3786.903-.2713.7002,1.2161.1104,1.6433-.561,3.4042l-.5492,1.6711c.2577-.4546.2066-1.5398.2066-1.5398Z"/><ellipse class="cls-5" cx="59.1932" cy="93.9609" rx="3.1007" ry="1.9174" transform="translate(-44.2644 134.3219) rotate(-79.1018)"/><path class="cls-4" d="M43.6205,122.3823c-.455-2.8556,1.5375-5.6406,4.4504-6.2205s5.6431,1.265,6.0981,4.1206c.455,2.8556-1.5375,5.6406-4.4504,6.2205-2.9129.5799-5.6431-1.265-6.0981-4.1206Z"/><path class="cls-3" d="M43.6205,122.3823c-.455-2.8556,1.5375-5.6406,4.4504-6.2205s5.6431,1.265,6.0981,4.1206c.455,2.8556-1.5375,5.6406-4.4504,6.2205-2.9129.5799-5.6431-1.265-6.0981-4.1206Z"/><use width="22.1463" height="25.6029" transform="translate(25.4407 127.595) rotate(16.7576) scale(.5456 -.3496) skewX(9.5683)" xlink:href="#Brush_Stroke_3"/><use width="22.1463" height="25.6029" transform="translate(22.3644 144.7773) rotate(-57.8625) scale(.7061 .3257) skewX(31.2916)" xlink:href="#Brush_Stroke_3"/><use width="22.1463" height="25.6029" transform="translate(9.0281 145.6213) rotate(-59.6378) scale(1.247 .7376) skewX(13.3809)" xlink:href="#Brush_Stroke_3"/></svg>