<?xml version="1.0" encoding="UTF-8"?>
<svg id="Layer_1" data-name="Layer 1" xmlns="http://www.w3.org/2000/svg" viewBox="0 0 100 100">
  <defs>
    <style>
      .cls-1 {
        fill: #384954;
      }

      .cls-1, .cls-2, .cls-3, .cls-4, .cls-5, .cls-6 {
        stroke-width: 0px;
      }

      .cls-2 {
        fill: #58595b;
      }

      .cls-3 {
        fill: #414042;
      }

      .cls-4 {
        fill: #8f9da5;
      }

      .cls-5 {
        fill: #fafafa;
      }

      .cls-6 {
        fill: #03141c;
      }
    </style>
  </defs>
  <path class="cls-3" d="M47.74,100c-20.45-.31-39.23-14.3-45.45-34.08C-4.31,44.93,3.75,21.84,21.27,9.15c17.55-12.71,42.75-12.14,59.66,1.49,16.92,13.64,23.52,37.2,15.97,57.79-3.57,9.73-10.05,17.94-18.69,23.49-9.23,5.93-19.65,8.08-30.47,8.08ZM11.46,31.47h0c-.5,1.05-1.31,3.91-.2,4.77-.11.08-.19.15-.29.23.56.33.72,1.4,1.77.88-.48.39.15.58-.04,1.04.29-.31,1.17-.72,1.61-.59.29.09.36.49.66.55.24-.11.2-.41.39-.54.07.07.14.14.21.21.26-.19.34-.46.25-.81.27.19.09.45.23.68.51-.83,1.4-1.11,1.85-1.85.34-.55.73-1.56.2-2.19.25-.19.32.28.58.16.07-.5-.39-.45-.7-.65,1.04-.54-.56-1.9-.36-2.49-.13.05-.26.08-.4.11-.04,0-.85-2.02-1.53-.68-.03-.19-.06-.33-.12-.72-.11.74-.41.15-.58.33-.03.23.24.47-.02.68-.27.02-.5-.37-.88-.39-.61-.03-1.26.44-1.83.6-.34.1-.69-.23-.88.18-.1.21-.28.44.11.5ZM15.99,61.89c-.93-2.18-2.03-4.27-3.06-6.4-1.58.81-3.09,1.59-4.63,2.38,2.11,4.65,4.34,9.21,6.6,13.78.78-.4,1.49-.77,2.21-1.13.87-.42,1.75-.84,2.65-1.28-1.26-2.43-2.35-5.01-3.77-7.35ZM27.92,55.21c-.66-1.58-1.56-3.03-2.29-4.61-3.05,1.57-6.05,3.11-9.12,4.68.79,1.56,1.39,3.17,2.32,4.61.7,2.02,1.87,3.93,2.86,5.82,3.13-1.56,6.2-3.09,9.28-4.63-1.16-1.87-1.83-4.05-3.05-5.87ZM40.85,50.15c-1.09-3.33-3.18-6.58-4.79-9.68-3.09,1.62-6.13,3.2-9.2,4.81,1.44,3.14,2.83,6.67,4.73,9.55.27.94.82,1.73,1.31,2.68,1.93-3.96,5.1-5.32,9.27-4.88-.47-.91-.79-1.75-1.32-2.48ZM70,38.15c-1.92-4.22-4.04-8.35-6.18-12.46-8.33,4.28-16.61,8.54-24.9,12.8,1.43,3.97,3.79,7.77,5.68,11.54,1.32,2.97,2.96,5.77,4.38,8.75,8.41-4.03,16.72-8.2,25.06-12.36-1.33-2.74-2.5-5.64-4.04-8.26ZM56.23,96.39c.34-2.03,1.28-3.91,3.62-3.75,1.01.07,1.76.58,2.37,1.37.75.97.64,1.12,1.92.73,4.57-1.39,9.8-3.26,13.4-6.58H22.81c2.7,2.14,5.71,3.64,8.85,5.01-.5-4.45,6.08-2.26,3.11,1.07.87.29,3.75,1.53,4.59,1.04.39-.23.63-1.21.97-1.58.36-.38.78-.67,1.26-.87,2.65-1.07,4.69,1.19,5.1,3.66,3.18.17,6.34.12,9.53-.11ZM79.58,73.64c5.33,0,9.45-4.26,9.45-9.76,0-5.12-4.29-9.35-9.51-9.34-5.12,0-9.39,4.23-9.4,9.32-.01,5.46,4.17,9.78,9.45,9.78ZM27.36,33.83c4.85.02,8.65-3.93,8.67-9,.01-4.78-3.89-8.77-8.62-8.79-4.75-.03-8.72,3.94-8.75,8.76-.03,5.07,3.77,9.02,8.71,9.04ZM87.71,78.33h-29.07c0,.87,1.61,2.74,2.07,3.48.48.78,1.19,2.57,1.99,2.98.87.44,3.06.03,4.01,0,1.56-.04,1.33-.33,2.04-1.61.96-1.71,2.83-2.62,4.74-2.22.9.19,1.72.67,2.34,1.36.62.69.75,1.89,1.36,2.48,1.3,0,2.75.1,4.04-.02,1.05-.1,1.42-.53,2.17-1.3,1.56-1.61,3.09-3.26,4.3-5.16ZM58.16,20.45c7.47.06,7.43-11.79.13-11.85-3.25-.03-6,2.74-6.01,6.04,0,3.27,2.73,5.78,5.88,5.81ZM77.23,45.3c1.19-.6,2.29-1.14,3.42-1.71-3.58-7.24-6.95-14.53-10.62-21.66-1.14.6-2.24,1.18-3.35,1.76,3.53,7.23,7.02,14.39,10.54,21.61ZM31.32,84.81c1.39,0,3.09.44,3.99-.87.78-1.14,1.1-2.17,2.46-2.75,2.97-1.27,5.34.94,6.37,3.61h6.07c-.18-.96-1.17-2.06-1.68-2.9-.55-.9-1.19-2.62-1.99-3.29-1.17-.95-4.79-.27-6.29-.28-1.67,0-4.33-.67-5.58.76-1.35,1.54-2.3,3.93-3.35,5.72ZM40.65,66.59c6.71,0,6.73-10.41.15-10.7-6.98-.32-7.2,10.7-.15,10.7ZM58.56,84.8c-3.84-6.04-7.62-11.94-11.55-17.83-.58.83-1.36,1.33-2.08,1.96.53.9,1.05,1.77,1.57,2.64,2.53,4.23,5.06,8.46,7.6,12.69.17.29.29.57.74.56,1.18-.04,2.37-.01,3.73-.01ZM34.31,67.09c-3.78,5.9-7.49,11.76-11.15,17.68,1.41,0,3.55.5,4.52-.67,1.21-1.44,2.04-3.53,2.98-5.17,1.91-3.3,3.83-6.61,5.71-9.93-.78-.54-1.41-1.18-2.06-1.91ZM12.33,78.32c.67,1.29,1.75,2.42,2.73,3.48.67.73,2.11,2.79,3.13,3.01,1.28.27,2.13-2.07,2.63-2.88.39-.63,2.35-3.03,2.08-3.61h-10.56ZM42.89,12.01c.09-1.14-2.52-1-3.08-1.68-.56-.68.04-2.57-1.01-2.82-1.35-.33-.79,2.11-1.29,2.73-.56.71-3.14.53-3.06,1.66.1,1.33,2.31.55,3.04,1.34.59.63-.07,2.68,1.19,2.63,1.25-.05.48-2.13,1.25-2.73.63-.49,3.04.07,2.94-1.14ZM10.31,50.31c1.29-.12.44-2.39,1.37-3.05.63-.44,2.59-.04,2.73-1.03.16-1.13-2.39-1.03-2.91-1.55-.63-.62-.07-2.4-.89-2.8-1.36-.67-1.09,1.84-1.43,2.39-.59.93-2.92.6-3.1,1.68-.23,1.35,2.28.83,2.92,1.54.66.73-.03,2.78,1.31,2.82ZM88.13,46.01c1.34,0,.55-2.17,1.44-2.81.53-.38,3.46-.19,2.67-1.54-.5-.86-2.23-.46-2.89-1.2-.52-.58-.08-2.01-.76-2.41-1.31-.77-1.16,1.73-1.48,2.21-.61.91-2.83.47-3.11,1.51-.39,1.45,2.42.93,3.04,1.64.52.6-.02,2.63,1.09,2.59ZM51.46,25.3c0-2.77-4.2-2.59-3.91.15.25,2.39,3.92,2.27,3.91-.15ZM37.83,73.15h5.63c-.68-1.17-1.18-2.95-2.69-3.14-1.57-.19-2.23,2-2.94,3.14ZM93.4,51.68c.05-2.57-3.76-2.6-3.85-.11-.08,2.51,3.8,2.62,3.85.11ZM79.66,29.31c2.18-.01,2.19-3.41.04-3.42-2.11-.01-2.24,3.43-.04,3.42ZM62.41,59.51c-.02,2.12,3.33,2.3,3.37.13.05-2.21-3.35-2.41-3.37-.13ZM55.37,65.05c2.08.01,2.19-3.32.11-3.39-2.14-.08-2.31,3.38-.11,3.39ZM21.26,44.17c2.1,0,2-3.43-.04-3.43-2.12,0-2.08,3.43.04,3.43ZM86.36,29.98c2.11-.02,2.13-3.34.04-3.39-2.1-.05-2.19,3.41-.04,3.39ZM72.78,15.18c-.03-1.94-2.78-2.29-3.26-.42-.6,2.33,3.3,2.85,3.26.42ZM80.34,20.85c2.13-.03,2.09-3.45-.01-3.42-2.09.03-2.14,3.45.01,3.42ZM62.63,67.59c-1.97.03-2.15,3.08-.19,3.32,2.3.29,2.46-3.36.19-3.32ZM41.25,24.37c2.17.05,2.11-3.24.08-3.32-2.08-.09-2.2,3.27-.08,3.32ZM46.97,11.52c-1.95-.04-1.93,2.95-.05,2.99,1.8.04,1.84-2.95.05-2.99Z"/>
  <path class="cls-1" d="M56.23,96.39c-3.2.24-6.35.28-9.53.11-.41-2.48-2.45-4.74-5.1-3.66-.48.19-.91.48-1.26.87-.34.37-.58,1.35-.97,1.58-.84.5-3.72-.74-4.59-1.04,2.97-3.33-3.62-5.52-3.11-1.07-3.14-1.37-6.15-2.87-8.85-5.01h54.73c-3.6,3.32-8.84,5.19-13.4,6.58-1.27.39-1.17.24-1.92-.73-.61-.79-1.36-1.3-2.37-1.37-2.35-.16-3.28,1.72-3.62,3.75ZM50.4,95.22c2.52,0,2.52-3.82.02-3.83-2.45,0-2.45,3.83-.02,3.83Z"/>
  <path class="cls-5" d="M79.58,73.64c-5.28,0-9.46-4.32-9.45-9.78,0-5.09,4.28-9.32,9.4-9.32,5.21,0,9.51,4.22,9.51,9.34,0,5.5-4.13,9.75-9.45,9.76ZM76.07,58.98c-3.3,0-3.02,5.31.24,4.94,2.97-.34,2.78-4.94-.24-4.94ZM83.89,67.39c2.1-.02,1.74-3.45-.26-3.1-1.8.31-1.57,3.12.26,3.1ZM77.9,68.39c-.04-1.61-2.47-1.8-2.67-.19-.24,1.89,2.72,2.05,2.67.19ZM84.66,60.69c.02-1.6-2.46-1.62-2.48-.01-.02,1.62,2.46,1.59,2.48.01Z"/>
  <path class="cls-5" d="M44.61,50.03c-1.88-3.77-4.25-7.56-5.68-11.54,8.29-4.26,16.57-8.52,24.9-12.8,2.14,4.1,4.26,8.24,6.18,12.46-.68.25-1.27.74-2.02.81-.31-.59-.62-1.19-.92-1.78-1.25-2.5-2.5-5-3.76-7.52-6.65,3.37-13.22,6.69-19.85,10.05,1.29,2.55,2.54,5.03,3.8,7.51.19.44.38.88.57,1.31-1.13.36-2.14,1.01-3.21,1.5Z"/>
  <path class="cls-5" d="M27.36,33.83c-4.94-.02-8.74-3.96-8.71-9.04.03-4.82,4-8.79,8.75-8.76,4.73.03,8.64,4.01,8.62,8.79-.02,5.07-3.82,9.02-8.67,9ZM27.46,30.81c7.45-.08,7.37-11.55-.02-11.75-7.62-.21-7.64,11.83.02,11.75Z"/>
  <path class="cls-5" d="M87.71,78.33c-1.21,1.9-2.74,3.55-4.3,5.16-.74.77-1.11,1.2-2.17,1.3-1.29.12-2.75.03-4.04.02-.61-.59-.74-1.79-1.36-2.48-.62-.69-1.43-1.18-2.34-1.36-1.92-.4-3.78.5-4.74,2.22-.71,1.27-.49,1.57-2.04,1.61-.96.02-3.14.44-4.01,0-.8-.41-1.51-2.2-1.99-2.98-.46-.74-2.07-2.61-2.07-3.48h29.07Z"/>
  <path class="cls-4" d="M67.98,38.96c.75-.07,1.34-.56,2.02-.81,1.53,2.63,2.71,5.53,4.04,8.27-8.34,4.16-16.64,8.33-25.06,12.36-1.42-2.97-3.05-5.78-4.38-8.75,1.07-.5,2.08-1.14,3.21-1.5.27.28.37.66.55,1,.82,1.6,1.63,3.2,2.43,4.79.29-.19.51-.35.74-.47,1.87-.95,3.75-1.88,5.62-2.82,4.26-2.14,8.53-4.28,12.8-6.4.52-.26.64-.47.35-1.01-.81-1.54-1.56-3.1-2.34-4.66Z"/>
  <path class="cls-5" d="M58.16,20.45c-3.15-.03-5.89-2.54-5.88-5.81,0-3.3,2.76-6.07,6.01-6.04,7.3.06,7.34,11.91-.13,11.85ZM59.9,12.95c0-1.5-2.26-1.8-2.72-.4-.63,1.92,2.73,2.34,2.72.4ZM60.39,18.31c1.41.02,1.4-2.16,0-2.12-1.3.04-1.32,2.1,0,2.12ZM55.7,17.82c1.12-.1.95-1.73-.1-1.75-1.15-.02-1.06,1.74.1,1.75Z"/>
  <path class="cls-5" d="M31.59,54.83c-1.9-2.87-3.29-6.41-4.73-9.55,3.07-1.61,6.1-3.19,9.2-4.81,1.61,3.1,3.7,6.35,4.79,9.68-1.21-.12-3.43,1.61-4.51,2.16-1.5.76-3.47,1.4-4.75,2.52ZM32.35,49.94c1.47-.73,2.9-1.44,4.36-2.17-.53-1.05-1.02-2.01-1.53-3.02-1.47.72-2.88,1.42-4.35,2.14.51,1.03,1,2,1.52,3.05Z"/>
  <path class="cls-5" d="M77.23,45.3c-3.52-7.22-7.02-14.38-10.54-21.61,1.11-.58,2.21-1.16,3.35-1.76,3.67,7.14,7.04,14.42,10.62,21.66-1.13.57-2.23,1.11-3.42,1.71Z"/>
  <path class="cls-5" d="M31.32,84.81c1.05-1.79,2-4.17,3.35-5.72,1.25-1.44,3.91-.77,5.58-.76,1.5,0,5.12-.68,6.29.28.81.66,1.44,2.38,1.99,3.29.51.84,1.5,1.94,1.68,2.9h-6.07c-1.03-2.67-3.4-4.88-6.37-3.61-1.36.59-1.68,1.61-2.46,2.75-.9,1.31-2.6.87-3.99.87Z"/>
  <path class="cls-5" d="M40.65,66.59c-7.05,0-6.84-11.02.15-10.7,6.59.3,6.56,10.71-.15,10.7ZM40.59,58.77c-3.03-.02-3.11,4.83-.07,4.9,3.13.07,3.2-4.89.07-4.9Z"/>
  <path class="cls-4" d="M27.92,55.21c1.22,1.82,1.89,4,3.05,5.87-3.08,1.54-6.15,3.07-9.28,4.63-.99-1.89-2.16-3.8-2.86-5.82.66-.46,1.39-.8,2.11-1.16,2.33-1.18,4.66-2.35,6.98-3.52Z"/>
  <path class="cls-5" d="M58.56,84.8c-1.36,0-2.54-.03-3.73.01-.45.01-.57-.27-.74-.56-2.53-4.23-5.07-8.46-7.6-12.69-.52-.87-1.04-1.74-1.57-2.64.72-.63,1.5-1.13,2.08-1.96,3.93,5.9,7.72,11.8,11.55,17.83Z"/>
  <path class="cls-5" d="M34.31,67.09c.65.73,1.28,1.37,2.06,1.91-1.88,3.33-3.79,6.63-5.71,9.93-.95,1.63-1.78,3.73-2.98,5.17-.98,1.17-3.11.67-4.52.67,3.66-5.91,7.37-11.78,11.15-17.68Z"/>
  <path class="cls-5" d="M17.11,70.51c-.71.37-1.43.73-2.21,1.13-2.26-4.58-4.49-9.13-6.6-13.78,1.53-.79,3.04-1.57,4.63-2.38,1.03,2.14,2.13,4.23,3.06,6.4-.69.2-1.3.59-1.95.87-.47.2-.5.45-.28.89,1.13,2.28,2.24,4.58,3.35,6.87Z"/>
  <path class="cls-5" d="M27.92,55.21c-2.33,1.17-4.66,2.34-6.98,3.52-.72.36-1.45.69-2.11,1.16-.93-1.44-1.53-3.05-2.32-4.61,3.07-1.57,6.07-3.12,9.12-4.68.73,1.58,1.64,3.03,2.29,4.61Z"/>
  <path class="cls-5" d="M12.33,78.32h10.56c.27.57-1.69,2.97-2.08,3.61-.5.81-1.35,3.15-2.63,2.88-1.02-.22-2.46-2.28-3.13-3.01-.98-1.06-2.06-2.18-2.73-3.48Z"/>
  <path class="cls-5" d="M42.89,12.01c.09,1.21-2.32.65-2.94,1.14-.77.6,0,2.68-1.25,2.73-1.25.05-.6-2.01-1.19-2.63-.73-.79-2.95,0-3.04-1.34-.08-1.14,2.5-.96,3.06-1.66.49-.62-.07-3.06,1.29-2.73,1.05.26.45,2.14,1.01,2.82.56.68,3.17.54,3.08,1.68Z"/>
  <path class="cls-5" d="M10.31,50.31c-1.34-.04-.65-2.09-1.31-2.82-.65-.71-3.15-.2-2.92-1.54.18-1.08,2.52-.75,3.1-1.68.34-.54.07-3.05,1.43-2.39.82.4.26,2.18.89,2.8.52.52,3.07.42,2.91,1.55-.14.99-2.11.59-2.73,1.03-.93.66-.08,2.93-1.37,3.05Z"/>
  <path class="cls-5" d="M88.13,46.01c-1.11.04-.57-1.99-1.09-2.59-.61-.71-3.43-.18-3.04-1.64.28-1.05,2.5-.6,3.11-1.51.33-.49.17-2.99,1.48-2.21.67.4.24,1.83.76,2.41.65.74,2.39.34,2.89,1.2.79,1.36-2.14,1.16-2.67,1.54-.89.64-.11,2.8-1.44,2.81Z"/>
  <path class="cls-1" d="M11.46,31.47c-.39-.06-.21-.29-.11-.5.2-.4.54-.08.88-.18.57-.16,1.22-.63,1.83-.6.38.02.61.41.88.39.26-.21,0-.45.02-.68.18-.18.47.4.58-.33.07.39.09.53.12.72.68-1.34,1.49.67,1.53.68.14-.03.27-.06.4-.11-.2.6,1.4,1.95.36,2.49.31.21.77.15.7.65-.26.12-.33-.35-.58-.16.53.63.14,1.64-.2,2.19-.45.73-1.34,1.02-1.85,1.85-.14-.22.04-.49-.23-.68.09.35,0,.63-.25.81-.07-.07-.14-.14-.21-.21-.19.13-.14.43-.39.54-.3-.06-.37-.46-.66-.55-.45-.13-1.32.28-1.61.59.19-.46-.44-.65.04-1.04-1.04.52-1.2-.55-1.77-.88.1-.08.18-.15.29-.23-1.1-.86-.3-3.72.2-4.78.04,0,.06-.02.06-.05-.02.02-.03.04-.05.06ZM11.86,36.93s-.02-.06-.06-.06c.02.02.04.03.06.05.08.15.14.33.37.31.06-.36-.2-.28-.37-.3ZM14.39,36.91c1.4-.52,2.63-.59,2.94-2.39.27-1.58-.53-3.08-2.13-3.28-3.01-.36-4.29,3.72-1.7,5.26-.16.39.16.46.38.51.15.04.34-.06.52-.1ZM15.84,30.9c.06-.02.1-.04.13-.05-.11-.16-.23-.16-.13.05ZM11.41,32.58s.01-.03.02-.05c-.02.01-.04.02-.06.04.01,0,.03.01.04.02ZM16.22,31.06l.11-.05c-.01-.07-.06-.08-.13-.05,0,.03.01.06.02.1Z"/>
  <path class="cls-4" d="M17.11,70.51c-1.12-2.29-2.22-4.59-3.35-6.87-.22-.44-.19-.69.28-.89.65-.28,1.26-.67,1.95-.87,1.42,2.34,2.52,4.92,3.77,7.35-.91.44-1.78.86-2.65,1.28Z"/>
  <path class="cls-4" d="M31.59,54.83c1.27-1.12,3.25-1.76,4.75-2.52,1.08-.55,3.3-2.28,4.51-2.16.52.73.84,1.57,1.32,2.48-4.17-.44-7.34.92-9.27,4.88-.49-.95-1.04-1.74-1.31-2.68Z"/>
  <path class="cls-5" d="M51.46,25.3c0,2.43-3.66,2.54-3.91.15-.29-2.75,3.91-2.92,3.91-.15Z"/>
  <path class="cls-4" d="M37.83,73.15c.71-1.14,1.37-3.33,2.94-3.14,1.51.18,2.01,1.97,2.69,3.14h-5.63Z"/>
  <path class="cls-5" d="M93.4,51.68c-.05,2.51-3.93,2.39-3.85-.11.08-2.49,3.89-2.46,3.85.11Z"/>
  <path class="cls-5" d="M79.66,29.31c-2.2.01-2.07-3.43.04-3.42,2.15.01,2.13,3.41-.04,3.42Z"/>
  <path class="cls-5" d="M62.41,59.51c.02-2.29,3.42-2.08,3.37.13-.05,2.17-3.39,1.99-3.37-.13Z"/>
  <path class="cls-5" d="M55.37,65.05c-2.2-.01-2.03-3.47.11-3.39,2.08.08,1.97,3.4-.11,3.39Z"/>
  <path class="cls-5" d="M21.26,44.17c-2.13,0-2.17-3.42-.04-3.43,2.05,0,2.15,3.43.04,3.43Z"/>
  <path class="cls-5" d="M86.36,29.98c-2.15.02-2.07-3.45.04-3.39,2.09.05,2.07,3.38-.04,3.39Z"/>
  <path class="cls-5" d="M72.78,15.18c.04,2.44-3.85,1.91-3.26-.42.48-1.88,3.23-1.52,3.26.42Z"/>
  <path class="cls-5" d="M80.34,20.85c-2.15.03-2.1-3.38-.01-3.42,2.1-.03,2.14,3.38.01,3.42Z"/>
  <path class="cls-5" d="M62.63,67.59c2.28-.04,2.12,3.61-.19,3.32-1.97-.24-1.78-3.29.19-3.32Z"/>
  <path class="cls-5" d="M41.25,24.37c-2.12-.05-2-3.41.08-3.32,2.03.09,2.09,3.38-.08,3.32Z"/>
  <path class="cls-1" d="M46.97,11.52c1.8.03,1.76,3.03-.05,2.99-1.89-.04-1.9-3.02.05-2.99Z"/>
  <path class="cls-2" d="M50.4,95.22c-2.43,0-2.42-3.83.02-3.83,2.49,0,2.5,3.83-.02,3.83Z"/>
  <path class="cls-2" d="M76.07,58.98c3.03,0,3.21,4.6.24,4.94-3.27.37-3.54-4.93-.24-4.94Z"/>
  <path class="cls-2" d="M83.89,67.39c-1.83.02-2.06-2.79-.26-3.1,2-.35,2.36,3.08.26,3.1Z"/>
  <path class="cls-2" d="M77.9,68.39c.05,1.87-2.91,1.71-2.67-.19.2-1.61,2.63-1.42,2.67.19Z"/>
  <path class="cls-2" d="M84.66,60.69c-.02,1.58-2.49,1.61-2.48-.01.02-1.61,2.49-1.59,2.48.01Z"/>
  <path class="cls-1" d="M47.25,47.21c-1.25-2.48-2.51-4.96-3.8-7.51,6.63-3.36,13.19-6.68,19.85-10.05,1.26,2.53,2.51,5.02,3.76,7.52-.86.22-1.62.65-2.34,1.15-.48-.93-.97-1.87-1.47-2.82-.74.55-1.61.76-2.34,1.27.47.99.92,1.94,1.38,2.9-1.02.37-2.04.74-2.93,1.38-.51-.93-1.01-1.85-1.52-2.79-.8.39-1.58.77-2.38,1.17.51,1.03.99,2,1.47,2.97-.38-.04-.66.23-.97.37-.72.33-1.41.74-2.21.85-.62-.81-.92-1.82-1.49-2.68-.69.53-1.5.76-2.2,1.22.3,1.05.94,1.91,1.28,2.9-.99.48-1.99.96-2.98,1.45-.39.2-.87.26-1.11.7Z"/>
  <path class="cls-3" d="M53.74,43.61c.8-.11,1.49-.53,2.21-.85.32-.14.59-.41.97-.37.34.65.69,1.3,1.03,1.95.82-.38,1.58-.73,2.37-1.09-.34-.77-.66-1.48-.97-2.2.89-.65,1.91-1.01,2.93-1.38.34.66.69,1.32,1.05,2.02.81-.38,1.59-.74,2.4-1.12-.36-.8-.69-1.52-1.02-2.23.72-.5,1.49-.93,2.34-1.15.31.59.62,1.19.92,1.78.78,1.56,1.53,3.12,2.34,4.66.29.54.17.75-.35,1.01-4.28,2.12-8.54,4.26-12.8,6.4-1.87.94-3.75,1.88-5.62,2.82-.24.12-.45.28-.74.47-.81-1.59-1.62-3.19-2.43-4.79-.17-.34-.27-.72-.55-1-.19-.44-.38-.88-.57-1.31.24-.44.72-.5,1.11-.7.99-.5,1.99-.97,2.98-1.45.36.69.73,1.38,1.1,2.09.81-.4,1.58-.78,2.36-1.17-.24-.88-.81-1.55-1.06-2.37Z"/>
  <path class="cls-2" d="M27.46,30.81c-7.66.08-7.64-11.95-.02-11.75,7.39.2,7.47,11.67.02,11.75ZM26.48,20.78c-1.08,0-2.22.73-2.56,1.81-.2.61-.09,2.07.91,1.72.43-.15.4-.68.64-.99.43-.56.83-.67,1.34-1.05.38-.29.82-.2.69-.86-.1-.52-.56-.62-1.01-.62Z"/>
  <path class="cls-2" d="M59.9,12.95c0,1.93-3.36,1.52-2.72-.4.46-1.39,2.72-1.1,2.72.4Z"/>
  <path class="cls-2" d="M60.39,18.31c-1.32-.02-1.29-2.07,0-2.12,1.4-.05,1.4,2.13,0,2.12Z"/>
  <path class="cls-2" d="M55.7,17.82c-1.16-.02-1.25-1.78-.1-1.75,1.05.02,1.23,1.66.1,1.75Z"/>
  <path class="cls-1" d="M32.35,49.94c-.52-1.05-1.01-2.02-1.52-3.05,1.46-.72,2.88-1.42,4.35-2.14.51,1.01,1,1.97,1.53,3.02-1.47.73-2.89,1.44-4.36,2.17Z"/>
  <path class="cls-2" d="M40.59,58.77c3.13.02,3.07,4.98-.07,4.9-3.04-.07-2.97-4.92.07-4.9Z"/>
  <path class="cls-5" d="M13.49,36.5c-2.59-1.53-1.31-5.62,1.7-5.26,1.61.19,2.4,1.7,2.13,3.28-.31,1.8-1.53,1.87-2.94,2.39-.17-.43-.58-.32-.9-.41Z"/>
  <path class="cls-4" d="M13.49,36.5c.32.09.73-.02.9.41-.17.04-.36.14-.52.1-.22-.06-.54-.13-.38-.51Z"/>
  <path class="cls-6" d="M11.86,36.93c.18.02.44-.06.37.3-.23.02-.29-.16-.37-.31h0Z"/>
  <path class="cls-4" d="M15.84,30.9c-.09-.21.02-.21.13-.05-.04.01-.07.03-.13.05Z"/>
  <path class="cls-6" d="M11.41,32.58s-.03-.01-.04-.02c.02-.01.04-.02.06-.04,0,.02-.01.03-.02.05Z"/>
  <path class="cls-4" d="M16.22,31.06s-.01-.06-.02-.1c.07-.03.12-.01.13.05-.04.02-.07.03-.11.05Z"/>
  <path class="cls-6" d="M11.87,36.92s-.04-.03-.06-.05c.03,0,.05.02.06.06,0,0,0,0,0,0Z"/>
  <path class="cls-6" d="M11.46,31.47s.03-.04.05-.06c0,.04-.02.05-.06.05,0,0,0,0,0,0Z"/>
  <path class="cls-5" d="M64.71,38.32c.33.72.65,1.44,1.02,2.23-.81.38-1.59.74-2.4,1.12-.37-.7-.71-1.36-1.05-2.02-.45-.95-.91-1.91-1.38-2.9.74-.5,1.6-.71,2.34-1.27.5.96.98,1.89,1.47,2.82Z"/>
  <path class="cls-5" d="M53.74,43.61c.25.82.82,1.49,1.06,2.37-.78.39-1.56.77-2.36,1.17-.37-.71-.74-1.4-1.1-2.09-.34-.99-.98-1.86-1.28-2.9.7-.46,1.5-.7,2.2-1.22.57.86.87,1.87,1.49,2.68Z"/>
  <path class="cls-5" d="M59.35,41.05c.32.72.63,1.43.97,2.2-.79.36-1.55.71-2.37,1.09-.34-.65-.69-1.3-1.03-1.95-.48-.97-.96-1.94-1.47-2.97.8-.39,1.58-.77,2.38-1.17.51.93,1.02,1.86,1.52,2.79Z"/>
  <path class="cls-5" d="M26.48,20.78c.45,0,.91.1,1.01.62.13.66-.31.57-.69.86-.51.39-.92.5-1.34,1.05-.23.31-.21.83-.64.99-.99.35-1.1-1.1-.91-1.72.34-1.07,1.48-1.8,2.56-1.81Z"/>
</svg>