<?xml version="1.0" encoding="UTF-8"?>
<svg id="Layer_1" data-name="Layer 1" xmlns="http://www.w3.org/2000/svg" viewBox="0 0 100 100">
  <defs>
    <style>
      .cls-1 {
        fill: #394b5e;
      }

      .cls-1, .cls-2, .cls-3, .cls-4 {
        stroke-width: 0px;
      }

      .cls-2 {
        fill: #373a44;
      }

      .cls-3 {
        fill: #abc0c7;
      }

      .cls-4 {
        fill: #fbfcfc;
      }
    </style>
  </defs>
  <path class="cls-2" d="M67.42,68.54c-1.04-.54-1.38-1.87-2.07-2.76-.81-1.15-2.15-1.97-3.55-2.56-1.76-.65-6.73-1.4-7.66.66-.31,1.73,1.91,1.71,3.13,1.66,2.63.17,2.15,3.11.29,4.13-1.48,1-1.59,2.76-1.52,4.4.14,3.98-2.65,11.42-6.5,13-1.32.16-2.23-1.11-2.9-2.08-3.72-5.07-3.77-8.33-4.45-14.15-.68-1.41-3.09-2.11-2.53-3.99.48-1.72,2.67-.7,3.93-1.3.63-.29,1.07-1.02.87-1.61-1.18-2.31-6-1.38-8.02-.7-1.18.49-2.29,1.22-3.06,2.22-.8.95-1.3,2.43-2.48,2.93-3.92,1.11-2.46-9.78-2.32-11.97,1.47-5.84,8.8-9.18,8.66-15.54-.06-12.16-1.05-24.91,6.4-35.43,1.82-2.15,4.15-7.38,7.52-4.72,5.89,5.31,8.83,13.22,9.93,20.86.56,5.12.08,10.58.25,15.78-.08,3.22-.25,6.7,2.06,9.28,2.32,3.42,5.98,6.17,6.56,10.39-.14,2.25,1.53,12.63-2.49,11.52l-.05-.02Z"/>
  <path class="cls-2" d="M12.17,59.51c17.55-.48,15.3,26.27-2.07,22.86-2.96-.57-5.62-2.33-7.18-4.7-.62-.94-1.1-2-1.43-3.16-.23-1.09-.57-1.85-.38-2.68.82-2.48,12.22-.07,17.08-4.82.95-.98-.39-2.44-1.46-1.66-3.63,2.49-8.25,3.78-12.7,3.43-1.94-.16-2.67-1.57-1.68-3.23,1.16-1.96,2.77-3.48,4.51-4.69,1.58-.95,3.5-1.28,5.22-1.34h.09Z"/>
  <path class="cls-2" d="M81.55,37.27c19.01-.06,19.03-3.04,18.19,16.85.49,7.1-19.24.6-21.36,3.99,1.04,5.74-4.31,7.88-4.13,1.14,1.07-3.77-2.58-27.09,2.91-24.31,2.32.83-.38,2.84,4.4,2.34Z"/>
  <path class="cls-2" d="M15.56,31.31c8.05-2.02,10.87,8.45,2.34,9.23-.97.33-.07,2.39-.53,3.32-.07.43-.11.52.37.52,3.76-.39,6.84,3.72,4.73,7.02-.9,2.58-4.3,1.59-6.53,2.15-2.49.79-5.51-1.89-2.45-3.52,1.65-.65,5.37.9,6.02-1.03.86-1.93-14.13-2.06-12.84.16.51,1.43,2.58.2,3.43,1.33,1.61,6.11-9.09,2.14-7.02-2.4.33-2.69,3.12-3.11,5.02-4.18-1.89-10.22,10.19-3.86,11.63-8.14-.84-2.97-5.96.48-7.21-2.23-.67-1.93,1.5-2.66,3.05-2.22Z"/>
  <path class="cls-2" d="M87.05,29.67c-3.23.69-6.25.3-8.89-1.79-.49-.39-.93-.85-1.35-1.3-.53-.56-.84-1.24-1.77-1.47-1.04-.26-1.25-1.74-.59-2.67.16-.22.18-.56.21-.84.09-1.3.16-2.59.24-3.89,1.07-3.02,2.99-5.3,6.08-6.47,3.96-1.51,8.36-.26,11.31,3.14.18.2.51.27.77.41.52.27,1.3.43,1.49.85.21.46-.1,1.16-.23,1.75-.05.24-.35.49-.3.69,1.19,5.16-2.02,10.24-6.96,11.62Z"/>
  <path class="cls-2" d="M81.86,62.56c1.8-.5,3.51,1.12,5.22,1.23,2.32.4,5.7-3.28,7.11-.12,1.04,3.18.09,5.2,3.5,7.41,4.01,3.03-.12,3.95-2.01,6.24-1.47,1.69-.37,4.94-2.36,6.35-1.87.71-3.77-1.21-5.68-1.19-2.05-.21-4.52,1.97-6.33,1.05-1.64-1.03-1.23-3.53-1.8-5.04-.62-2.46-5.86-3.38-3.75-6.38.89-1.21,2.63-1.84,3.54-3.07,1.36-1.79.03-5.32,2.49-6.46l.07-.02Z"/>
  <path class="cls-2" d="M78.79,95.19c-6.62-3-10.91-1.09-13.22-4.18-2.5-4.32.69-7.61-5.38-11.11-.96-.58-2.32-1.13-2.51-2.33-.13-1,1.01-1.73,2.01-1.68,3.38.26,6.64,3.13,7.74,6.2,1.15,2.75,1.01,5.3,2.47,6.48,1.12.6,2.51.28,3.77.49,3.52.4,6.18,3.28,9.45,4.3.86.27,1.74.37,2.65.4,2.26.01,11.73.02,6.31,3.61"/>
  <path class="cls-2" d="M26.77,95.38c-8.11.8-6.11,5.1-17.5,4.57-1.38,0-5.15-.2-4.39-2.22,1.61-2.15,7.09-.83,9.72-1.71,2.88-.63,5.15-2.85,7.94-3.79,2.34-.94,5.87-.34,6.85-3.2.23-.58.39-1.27.56-1.9.67-2.92,2.56-5.45,5-7.24,1.2-.85,2.7-1.72,4.21-1.56.81.11,1.48.51,1.52,1.28-.22,1.91-2.49,2.51-3.88,3.88-5.86,5.42.67,11.85-9.94,11.88h-.09Z"/>
  <path class="cls-2" d="M33.56,8.63c1.38-.14,1.86,1.76.78,2.46-.42.24-.74.2-1.27.2-1.51-.09-.87,1.25-1.47,2.17-.69,1-2.08.46-2.35-.57-.07-.31.03-.64-.02-.95-.02-.15-.1-.27-.2-.37-.64-.57-2.45-.08-2.8-1.13-.17-.44-.09-1.07.27-1.33.68-.54,2.23-.27,2.61-1.07.26-.59.15-1.4.69-1.85.7-.62,1.93-.29,2.11.79.14,1.02.29,1.71,1.56,1.62h.09Z"/>
  <path class="cls-2" d="M67.13,13.76c-.61-.57-.4-1.74-1.18-2.2-.51-.32-1.5-.18-2.03-.62-.68-.47-.6-1.55.08-1.99.57-.4,1.54-.24,2-.64.5-.37.37-1.42.84-1.96.63-.76,1.91-.38,2.08.58.14.42.15.92.46,1.26.57.6,2.19.41,2.51,1.47.29.73-.31,1.46-1.05,1.6-.51.14-1.15.08-1.52.5-.32.37-.25,1.19-.63,1.68-.33.44-1.04.74-1.52.37l-.05-.04Z"/>
  <path class="cls-2" d="M18.07,17.98c-.52,0-1.05.02-1.57,0-.91-.03-1.6-.75-1.6-1.63,0-.89.68-1.6,1.6-1.61,1.02-.02,2.05-.02,3.08,0,.89.01,1.61.76,1.6,1.62,0,.9-.69,1.59-1.6,1.62-.5.01-1,0-1.5,0h0Z"/>
  <path class="cls-2" d="M7.69,17.98c-.5,0-1,.03-1.5,0-.85-.05-1.53-.83-1.52-1.71,0-.83.65-1.49,1.53-1.52.98-.03,1.96-.03,2.93-.01.9.01,1.57.69,1.58,1.53.01.88-.71,1.67-1.59,1.71-.48.02-.96,0-1.43,0Z"/>
  <path class="cls-2" d="M11.12,11.91c0-.41,0-.81,0-1.22.02-1,.66-1.71,1.55-1.75.82-.03,1.61.66,1.67,1.57.06.96.06,1.93,0,2.89-.05.87-.85,1.54-1.65,1.52-.84-.03-1.55-.77-1.57-1.67-.01-.45,0-.9,0-1.35,0,0,0,0,0,0Z"/>
  <path class="cls-2" d="M8.78,24.38c-1.69-.46-1.43-2.47-.41-3.55.63-.79,1.45-1.8,2.44-1.71,1.7.26,1.85,1.9.79,3.05-.72.8-1.6,2.31-2.75,2.22h-.07Z"/>
  <path class="cls-2" d="M18.05,22.33c-.09.42-.18.85-.27,1.27-1.04,1.04-1.78,1.01-2.76-.11-.47-.53-.93-1.07-1.36-1.64-.58-.77-.41-1.81.35-2.4.71-.55,1.54-.43,2.21.4.65.8,1.23,1.65,1.84,2.48Z"/>
  <path class="cls-2" d="M94.5,31.87c0-.69-.04-1.37.03-2.05.02-.16.5-.45.62-.39,1.25.65,2.47,1.34,3.69,2.05.06.04.04.42-.05.48-1.22.82-2.46,1.62-3.72,2.38-.07.04-.52-.26-.54-.42-.06-.68-.03-1.37-.03-2.05Z"/>
  <path class="cls-2" d="M72.54,85.32c-.42-.39-1.16-.76-1.2-1.19-.08-.81.5-1.47,1.31-1.83.22-.01.44-.03.65-.04,1.06.37,1.59,1.14,1.26,2.15-.13.41-.74.67-1.13,1-.3-.03-.59-.06-.89-.09Z"/>
  <path class="cls-2" d="M3.23,42.04c.02.78-.76,1.6-1.55,1.64-.82.04-1.67-.74-1.68-1.56-.02-.85.74-1.61,1.61-1.62.83-.01,1.6.72,1.62,1.55Z"/>
  <path class="cls-2" d="M26.93,83.09c.31.77.19,1.45-.46,2.01-.67-.03-1.34-.06-2.01-.08-.04-.05-.08-.09-.13-.14-.32-.17-.51-.39-.38-.77.14-1.68.98-2.2,2.48-1.56.17.18.33.36.5.54Z"/>
  <path class="cls-2" d="M8.23,86.81c.84,0,1.53.67,1.54,1.51.01.76-.72,1.52-1.47,1.54-.85.02-1.58-.69-1.6-1.54-.02-.81.68-1.51,1.53-1.51Z"/>
  <path class="cls-2" d="M83.58,86.82c.86.01,1.52.69,1.48,1.54-.03.81-.73,1.51-1.5,1.49-.86-.02-1.52-.69-1.51-1.53.01-.87.66-1.52,1.52-1.51Z"/>
  <path class="cls-2" d="M91,88.32c0,.83-.68,1.52-1.52,1.53-.81.01-1.52-.68-1.49-1.46.03-.87.7-1.55,1.52-1.53.84.02,1.5.66,1.49,1.47Z"/>
  <path class="cls-2" d="M15.83,88.37c0,.81-.62,1.46-1.41,1.47-.85.02-1.57-.66-1.57-1.47,0-.89.63-1.53,1.49-1.54.83-.01,1.49.67,1.49,1.54Z"/>
  <path class="cls-2" d="M.7,56.24c0-.83.63-1.48,1.46-1.49.86-.01,1.53.64,1.53,1.49,0,.8-.75,1.54-1.54,1.52-.79-.02-1.44-.7-1.45-1.52Z"/>
  <path class="cls-2" d="M7.02,32.97c0-.82.6-1.42,1.44-1.43.85,0,1.52.67,1.51,1.52-.01.8-.66,1.44-1.44,1.45-.84,0-1.5-.68-1.5-1.54Z"/>
  <path class="cls-2" d="M4.05,32.98c0,.83-.65,1.55-1.42,1.56-.81,0-1.51-.72-1.5-1.56,0-.76.68-1.45,1.44-1.48.8-.02,1.47.65,1.48,1.48Z"/>
  <path class="cls-2" d="M38.57,92.91c-.19.19-.37.37-.56.56-.72.28-1.51.25-1.83-.43-.24-.5-.01-1.21,0-1.83,1.26-.89,2.34-.47,2.58,1,.15.29.09.53-.2.69Z"/>
  <path class="cls-2" d="M31.14,28.47c0,.95-.93,1.96-1.8,1.93-.86-.02-1.83-.95-1.86-1.76-.03-1.09.81-1.94,1.89-1.94.95,0,1.76.82,1.76,1.76Z"/>
  <path class="cls-2" d="M28.67,22.94c-.82-.02-1.62-.8-1.59-1.56.03-.97.94-1.87,1.88-1.84.96.02,1.74.79,1.75,1.69,0,.99-.88,1.74-2.03,1.72Z"/>
  <path class="cls-2" d="M70.42,77.31c-.22,0-.44,0-.65,0-.78.06-1.47-.55-1.61-1.41-.11-.74.14-1.31.73-1.61.26-.14.51-.27.77-.41.08-.25.23-.14.37-.07.11,0,.21.02.32.03.86,0,1.56.64,1.64,1.47.09,1.02-.47,1.9-1.32,2.06-.09.02-.17-.01-.25-.06Z"/>
  <path class="cls-2" d="M68.2,34.14c-.21-.1-.43-.2-.64-.3-.74-.25-1.02-.96-.69-1.73.36-.96,1.04-1.43,2.09-1.34.58-.07,1.02.18,1.35.76.34.62.32,1.12-.07,1.57h.05s-.05,0-.05,0c-.27.96-1.26,1.47-2.03,1.05Z"/>
  <path class="cls-2" d="M27.26,75.57c-.08-1.13.83-1.72,1.81-1.65.95.07,1.57.74,1.54,1.81-.02.86-.82,1.55-1.77,1.53-.98-.02-1.6-.68-1.58-1.7Z"/>
  <path class="cls-2" d="M42.36,86.96c.68.65.93,1.38.37,2.22-.43.65-1.61.93-2.4.44-.28-.17-.32-.75-.4-1.16-.04-.24.06-.5.09-.75.13-.2.26-.4.39-.6.38-.57.76-.68,1.32-.39.2.08.41.16.61.24Z"/>
  <path class="cls-3" d="M57.58,64.69c-.06,1.91-1.55.77-2.37,1.08-.28-1.17-.4-2.35.04-3.51.78,0,1.56,0,2.35.01.27.33.23.66,0,1,0,.21,0,.43,0,.64.19.27.22.53-.02.78Z"/>
  <path class="cls-2" d="M58.38,87.33c.09.22.19.43.28.65-.03,1.25-.61,1.9-1.64,1.83-1.05-.07-1.53-.82-1.34-2.09.05-.02.06-.06.05-.11-.03-.4.22-.56.56-.65.22-.08.43-.15.65-.23.18-.18.35-.25.5.03.32.19.63.38.95.57Z"/>
  <path class="cls-2" d="M29.84,36.61c-1.02-.02-1.32-.34-1.25-1.57.05-.83.59-1.25,1.43-1.26.83,0,1.4.58,1.39,1.42,0,.88-.61,1.43-1.56,1.41Z"/>
  <path class="cls-3" d="M43.17,62.34c.57-.03,1.14-.08,1.71-.07.07,0,.2.28.2.44.01.79-.05,1.59,0,2.38.03.58-.17.76-.74.69-.34-.04-.69.02-1.04.03-.04-1.15-.09-2.3-.13-3.46Z"/>
  <path class="cls-2" d="M66.76,23.04c1.04-.74,2.6-.35,2.49,1.1-.48,2.45-4.39.71-2.49-1.1Z"/>
  <path class="cls-4" d="M53.07,50.75c-.41-1.21-.73-2.46-1.24-3.63-.46-1.05-1.29-1.81-2.56-1.76-1.25.04-2.05.8-2.53,1.85-1.1,2.39-1.46,4.95-1.63,7.54-.14.64-.37,1.26-.57,1.88-.24.74-.54,1.47-.96,2.14q-2.66.15-2.67-2.4c0-10.63-.09-21.26.09-31.89.05-2.71.99-5.41,1.55-8.11.04-.21.39-.34.57-.53.24-.26.64-.52.66-.81.26-3.92,2.57-6.85,4.84-9.8.12-.16.4-.21.6-.31.61,2.3,1.82,4.38,2.57,6.64.12.35.4.68.17,1.09-1.57.01-3.13.02-4.7.04-1.21.01-1.98.65-1.95,1.6.02.99.76,1.59,1.95,1.6,1.96.01,3.91.02,5.87.03.36.33.39.8.55,1.21.49,1.32.88,2.68,1.15,4.06.06.31.16.64-.15.89-.35,0-.46-.29-.6-.52-1.88-3.03-6.01-3.17-8.25-1.43-2.24,1.74-3.26,5.42-.77,8.21,2.46,2.75,7.22,2.43,9.21-1.07.13-.22.22-.47.38-.67.11-.14.23-.28.41-.07.16.3.14.63.14.95,0,8.98,0,17.97,0,26.95,0,.37.13.96-.26,1.03-.45.08-.44-.54-.54-.87-.41-1.29-.95-2.53-1.32-3.84Z"/>
  <path class="cls-3" d="M54.58,22.07c.02-.24.12-.5.06-.72-.44-1.58-.91-3.16-1.37-4.74-.06-.22-.1-.46-.15-.68.74-.01,1.49-.09,2.22,0,.26.03.57.41.68.7,1.11,2.79,1.63,5.71,1.65,8.68.07,10.96.04,21.92.06,32.89,0,.47-.11.63-.61.61-1.07-.04-2.14,0-3.21-.03-.15,0-.43-.17-.43-.27-.16-2.58-.29-5.16-.42-7.75.54,1.36,1.09,2.72,1.63,4.08.08.19.16.38.23.56.02-.21.05-.41.05-.62,0-9.2,0-18.4-.01-27.59,0-.24-.08-.49-.12-.73-.18-.19-.08-.4-.06-.61.15-1.07.2-2.13-.19-3.16-.07-.2-.15-.41-.03-.62Z"/>
  <path class="cls-4" d="M46.01,73.41c.04-.39.08-.78.12-1.16.18.33.33.68.54,1,.63.95,1.29,1.88,1.93,2.82.47.7.93.79,1.42.03.79-1.22,1.58-2.45,2.37-3.67.05-.08.11-.16.17-.24.02.09.05.19.05.28.2,3.54-1.04,6.63-3.05,9.48-.05.08-.42.08-.47,0-1.81-2.56-2.99-5.35-3.06-8.53Z"/>
  <path class="cls-1" d="M66.27,56.3c-.04.85-.07,1.45-.12,2.05,0,.05-.16.09-.25.13-.26-.63-1.42.1-1.43-.92,0-.02-.07-.05-.11-.05-.4-.04-.64-.29-.98-.78-.18-.25-.54-.36-.77-.58-.13-.13-.14-.37-.2-.56-.02-.08.02-.22-.03-.25-.73-.46-1.09-.93-.93-1.95.09-.56-.2-1.22.22-1.81.02-.02-.26-.25-.4-.38.15-.06.32-.2.44-.16.19.06.33.25.5.37.25.18.58.29.76.52,1.03,1.28,2.03,2.59,3.03,3.9.16.21.25.47.26.49Z"/>
  <path class="cls-3" d="M51.95,12.66c-.86-2.17-1.74-4.34-2.58-6.52-.14-.37-.11-.8-.16-1.21.34.19.81.3.99.59,1.41,2.2,2.77,4.43,4.12,6.67.05.08-.18.46-.29.47-.69.04-1.39,0-2.09,0Z"/>
  <path class="cls-1" d="M37.27,51.26c0,.96.03,1.91,0,2.86-.01.26-.24.51-.37.76-.27.34-.63.5-1.07.45.36.48-.18.5-.33.75-.21.35-.46.71-.62,1.1-.04.04-.1.07-.16.09-.57.22-1.03.58-1.44,1-.31.32-.66.52-1.12.49.01-.61.02-1.22.04-1.83.31-.63.91-1.02,1.34-1.55,1.03-1.29,2.07-2.58,3.16-3.83.14-.16.26-.42.58-.31Z"/>
  <path class="cls-4" d="M48.54,67.38c0-.09-.01-.18-.02-.26.02-.08.02-.17,0-.25.09-5.64-.41-11.3.45-16.93,0-.03.06-.06.09-.09.37.05.33.34.35.58.06.7.04,1.41.04,2.11.02,3.21-.05,6.41.04,9.62.04.31.02.61-.08.91-.04.25-.07.5-.02.75.06,1.02.09,2.04-.03,3.05-.07.57-.25.66-.82.5Z"/>
  <path class="cls-1" d="M49.26,63.09c0-.26-.01-.51-.02-.77.23-.06.3.07.34.26.01.06.03-.02.03-.03.08-.16.2-.27.4-.25.02,0,.04.01.06.02,0,2.09.07,4.18,0,6.27-.03.87-.31,1.73-.5,2.59-.03.15-.18.28-.28.42-.11-.11-.25-.2-.34-.33-.79-1.22-.55-2.56-.42-3.88.4.02.63.03.59-.56-.07-1.05.07-2.11.12-3.16.37-.18.18-.38,0-.57Z"/>
  <path class="cls-3" d="M37.27,51.26c-.87.99-1.74,1.99-2.62,2.98-.81.91-1.64,1.81-2.46,2.71.12-.41.15-.89.39-1.21,1.42-1.89,2.88-3.74,4.34-5.6.08-.11.21-.18.32-.26.01.12.04.24.04.36,0,.34,0,.68,0,1.02Z"/>
  <path class="cls-1" d="M55.25,62.25c-.01,1.17-.03,2.34-.04,3.51-.41.03-.82.11-1.21.05-.19-.03-.48-.31-.5-.49-.06-.76.02-1.53-.04-2.3-.05-.64.15-.91.82-.82.32.05.65.03.97.04Z"/>
  <path class="cls-4" d="M11.68,74.78c-2,.15-4,.4-5.99.37-.31,0-.61-1.2-.92-1.84.21-.03.42-.08.63-.08,3.71.04,7.27-.66,10.66-2.14.31-.13.62-.25.94-.38-.03.69-.57,1.09-1.01,1.49-1.2,1.1-2.57,1.96-4.17,2.41-.09.03-.15.07-.15.17Z"/>
  <path class="cls-4" d="M12.59,62.7c.64.11,1.29.2,1.92.33.18.04.34.17.51.26-.14.13-.25.3-.42.37-1.94.78-3.88,1.59-5.85,2.3-.68.25-1.45.27-2.18.38-.18.03-.36-.03-.54-.05.09-.16.16-.34.27-.49,1.37-1.85,3.85-3.05,6.29-3.1Z"/>
  <path class="cls-3" d="M11.68,74.78c.08-.12.14-.3.25-.34,2.04-.78,3.83-1.89,5.07-3.73.35-.17.7-.35,1.05-.52.53.66.45,1.28-.12,1.88-.03.05-.06.1-.09.14-.18.16-.12.39-.16.59-1.93.67-3.86,1.34-5.79,2.01-.02-.16-.1-.15-.2-.07,0,0,0,.04,0,.04Z"/>
  <path class="cls-3" d="M11.77,70.09c.14-.22.22-.56.42-.65,1.61-.75,3.01-1.74,3.97-3.24.11-.18.11-.43.15-.65.14-.14.27-.29.41-.43.09,0,.17.01.25.06.11.08.22.18.21.3-.06.44.61.79.14,1.27,0,.06-.02.11-.02.17.11.29-.14.57,0,.86-1.85.77-3.69,1.54-5.54,2.31Z"/>
  <path class="cls-1" d="M9.41,77.81c1.7-.39,3.4-.77,5.1-1.16.71-.16,1.41-.37,2.12-.53.17-.04.35,0,.53.02-.12.09-.24.18-.35.28-.45.43-.88.89-1.35,1.3-.06.05-.3-.09-.46-.14-.14-.04-.3-.15-.42-.11-.54.17-1.13.63-1.58.53-.7-.16-1.28.58-2.01.03-.37-.28-1.05-.16-1.58-.21h0Z"/>
  <path class="cls-1" d="M17.78,72.14c.16-.31.33-.61.47-.93.03-.07-.1-.18-.12-.28-.04-.25-.05-.5-.08-.74.59-.38,1.17-.76,1.77-1.13.06-.04.28.05.28.08-.06.77.12,1.71-.27,2.25-.46.65-1.41.95-2.15,1.41.04-.22.07-.44.11-.66,0,0,0,0,0,0Z"/>
  <path class="cls-1" d="M17.31,67.78c-.06-.13-.15-.26-.18-.4-.03-.16-.01-.34-.01-.51.04.01.06,0,.06-.01,0-.03,0-.04-.02-.04.08-.39.51-.88-.29-1.05-.03,0-.04-.1-.06-.15.05.02.1.05.15.07-.08-.19-.16-.38-.23-.57.85-.68,1.42-.47,1.96.69.38.83.09,1.25-1.38,1.97Z"/>
  <path class="cls-4" d="M95.4,53.79c-5.63.01-11.25.03-16.88.01-.14,0-.39-.28-.4-.43-.03-4.05-.04-8.11-.03-12.16,0-.16.24-.46.37-.46,5.65-.02,11.3,0,16.95,0,.25.23.24.54.24.84,0,3.79,0,7.58,0,11.37,0,.29.02.61-.25.83Z"/>
  <path class="cls-3" d="M95.4,53.79c0-4.35.01-8.69.02-13.04.58-.15.78.01.78.65-.03,3.91-.02,7.82.01,11.73,0,.65-.18.85-.8.66Z"/>
  <path class="cls-3" d="M87.96,19.86c.83-.31,1.65-.63,2.49-.9.06-.02.34.31.36.5.46,3.32-1.99,6.55-5.37,7.11-2.51.42-4.53-.45-6.14-2.32-.1-.11-.18-.41-.17-.41.46-.22.94-.43,1.41-.63.05-.02.13,0,.19.02.23-.13.44-.02.61.1.59.41,1.25.48,1.96.53,2.31.16,3.95-1.03,4.38-3.29.05-.25.09-.51.28-.71Z"/>
  <path class="cls-4" d="M86.79,16.79c-2.74,1.2-5.49,2.39-8.22,3.61-.52.23-.47-.02-.47-.35,0-2.88,1.86-5.15,4.74-5.79,1.51-.04,2.66.64,3.59,1.75.19.22.44.43.35.78Z"/>
  <path class="cls-4" d="M87.96,19.86c-.19,2.21-1.26,3.72-3.18,4.11-1.4.28-2.83.17-4.05-.75.17-.17.3-.42.5-.51,2.11-.96,4.22-1.89,6.34-2.83.11-.05.26-.02.39-.03Z"/>
  <path class="cls-3" d="M86.79,16.79c-.88-1.32-1.98-2.3-3.7-2.35-.08,0-.16-.12-.24-.18,1.8-.64,4.68.06,5.93,1.46.06.06-.01.36-.09.4-.62.25-1.26.46-1.9.68Z"/>
  <path class="cls-4" d="M83.46,77.37c.49-1.39-.47-2.12-1.66-2.75-.52-.27-.98-.64-1.49-.92-.67-.36-.51-.64.04-.95.49-.28.93-.67,1.45-.87,1.44-.56,1.89-1.58,1.7-3.02-.08-.57.01-1.16.03-1.73.01-.6.32-.7.81-.45.82.41,1.6.88,2.45,1.21.38.15.91.12,1.3-.03.85-.32,1.67-.74,2.47-1.16.61-.32.79-.04.81.49.04,1.03.01,2.06.09,3.08.02.31.23.69.48.87.86.65,1.77,1.24,2.68,1.83.39.25.41.42,0,.68-.86.54-1.75,1.05-2.54,1.68-.34.27-.61.77-.66,1.19-.1.87-.04,1.75-.04,2.63,0,.68-.24.91-.91.55-.74-.4-1.48-.84-2.27-1.12-.47-.16-1.09-.19-1.54-.03-.79.28-1.52.74-2.25,1.16-.5.29-.75.09-.81-.39-.07-.59-.08-1.2-.13-1.95Z"/>
  <path class="cls-2" d="M54.58,22.07c.62,1.43.76,2.89.27,4.38-1.11,2.61-3.18,4.03-5.78,3.95-2.45-.07-4.57-1.64-5.4-3.99-.94-2.67.48-5.86,3.13-7.07,2.7-1.23,5.94-.28,7.45,2.18.11.18.22.37.33.56Z"/>
  <path class="cls-2" d="M49.25,32.96c2.75,0,4.89,2.02,4.92,4.64.02,2.54-2.29,4.8-4.91,4.79-2.65-.01-4.89-2.15-4.87-4.65.02-2.69,2.14-4.78,4.86-4.78Z"/>
  <path class="cls-2" d="M86.87,46.28c-1.44,0-2.88,0-4.32,0-.97,0-1.59-.55-1.62-1.4-.03-.89.62-1.56,1.6-1.57,2.94-.02,5.89-.02,8.83,0,.9,0,1.58.67,1.58,1.47,0,.81-.66,1.47-1.56,1.49-1.5.03-3.01,0-4.52,0h0Z"/>
  <path class="cls-2" d="M90.55,51.19c-.35,0-.78.13-1.02-.03-.42-.26-1.01-.7-1.01-1.07,0-.37.56-.95.98-1.07.64-.18,1.42-.19,2.05,0,.46.14,1.03.66,1.13,1.11.14.62-.41,1.03-1.09,1.07-.35.02-.69,0-1.04,0,0,0,0,0,0,0Z"/>
  <path class="cls-2" d="M83.1,51.19c-.17,0-.35,0-.52,0-.8.04-1.45-.22-1.46-1.07-.02-.86.66-1.11,1.43-1.12.43,0,.87-.01,1.3-.01.72,0,1.2.34,1.22,1.04.02.73-.46,1.11-1.2,1.16-.26.02-.52,0-.78,0Z"/>
  <path class="cls-4" d="M49.26,27.13c-1.36,0-2.53-1.18-2.52-2.52.02-1.35,1.21-2.51,2.56-2.49,1.37.02,2.51,1.17,2.51,2.54,0,1.35-1.17,2.48-2.55,2.48Z"/>
  <path class="cls-4" d="M50.74,37.72c.02.75-.68,1.42-1.47,1.42-.74,0-1.46-.67-1.47-1.37,0-.75.7-1.47,1.44-1.47.78,0,1.48.66,1.49,1.42Z"/>
</svg>