<?xml version="1.0" encoding="UTF-8"?>
<svg id="Layer_1" data-name="Layer 1" xmlns="http://www.w3.org/2000/svg" viewBox="0 0 300 300">
  <defs>
    <style>
      .cls-1 {
        fill: #384954;
      }

      .cls-1, .cls-2, .cls-3, .cls-4 {
        stroke-width: 0px;
      }

      .cls-2 {
        fill: #8f9da5;
      }

      .cls-3 {
        fill: #fafafa;
      }

      .cls-4 {
        fill: #03141c;
      }
    </style>
  </defs>
  <path class="cls-4" d="M143.78,287.5c-56.24-.86-107.88-39.34-124.98-93.73C.65,136.06,22.81,72.56,71.01,37.66,119.26,2.7,188.57,4.27,235.06,41.74c46.53,37.5,64.69,102.29,43.91,158.93-9.82,26.77-27.63,49.34-51.39,64.61-25.38,16.3-54.05,22.23-83.8,22.22ZM44.03,99.03l-.02-.02c-1.37,2.91-3.59,10.78-.55,13.14-.3.23-.53.41-.8.63,1.55.91,1.99,3.86,4.85,2.42-1.33,1.07.42,1.59-.11,2.86.81-.86,3.2-1.99,4.44-1.63.81.24.99,1.35,1.82,1.51.67-.31.54-1.13,1.06-1.49.19.19.38.39.58.58.71-.52.94-1.26.69-2.23.76.51.25,1.25.63,1.86,1.4-2.27,3.86-3.06,5.1-5.08.92-1.5,2-4.29.54-6.02.69-.53.89.78,1.59.44.19-1.37-1.07-1.23-1.94-1.8,2.87-1.48-1.54-5.21-.98-6.85-.35.13-.72.23-1.09.3-.12-.02-2.34-5.55-4.22-1.87-.09-.51-.16-.91-.34-1.98-.31,2.02-1.12.41-1.6.91-.07.64.66,1.3-.06,1.87-.75.06-1.38-1.02-2.43-1.06-1.68-.07-3.47,1.22-5.03,1.66-.93.26-1.89-.63-2.43.48-.28.57-.77,1.21.29,1.37ZM56.46,182.69c-2.57-5.98-5.59-11.73-8.42-17.61-4.35,2.24-8.51,4.38-12.72,6.55,5.81,12.8,11.94,25.32,18.16,37.91,2.14-1.1,4.11-2.11,6.07-3.12,2.4-1.16,4.8-2.32,7.3-3.52-3.46-6.69-6.47-13.79-10.38-20.21ZM89.27,164.33c-1.8-4.36-4.3-8.35-6.31-12.69-8.4,4.31-16.65,8.55-25.09,12.88,2.18,4.28,3.81,8.71,6.38,12.67,1.92,5.56,5.15,10.81,7.87,16,8.61-4.29,17.05-8.5,25.53-12.72-3.18-5.14-5.04-11.14-8.38-16.14ZM124.83,150.41c-3-9.16-8.75-18.08-13.19-26.61-8.51,4.45-16.84,8.81-25.3,13.23,3.96,8.63,7.79,18.35,13.02,26.26.74,2.58,2.25,4.74,3.6,7.36,5.31-10.88,14.03-14.63,25.49-13.42-1.31-2.5-2.19-4.8-3.63-6.81ZM205,117.41c-5.27-11.6-11.1-22.97-16.98-34.25-22.9,11.77-45.68,23.48-68.46,35.19,3.93,10.93,10.43,21.37,15.61,31.73,3.63,8.17,8.14,15.88,12.03,24.06,23.14-11.09,45.97-22.56,68.9-34-3.65-7.53-6.88-15.51-11.1-22.73ZM167.13,277.57c.94-5.58,3.51-10.75,9.97-10.3,2.78.19,4.83,1.6,6.51,3.78,2.06,2.67,1.77,3.07,5.27,2.01,12.56-3.81,26.95-8.96,36.86-18.09H75.22c7.43,5.88,15.7,10.02,24.34,13.78-1.38-12.23,16.73-6.21,8.57,2.95,2.39.81,10.32,4.22,12.62,2.85,1.09-.64,1.74-3.32,2.68-4.34.98-1.06,2.15-1.85,3.47-2.39,7.27-2.95,12.9,3.26,14.02,10.08,8.75.47,17.43.34,26.22-.31ZM231.35,215.01c14.65-.01,25.99-11.72,26-26.84.01-14.09-11.81-25.7-26.15-25.7-14.09,0-25.81,11.64-25.84,25.64-.03,15,11.48,26.91,25.99,26.9ZM87.73,105.53c13.34.05,23.8-10.81,23.84-24.75.04-13.15-10.7-24.1-23.72-24.18-13.06-.08-23.98,10.85-24.06,24.09-.09,13.95,10.36,24.8,23.94,24.85ZM253.7,227.91h-79.93c0,2.38,4.44,7.54,5.7,9.57,1.33,2.13,3.27,7.07,5.47,8.19,2.39,1.22,8.4.08,11.03.01,4.28-.11,3.66-.92,5.62-4.42,2.64-4.71,7.77-7.19,13.05-6.1,2.48.51,4.72,1.85,6.42,3.75,1.7,1.9,2.06,5.2,3.73,6.83,3.57.01,7.57.27,11.12-.07,2.9-.28,3.91-1.45,5.96-3.57,4.29-4.43,8.49-8.96,11.83-14.2ZM172.45,68.74c20.54.18,20.43-32.41.35-32.59-8.93-.08-16.49,7.53-16.52,16.61-.03,9,7.51,15.9,16.17,15.97ZM224.88,137.08c3.28-1.64,6.29-3.15,9.41-4.7-9.84-19.91-19.11-39.94-29.2-59.57-3.14,1.65-6.16,3.24-9.21,4.84,9.7,19.89,19.31,39.58,29,59.44ZM98.63,245.73c3.83,0,8.5,1.22,10.96-2.39,2.15-3.15,3.02-5.97,6.77-7.58,8.16-3.5,14.69,2.59,17.52,9.92h16.69c-.5-2.64-3.21-5.67-4.61-7.98-1.51-2.48-3.26-7.22-5.48-9.04-3.21-2.63-13.18-.75-17.29-.76-4.6-.01-11.9-1.85-15.35,2.1-3.71,4.24-6.34,10.81-9.21,15.72ZM124.28,195.63c18.45.02,18.52-28.62.4-29.43-19.2-.87-19.79,29.42-.4,29.43ZM173.53,245.7c-10.55-16.6-20.96-32.83-31.77-49.04-1.59,2.28-3.74,3.66-5.71,5.38,1.47,2.47,2.89,4.87,4.32,7.26,6.96,11.63,13.93,23.27,20.89,34.9.47.78.8,1.57,2.03,1.53,3.25-.11,6.51-.04,10.25-.04ZM106.86,196.99c-10.4,16.23-20.61,32.35-30.67,48.61,3.88,0,9.75,1.38,12.44-1.83,3.32-3.96,5.6-9.71,8.2-14.21,5.27-9.09,10.53-18.17,15.7-27.31-2.14-1.49-3.87-3.25-5.66-5.26ZM46.41,227.87c1.84,3.56,4.81,6.65,7.5,9.57,1.84,1.99,5.79,7.67,8.6,8.27,3.51.75,5.86-5.69,7.23-7.92,1.07-1.74,6.46-8.35,5.72-9.92h-29.05ZM130.46,45.53c.26-3.14-6.92-2.75-8.46-4.62-1.55-1.88.11-7.06-2.78-7.77-3.72-.91-2.18,5.79-3.53,7.51-1.54,1.94-8.65,1.45-8.41,4.58.27,3.67,6.36,1.52,8.37,3.68,1.61,1.73-.18,7.38,3.27,7.24,3.43-.14,1.32-5.85,3.45-7.5,1.73-1.34,8.35.19,8.1-3.13ZM40.84,150.84c3.55-.32,1.22-6.57,3.78-8.39,1.72-1.22,7.13-.11,7.51-2.84.43-3.1-6.57-2.83-8.01-4.25-1.74-1.71-.2-6.59-2.45-7.7-3.74-1.83-3,5.07-3.94,6.56-1.61,2.56-8.03,1.64-8.53,4.61-.62,3.7,6.26,2.28,8.04,4.25,1.81,2.01-.08,7.65,3.6,7.76ZM254.87,139.03c3.68-.02,1.52-5.97,3.97-7.72,1.46-1.04,9.51-.51,7.34-4.24-1.37-2.36-6.14-1.27-7.93-3.3-1.42-1.6-.23-5.54-2.08-6.63-3.61-2.12-3.18,4.75-4.08,6.09-1.67,2.51-7.77,1.29-8.55,4.16-1.08,4,6.67,2.54,8.35,4.51,1.42,1.66-.07,7.22,2.99,7.13ZM154.02,82.07c-.02-7.62-11.56-7.13-10.76.43.7,6.57,10.78,6.25,10.76-.43ZM116.54,213.67h15.48c-1.87-3.22-3.26-8.12-7.4-8.63-4.32-.53-6.14,5.49-8.08,8.63ZM269.35,154.62c.13-7.06-10.35-7.15-10.58-.31-.23,6.89,10.45,7.22,10.58.31ZM231.55,93.1c5.99-.03,6.03-9.37.12-9.4-5.81-.03-6.17,9.44-.12,9.4ZM184.12,176.16c-.06,5.82,9.15,6.32,9.27.35.13-6.07-9.21-6.64-9.27-.35ZM164.77,191.38c5.72.03,6.02-9.12.31-9.33-5.89-.21-6.35,9.29-.31,9.33ZM70.96,133.97c5.78,0,5.5-9.44-.12-9.43-5.84.01-5.73,9.44.12,9.43ZM249.99,94.95c5.8-.05,5.85-9.19.1-9.33-5.79-.15-6.02,9.38-.1,9.33ZM212.64,54.24c-.08-5.33-7.64-6.3-8.96-1.14-1.64,6.41,9.06,7.85,8.96,1.14ZM233.43,69.83c5.85-.08,5.73-9.48-.03-9.39-5.74.09-5.88,9.48.03,9.39ZM184.73,198.36c-5.41.09-5.92,8.46-.51,9.14,6.34.79,6.77-9.24.51-9.14ZM125.93,79.52c5.96.14,5.8-8.91.21-9.14-5.71-.24-6.04,9.01-.21,9.14ZM141.68,44.19c-5.36-.1-5.32,8.11-.13,8.22,4.96.1,5.07-8.13.13-8.22Z"/>
  <path class="cls-1" d="M167.13,277.57c-8.79.65-17.47.78-26.22.31-1.12-6.82-6.74-13.03-14.02-10.08-1.32.54-2.49,1.33-3.47,2.39-.94,1.02-1.59,3.7-2.68,4.34-2.3,1.36-10.23-2.04-12.62-2.85,8.17-9.15-9.94-15.17-8.57-2.95-8.64-3.76-16.91-7.9-24.34-13.78h150.51c-9.91,9.13-24.3,14.28-36.86,18.09-3.5,1.06-3.21.66-5.27-2.01-1.68-2.18-3.73-3.58-6.51-3.78-6.46-.45-9.02,4.73-9.97,10.3ZM151.09,274.36c6.94.01,6.92-10.52.06-10.53-6.73-.01-6.74,10.52-.06,10.53Z"/>
  <path class="cls-3" d="M231.35,215.01c-14.52.01-26.02-11.89-25.99-26.9.03-13.99,11.76-25.63,25.84-25.64,14.34,0,26.16,11.61,26.15,25.7-.01,15.12-11.35,26.83-26,26.84ZM221.68,174.71c-9.07.02-8.32,14.59.67,13.57,8.16-.93,7.65-13.59-.67-13.57ZM243.2,197.82c5.78-.05,4.8-9.48-.72-8.53-4.96.86-4.32,8.57.72,8.53ZM226.73,200.56c-.11-4.42-6.8-4.95-7.36-.51-.65,5.2,7.48,5.64,7.36.51ZM245.31,179.4c.04-4.4-6.76-4.45-6.81-.03-.05,4.47,6.77,4.38,6.81.03Z"/>
  <path class="cls-3" d="M135.17,150.08c-5.18-10.37-11.69-20.8-15.61-31.73,22.79-11.71,45.56-23.42,68.46-35.19,5.88,11.29,11.72,22.66,16.98,34.25-1.88.68-3.5,2.03-5.57,2.22-.85-1.64-1.69-3.27-2.54-4.91-3.43-6.87-6.86-13.74-10.33-20.69-18.3,9.27-36.35,18.41-54.58,27.64,3.55,7.02,7,13.84,10.44,20.65.52,1.2,1.05,2.41,1.57,3.61-3.12.99-5.88,2.77-8.83,4.14Z"/>
  <path class="cls-3" d="M87.73,105.53c-13.58-.05-24.03-10.89-23.94-24.85.09-13.24,11-24.17,24.06-24.09,13.01.08,23.76,11.04,23.72,24.18-.04,13.94-10.5,24.8-23.84,24.75ZM88.01,97.21c20.49-.22,20.27-31.75-.06-32.3-20.96-.57-21,32.53.06,32.3Z"/>
  <path class="cls-3" d="M253.7,227.91c-3.34,5.24-7.54,9.77-11.83,14.2-2.05,2.11-3.06,3.29-5.96,3.57-3.55.34-7.55.08-11.12.07-1.67-1.63-2.04-4.93-3.73-6.83-1.7-1.9-3.94-3.24-6.42-3.75-5.27-1.09-10.41,1.39-13.05,6.1-1.96,3.5-1.34,4.31-5.62,4.42-2.63.07-8.64,1.21-11.03-.01-2.2-1.12-4.14-6.06-5.47-8.19-1.26-2.03-5.7-7.19-5.7-9.57h79.93Z"/>
  <path class="cls-2" d="M199.43,119.63c2.07-.19,3.69-1.54,5.57-2.22,4.22,7.22,7.45,15.2,11.1,22.73-22.93,11.44-45.76,22.9-68.9,34-3.89-8.18-8.4-15.89-12.03-24.06,2.95-1.36,5.71-3.14,8.83-4.14.75.78,1.03,1.83,1.5,2.76,2.25,4.4,4.48,8.81,6.7,13.18.8-.51,1.4-.97,2.05-1.3,5.15-2.6,10.3-5.18,15.46-7.77,11.73-5.88,23.44-11.78,35.2-17.59,1.43-.71,1.75-1.29.97-2.78-2.23-4.23-4.3-8.54-6.43-12.82Z"/>
  <path class="cls-3" d="M172.45,68.74c-8.66-.07-16.19-6.97-16.17-15.97.03-9.08,7.59-16.69,16.52-16.61,20.08.18,20.18,32.76-.35,32.59ZM177.24,48.11c-.01-4.13-6.23-4.94-7.49-1.11-1.75,5.29,7.51,6.42,7.49,1.11ZM178.56,62.86c3.86.05,3.86-5.95.02-5.82-3.58.12-3.64,5.77-.02,5.82ZM165.69,61.52c3.09-.27,2.61-4.77-.28-4.82-3.15-.06-2.91,4.77.28,4.82Z"/>
  <path class="cls-3" d="M99.36,163.28c-5.23-7.91-9.06-17.62-13.02-26.26,8.45-4.42,16.79-8.78,25.3-13.23,4.43,8.53,10.19,17.46,13.19,26.61-3.34-.33-9.44,4.43-12.41,5.93-4.13,2.09-9.55,3.85-13.05,6.94ZM101.45,149.82c4.05-2.02,7.97-3.97,11.99-5.97-1.46-2.88-2.8-5.52-4.22-8.31-4.04,1.99-7.93,3.91-11.96,5.89,1.41,2.84,2.74,5.49,4.18,8.39Z"/>
  <path class="cls-3" d="M224.88,137.08c-9.69-19.86-19.3-39.55-29-59.44,3.05-1.6,6.07-3.19,9.21-4.84,10.09,19.63,19.36,39.67,29.2,59.57-3.12,1.56-6.13,3.06-9.41,4.7Z"/>
  <path class="cls-3" d="M98.63,245.73c2.87-4.91,5.51-11.48,9.21-15.72,3.45-3.95,10.75-2.11,15.35-2.1,4.12,0,14.09-1.87,17.29.76,2.22,1.82,3.97,6.55,5.48,9.04,1.4,2.31,4.11,5.34,4.61,7.98h-16.69c-2.83-7.34-9.35-13.43-17.52-9.92-3.75,1.61-4.63,4.43-6.77,7.58-2.46,3.61-7.14,2.39-10.96,2.39Z"/>
  <path class="cls-3" d="M124.28,195.63c-19.38-.02-18.8-30.3.4-29.43,18.12.82,18.04,29.45-.4,29.43ZM124.13,174.13c-8.34-.05-8.54,13.3-.18,13.49,8.62.2,8.79-13.43.18-13.49Z"/>
  <path class="cls-2" d="M89.27,164.33c3.34,5,5.2,11,8.38,16.14-8.48,4.23-16.92,8.43-25.53,12.72-2.72-5.19-5.94-10.44-7.87-16,1.82-1.28,3.84-2.19,5.8-3.18,6.4-3.23,12.8-6.45,19.21-9.68Z"/>
  <path class="cls-3" d="M173.53,245.7c-3.74,0-7-.07-10.25.04-1.23.04-1.56-.75-2.03-1.53-6.96-11.63-13.93-23.27-20.89-34.9-1.43-2.39-2.85-4.8-4.32-7.26,1.98-1.72,4.12-3.1,5.71-5.38,10.81,16.21,21.22,32.44,31.77,49.04Z"/>
  <path class="cls-3" d="M106.86,196.99c1.8,2.01,3.52,3.77,5.66,5.26-5.16,9.15-10.43,18.23-15.7,27.31-2.6,4.49-4.88,10.25-8.2,14.21-2.69,3.21-8.56,1.83-12.44,1.83,10.06-16.26,20.28-32.38,30.67-48.61Z"/>
  <path class="cls-3" d="M59.55,206.41c-1.96,1.01-3.93,2.02-6.07,3.12-6.22-12.59-12.34-25.11-18.16-37.91,4.22-2.17,8.37-4.31,12.72-6.55,2.83,5.88,5.86,11.63,8.42,17.61-1.9.55-3.57,1.61-5.37,2.38-1.3.56-1.36,1.25-.77,2.45,3.11,6.28,6.15,12.59,9.22,18.9Z"/>
  <path class="cls-3" d="M89.27,164.33c-6.4,3.23-12.81,6.45-19.21,9.68-1.97.99-3.98,1.91-5.8,3.18-2.57-3.96-4.2-8.39-6.38-12.67,8.44-4.33,16.69-8.57,25.09-12.88,2.01,4.34,4.5,8.33,6.31,12.69Z"/>
  <path class="cls-3" d="M46.41,227.87h29.05c.74,1.57-4.65,8.18-5.72,9.92-1.37,2.23-3.72,8.67-7.23,7.92-2.81-.6-6.76-6.28-8.6-8.27-2.69-2.92-5.66-6.01-7.5-9.57Z"/>
  <path class="cls-3" d="M130.46,45.53c.25,3.31-6.37,1.78-8.1,3.13-2.12,1.65-.02,7.36-3.45,7.5-3.45.14-1.66-5.52-3.27-7.24-2.01-2.16-8.1-.02-8.37-3.68-.23-3.13,6.87-2.63,8.41-4.58,1.36-1.71-.19-8.42,3.53-7.51,2.89.71,1.24,5.89,2.78,7.77,1.54,1.87,8.72,1.48,8.46,4.62Z"/>
  <path class="cls-3" d="M40.84,150.84c-3.68-.1-1.79-5.75-3.6-7.76-1.77-1.96-8.66-.55-8.04-4.25.5-2.97,6.92-2.05,8.53-4.61.94-1.49.2-8.39,3.94-6.56,2.25,1.1.71,5.99,2.45,7.7,1.44,1.42,8.44,1.15,8.01,4.25-.38,2.73-5.79,1.62-7.51,2.84-2.56,1.82-.23,8.07-3.78,8.39Z"/>
  <path class="cls-3" d="M254.87,139.03c-3.06.1-1.57-5.46-2.99-7.13-1.68-1.96-9.43-.51-8.35-4.51.78-2.87,6.89-1.65,8.55-4.16.89-1.35.46-8.22,4.08-6.09,1.85,1.09.67,5.03,2.08,6.63,1.8,2.02,6.56.94,7.93,3.3,2.17,3.73-5.88,3.2-7.34,4.24-2.45,1.75-.3,7.7-3.97,7.72Z"/>
  <path class="cls-1" d="M44.03,99.03c-1.06-.16-.57-.8-.29-1.37.54-1.11,1.49-.22,2.43-.48,1.56-.44,3.35-1.73,5.03-1.66,1.04.04,1.67,1.13,2.43,1.06.72-.57-.01-1.23.06-1.87.49-.5,1.29,1.11,1.6-.91.18,1.07.25,1.47.34,1.98,1.88-3.68,4.1,1.85,4.22,1.87.37-.07.73-.17,1.09-.3-.56,1.64,3.85,5.37.98,6.85.86.57,2.12.43,1.94,1.8-.7.33-.9-.97-1.59-.44,1.46,1.73.38,4.52-.54,6.02-1.24,2.02-3.69,2.81-5.1,5.08-.39-.61.12-1.35-.63-1.86.25.97.02,1.72-.69,2.23-.19-.19-.38-.39-.58-.58-.52.36-.39,1.18-1.06,1.49-.83-.15-1.01-1.27-1.82-1.51-1.23-.36-3.63.77-4.44,1.63.53-1.27-1.22-1.79.11-2.86-2.87,1.44-3.3-1.51-4.85-2.42.28-.22.51-.4.8-.63-3.04-2.35-.81-10.23.55-13.14.11,0,.16-.05.16-.15-.05.05-.09.11-.14.16ZM45.12,114.04c0-.1-.06-.16-.15-.15.06.05.11.09.17.14.22.41.38.91,1.01.85.18-.99-.54-.77-1.03-.83ZM52.07,114c3.86-1.42,7.23-1.61,8.07-6.57.74-4.34-1.45-8.48-5.87-9.02-8.27-1-11.8,10.24-4.67,14.45-.44,1.06.43,1.25,1.04,1.41.42.11.95-.17,1.42-.28ZM56.07,97.46c.17-.07.27-.11.37-.15-.31-.43-.62-.43-.37.15ZM43.87,102.11s.03-.09.05-.14c-.05.03-.11.07-.16.1.04.01.08.03.11.04ZM57.1,97.91l.31-.13c-.04-.18-.16-.23-.37-.14.02.09.04.18.06.27Z"/>
  <path class="cls-2" d="M59.55,206.41c-3.07-6.3-6.11-12.62-9.22-18.9-.6-1.2-.53-1.89.77-2.45,1.8-.77,3.48-1.83,5.37-2.38,3.91,6.42,6.92,13.52,10.38,20.21-2.5,1.21-4.9,2.36-7.3,3.52Z"/>
  <path class="cls-2" d="M99.36,163.28c3.5-3.09,8.93-4.85,13.05-6.94,2.97-1.5,9.07-6.26,12.41-5.93,1.44,2.01,2.32,4.31,3.63,6.81-11.46-1.21-20.17,2.53-25.49,13.42-1.35-2.61-2.86-4.78-3.6-7.36Z"/>
  <path class="cls-3" d="M154.02,82.07c.02,6.67-10.07,6.99-10.76.43-.8-7.56,10.74-8.04,10.76-.43Z"/>
  <path class="cls-2" d="M116.54,213.67c1.94-3.13,3.76-9.15,8.08-8.63,4.14.51,5.53,5.41,7.4,8.63h-15.48Z"/>
  <path class="cls-3" d="M269.35,154.62c-.13,6.91-10.81,6.59-10.58-.31.23-6.85,10.71-6.75,10.58.31Z"/>
  <path class="cls-3" d="M231.55,93.1c-6.05.03-5.69-9.44.12-9.4,5.91.03,5.87,9.37-.12,9.4Z"/>
  <path class="cls-3" d="M184.12,176.16c.06-6.29,9.4-5.71,9.27.35-.13,5.96-9.33,5.47-9.27-.35Z"/>
  <path class="cls-3" d="M164.77,191.38c-6.04-.03-5.58-9.54.31-9.33,5.71.21,5.41,9.36-.31,9.33Z"/>
  <path class="cls-3" d="M70.96,133.97c-5.86,0-5.96-9.41-.12-9.43,5.62-.01,5.9,9.42.12,9.43Z"/>
  <path class="cls-3" d="M249.99,94.95c-5.92.05-5.69-9.48.1-9.33,5.76.15,5.7,9.29-.1,9.33Z"/>
  <path class="cls-3" d="M212.64,54.24c.1,6.71-10.6,5.27-8.96-1.14,1.32-5.16,8.88-4.19,8.96,1.14Z"/>
  <path class="cls-3" d="M233.43,69.83c-5.91.08-5.77-9.3-.03-9.39,5.76-.09,5.88,9.31.03,9.39Z"/>
  <path class="cls-3" d="M184.73,198.36c6.26-.11,5.83,9.92-.51,9.14-5.41-.67-4.9-9.04.51-9.14Z"/>
  <path class="cls-3" d="M125.93,79.52c-5.82-.14-5.49-9.39.21-9.14,5.59.24,5.74,9.28-.21,9.14Z"/>
  <path class="cls-1" d="M141.68,44.19c4.94.09,4.83,8.32-.13,8.22-5.19-.11-5.23-8.32.13-8.22Z"/>
  <path class="cls-4" d="M151.09,274.36c-6.68,0-6.67-10.54.06-10.53,6.86.01,6.88,10.54-.06,10.53Z"/>
  <path class="cls-4" d="M221.68,174.71c8.32-.02,8.83,12.65.67,13.57-8.99,1.02-9.75-13.55-.67-13.57Z"/>
  <path class="cls-4" d="M243.2,197.82c-5.04.04-5.67-7.67-.72-8.53,5.51-.95,6.5,8.48.72,8.53Z"/>
  <path class="cls-4" d="M226.73,200.56c.13,5.13-8,4.69-7.36-.51.55-4.44,7.25-3.91,7.36.51Z"/>
  <path class="cls-4" d="M245.31,179.4c-.04,4.35-6.86,4.43-6.81-.03.05-4.42,6.85-4.37,6.81.03Z"/>
  <path class="cls-1" d="M142.43,142.33c-3.45-6.82-6.89-13.63-10.44-20.65,18.23-9.23,36.28-18.38,54.58-27.64,3.47,6.94,6.9,13.82,10.33,20.69-2.36.61-4.46,1.78-6.45,3.17-1.33-2.57-2.67-5.13-4.04-7.77-2.04,1.52-4.42,2.1-6.44,3.48,1.29,2.71,2.54,5.34,3.79,7.96-2.79,1.02-5.6,2.03-8.05,3.81-1.39-2.55-2.78-5.09-4.19-7.66-2.2,1.08-4.33,2.13-6.53,3.21,1.41,2.83,2.73,5.49,4.05,8.15-1.06-.11-1.81.62-2.68,1.02-1.98.9-3.88,2.03-6.08,2.34-1.71-2.24-2.52-5-4.09-7.37-1.91,1.45-4.12,2.09-6.05,3.36.84,2.88,2.58,5.26,3.53,7.99-2.73,1.33-5.48,2.63-8.19,4-1.07.54-2.38.71-3.04,1.92Z"/>
  <path class="cls-4" d="M160.28,132.43c2.2-.31,4.09-1.44,6.08-2.34.87-.39,1.62-1.13,2.68-1.02.94,1.78,1.89,3.56,2.83,5.36,2.26-1.05,4.35-2.01,6.52-3.01-.93-2.11-1.81-4.08-2.68-6.05,2.45-1.78,5.25-2.78,8.05-3.81.95,1.81,1.89,3.62,2.9,5.56,2.24-1.05,4.37-2.05,6.6-3.09-1-2.2-1.9-4.17-2.8-6.15,1.99-1.39,4.09-2.56,6.45-3.17.85,1.64,1.69,3.27,2.54,4.91,2.13,4.28,4.21,8.59,6.43,12.82.79,1.49.46,2.07-.97,2.78-11.76,5.82-23.47,11.72-35.2,17.59-5.15,2.58-10.31,5.16-15.46,7.77-.65.33-1.24.78-2.05,1.3-2.22-4.37-4.45-8.78-6.7-13.18-.48-.93-.75-1.98-1.5-2.76-.52-1.2-1.05-2.41-1.57-3.61.66-1.22,1.97-1.39,3.04-1.92,2.72-1.36,5.46-2.67,8.19-4,1,1.9,2,3.8,3.03,5.74,2.22-1.1,4.34-2.14,6.5-3.2-.66-2.43-2.23-4.27-2.92-6.51Z"/>
  <path class="cls-4" d="M88.01,97.21c-21.06.23-21.01-32.87-.06-32.3,20.32.55,20.55,32.08.06,32.3ZM85.32,69.65c-2.97.02-6.11,2.02-7.05,4.98-.54,1.69-.25,5.69,2.49,4.72,1.18-.42,1.11-1.86,1.75-2.71,1.17-1.53,2.27-1.84,3.69-2.9,1.06-.8,2.25-.56,1.9-2.37-.28-1.43-1.53-1.71-2.78-1.71Z"/>
  <path class="cls-4" d="M177.24,48.11c.01,5.32-9.24,4.18-7.49-1.11,1.27-3.83,7.48-3.02,7.49,1.11Z"/>
  <path class="cls-4" d="M178.56,62.86c-3.62-.05-3.56-5.7.02-5.82,3.84-.13,3.85,5.87-.02,5.82Z"/>
  <path class="cls-4" d="M165.69,61.52c-3.2-.05-3.44-4.88-.28-4.82,2.89.06,3.37,4.55.28,4.82Z"/>
  <path class="cls-1" d="M101.45,149.82c-1.44-2.89-2.77-5.55-4.18-8.39,4.03-1.99,7.91-3.9,11.96-5.89,1.42,2.79,2.76,5.43,4.22,8.31-4.03,2.01-7.95,3.96-11.99,5.97Z"/>
  <path class="cls-4" d="M124.13,174.13c8.61.05,8.44,13.68-.18,13.49-8.36-.19-8.16-13.54.18-13.49Z"/>
  <path class="cls-3" d="M49.6,112.87c-7.14-4.22-3.6-15.45,4.67-14.45,4.43.53,6.61,4.67,5.87,9.02-.84,4.96-4.22,5.15-8.07,6.57-.46-1.18-1.59-.88-2.46-1.13Z"/>
  <path class="cls-2" d="M49.6,112.87c.88.26,2-.05,2.46,1.13-.48.11-1,.39-1.42.28-.61-.16-1.48-.35-1.04-1.41Z"/>
  <path class="cls-4" d="M45.12,114.04c.49.07,1.21-.16,1.03.83-.63.06-.79-.44-1.01-.85l-.02.02Z"/>
  <path class="cls-2" d="M56.07,97.46c-.25-.58.06-.58.37-.15-.1.04-.2.08-.37.15Z"/>
  <path class="cls-4" d="M43.87,102.11s-.08-.03-.11-.04c.05-.03.11-.07.16-.1-.02.05-.03.09-.05.14Z"/>
  <path class="cls-2" d="M57.1,97.91c-.02-.09-.04-.18-.06-.27.2-.09.33-.04.37.14-.1.04-.2.08-.31.13Z"/>
  <path class="cls-4" d="M45.14,114.03c-.06-.05-.11-.09-.17-.14.09,0,.15.05.15.15,0,0,.02-.02.02-.02Z"/>
  <path class="cls-4" d="M44.03,99.03c.05-.05.09-.11.14-.16,0,.1-.05.15-.16.15,0,0,.02.02.02.02Z"/>
  <path class="cls-3" d="M190.45,117.89c.9,1.97,1.8,3.95,2.8,6.15-2.22,1.04-4.36,2.04-6.6,3.09-1.01-1.94-1.96-3.75-2.9-5.56-1.25-2.63-2.5-5.25-3.79-7.96,2.02-1.38,4.4-1.96,6.44-3.48,1.37,2.64,2.7,5.2,4.04,7.77Z"/>
  <path class="cls-3" d="M160.28,132.43c.69,2.24,2.25,4.09,2.92,6.51-2.16,1.06-4.28,2.11-6.5,3.2-1.03-1.95-2.03-3.84-3.03-5.74-.94-2.73-2.69-5.11-3.53-7.99,1.93-1.27,4.14-1.92,6.05-3.36,1.57,2.38,2.39,5.14,4.09,7.37Z"/>
  <path class="cls-3" d="M175.71,125.38c.87,1.97,1.75,3.94,2.68,6.05-2.17,1-4.25,1.96-6.52,3.01-.95-1.79-1.89-3.57-2.83-5.36-1.32-2.66-2.64-5.32-4.05-8.15,2.2-1.08,4.33-2.13,6.53-3.21,1.4,2.57,2.8,5.12,4.19,7.66Z"/>
  <path class="cls-3" d="M85.32,69.65c1.25.01,2.51.28,2.78,1.72.35,1.81-.84,1.57-1.9,2.37-1.41,1.06-2.52,1.37-3.69,2.9-.65.85-.58,2.29-1.75,2.71-2.74.97-3.03-3.03-2.49-4.72.94-2.96,4.08-4.96,7.05-4.98Z"/>
</svg>