<?xml version="1.0" encoding="UTF-8"?>
<svg id="Layer_1" data-name="Layer 1" xmlns="http://www.w3.org/2000/svg" viewBox="0 0 100 100">
  <defs>
    <style>
      .cls-1 {
        fill: #414042;
      }

      .cls-1, .cls-2, .cls-3, .cls-4 {
        stroke-width: 0px;
      }

      .cls-2 {
        fill: #231f20;
      }

      .cls-3 {
        fill: #a7a9ac;
      }

      .cls-4 {
        fill: #fff;
      }
    </style>
  </defs>
  <path class="cls-3" d="M.16,86.8c0,.06,0,.13,0,.19-.09,0-.18,0-.16-.12,0-.03.1-.05.15-.07Z"/>
  <path class="cls-4" d="M49.97,21.67c-14.15,0-28.31,0-42.46,0-.33,0-.66,0-.99,0-1-.05-1.77-.8-1.81-1.73-.04-1,.66-1.83,1.67-1.96.23-.03.47-.02.71-.02,28.68,0,57.37,0,86.05-.02.65,0,1.21.15,1.65.64.49.55.75,1.16.45,1.89-.29.72-.85,1.12-1.61,1.2-.28.03-.57.02-.85.02-14.27,0-28.54,0-42.81,0h0Z"/>
  <path class="cls-4" d="M33.63,91.35c-.13-1.39-.25-2.78-.39-4.16-.33-3.33-.92-6.61-1.84-9.83-.02-.09-.02-.18-.05-.46,5.35,5,11.8,6.55,18.7,6.59,6.93.05,13.39-1.47,18.69-6.47-1.36,4.77-1.95,9.62-2.26,14.52-1.41.17-2.74.7-4.13.93-.7.12-1.4.37-2.13.17,1.3-1.65,1.44-3.34.37-4.87-.46-.66-1.09-1.09-1.88-1.1-2.26-.04-4.52-.06-6.77,0-1.25.03-2.1.73-2.51,1.94-.57,1.67-.15,3.15,1.22,4.34-.2.14-.4.02-.59,0-.65-.02-1.32-.25-1.95,0-.28.11-.5.13-.7-.03-.35-.27-.75-.22-1.14-.24-.27-.01-.56.06-.77-.19.06-.08.11-.15.17-.23.95-1.33.99-2.92.12-4.26-.87-1.34-2.4-1.95-4-1.59-1.59.36-2.61,1.49-2.86,3.13-.18,1.17.33,2.11.89,3.05-.47.3-.92.05-1.38-.05-1.61-.37-3.25-.6-4.8-1.19Z"/>
  <path class="cls-4" d="M66.45,37.45c-8.57-6.14-17.76-6.71-27.41-3.09-2.02.76-3.85,1.88-5.53,3.24-.99-.75-1.85-1.61-2.43-2.73,4.06-5.26,9.43-8.36,15.93-9.18,8.87-1.12,16.16,2.04,21.87,8.94.13.16.23.35.35.53-.6.23-.87.82-1.31,1.23-.45.42-.79.99-1.47,1.07Z"/>
  <path class="cls-4" d="M31.01,68.86c-.01-.34-.22-.56-.43-.79-.65-.72-1.25-1.48-1.78-2.3-.25-.38-.21-.61.19-.86.64-.39,1.25-.84,1.95-1.31,4.79,6.47,11.43,9.06,19.15,9.1,7.74.04,14.28-2.68,19.08-9.12.82.58,1.6,1.14,2.42,1.71-.35.88-1.01,1.51-1.55,2.21-.31.41-.78.7-.94,1.22-.56.24-.91.73-1.33,1.13-2.87,2.79-6.31,4.52-10.13,5.55-3.5.94-7.07,1.1-10.64.72-3.43-.36-6.75-1.23-9.85-2.85-1.95-1.02-3.76-2.22-5.31-3.79-.24-.24-.44-.57-.83-.62Z"/>
  <path class="cls-3" d="M28.46,82.84c.29,1.11.34,2.26.54,3.37.27,1.52.44,3.05.48,4.59.04,1.63,0,3.26,0,4.96h-13.68c0-2.39,0-4.78,0-7.16,0-1.52.1-3.03.58-4.48.32-.98.56-2,1.19-2.85.41.22.57.69.94.94.28.2.26.4.12.66-.96,1.83-1.26,3.77-1.2,5.83.04,1.7.71,2.93,2.21,3.7.87.44,1.74.86,2.63,1.3.1-.2.24-.39.22-.64-.13-1.2-.07-2.41-.02-3.61.09-1.93.41-3.8,1.7-5.35.24-.29.18-.54-.05-.8-.64-.72-1.16-1.55-1.87-2.22-.22-.21-.39-.51-.09-.73.57-.41.81-1.12,1.44-1.49.97.93,2,1.79,2.87,2.8.56.66,1.29.85,1.99,1.17Z"/>
  <path class="cls-3" d="M82.39,80.95c1.81,3.05,1.97,6.42,1.88,9.84-.04,1.64,0,3.29,0,4.98h-13.64c-.11-4.44.08-8.79,1.05-13.08.98-.06,1.63-.72,2.33-1.29.78-.65,1.43-1.42,2.1-2.17.17-.19.35-.45.65-.2.54.44,1.08.9,1.66,1.4-.81.93-1.42,1.67-2.06,2.38-.59.64-.58.83-.17,1.59.66,1.2,1.18,2.45,1.36,3.84.22,1.65,0,3.3.05,4.94.01.41-.03.54.43.36.81-.33,1.59-.7,2.36-1.11.91-.48,1.66-1.09,2.06-2.09.14-.36.03-.84.47-1.06-.57-.68-.03-1.09.38-1.54.02-.02,0-.09,0-.16-.19-.05-.39-.1-.53-.14-.16-1.65-.52-3.17-1.31-4.56-.23-.4-.11-.58.16-.83.34-.31.78-.56.79-1.11Z"/>
  <path class="cls-3" d="M31.01,68.86c.39.05.59.38.83.62,1.55,1.58,3.36,2.78,5.31,3.79,3.1,1.62,6.41,2.49,9.85,2.85,3.57.37,7.14.22,10.64-.72,3.82-1.03,7.26-2.76,10.13-5.55.42-.41.77-.89,1.33-1.13.02,1.02.04,2.03.05,3.05,0,.11-.02.3-.08.32-.64.2-.86.89-1.38,1.23-.54.35-.86.93-1.38,1.33-4.67,3.61-10.03,5.04-15.83,5.09-2.41.02-4.79-.27-7.12-.86-2.41-.61-4.8-1.28-6.95-2.56-1.97-1.17-3.73-2.61-5.27-4.32-.12-.13-.18-.27-.17-.45.04-.9-.08-1.8.05-2.69Z"/>
  <path class="cls-4" d="M34.58,41.41c.47-.58,1.09-.98,1.69-1.38,7.59-5.01,18.81-5.67,27.25-.2.77.5,1.49,1.07,2.14,1.72-.53.46-1.14.85-1.31,1.6-.22,0-.4-.12-.58-.23-5.08-2.95-10.54-4.26-16.4-3.77-.94.08-1.86.29-2.79.44-.15.03-.3.11-.44.26.35.03.71.03,1.05.1.73.15,1.35.78,1.36,1.35.01.64-.49,1.18-1.31,1.37-2.52.6-4.61,1.84-6.14,3.99-.6.84-1.45.97-2.21.42-.76-.55-.92-1.51-.34-2.32.39-.53.85-1.01,1.29-1.5.41-.46.87-.86,1.19-1.39.04-.04.11-.1.1-.12-.06-.09-.13-.05-.21-.01-1.13.32-2.15.9-3.18,1.46-.16-.76-.77-1.22-1.19-1.8Z"/>
  <path class="cls-4" d="M80.61,6.67c2.69,0,5.38,0,8.06,0,1.62,0,2.77,1.16,2.76,2.77-.01,1.53-1.14,2.62-2.74,2.62-5.4,0-10.8,0-16.2,0-1.31,0-2.24-.69-2.61-1.88-.35-1.13.09-2.4,1.06-3.08.39-.28.82-.43,1.32-.43,2.78.01,5.56,0,8.35,0Z"/>
  <path class="cls-4" d="M82.39,80.95c0,.55-.45.8-.79,1.11-.28.25-.4.42-.16.83.8,1.38,1.15,2.91,1.31,4.56.14.04.33.09.53.14,0,.07.02.13,0,.16-.41.44-.94.85-.38,1.54-.44.22-.33.7-.47,1.06-.4,1-1.15,1.6-2.06,2.09-.77.41-1.55.79-2.36,1.11-.45.18-.41.06-.43-.36-.05-1.65.16-3.29-.05-4.94-.18-1.39-.71-2.64-1.36-3.84-.41-.76-.42-.95.17-1.59.65-.71,1.26-1.45,2.06-2.38-.59-.5-1.12-.95-1.66-1.4-.3-.24-.48.02-.65.2-.67.75-1.32,1.53-2.1,2.17-.7.58-1.35,1.24-2.33,1.29.47-2.12,1.11-4.2,1.8-6.25.32-.96.6-1.94,1.16-2.9,3.18,1.87,5.86,4.21,7.75,7.41Z"/>
  <path class="cls-4" d="M28.46,82.84c-.7-.32-1.43-.51-1.99-1.17-.87-1.01-1.9-1.87-2.87-2.8-.62.37-.86,1.08-1.44,1.49-.3.21-.13.51.09.73.71.67,1.23,1.49,1.87,2.22.23.26.29.51.05.8-1.28,1.55-1.61,3.42-1.7,5.35-.05,1.2-.11,2.41.02,3.61.03.25-.11.44-.22.64-.89-.44-1.77-.85-2.63-1.3-1.5-.77-2.17-2-2.21-3.7-.05-2.05.25-4,1.2-5.83.14-.26.16-.46-.12-.66-.36-.26-.53-.73-.94-.94,1.28-2.37,3.07-4.28,5.19-5.9.84-.64,1.7-1.25,2.67-1.82,1.43,2.99,2.37,6.08,3.01,9.28Z"/>
  <path class="cls-4" d="M89.62,40.62c-.09,0-.19-.02-.28-.03-2.37-.16-2.09-.39-3.26,1.58-.57.97-1.39,1-1.89,0-.76-1.51-1.81-2.07-3.42-1.53-.44.15-.89.07-1.22-.34-.33-.42-.23-.84-.03-1.27,0-.02.02-.05.03-.07,1.02-1.6,1.1-3.14,0-4.8-.65-.99-.07-1.8,1.11-1.83,2.35-.06,2.09.38,3.46-1.91.63-1.06,1.29-1.05,1.96,0,1.32,2.09.88,1.9,3.47,1.91,1.16,0,1.61.69,1.14,1.77-.24.56-.51,1.12-.8,1.66-.28.53-.26,1.03.01,1.56.29.57.56,1.15.8,1.74.4.99-.03,1.6-1.07,1.56Z"/>
  <path class="cls-3" d="M33.63,91.35c1.55.59,3.19.82,4.8,1.19.46.11.9.36,1.37.05,0,.03-.03.04-.06.04.02.05.03.13.06.15.09.05.15-.01.19-.1,1.98,1.48,3.72,1.42,5.49-.19.21.25.5.18.77.19.39.02.79-.03,1.14.24.2.15.42.14.7.03.63-.25,1.3-.03,1.95,0,.2,0,.4.13.59,0,.64.38,1.33.56,2.07.57,1.31.01,2.62-.03,3.92.02,1.29.04,2.54.02,3.58-.88.73.2,1.42-.06,2.13-.17,1.4-.23,2.72-.76,4.13-.93.32.47-.11.92-.05,1.41.09.91.15,1.84.03,2.83h-32.79c.02-1.47-.16-2.94-.03-4.41Z"/>
  <path class="cls-4" d="M37.21,51.59c-.33,2.2-.21,4.39.63,6.52.87,2.22,2.29,4,4.14,5.47.31.25.64.48.88.82.35.51.34,1.03-.03,1.52-.34.45-.8.63-1.37.46-.37-.11-.7-.3-.99-.52-4.71-3.58-6.89-8.26-6.11-14.22.04-.32.13-.65.25-.96.3-.77.83-1.12,1.5-1,.63.11,1.08.69,1.11,1.45,0,.14,0,.28,0,.47Z"/>
  <path class="cls-4" d="M85.12,69.03c-.32,0-.49-.31-.6-.62-.22-.65-.4-1.31-.58-1.97-.28-.98-.93-1.55-1.9-1.8-.64-.16-1.28-.33-1.91-.52-.3-.09-.59-.24-.6-.61,0-.35.21-.59.5-.71.5-.21,1-.43,1.53-.53,1.49-.28,2.3-1.17,2.56-2.64.08-.44.22-.87.37-1.29.14-.38.31-.79.81-.76.46.03.58.42.7.79.2.63.41,1.26.57,1.9.24.97.8,1.56,1.77,1.81.61.16,1.21.39,1.8.62.33.13.68.29.68.72,0,.45-.36.66-.72.77-.61.19-1.22.36-1.84.49-.93.2-1.49.74-1.73,1.66-.18.69-.38,1.37-.59,2.05-.11.36-.31.64-.82.65Z"/>
  <path class="cls-4" d="M20.41,63.5c-.02.36-.28.59-.64.69-.7.2-1.41.39-2.12.55-.77.17-1.24.64-1.45,1.39-.19.68-.37,1.37-.54,2.06-.1.41-.25.79-.74.82-.51.03-.69-.36-.81-.75-.17-.52-.3-1.04-.43-1.57-.27-1.08-.89-1.8-2-2.07-.62-.15-1.23-.34-1.83-.52-.3-.09-.57-.23-.6-.61-.02-.38.22-.58.51-.69.77-.29,1.54-.58,2.33-.82.74-.23,1.21-.69,1.41-1.45.19-.73.39-1.47.62-2.18.13-.4.31-.85.85-.81.5.03.58.48.7.87.23.77.45,1.54.68,2.31.17.59.57.96,1.14,1.16.76.27,1.51.53,2.26.81.35.13.62.35.67.81Z"/>
  <path class="cls-4" d="M28.26,9.32c-.01,1.77-1.63,3.36-3.39,3.33-1.68-.03-3.27-1.64-3.27-3.31,0-1.84,1.55-3.38,3.4-3.38,1.75,0,3.27,1.56,3.25,3.35Z"/>
  <path class="cls-4" d="M37.79,12.64c-1.77,0-3.29-1.53-3.3-3.31,0-1.86,1.46-3.34,3.31-3.36,1.79-.01,3.32,1.55,3.31,3.38-.02,1.79-1.52,3.28-3.32,3.28Z"/>
  <path class="cls-4" d="M15.51,9.36c0,1.75-1.54,3.26-3.35,3.27-1.76.02-3.29-1.56-3.26-3.34.03-1.73,1.63-3.3,3.36-3.3,1.75,0,3.25,1.56,3.24,3.37Z"/>
  <path class="cls-4" d="M26.32,54.77c-.01-2.06-.03-4.12-.04-6.18,0-.24,0-.46.18-.66.9-.97,1.93-1.79,2.93-2.63.23.2.14.4.14.57,0,2.61,0,5.22-.02,7.82,0,.84-.23,1.68-.08,2.53-.64-.02-1.06-.46-1.54-.79-.48-.33-.92-.75-1.57-.65Z"/>
  <path class="cls-4" d="M70.63,55.91v-10.72c1.16.89,2.14,1.74,3.06,2.65.15.14.17.32.17.52,0,1.87,0,3.75.02,5.62,0,.2-.1.35-.15.53-1.02.51-2.02,1.04-3.11,1.4Z"/>
  <path class="cls-4" d="M10.15,41.56c-.5-.55-.86-.95-1.27-1.4,1.67-2.68,3.65-5.13,5.4-7.76.41.22.53.57.81.85-.84,1.13-1.05,2.34-.42,3.39-1.53,1.66-3,3.26-4.53,4.92Z"/>
  <path class="cls-3" d="M66.45,37.45c.69-.09,1.02-.66,1.47-1.07.44-.41.71-1,1.31-1.23,1.12,1.32,1.92,2.83,2.63,4.4.27.6.46,1.23.64,1.86.13.45,0,.6-.49.66-1.02.11-1.66-.22-2.18-1.17-.79-1.45-2.21-2.35-3.38-3.45Z"/>
  <path class="cls-4" d="M11.48,42.66c1.15-1.16,2.28-2.3,3.41-3.43.13-.13.3-.24.41-.39.36-.48.76-.65,1.39-.45.56.18,1.19.1,1.73-.15.55-.25.88-.09,1.15.52-2.21,1.77-4.45,3.56-6.71,5.38-.48-.51-.91-.97-1.38-1.47Z"/>
  <path class="cls-3" d="M31.08,34.86c.58,1.12,1.44,1.98,2.43,2.73-1.25,1.03-2.47,2.09-3.38,3.46-.73,1.09-1.03,1.21-2.52.89.56-2.66,1.87-4.94,3.47-7.08Z"/>
  <path class="cls-4" d="M20.01,28.75c1.53-.63,2.96-1.23,4.4-1.8.5-.2.68.13.73.57.07.69-.07,1.37-.21,2.04-.2,1.02-.48,2.02-.86,3.1-1.55-1.06-2.66-2.53-4.06-3.91Z"/>
  <path class="cls-4" d="M22.82,34.47c-.52.82-1.13,1.76-1.74,2.73-.59-.38-.83-.75-.62-1.5.48-1.74-.98-3.49-3.02-3.59-.72-.04-1.12-.29-1.44-.97.68-.4,1.39-.81,2.09-1.22.23-.13.39-.03.55.14,1.36,1.44,2.72,2.88,4.17,4.42Z"/>
  <path class="cls-3" d="M70.63,55.91c1.08-.36,2.09-.89,3.11-1.4.18.07.13.22.13.36.03.73-.14,1.46-.03,2.2.13.81-.12,1.43-.82,1.93-.79.56-1.51,1.22-2.39,1.96v-5.04Z"/>
  <path class="cls-3" d="M26.32,54.77c.65-.1,1.1.32,1.57.65.48.33.9.78,1.54.79.2,1.48,0,2.96.07,4.59-1.06-.7-1.84-1.5-2.72-2.18-.53-.41-.52-.91-.5-1.47.03-.8.03-1.6.04-2.4Z"/>
  <path class="cls-4" d="M88.27,51.11c.06.45-.27.6-.59.63-.81.09-1.25.55-1.47,1.31-.09.32-.23.65-.65.63-.38-.02-.49-.33-.58-.62-.23-.71-.67-1.15-1.43-1.27-.3-.05-.7-.13-.7-.57,0-.42.28-.61.66-.7.72-.18,1.29-.53,1.48-1.33.07-.3.23-.6.6-.61.36,0,.55.26.62.58.18.78.67,1.19,1.45,1.32.32.05.65.19.62.64Z"/>
  <path class="cls-4" d="M93.12,77.6c.29.05.48.26.54.56.14.76.56,1.21,1.3,1.41.36.1.77.26.73.73-.04.46-.44.57-.83.63-.67.1-1.05.47-1.18,1.13-.07.34-.21.64-.62.66-.38.01-.53-.28-.63-.57-.24-.72-.69-1.16-1.46-1.25-.32-.04-.61-.18-.64-.55-.03-.36.21-.63.5-.7.93-.23,1.53-.76,1.75-1.71.05-.21.25-.33.52-.32Z"/>
  <path class="cls-4" d="M9.44,80.19c-.02.44-.23.66-.56.7-.81.11-1.34.51-1.54,1.33-.06.26-.23.48-.53.5-.34.02-.54-.21-.61-.49-.2-.81-.7-1.24-1.52-1.35-.29-.04-.51-.24-.53-.57-.02-.33.19-.52.45-.65.08-.04.17-.08.26-.1.72-.14,1.17-.54,1.31-1.29.06-.3.17-.6.58-.61.39,0,.53.26.62.57.22.7.57,1.21,1.39,1.32.35.04.62.33.67.66Z"/>
  <path class="cls-4" d="M14.21,48.55c.31.08.51.29.57.58.17.8.69,1.2,1.44,1.37.34.08.66.22.67.61,0,.44-.38.62-.71.66-.77.09-1.14.56-1.36,1.24-.11.34-.22.69-.69.66-.47-.02-.45-.42-.55-.71-.23-.66-.66-1.07-1.36-1.19-.34-.06-.76-.12-.76-.58,0-.42.35-.59.7-.68.8-.2,1.33-.66,1.51-1.49.06-.27.26-.44.54-.47Z"/>
  <path class="cls-4" d="M47.26,48.46c0,1.02-.83,1.85-1.84,1.87-.96.02-1.86-.87-1.87-1.86-.02-1.01.83-1.94,1.77-1.95,1.04-.01,1.94.89,1.94,1.94Z"/>
  <path class="cls-4" d="M9.23,74.12c.05-.84.81-1.56,1.57-1.49.79.07,1.46.81,1.43,1.57-.04.83-.83,1.58-1.64,1.52-.79-.05-1.41-.79-1.36-1.6Z"/>
  <path class="cls-4" d="M92,74.19c-.02.82-.75,1.54-1.56,1.52-.8-.02-1.46-.71-1.44-1.53.02-.83.75-1.55,1.55-1.53.79.03,1.47.75,1.46,1.54Z"/>
  <path class="cls-3" d="M34.58,41.41c.42.58,1.03,1.04,1.19,1.8-.99.81-2.03,1.54-2.98,2.47-.44-1.86.18-3.3,1.79-4.26Z"/>
  <path class="cls-3" d="M64.35,43.15c.17-.75.78-1.14,1.31-1.6.61.41,1.07.98,1.51,1.55.54.69.22,1.55.36,2.54-1.16-.91-2.17-1.7-3.18-2.49Z"/>
  <path class="cls-4" d="M17.29,36.7c-.6,0-1.23-.73-1.22-1.41,0-.78.61-1.45,1.33-1.47.75-.02,1.41.68,1.39,1.47-.02.75-.71,1.41-1.49,1.4Z"/>
  <path class="cls-1" d="M60.21,92.63c-1.05.9-2.3.92-3.58.88-1.31-.04-2.62,0-3.92-.02-.74,0-1.43-.19-2.07-.57-1.37-1.19-1.78-2.67-1.22-4.34.41-1.2,1.26-1.91,2.51-1.94,2.26-.05,4.52-.03,6.77,0,.79.01,1.42.45,1.88,1.1,1.06,1.52.93,3.21-.37,4.87ZM55.2,91.12h0c.8,0,1.6,0,2.41-.01.66-.01,1.17-.52,1.17-1.09,0-.5-.49-.92-1.14-.93-1.6-.01-3.21,0-4.81.01-.66,0-1.08.46-1.05,1.08.03.59.41.93,1.09.94.78.01,1.56,0,2.33,0Z"/>
  <path class="cls-1" d="M45.48,92.49c-1.76,1.61-3.5,1.67-5.49.19-.08-.05-.14-.17-.25-.05.03,0,.05,0,.06-.04-.56-.94-1.07-1.88-.89-3.05.25-1.64,1.27-2.77,2.86-3.13,1.59-.36,3.13.25,4,1.59.87,1.34.83,2.93-.12,4.26-.05.08-.11.15-.17.23Z"/>
  <path class="cls-2" d="M38.94,41.75c.07-.03.15-.08.21.01,0,.01-.07.08-.1.12-.03-.04-.07-.09-.1-.13Z"/>
  <path class="cls-4" d="M39.74,92.63c.11-.12.18,0,.25.05-.04.09-.1.15-.19.1-.04-.02-.04-.1-.06-.15Z"/>
  <path class="cls-4" d="M55.2,91.12c-.78,0-1.56,0-2.33,0-.68,0-1.07-.35-1.09-.94-.03-.61.39-1.07,1.05-1.08,1.6-.02,3.21-.02,4.81-.01.65,0,1.13.42,1.14.93,0,.57-.51,1.08-1.17,1.09-.8.02-1.6,0-2.41,0h0Z"/>
  <path class="cls-1" d="M.1,86.79C.28,61.44-.03,36.12.19,10.76c-.04-2.93,1.05-5.91,3.23-7.86C5.45.95,8.32.02,11.14.08c26.85.23,53.7-.46,80.52.26,4.83.85,8.26,5.24,8.13,10.11.24,26.93.35,53.94-.05,80.89-.85,5.26-5.82,8.93-11.05,8.61-26.5-.11-52.96.26-79.46-.13-6.21-.69-9.77-6.9-9.14-12.93v-.1ZM70.63,56.2c0,1.22-.02,2.55.01,3.86.03.32.03.73.32.86.6.1,2.15-1.39,2.52-2.21.39-.86.37-1.93.36-2.87-.01-1.81.1-3.55.04-5.36.08-1.89-.23-3.49-1.72-4.6-.35-.3-.89-.84-1.28-.64-.35.21-.25,1.42-.26,2.37,0,2.79,0,5.74,0,8.49v.1ZM26.29,55.05c-.02,1.15-.12,2.44.28,3.44.2.72,2.8,3.62,2.89,1.56-.03-4.54.23-9.08.05-13.54-.04-.43-.03-1.14-.46-1.23-.39-.07-1.17.72-1.75,1.35-.98,1.05-1.08,2.44-1.05,3.86.02,1.5.11,2.93.04,4.46v.11ZM35.69,43.32c1.39-.96,3.87-2.03,1.74.39-.63.76-1.2,1.6-1,2.54.2.92,1.21,1.31,2.03.81,1.32-.85,2.26-2.34,3.71-3.06,1.81-1.14,5.99-1.69,2.88-4.15-.09-.16.08-.27.48-.38,5.9-1.41,12.13.28,17.53,3,1.34.62,2.47,1.64,3.68,2.44,1.41.64.75-1.42.15-2.2-8.28-9.1-23.94-8.78-32.62-1.2-.86.71-1.96,2.41-1.53,3.36.07.13.19.19.34.19.63-.01,1.76-1.22,2.54-1.67l.08-.05ZM82.34,80.78c-1.47-2.59-3.58-4.73-5.99-6.44-.49-.34-1.15-.74-1.7-.42-.39.22-.67.83-.85,1.3-2.26,5.92-3.24,12.23-3.23,18.6,0,.51.04,1.13.28,1.53.29.51.91.65,1.49.67,3.34.02,6.72,0,10.08,0,1.25.04,1.86-.66,1.82-1.9.04-4.54.44-9.25-1.86-13.26l-.05-.09ZM17.57,81.18c-2.25,4.06-1.83,9-1.68,13.59.11.94.92,1.26,1.77,1.24,3.38,0,6.77.01,10.11,0,.58-.02,1.2-.16,1.49-.67.24-.39.27-1.02.27-1.52-.02-6.36-.91-12.69-3.22-18.59-.18-.47-.47-1.08-.86-1.3-.55-.32-1.2.09-1.68.42-2.5,1.78-4.68,4.03-6.14,6.75l-.05.08ZM30.3,68.84c.25,1.01.14,2.18.66,3.12.95,1.65,2.61,2.76,4.12,3.86,9.54,5.82,23.01,5.94,31.82-1.32.94-.88,1.95-1.67,2.42-2.85.41-1.01.2-2.31.68-3.35.43-1.22,1.92-2.19,1.42-3.44-.78-1.54-2.31-1.07-3.18.1-9.41,10.72-27.62,10.36-36.81-.47-.96-1.12-2.84-.51-2.79.96.1,1.05,1.41,2.12,1.65,3.3l.02.09ZM69.44,35.02c-10.15-14.88-35.67-11.77-41.59,5.28-.18.65-.13,1.22.16,1.48.71.59,1.89-.7,2.4-1.33,9.68-10.95,29.45-11.25,39.12-.09.67.79,2.14,2.22,2.91,1.38.78-1.21-1.81-5.03-2.95-6.64l-.05-.07ZM33.25,91.55c.14,2.21-.6,4.77,2.45,4.55,9.8-.02,19.55.03,29.29-.02.87-.04,1.56-.37,1.73-1.26.2-5.38.55-10.8,1.84-16.06.1-.4.25-1.07.09-1.33-.12-.17-.44-.04-.89.27-9.91,7.7-24.83,7.72-34.92.25-1.03-.78-1.81-1.3-1.4.49.92,4.25,1.61,8.64,1.8,13v.1ZM49.97,21.68c14.14,0,28.31.02,42.46-.01,1.34.05,3.27-.64,2.85-2.25-.41-1.42-2.33-1.54-3.66-1.52-28.23.07-56.45-.11-84.68.08-.98.11-1.86.56-2.13,1.33-.59,2.07,2.19,2.45,3.71,2.35,13.78.02,27.58,0,41.36,0h.09ZM80.66,6.68c-5.59-.02-11.16-1.17-10.85,3.01.13,1.75,1.98,2.44,3.54,2.38,4.58.02,9.13,0,13.7,0,1.18,0,2.61.02,3.53-.79,1.2-1.04,1.06-3.2-.32-4.05-1.16-.71-2.67-.54-4-.57-1.86,0-3.8-.01-5.6.02h0ZM89.83,40.69c2.34-.46-.11-3.05.36-4.69.14-1.03,1.06-2.19.52-3.2-.85-1.14-2.91-.34-3.72-1.51-.56-.58-1.02-1.62-1.9-1.69-1.16.1-1.67,1.96-2.66,2.26-.69.27-1.59.18-2.3.47-1.81.73-.05,2.78-.14,4.11.23,1.34-1.57,3.44.1,4.21.97.31,2.25-.03,3.07.76.74.56,1.48,1.99,2.54,1.28.19-.12.51-.44.61-.57,1.05-1.47,1.83-1.26,3.44-1.41l.09-.02ZM37.06,51.27c-.05-1.55-1.51-2.24-2.35-.88-2.17,5.74,1.26,13,6.4,15.86.93.44,2.12-.13,1.86-1.23-.22-.87-1.1-1.47-1.73-2.07-3.31-2.91-4.53-7.32-4.17-11.58v-.1ZM85.18,69.05c.37.02.64-.3.82-.61.59-1.09.74-2.76,2.01-3.37.68-.4,1.59-.49,2.25-.9,1.9-1.52-1.91-2-2.62-2.83-.88-.73-1.03-2.05-1.53-3.03-1.04-1.86-1.86.39-2.21,1.43-.52,1.31-1.27,1.91-2.58,2.44-.62.31-1.69.6-1.84,1.34-.01.86,2.95,1.15,3.85,2.4.85.82.67,2.66,1.81,3.12h.06ZM20.43,63.45c-.02-.62-.83-.99-1.39-1.22-.78-.31-1.62-.6-2.15-1.27-.8-.88-.7-2.47-1.6-3.28-.44-.31-.86-.07-1.16.42-.57.99-.6,2.36-1.51,3.15-.64.88-4.06,1.14-3.2,2.61.86.87,2.35.77,3.24,1.72.62.59.89,1.45,1.16,2.24.19.53.52,1.21,1.08,1.2.55-.04.87-.75,1.03-1.27.26-.82.47-1.74,1.16-2.3.67-.6,1.78-.74,2.6-1.13.34-.16.7-.42.73-.81v-.06ZM28.26,9.27c-.03-4.51-7.19-4.17-6.62.51.54,3.88,6.55,3.6,6.62-.41v-.11ZM37.84,12.64c4.45-.05,4.16-7.16-.48-6.64-3.93.43-3.62,6.61.37,6.64h.1ZM15.51,9.3c-.04-4.47-6.98-4.18-6.59.44.35,3.91,6.58,3.63,6.59-.33v-.11ZM9.91,41.56c.33-.01.62-.25.87-.49,1.2-1.36,2.66-2.6,3.69-4.1.3-.57.21-1.21.2-1.83-.03-.82.51-1.64.36-2.37-.19-.78-1.01-.18-1.29.27-1.49,2.09-3.09,4.14-4.52,6.27-.63.79-.44,2.09.61,2.24h.07ZM11.46,42.92c.02.4.61,1.04,1.1,1.11.38.06.74-.15,1.05-.39,1.83-1.46,3.66-2.91,5.45-4.35.28-.25.66-.69.4-1.03-.44-.41-1.23-.09-1.91-.07-.55.05-1.05-.04-1.57.14-1.3.46-2.9,2.58-4.1,3.79-.2.21-.42.47-.42.74v.06ZM20.12,28.82c0,.17.15.36.28.51.99,1.04,1.93,2.12,3.01,2.99.43.36.81.33.96-.3.18-.63.4-1.44.58-2.12.81-3.11.53-3.56-2.5-2.33-.65.27-1.4.59-1.96.85-.19.1-.33.21-.36.35v.05ZM22.81,34.57c-.11-.58-.67-1.02-1.08-1.46-.54-.56-1.08-1.12-1.62-1.69-1.37-1.52-2.14-2.23-3.82-.81-1.15,1.33,1.67,1.4,2.39,1.86.66.31,1.21.81,1.55,1.46.53.85.17,1.96.47,2.85.56,1.3,2.24-1.55,2.12-2.13v-.08ZM88.3,51.07c-.04-.41-.5-.6-.83-.76-.42-.19-.79-.51-1.01-.92-.74-1.37-1.25-.82-1.83.2-.38.6-1.28.72-1.66,1.27-.15.25-.13.54.11.74.58.39,1.37.62,1.67,1.31.53,1.03,1.18.99,1.68-.03.18-.34.46-.67.82-.86.37-.23,1-.38,1.05-.88v-.07ZM93.1,77.58c-.64-.03-.9,1.2-1.51,1.54-.33.26-.75.41-1.05.7-.63.64.31,1.1.83,1.33.77.29.91,1.46,1.7,1.54.36-.02.56-.33.76-.68.21-.44.58-.8,1.04-.99,1.62-.73.54-1.31-.42-1.91-.6-.45-.67-1.33-1.28-1.53h-.06ZM9.45,80.17c-.19-.81-1.22-.75-1.68-1.5-.42-.67-1-1.62-1.61-.51-.1.17-.19.35-.31.51-.42.71-1.6.74-1.68,1.6.06.76,1.11.77,1.53,1.33.35.35.56,1.07,1.11,1.09.36-.05.58-.47.78-.75.25-.39.6-.66.98-.82.44-.21.87-.43.88-.89v-.07ZM14.18,48.56c-.36,0-.61.48-.88.92-.21.34-.52.63-.88.81-.35.18-1.18.53-.92,1.09.1.24.4.4.72.54.61.2,1.07.74,1.36,1.31.17.3.48.58.82.4.49-.23.64-1.06,1.21-1.44.4-.33,1.17-.45,1.26-1.03-.03-.55-.74-.73-1.13-1.01-.74-.38-.76-1.36-1.49-1.59h-.06ZM47.26,48.42c.03-2.16-3.37-2.56-3.69-.27-.39,2.55,3.6,2.94,3.69.37v-.1ZM9.22,74.17c-.11,1.79,2.66,2.08,2.98.24.33-2.04-2.81-2.4-2.98-.34v.1ZM92.01,74.14c.02-1.73-2.72-2-2.98-.18-.33,2.09,2.87,2.31,2.98.28v-.1ZM17.34,36.7c1.64.04,1.94-2.64.26-2.87-1.74-.3-2.06,2.69-.36,2.86h.09Z"/>
</svg>