<?xml version="1.0" encoding="UTF-8"?><svg id="Layer_1" xmlns="http://www.w3.org/2000/svg" viewBox="0 0 200 100"><defs><style>.cls-1,.cls-2{fill:none;}.cls-2{stroke:#414141;stroke-linecap:round;stroke-linejoin:round;stroke-width:2px;}</style></defs><rect class="cls-1" width="200" height="100"/><path class="cls-2" d="M100,58.8763h-7.2342l-.0991-.0292-1.3874-.8952-1.4865-.9758-1.5856-1.0578-1.6847-1.1408-1.7838-1.2241-1.982-1.376-2.3784-1.6677-3.4685-2.4504-4.7568-3.359-2.3784-1.6629-1.982-1.3704-.7928-.5432h0"/><path class="cls-2" d="M66.9009,41.1569l-.4955.1585-.5946.1756-.5946.1611-.5946.1481-.6937.1579-.6937.1436-.6937.1309-.7928.1357-.7928.1226-.8919.124-.8919.1112-.991.1104-1.0901.1075-1.1892.103-1.2883.0973-1.3874.0908-1.4865.0838-1.6847.081-1.7838.0726-1.982.0676-2.2793.0643-2.5766.0591-2.973.0543-3.3694.0482-3.964.0434-4.7568.0387-5.8468.0339-7.4324.0293-9.7117.0243-2.3784.0044h0"/><path class="cls-2" d="M100,58.8763h7.2342l.0991-.0292,1.3874-.8952,1.4865-.9758,1.5856-1.0578,1.6847-1.1408,1.7838-1.2241,1.982-1.376,2.3784-1.6677,3.4685-2.4504,4.7568-3.359,2.3784-1.6629,1.982-1.3704.7928-.5432h0"/><path class="cls-2" d="M133.0991,41.1569l.4955.1585.5946.1756.5946.1611.5946.1481.6937.1579.6937.1436.6937.1309.7928.1357.7928.1226.8919.124.8919.1112.991.1104,1.0901.1075,1.1892.103,1.2883.0973,1.3874.0908,1.4865.0838,1.6847.081,1.7838.0726,1.982.0676,2.2793.0643,2.5766.0591,2.973.0543,3.3694.0482,3.964.0434,4.7568.0387,5.8468.0339,7.4324.0293,9.7117.0243,2.3784.0044h0"/></svg>