<?xml version="1.0" encoding="UTF-8"?>
<svg id="Layer_1" xmlns="http://www.w3.org/2000/svg" xmlns:xlink="http://www.w3.org/1999/xlink" version="1.1" viewBox="0 0 250 100">
  <!-- Generator: Adobe Illustrator 29.5.1, SVG Export Plug-In . SVG Version: 2.1.0 Build 141)  -->
  <defs>
    <style>
      .st0, .st1 {
        fill: #414042;
      }

      .st1, .st2 {
        stroke: #414042;
        stroke-miterlimit: 10;
        stroke-width: 3px;
      }

      .st3 {
        fill: url(#radial-gradient);
      }

      .st4 {
        fill: url(#radial-gradient1);
      }

      .st2 {
        fill: none;
      }
    </style>
    <radialGradient id="radial-gradient" cx="65.07" cy="29.77" fx="65.07" fy="29.77" r="64.52" gradientUnits="userSpaceOnUse">
      <stop offset=".72" stop-color="#fff"/>
      <stop offset=".78" stop-color="#e1e1e1"/>
      <stop offset=".89" stop-color="#969697"/>
      <stop offset="1" stop-color="#4a494b"/>
    </radialGradient>
    <radialGradient id="radial-gradient1" cx="213.34" fx="213.34" xlink:href="#radial-gradient"/>
  </defs>
  <g>
    <g>
      <circle class="st3" cx="51" cy="50" r="48"/>
      <circle class="st2" cx="51" cy="50" r="48"/>
    </g>
    <ellipse class="st1" cx="64" cy="34.77" rx="7.02" ry="8.25" transform="translate(6.47 79.45) rotate(-66.35)"/>
  </g>
  <g>
    <g>
      <circle class="st4" cx="199.27" cy="50" r="48"/>
      <circle class="st2" cx="199.27" cy="50" r="48"/>
    </g>
    <circle class="st1" cx="183.34" cy="43.08" r="6.07"/>
    <ellipse class="st1" cx="196.02" cy="10.22" rx="5.29" ry="2.6" transform="translate(-.25 13.09) rotate(-3.82)"/>
    <ellipse class="st1" cx="236.64" cy="46.35" rx="3.96" ry="5.66" transform="translate(-2.6 76.51) rotate(-18.27)"/>
    <ellipse class="st1" cx="225.38" cy="19.36" rx="1.63" ry="3.41" transform="translate(64.63 178.51) rotate(-49.62)"/>
    <circle class="st1" cx="201.7" cy="63.31" r="1.63"/>
    <ellipse class="st1" cx="158.93" cy="47.16" rx="2.56" ry="1.34" transform="translate(80.15 193.03) rotate(-78.16)"/>
    <ellipse class="st1" cx="194.38" cy="85.7" rx="1.63" ry="3.79" transform="translate(56.11 246.96) rotate(-73.18)"/>
    <ellipse class="st1" cx="228.78" cy="76.69" rx="5.66" ry="2.31" transform="translate(-.29 152.5) rotate(-36.84)"/>
    <circle class="st1" cx="229.44" cy="41.44" r="1.63"/>
    <ellipse class="st1" cx="166.08" cy="23.64" rx="6.66" ry="1.9" transform="translate(37.17 130.99) rotate(-47.89)"/>
    <ellipse class="st1" cx="169.26" cy="70.73" rx="2.92" ry="5.29" transform="translate(5.73 153.86) rotate(-49.62)"/>
    <circle class="st1" cx="185.76" cy="54.06" r="1.63"/>
    <circle class="st1" cx="211.92" cy="16.7" r="1.63"/>
    <circle class="st1" cx="228.78" cy="59.48" r="1.63"/>
    <ellipse class="st1" cx="213.32" cy="36.77" rx="7.02" ry="8.25" transform="translate(94.06 217.43) rotate(-66.35)"/>
  </g>
  <g>
    <line class="st2" x1="103.81" y1="50" x2="134.03" y2="50"/>
    <polygon class="st0" points="131.62 58.23 145.87 50 131.62 41.77 131.62 58.23"/>
  </g>
</svg>