<?xml version="1.0" encoding="UTF-8"?>
<svg id="Layer_1" xmlns="http://www.w3.org/2000/svg" xmlns:xlink="http://www.w3.org/1999/xlink" version="1.1" viewBox="0 0 100 100">
  <!-- Generator: Adobe Illustrator 30.2.1, SVG Export Plug-In . SVG Version: 2.1.1 Build 1)  -->
  <defs>
    <style>
      .st0, .st1 {
        fill: none;
      }

      .st2 {
        fill: #414042;
      }

      .st2, .st1 {
        stroke: #414042;
        stroke-miterlimit: 10;
        stroke-width: 3px;
      }

      .st3 {
        fill: url(#radial-gradient);
      }
    </style>
    <radialGradient id="radial-gradient" cx="65.4074" cy="29.7661" fx="65.4074" fy="29.7661" r="64.5195" gradientTransform="translate(-1.8673 -.5208) scale(1.0104)" gradientUnits="userSpaceOnUse">
      <stop offset=".7248" stop-color="#fff"/>
      <stop offset=".777" stop-color="#e1e1e1"/>
      <stop offset=".8896" stop-color="#969697"/>
      <stop offset=".9975" stop-color="#4a494b"/>
    </radialGradient>
  </defs>
  <rect class="st0" x="-50" width="200" height="100"/>
  <g>
    <g>
      <circle class="st3" cx="50" cy="50" r="48.5"/>
      <circle class="st1" cx="50" cy="50" r="48.5"/>
    </g>
    <circle class="st2" cx="33.9075" cy="43.0057" r="6.1282"/>
    <ellipse class="st2" cx="46.7209" cy="9.8044" rx="5.3437" ry="2.6237" transform="translate(-.5496 3.1356) rotate(-3.8214)"/>
    <ellipse class="st2" cx="87.7609" cy="46.3138" rx="3.9984" ry="5.7174" transform="translate(-10.0942 29.8417) rotate(-18.2667)"/>
    <ellipse class="st2" cx="76.388" cy="19.0375" rx="1.643" ry="3.443" transform="translate(12.4008 64.8981) rotate(-49.624)"/>
    <circle class="st2" cx="52.4631" cy="63.4526" r="1.643"/>
    <ellipse class="st2" cx="9.2419" cy="47.1329" rx="2.5858" ry="1.3548" transform="translate(-38.7844 46.5048) rotate(-78.1569)"/>
    <ellipse class="st2" cx="45.0589" cy="86.0675" rx="1.6455" ry="3.8305" transform="translate(-50.3642 104.2978) rotate(-73.1825)"/>
    <ellipse class="st2" cx="79.8247" cy="76.969" rx="5.7174" ry="2.3338" transform="translate(-30.2102 63.2387) rotate(-36.8439)"/>
    <circle class="st2" cx="80.4872" cy="41.3482" r="1.643"/>
    <ellipse class="st2" cx="16.4719" cy="23.3679" rx="6.7291" ry="1.924" transform="translate(-11.909 19.9174) rotate(-47.8882)"/>
    <ellipse class="st2" cx="19.6834" cy="70.9445" rx="2.9528" ry="5.3437" transform="translate(-47.1137 39.9816) rotate(-49.624)"/>
    <circle class="st2" cx="36.3506" cy="54.1006" r="1.643"/>
    <circle class="st2" cx="62.7855" cy="16.3525" r="1.643"/>
    <circle class="st2" cx="79.8247" cy="59.5786" r="1.643"/>
    <ellipse class="st2" cx="64.2043" cy="36.635" rx="7.096" ry="8.3359" transform="translate(4.8906 80.7509) rotate(-66.35)"/>
  </g>
</svg>