<?xml version="1.0" encoding="UTF-8"?><svg id="Layer_1" xmlns="http://www.w3.org/2000/svg" xmlns:xlink="http://www.w3.org/1999/xlink" viewBox="0 0 200 100"><defs><style>.cls-1,.cls-2{fill:none;}.cls-3{fill:#414042;}.cls-3,.cls-2{stroke:#414042;stroke-miterlimit:10;stroke-width:3px;}.cls-4{fill:url(#radial-gradient);}</style><radialGradient id="radial-gradient" cx="115.1497" cy="29.7661" fx="115.1497" fy="29.7661" r="64.5195" gradientTransform="translate(-2.1278 -.5208) scale(1.0104)" gradientUnits="userSpaceOnUse"><stop offset=".7248" stop-color="#fff"/><stop offset=".777" stop-color="#e1e1e1"/><stop offset=".8896" stop-color="#969697"/><stop offset=".9975" stop-color="#4a494b"/></radialGradient></defs><rect class="cls-1" width="200" height="100"/><circle class="cls-4" cx="100" cy="50" r="48.5"/><circle class="cls-2" cx="100" cy="50" r="48.5"/><circle class="cls-3" cx="83.9075" cy="43.0057" r="6.1282"/><ellipse class="cls-3" cx="96.7209" cy="9.8044" rx="5.3437" ry="2.6237" transform="translate(-.4384 6.468) rotate(-3.8214)"/><ellipse class="cls-3" cx="137.7609" cy="46.3138" rx="3.9984" ry="5.7174" transform="translate(-7.5746 45.5138) rotate(-18.2667)"/><ellipse class="cls-3" cx="126.388" cy="19.0375" rx="1.643" ry="3.443" transform="translate(30.0107 102.9886) rotate(-49.624)"/><circle class="cls-3" cx="102.4631" cy="63.4526" r="1.643"/><ellipse class="cls-3" cx="59.2419" cy="47.1329" rx="2.5858" ry="1.3548" transform="translate(.9539 95.4405) rotate(-78.1569)"/><ellipse class="cls-3" cx="95.0589" cy="86.0675" rx="1.6455" ry="3.8305" transform="translate(-14.8304 152.1593) rotate(-73.1825)"/><ellipse class="cls-3" cx="129.8247" cy="76.969" rx="5.7174" ry="2.3338" transform="translate(-20.2238 93.2206) rotate(-36.8439)"/><circle class="cls-3" cx="130.4872" cy="41.3482" r="1.643"/><ellipse class="cls-3" cx="66.4719" cy="23.3679" rx="6.7291" ry="1.924" transform="translate(4.562 57.0093) rotate(-47.8882)"/><ellipse class="cls-3" cx="69.6834" cy="70.9445" rx="2.9528" ry="5.3437" transform="translate(-29.5037 78.0721) rotate(-49.624)"/><circle class="cls-3" cx="86.3506" cy="54.1006" r="1.643"/><circle class="cls-3" cx="112.7855" cy="16.3525" r="1.643"/><circle class="cls-3" cx="129.8247" cy="59.5786" r="1.643"/><ellipse class="cls-3" cx="114.2043" cy="36.635" rx="7.096" ry="8.3359" transform="translate(34.8332 126.5516) rotate(-66.35)"/></svg>