<?xml version="1.0" encoding="UTF-8"?>
<svg id="Layer_1" xmlns="http://www.w3.org/2000/svg" version="1.1" viewBox="0 0 850.39 850.39">
  <!-- Generator: Adobe Illustrator 29.5.1, SVG Export Plug-In . SVG Version: 2.1.0 Build 141)  -->
  <defs>
    <style>
      .st0 {
        fill: #6d6d6d;
      }

      .st1 {
        fill: #707070;
      }

      .st2 {
        fill: #6d6e71;
      }

      .st3 {
        display: none;
      }

      .st3, .st4 {
        fill: #080808;
      }

      .st5 {
        fill: #717171;
      }

      .st6 {
        fill: #6f6f6f;
      }

      .st7 {
        fill: #6e6e6e;
      }

      .st8 {
        fill: #e6e7e8;
      }

      .st9 {
        fill: none;
        stroke: #231f20;
        stroke-miterlimit: 10;
        stroke-width: 20px;
      }

      .st10 {
        fill: #939598;
      }
    </style>
  </defs>
  <g>
    <path class="st5" d="M663.11,480.32c-2.5-3.16-5.06-6.39-7.64-9.81-4.55-6-9-12.07-13.3-18.24-25.13-29.63-55.66-53.47-87.51-70.02-.36.27-.76.51-1.23.69-4.01,1.55-8.2,2.3-12.48,2.48-.99,1.01-2.43,1.59-4.19,1.24-34.88-6.86-71.38-6.71-104.64-20.39-.09-.03-.17-.06-.26-.09h0c-.36-.16-.72-.3-1.08-.45-1.8-.76-2.4-2.42-2.19-4.07-2.18-.67-2.79-2.72-2.3-4.64-58.69,5.51-111.63,31.45-152.04,70.84-.7,1.12-1.41,2.28-2.16,3.5-5.21,8.43-11.13,16.1-17.79,23.43-5.91,6.51-12.16,13.14-18.07,19.85-26.26,41.2-41.54,90.46-41.54,143.39,0,63.39,28.11,119.42,83.65,163.18,143.8,79.24,243.89,62.86,353.22,0,36.44-45.33,73.35-99.79,73.35-163.18,0-51.81-16.23-98.54-41.82-137.71Z"/>
    <path class="st4" d="M659.1,389.48l-73.25-39.63c-.52-.76,9.03-7.97,10.12-8.91,80.15-75.92,102.84-81.95-16.41-50.9,12.7-43.56,46.08-92.6,56-135.24-132.64,102.93-98.05,145.06-132.68-17.2-4.76-36.9-26.5,59.05-32.14,74.74-24.45,68.05-32.06,1.2-59.73-17.39-1.88,34.8,45.4,159.55-20.23,119.04,38.11,56.73-14.22,25.52-52.32,31.4.2,2.24-.46,4.68-1.86,7.35,19.19,7.13,37.62,15.97,56.87,22.86,9.21-1.45,18.66-2.31,28.35-2.54,2.62-2.4,6.3-3.87,9.84-3.87.2,0,.39,0,.59,0-2.89-8.48-9.73-23.19-9.87-23.34,6.09,2.55,18.5,10.26,22.89,5.25l-5.56-84.93c1.35-.06,28.18,44.09,30.63,38.27l23.57-70.89c12.71,104.09.71,69.31,72.69,16.6,0,0-34.96,74.7-34.96,74.7-1.79,6.49,49.74-9.28,51.2-8.18-40.36,42.95-57.13,30.57-10.71,56.37-56.35,10.1-57.41,11.26-4.98,26.91,24.65,11.98,45.87,27.63,63.63,45.9.71-1.67,1.68-3.17,2.87-4.37.26-.26.54-.5.81-.73-1.74-2.72-3.46-5.45-5.12-8.23-3.73-6.24-1.85-14.54,3.77-18.86-21.28-24.68-24.6-32.97,25.98-24.17Z"/>
    <path class="st9" d="M551.65,395.23c-10.88,18.01-44.1,9.65-62.53,4.6-15.92-3.65-32.19-7.6-47.35-13.52-8.69,2.01-8.88-2.74-29.15-10.09-315.99,17.09-281.15,465.54,36.17,462.38,261.75,10.01,369.99-367.71,102.86-443.37Z"/>
    <path class="st4" d="M101.6,57.54c58.41,46.62,113.23,98.06,167.44,149.14,5.05,1.98,7.42,2.84,10.77-2.54,34.65-31.96,92.79-16.78,110.23,26.14,15.89,32.77-4.3,77.32-38.99,88.11-49.19,22.43-109.89-33.86-90-84.52,2.61-11.27-11.35-19.04-18.12-26.65-47.36-46.3-98.27-91.57-140.64-142.49"/>
    <path class="st4" d="M216.62,127.89c-14.68-16.07-29.38-31.44-41.85-48.96,41.55,29.8,84.7,66.5,120.75,102.01-6.28,6.82-16.28,9.56-16.28,9.56,0,0-44.31-43.61-62.62-62.62Z"/>
    <path class="st4" d="M159.82,169.74c-6.42-9-17.61-16.9-22.05-26.15,39.95,29.28,80.18,63.4,115.69,96.13-5.84,2.11-1.05,22.31-7.71,19.37-29.3-28.89-56.98-59.92-85.92-89.35Z"/>
    <path class="st2" d="M706.93,106.96c7.1,9.1-3.86,22.18-14.2,17.94-17.14-9.13,1.19-32.63,14.2-17.94Z"/>
    <path class="st10" d="M754.02,343.89c6.64,12.21-13.17,23.76-19.43,10.46-8.49-12.17,12.37-23.99,19.43-10.46Z"/>
    <path class="st2" d="M164.31,321.47c15.02,8.55-6.08,29.18-14.2,13.45-4.88-8.9,5.62-18.41,14.2-13.45Z"/>
    <path class="st8" d="M376.48,376.41c57.86-13.14,120.48-4.27,176.32,14.24,113.92,63.13,93.31,246.08-.54,320.04-13.7,14.53-19.39-4.37-35.36-3.28-7.26.86-14.16,7.39-13.18,14.91,37.14,43.48-139.01,58.61-141.95,58.59-234.73-1.22-174.67-360.5,14.71-404.5Z"/>
    <path class="st4" d="M625.46,707.88c-3.14,1.06-6.13,1.06-8.97,0-14.63-9.12-6.13-35.25,1.19-47.02,14.75-23.73,42.7-14.04,35.96,14.29-3.12,13.1-15.66,27.97-28.18,32.73Z"/>
    <path class="st4" d="M660.33,550.44c8.84,10.08,17.68,33.31,8.09,44.65-14.94,4.4-29.07-59.19-8.09-44.65Z"/>
    <path class="st4" d="M578.02,752.38c7.79.24,10.17,6.1,7.22,12.82-3.42,7.82-21.8,16.94-27.19,7.48-5.75-10.09,10.69-20.6,19.97-20.31Z"/>
    <path class="st3" d="M532.03,713.86c-3.02-4.91-13.16.34-17.13,2.68-6.21,3.65-11.91,9.37-12.77,16.76-5.3-3.49-6.76-8.43-5.99-14.59,1.78-14.4,31.83-21.87,35.89-4.84Z"/>
    <path class="st1" d="M591.83,533.73c3.21,3.2,5.63,8.65,7.47,12.71l2.99,8.97c.95,3.25,1.45,6.49,1.49,9.72.63,4.34.39,8.82-.75,13.45l-2.99,10.46c-6.21,14.91-15.84,25.18-32.14,28.4-5.01.77-10,.77-14.95,0-4.61-.28-7.95-1.32-11.96-3.74-29.56-15.13-25.94-59.22-3.17-78.89,13.21-11.41,42.1-16.8,53.99-1.09Z"/>
    <path class="st1" d="M415.44,434.33c1.98,4.47.65,9.66-.75,14.2-2.53,6.68-6.15,11.65-10.46,17.19-1.75,2.21-3.75,4.2-5.98,5.98-6.55,6.47-17.19,12.8-26.16,14.95-7.91,2.48-16.44,3.44-24.66,2.24-3.46-.54-2.15-.47-3.88-1.29-.47-.23-4.04.16-7.33-1.7-10.52-3.59-10.77-14.23-8.46-23.53,7.39-29.68,45.96-46.52,74.22-40.19,7.13,1.6,13.66,3.44,13.47,12.14Z"/>
    <path class="st1" d="M290.62,645.1c-21.77-7.79-21.27-40.66-11.2-57.61,10.72-18.04,37.63-28.25,53.8-12.64,3.6,3.68,5.99,10.12,7.47,14.95,1.85,6.23,2.35,12.46,1.49,18.69-.41,5.62-1.9,11.1-4.48,16.44-6.19,11.73-15.02,19.6-28.4,21.68l-11.96.75c-2.42-.25-4.55-1.23-6.73-2.24Z"/>
    <path class="st3" d="M591.83,533.73c-12.37-12.33-36.53-9.31-49.87-.17-25.46,17.43-28.95,63.28-.95,80.14-25.19-10.99-37.14-41.82-30.11-67.85,6.47-23.92,28.12-38.2,52.69-32.08,11.42,2.84,21.88,10.19,28.24,19.96Z"/>
    <path class="st7" d="M443.09,636.13c1.84,3.17,2.72,4.54,3.74,8.22.88,4.98.84,9.96,0,14.95-2.42,9.32-6.96,14.86-15.7,18.69-5.05,1.96-10.36,2.33-15.7,1.49-2.96-.55-4.07-1.03-6.73-2.24-11.72-10.14-7.58-29.26,3.42-38.52,8.03-6.76,22.64-10.32,30.96-2.59Z"/>
    <path class="st1" d="M399.74,719.09c3.27,4.37,5.06,8.07,5.98,13.45.76,5.09.53,10.18-1.49,14.95-2.26,4.29-3.9,6.04-8.22,8.22-5.95,2.36-12.56,2.57-18.69.75-4.53-.71-12.13-5-15.7-8.22-13.39-23.43,18.85-45.95,38.12-29.15Z"/>
    <path class="st3" d="M416.19,434.33c-.21.65-.46.64-.75,0-.43-2.21-.65-5.23-2.7-6.64-3.93-2.71-14.53-5.13-19.32-5.35-21.25-.96-46.37,8.93-58.26,27.01-6.75,10.26-12.24,29.08,1.05,36.55-22.79-6.68-23.35-29.26-11.08-46.59,8.87-12.54,26.73-23.23,41.72-26.29,18.26-3.73,45.52-.96,49.34,21.31Z"/>
    <path class="st3" d="M333.22,574.84c-2.93-3-12.95-5.91-17.53-6.02-20.87-.49-36.78,14.28-40.55,34.26-2.78,14.7.7,35.14,15.48,42.01-4.98-.57-10.13-4.2-13.85-7.45-16.06-14.03-19.31-40.15-9.18-58.55,13.91-25.26,49.04-28.14,65.63-4.25Z"/>
    <path class="st6" d="M524.56,422.37c8.38.91,16.66,6.08,21.68,12.71,2.8,4.58,3.79,9.94,1.49,14.95-1.46,2.35-2.82,3.41-5.23,4.48-4.23,1.44-8.71,1.69-13.45.75-8.9-2.25-18.79-9.48-22.42-17.94-2-3.58-1.54-7.87.75-11.21.86-1.1.98-1.41,2.24-2.24,4.68-2.1,9.94-2.53,14.95-1.49Z"/>
    <path class="st6" d="M461.78,509.07c3.41,1.38,5.93,3.15,8.22,5.98,1.72,2.71,2.53,5.81,2.99,8.97.48,8.47-3.13,14.1-11.21,17.19-3.54,1.21-6.92,1.14-10.46,0-4.78-1.69-5.99-2.57-8.97-6.73-4.4-6.38-3.39-15.06,1.49-20.93,1.64-1.6,3.21-2.67,5.23-3.74,4.14-1.87,8.37-2.04,12.71-.75Z"/>
    <path class="st3" d="M443.09,636.13c-26.33-11.92-51.12,17.1-34.38,41.11-7.64-3.49-12.91-9.27-14.87-17.65-7.48-32.04,32.85-51.7,49.25-23.46Z"/>
    <path class="st6" d="M274.92,502.34c.61,4.49.17,9.02-.75,13.45-2.11,6.85-6.34,12.95-11.96,17.19-3.79,2.49-9.21,4.87-11.96,0-3.51-5.33-2.61-12.18-.75-17.94.23-1.18.14-2.34.55-3.5.75-2.1,7.22-11.01,9.14-12.6,6.25-5.16,13.37-5.45,15.72,3.39Z"/>
    <path class="st7" d="M292.86,722.83c.59,3.72.5,7.61-.75,11.21-6.56,11.68-21.78-2.57-26.16-9.72-2.15-5.45-3.86-11.02-.75-16.44,1.68-1.97,2.03-2.14,4.83-2.28,10.38-.51,19.78,7.7,22.82,17.23Z"/>
    <path class="st3" d="M399.74,719.09l-8.22-3.36c-16.77-4.22-33.43,7.22-31.39,25.41l1.5,7.1c-11.21-10.14-16.58-32.44.23-39.76,13.1-5.7,29.5-.58,37.89,10.61Z"/>
    <path class="st7" d="M606.78,465.72c3.01,3.98,4.22,9.34,2.99,14.2-4.75,8.09-19.27-2.01-23.48-6.79-1.32-1.5-5.23-7.16-5.67-8.9-.29-4.06.2-7.79,1.49-11.21,6.48-5.87,21.41,6.62,24.66,12.71Z"/>
    <path class="st0" d="M214.38,615.2c.71-3.33,4.37-9.19,9.2-8.23,1.45,2.24,3.59,2.28,5.33,4.54,1.4,1.82,3.87,7.39,4.16,9.67-.34,4.17-.59,8.4-.75,12.71-.57,3.04-1.32,7.3-4.48,8.97-3.96,1.59-6.63-.73-8.97-3.74-1.81-2.73-2.85-5.11-3.74-8.22-1.06-5.2-1.41-10.41-.75-15.7Z"/>
  </g>
  <ellipse class="st5" cx="1013.47" cy="627.61" rx=".69" ry=".34"/>
</svg>