<?xml version="1.0" encoding="UTF-8"?><svg id="Layer_1" xmlns="http://www.w3.org/2000/svg" xmlns:xlink="http://www.w3.org/1999/xlink" viewBox="0 0 148.2 99"><defs><style>.cls-1{fill:url(#radial-gradient-2);}.cls-2{fill:url(#radial-gradient);}.cls-3{stroke-width:.25px;}.cls-3,.cls-4{fill:none;stroke:#414042;stroke-miterlimit:10;}.cls-4{stroke-width:3px;}.cls-5{fill:#f8db94;}</style><symbol id="Brush_Stroke_3" viewBox="0 0 22.15 25.6"><path class="cls-5" d="M5.94,6.8c1.57,2,11.18,10.41,14.07,13.92.77.94,2.68,5.44,1.99,4.83C14.11,18.55,5.26,6.71,0,0l2.67,2.93c1.05,1.56,3.27,3.88,3.27,3.88Z"/></symbol><radialGradient id="radial-gradient" cx="63.57" cy="29.27" fx="63.57" fy="29.27" r="64.52" gradientUnits="userSpaceOnUse"><stop offset=".72" stop-color="#fff"/><stop offset=".78" stop-color="#e1e1e1"/><stop offset=".89" stop-color="#969697"/><stop offset="1" stop-color="#4a494b"/></radialGradient><radialGradient id="radial-gradient-2" cx="100.03" cy="16.36" fx="100.03" fy="16.36" r="6.45" xlink:href="#radial-gradient"/></defs><circle class="cls-2" cx="49.5" cy="49.5" r="48"/><circle class="cls-4" cx="49.5" cy="49.5" r="48"/><circle class="cls-1" cx="98.62" cy="18.39" r="4.8"/><circle class="cls-3" cx="98.62" cy="18.39" r="4.8"/><use width="22.15" height="25.6" transform="translate(125.97 16.93) rotate(-157.39) scale(.62 -.33) skewX(14.28)" xlink:href="#Brush_Stroke_3"/><use width="22.15" height="25.6" transform="translate(132.67 1.78) rotate(138.62) scale(.72 .35) skewX(35.53)" xlink:href="#Brush_Stroke_3"/><use width="22.15" height="25.6" transform="translate(148.2 3.44) rotate(136.77) scale(1.27 .79) skewX(20.48)" xlink:href="#Brush_Stroke_3"/></svg>