<?xml version="1.0" encoding="UTF-8"?><svg id="Layer_1" xmlns="http://www.w3.org/2000/svg" xmlns:xlink="http://www.w3.org/1999/xlink" viewBox="0 0 162.14 99"><defs><style>.cls-1{fill:url(#radial-gradient-2);}.cls-2{fill:#414042;}.cls-2,.cls-3,.cls-4,.cls-5,.cls-6{stroke-miterlimit:10;}.cls-2,.cls-3,.cls-6{stroke:#414042;}.cls-2,.cls-6{stroke-width:3px;}.cls-7{fill:url(#radial-gradient);}.cls-3{stroke-width:.25px;}.cls-3,.cls-4,.cls-5,.cls-6{fill:none;}.cls-4{stroke:#1c75bc;}.cls-5{stroke:#000;}.cls-8{fill:#f8db94;}.cls-9{fill:#1c75bc;}</style><symbol id="Brush_Stroke_3" viewBox="0 0 22.15 25.6"><path class="cls-8" d="M5.94,6.8c1.57,2,11.18,10.41,14.07,13.92.77.94,2.68,5.44,1.99,4.83C14.11,18.55,5.26,6.71,0,0l2.67,2.93c1.05,1.56,3.27,3.88,3.27,3.88Z"/></symbol><radialGradient id="radial-gradient" cx="77.51" cy="29.27" fx="77.51" fy="29.27" r="64.52" gradientUnits="userSpaceOnUse"><stop offset=".72" stop-color="#fff"/><stop offset=".78" stop-color="#e1e1e1"/><stop offset=".89" stop-color="#969697"/><stop offset="1" stop-color="#4a494b"/></radialGradient><radialGradient id="radial-gradient-2" cx="113.97" cy="16.36" fx="113.97" fy="16.36" r="6.45" xlink:href="#radial-gradient"/></defs><circle class="cls-7" cx="63.44" cy="49.5" r="48"/><circle class="cls-6" cx="63.44" cy="49.5" r="48"/><circle class="cls-1" cx="112.56" cy="18.39" r="4.8"/><circle class="cls-3" cx="112.56" cy="18.39" r="4.8"/><use width="22.15" height="25.6" transform="translate(139.9 16.93) rotate(-157.39) scale(.62 -.33) skewX(14.28)" xlink:href="#Brush_Stroke_3"/><use width="22.15" height="25.6" transform="translate(146.61 1.78) rotate(138.62) scale(.72 .35) skewX(35.53)" xlink:href="#Brush_Stroke_3"/><use width="22.15" height="25.6" transform="translate(162.14 3.44) rotate(136.77) scale(1.27 .79) skewX(20.48)" xlink:href="#Brush_Stroke_3"/><ellipse class="cls-2" cx="76.44" cy="34.27" rx="7.02" ry="8.25" transform="translate(14.38 90.54) rotate(-66.35)"/><g id="_1_cm._Tick_Group"><path id="_1_cm._Tick_no._0" class="cls-5" d="M120.05,95.69h14.17"/><path id="_1_cm._Tick_no._1" class="cls-5" d="M120.05,88.6h14.17"/><path id="_1_cm._Tick_no._2" class="cls-5" d="M120.05,81.52h14.17"/><path id="_1_cm._Tick_no._3" class="cls-5" d="M120.05,74.43h14.17"/><path id="_1_cm._Tick_no._4" class="cls-5" d="M120.05,67.34h14.17"/><path id="_1_cm._Tick_no._5" class="cls-5" d="M120.05,60.26h14.17"/><path id="_1_cm._Tick_no._6" class="cls-5" d="M120.05,53.17h14.17"/><path id="_1_cm._Tick_no._7" class="cls-5" d="M120.05,46.08h14.17"/><path id="_1_cm._Tick_no._8" class="cls-5" d="M120.05,39h14.17"/><path id="_1_cm._Tick_no._9" class="cls-5" d="M120.05,31.91h14.17"/><path id="_1_cm._Tick_no._10" class="cls-5" d="M120.05,24.82h14.17"/></g><g id="_1_2_cm._Tick_Group"><path id="_1_2_cm._Tick_no._1" class="cls-5" d="M120.05,92.15h7.09"/><path id="_1_2_cm._Tick_no._3" class="cls-5" d="M120.05,85.06h7.09"/><path id="_1_2_cm._Tick_no._5" class="cls-5" d="M120.05,77.97h7.09"/><path id="_1_2_cm._Tick_no._7" class="cls-5" d="M120.05,70.89h7.09"/><path id="_1_2_cm._Tick_no._9" class="cls-5" d="M120.05,63.8h7.09"/><path id="_1_2_cm._Tick_no._11" class="cls-5" d="M120.05,56.71h7.09"/><path id="_1_2_cm._Tick_no._13" class="cls-5" d="M120.05,49.63h7.09"/><path id="_1_2_cm._Tick_no._15" class="cls-5" d="M120.05,42.54h7.09"/><path id="_1_2_cm._Tick_no._17" class="cls-5" d="M120.05,35.45h7.09"/><path id="_1_2_cm._Tick_no._19" class="cls-5" d="M120.05,28.37h7.09"/></g><g id="_1_4_cm._Tick_Group"><path id="_1_4_cm._Tick_no._1" class="cls-5" d="M120.05,93.92h3.54"/><path id="_1_4_cm._Tick_no._3" class="cls-5" d="M120.05,90.37h3.54"/><path id="_1_4_cm._Tick_no._5" class="cls-5" d="M120.05,86.83h3.54"/><path id="_1_4_cm._Tick_no._7" class="cls-5" d="M120.05,83.29h3.54"/><path id="_1_4_cm._Tick_no._9" class="cls-5" d="M120.05,79.74h3.54"/><path id="_1_4_cm._Tick_no._11" class="cls-5" d="M120.05,76.2h3.54"/><path id="_1_4_cm._Tick_no._13" class="cls-5" d="M120.05,72.66h3.54"/><path id="_1_4_cm._Tick_no._15" class="cls-5" d="M120.05,69.11h3.54"/><path id="_1_4_cm._Tick_no._17" class="cls-5" d="M120.05,65.57h3.54"/><path id="_1_4_cm._Tick_no._19" class="cls-5" d="M120.05,62.03h3.54"/><path id="_1_4_cm._Tick_no._21" class="cls-5" d="M120.05,58.48h3.54"/><path id="_1_4_cm._Tick_no._23" class="cls-5" d="M120.05,54.94h3.54"/><path id="_1_4_cm._Tick_no._25" class="cls-5" d="M120.05,51.4h3.54"/><path id="_1_4_cm._Tick_no._27" class="cls-5" d="M120.05,47.85h3.54"/><path id="_1_4_cm._Tick_no._29" class="cls-5" d="M120.05,44.31h3.54"/><path id="_1_4_cm._Tick_no._31" class="cls-5" d="M120.05,40.77h3.54"/><path id="_1_4_cm._Tick_no._33" class="cls-5" d="M120.05,37.22h3.54"/><path id="_1_4_cm._Tick_no._35" class="cls-5" d="M120.05,33.68h3.54"/><path id="_1_4_cm._Tick_no._37" class="cls-5" d="M120.05,30.14h3.54"/><path id="_1_4_cm._Tick_no._39" class="cls-5" d="M120.05,26.59h3.54"/></g><g id="_1_8_cm._Tick_Group"><path id="_1_8_cm._Tick_no._1" class="cls-5" d="M120.05,94.8h1.77"/><path id="_1_8_cm._Tick_no._3" class="cls-5" d="M120.05,93.03h1.77"/><path id="_1_8_cm._Tick_no._5" class="cls-5" d="M120.05,91.26h1.77"/><path id="_1_8_cm._Tick_no._7" class="cls-5" d="M120.05,89.49h1.77"/><path id="_1_8_cm._Tick_no._9" class="cls-5" d="M120.05,87.72h1.77"/><path id="_1_8_cm._Tick_no._11" class="cls-5" d="M120.05,85.94h1.77"/><path id="_1_8_cm._Tick_no._13" class="cls-5" d="M120.05,84.17h1.77"/><path id="_1_8_cm._Tick_no._15" class="cls-5" d="M120.05,82.4h1.77"/><path id="_1_8_cm._Tick_no._17" class="cls-5" d="M120.05,80.63h1.77"/><path id="_1_8_cm._Tick_no._19" class="cls-5" d="M120.05,78.86h1.77"/><path id="_1_8_cm._Tick_no._21" class="cls-5" d="M120.05,77.09h1.77"/><path id="_1_8_cm._Tick_no._23" class="cls-5" d="M120.05,75.31h1.77"/><path id="_1_8_cm._Tick_no._25" class="cls-5" d="M120.05,73.54h1.77"/><path id="_1_8_cm._Tick_no._27" class="cls-5" d="M120.05,71.77h1.77"/><path id="_1_8_cm._Tick_no._29" class="cls-5" d="M120.05,70h1.77"/><path id="_1_8_cm._Tick_no._31" class="cls-5" d="M120.05,68.23h1.77"/><path id="_1_8_cm._Tick_no._33" class="cls-5" d="M120.05,66.46h1.77"/><path id="_1_8_cm._Tick_no._35" class="cls-5" d="M120.05,64.68h1.77"/><path id="_1_8_cm._Tick_no._37" class="cls-5" d="M120.05,62.91h1.77"/><path id="_1_8_cm._Tick_no._39" class="cls-5" d="M120.05,61.14h1.77"/><path id="_1_8_cm._Tick_no._41" class="cls-5" d="M120.05,59.37h1.77"/><path id="_1_8_cm._Tick_no._43" class="cls-5" d="M120.05,57.6h1.77"/><path id="_1_8_cm._Tick_no._45" class="cls-5" d="M120.05,55.83h1.77"/><path id="_1_8_cm._Tick_no._47" class="cls-5" d="M120.05,54.05h1.77"/><path id="_1_8_cm._Tick_no._49" class="cls-5" d="M120.05,52.28h1.77"/><path id="_1_8_cm._Tick_no._51" class="cls-5" d="M120.05,50.51h1.77"/><path id="_1_8_cm._Tick_no._53" class="cls-5" d="M120.05,48.74h1.77"/><path id="_1_8_cm._Tick_no._55" class="cls-5" d="M120.05,46.97h1.77"/><path id="_1_8_cm._Tick_no._57" class="cls-5" d="M120.05,45.2h1.77"/><path id="_1_8_cm._Tick_no._59" class="cls-5" d="M120.05,43.42h1.77"/><path id="_1_8_cm._Tick_no._61" class="cls-5" d="M120.05,41.65h1.77"/><path id="_1_8_cm._Tick_no._63" class="cls-5" d="M120.05,39.88h1.77"/><path id="_1_8_cm._Tick_no._65" class="cls-5" d="M120.05,38.11h1.77"/><path id="_1_8_cm._Tick_no._67" class="cls-5" d="M120.05,36.34h1.77"/><path id="_1_8_cm._Tick_no._69" class="cls-5" d="M120.05,34.57h1.77"/><path id="_1_8_cm._Tick_no._71" class="cls-5" d="M120.05,32.8h1.77"/><path id="_1_8_cm._Tick_no._73" class="cls-5" d="M120.05,31.02h1.77"/><path id="_1_8_cm._Tick_no._75" class="cls-5" d="M120.05,29.25h1.77"/><path id="_1_8_cm._Tick_no._77" class="cls-5" d="M120.05,27.48h1.77"/><path id="_1_8_cm._Tick_no._79" class="cls-5" d="M120.05,25.71h1.77"/></g><line class="cls-4" x1="89.78" y1="29.03" x2="103.89" y2="22.89"/><path class="cls-9" d="M90.6,28.67l.29-2.09h-.07s-2.23,2.23-2.23,2.23c-.85.61-1.7,1.23-2.55,1.84,1.03-.2,2.06-.4,3.09-.6l3.16-.1.04-.05-1.73-1.22Z"/><polygon class="cls-9" points="107.13 21.49 103.37 25.33 103.65 23 101.75 21.61 107.13 21.49"/><line class="cls-4" y1="8.13" x2=".17" y2="8.13"/></svg>