<?xml version="1.0" encoding="UTF-8"?><svg id="Layer_1" xmlns="http://www.w3.org/2000/svg" viewBox="0 0 164.4512 100.2456"><defs><style>.cls-1{fill:#414141;}.cls-2{fill:none;stroke:#414141;stroke-linecap:round;stroke-linejoin:round;stroke-width:2px;}</style></defs><path class="cls-1" d="M159.8652,1h-3.8052c.549,2.6286.7851,5.307.8542,7.9904-.774-.2925-.8472-1.7003-.9845-2.4394-.3389-1.8234-.4883-3.6985-.4405-5.551h-2.0928c.2489,2.2992.6131,4.532.1884,6.8473-1.7664-1.5028-1.5253-4.6878-1.9007-6.8473h-2.2831c.0243,1.6233.0084,3.244-.1832,4.8571-.0341.2875-.0076.4717-.2924.6549-1.8248-1.147-1.9177-3.5482-2.1879-5.512h-.5708c.1301,1.5815.8397,3.0686.9582,4.6532.0653.8737-.1495,5.6952-.4274,6.2425-.1187.2338-.2887.3288-.4699.3288-.2177,0-.4515-.1372-.6318-.3356-.2916-1.8233-1.582-3.9608-1.857-5.7041-.2715-1.7215.3402-3.4595.1448-5.1849h-.3805l-.4782,4.7578c-.3002-.1246-.782-.139-1.0354-.2966-.4696-.292-1.5693-3.6748-1.5305-4.4612h-.761c.5322,1.874,1.4993,3.6327,1.6926,5.5913l-.5884,6.0688c-.257.3666-.674.6294-1.0569.6294-.2831,0-.5475-.1438-.7146-.4956-.5045-1.0624-2.1584-5.2264-2.3312-6.2272-.2911-1.6864.535-3.8235.3349-5.5667h-.5707l-.4279,4.898c-.143.1233-.4401.1797-.7636.1797-.4702,0-.996-.1191-1.1848-.3249-.5291-.5766-1.3391-3.8478-1.8093-4.7528h-.5708c.3021,1.556,1.399,3.0981,1.8015,4.5691.6515,2.3811-.6866,6.1722-.6863,8.7185l-1.9513.3636c-.2559-.0475-.3353-.2902-.4489-.4802-.5037-.8434-2.9274-6.4828-3.0159-7.2719-.1862-1.6599.7262-4.1504.686-5.899h-.5708l-.5963,5.3953c-.1078.3284-.7233.4531-1.3668.4531-.599,0-1.2221-.1082-1.4814-.2607l-2.4535-5.5876h-.5708l2.6802,6.3698-1.3882,8.6141c-.1262.1763-1.2148.3267-2.0738.3267-.4442,0-.8271-.0402-.9835-.1379l-4.2186-8.3069,1.0372-6.8659h-.5708l-.9718,6.636c-.6755.0817-1.3549.1797-2.0287.1797-.6257,0-1.2466-.0846-1.8545-.3455l-3.3261-6.4702h-.5708l3.5134,7.4415-1.9754,9.7411c-.1487.2439-3.1249.6463-3.8046.6463-.0367,0-.0668-.0012-.0893-.0036-.3393-.0368-.6751-.3547-.8505-.6404l-4.9398-8.7694,1.6774-8.4155h-.5708l-1.524,7.9862c-.0095-.0001-.0192-.0002-.0294-.0002-.6901,0-2.8283.2918-4.2407.2918-.6267,0-1.1109-.0575-1.2617-.2234l-4.7402-8.0543h-.5708l5.0837,8.8088-2.8394,11.502-5.5833.7759-.9305-.5566-6.7708-10.174,2.8592-10.3561h-.761l-2.4821,10.0714-6.1534.3696-1.1131-.2208L61.3117,1h-.5708l7.2026,10.2015.2116.9025-4.0889,13.2375c-.4977.6066-6.9789.8708-8.19,1.1623l-.4231-.0594-9.5197-12.0762L50.2768,1h-.5708l-4.2304,12.8877c-.3904.4631-4.3717.3819-5.1854.4284-.8703.0497-2.5657.3142-3.8904.3142-.6359,0-1.1865-.061-1.5191-.2359-.2441-.1284-.4763-.4444-.6823-.6491-3.1694-3.1519-7.0872-8.1408-9.9815-11.7035-.2495-.3071-.5082-.6368-.5762-1.0416h-.7611l11.749,14.0061-6.1508,16.4118c-4.3687.5066-8.7563,1.3412-13.139,1.6991-.4629.0378-.93.1201-1.3903.1201-.3073,0-.6115-.0367-.9092-.1477L1,17.1671v.7608l11.3797,14.9662.4315.9128-6.0164,15.6864c-.4068.549-4.8527,1.1007-5.7947,1.1493v.5706c.0645.0075.1351.011.2115.011,1.1777,0,3.686-.8394,5.076-.8393.3414,0,.6156.0507.7858.1769l11.4302,14.0612.2964.7608-5.8063,16.3641c-.151.1943-.3619.2773-.5782.3729-2.4285,1.0734-6.6201,2.0449-9.3232,2.8526-.6781.2026-1.3755.449-2.0922.476v.5706l12.1213-3.4754,11.1436,12.6628c.2834.7007-1.1661,2.9482-1.0048,3.9365h.5708c.0415-.829.717-3.2591,1.344-3.6967l13.5992-5.0649.5733.1924c2.2901,2.2786,4.7769,4.3572,7.1269,6.5695.5881.5536,1.4292,1.2509,1.7097,1.9998h.761c-2.498-2.7223-5.4261-5.0455-8.091-7.6031-.4212-.4042-1.5691-1.3841-1.5221-1.9259l5.8002-16.6315,9.4204-3.1336c.367.0377,1.0544.8415,1.3396,1.1415,1.8866,1.9841,3.8987,4.2159,5.7077,6.2767.3816.4348,1.7511,1.8908,1.7148,2.304l-4.9557,15.3836-8.6529,4.1882h1.1415l7.6982-3.4295c1.1726.9054,2.5668,2.1367,3.3367,3.4295h.5708l-3.5404-4.0865,4.7731-15.1277.5315-.6099,7.3106-2.7736.9159.7227,6.3722,7.7081-3.9962,14.167h.5708l3.9069-13.8781,6.4711-3.0523,5.9547,7.369-2.4438,9.5614h.5708l2.3865-9.1214,5.4844-3.0253,4.8349,6.5841-1.1001,5.5625h.5708c.1756-1.1618.6145-4.4646,1.2392-5.3232.2113-.2903,4.1139-2.6687,4.3802-2.6684.0004,0,.0008,0,.0011,0,.1615.0044.2792.0581.3692.194.6962,1.6734,3.2887,4.1978,3.7606,5.7597.1799.5952-.393,1.3773-.2374,2.0379h.5708c-.4471-2.4528,2.4804-3.3268,4.0791-4.5634l2.7701,4.5634h.5708l-2.9934-5.1938,2.4619-10.839,3.2784-2.225c.3265.0707,3.0579,5.4326,3.0496,5.9183-.049,2.8799-1.8651,7.0381-2.0809,10.0626l-2.3839,2.2768h3.8052l-.8883-2.3425c.7828-1.9196,1.3469-9.2905,2.4244-10.4821.267-.2953,2.1516-1.6426,2.5247-1.6426.0069,0,.0133.0005.0192.0014l2.5765,5.258-1.7097,9.2077h.5707c-.0181-.3978-.0154-.7897.0485-1.1853.1923-1.19,1.5004-7.8223,1.9369-8.3371.226-.2667,1.7622-1.5193,2.0812-1.5192.0058,0,.0112.0004.0162.0013.2719.0462,2.1099,4.713,2.1273,5.0764.0803,1.6734-1.0456,4.1841-1.0731,5.964h.5708c.4226-1.7165.4761-4.4358,1.1273-6.0056.1617-.39,1.6716-1.985,2.0101-1.9849.3075,1.4569,1.5855,3.0955,1.7241,4.5562.094.9902-.5881,2.3732-.4856,3.4343h.5708c.0587-1.9027.3224-4.1581,2.186-5.1374.6841,1.66,1.3031,3.3333,1.4289,5.1374h.5708c-.2196-1.096.4821-2.1684,1.425-2.6648l.6678,2.6648h.5708c-.0563-1.2209-.8934-2.5149-.9114-3.7082-.0172-1.1379.9982-7.0383,1.4431-8.0275.1796-.3993.4938-.9542.7916-.9542.1374,0,.2713.1181.3868.424.2129.5635.8478,2.8992.8553,3.419.0145.9938-.8243,6.122-1.1282,7.1453-.2009.6766-.6956,1.0482-.8665,1.7015h1.5221c.1134-.599-.152-1.1907-.1383-1.7539.0306-1.2573.9169-6.9367,1.5009-7.8205.1417-.2144.3172-.509.6076-.509.0084,0,.017.0003.0256.0008.0583,1.0877.7267,2.2631.7574,3.3261.0559,1.9353-.9918,4.7196-1.0409,6.7564h.5708c.4239-2.5708.391-5.4356,1.5245-7.7978.3794.0728.3124.4003.3781.6652.65,2.6175.0526,4.5341-.1903,7.1326h.5708c.1432-1.713.0391-4.1629,1.1395-5.5156.531,1.9065.3415,3.6032.002,5.5156h5.3272c3.2551-28.2876,3.5512-56.9753.5691-85.3037-.451-4.2847-1.1152-8.5515-1.5204-12.8403h0ZM151.8725,12.412c-1.4601-.4992-1.827-3.2843-2.034-4.715-.2884-1.9932-.0201-4.292.1352-6.3166,1.4588.8503,1.812,3.3066,2.0435,4.8975.2969,2.0404.0962,4.0882-.1447,6.1341h0ZM155.6777,13.363c-.9532-.7337-1.1562-2.9052-1.3055-4.1137-.222-1.7965-.3266-3.6005-.0225-5.3963.9218.8661,1.145,2.6987,1.3069,3.9221.244,1.8436.3412,3.7449.0211,5.5879h0ZM143.8782,19.7425c-.1853,0-.3463-.0698-.4561-.3012l-2.1525-6.4144.7129-7.0827,1.3154.4916c.3709,1.8058,1.8762,4.4232,2.0233,6.1573.0832.9802-.1848,3.3749-.2975,4.4776-.0434.4244-.2506,2.4123-.4203,2.5292-.2459.0424-.503.1428-.7252.1428h0ZM149.4994,18.2935c-.1151-.108-.3454-.127-.4342-.2234-.167-.181-1.3744-4.171-1.482-4.6965-.4703-2.2968-.0178-4.8969.1066-7.2373.009-.011.0233-.0161.0421-.0161.2568,0,1.3604.9526,1.443,1.0973.2138.3744,1.0791,4.2043,1.1078,4.7493.0609,1.161-.1138,4.5141-.3523,5.6339-.0561.2633-.2088.5332-.431.6928h0ZM158.3413,13.9336c-.3798-.1063-.4149-.6177-.4833-.9414-.3612-1.7111-.532-4.1059-.6127-5.8717-.0156-.3417-.1142-.5498.2427-.7939.8014,2.422.8655,5.0675.8533,7.6071h0ZM136.7043,21.5783c-.3091,0-.5882-.0725-.7174-.2264l-2.6511-6.818,1.0317-7.7346c.1719-.1506.5907-.2211.9952-.2211.3669,0,.7221.0581.8703.1672.2523.1857,2.0832,5.2593,2.2315,5.8537.6224,2.495-.3857,5.8364-.5207,8.4255-.1356.3558-.7287.5538-1.2396.5538h0ZM126.927,23.9496c-.3029,0-.5571-.0485-.6886-.1763l-3.3393-7.4077,1.2277-8.5835c.1061-.3063.7047-.4263,1.3431-.4263.6391,0,1.3181.1203,1.5825.2945.5534,2.1575,2.7514,5.186,3.0143,7.2748.1629,1.295-.5824,5.5713-.8634,7.0616-.0694.3683-.195,1.4-.3937,1.6037-.3794.1416-1.2405.3592-1.8825.3592h0ZM154.3459,18.1181c-1.2569-.7097-1.5207-2.9446-1.6884-4.3016-.2409-1.9498-.0861-4.0164.1703-5.9691,1.166.7068,1.3287,2.6416,1.4956,3.9233.2735,2.1002.3212,4.2444.0225,6.3474h0ZM113.5257,27.187c-1.3408-2.3573-2.7899-4.7296-3.9876-7.1628-.2813-.5715-.6909-1.1365-.6688-1.7997l1.9173-9.7982c.7204-.0787,1.3915-.1315,2.0648-.1315.6164,0,1.2345.0442,1.8937.153,1.1947,2.9236,3.1019,5.5911,3.9865,8.6215l-1.7183,9.3721-3.4875.7455h0ZM96.5682,31.1838c-.0014,0-.0028,0-.0042,0-.2641-.0028-.4113-.0749-.6176-.23l-5.8676-9.1774,2.8611-11.7928c1.0409-.205,2.1173-.3398,3.185-.3398.7083,0,1.4129.0593,2.1005.1968l5.2026,9.0786.074.5738c-.9712,3.2543-1.2586,7.0813-2.2884,10.2703-.0996.3084-.1194.5326-.4651.6763-.328.1364-3.7663.7442-4.1804.7442h0ZM157.39,18.3083c-.3341-.0765-.4063-.4721-.4809-.7536-.6272-2.3655-.7982-5.3834-.4666-7.8054.6745.7141.8249,2.3332.9465,3.3314.2102,1.7261.31,3.5068.001,5.2275h0ZM72.7331,36.4726c-.0645,0-.1294-.0006-.1938-.0018l-7.96-10.5034c-.1428-.4931.2868-1.5729.4429-2.1427,1.0772-3.932,2.4772-7.8136,3.7066-11.7008,1.5112-.2401,3.0638-.4274,4.6101-.4274.9436,0,1.8851.0698,2.8129.24l6.7635,10.1682.0009,1.1581-3.385,12.1199c-2.2282.3604-4.5546,1.0899-6.7982,1.0899h0ZM152.1575,23.8377c-.135,0-.2693-.0044-.2802-.0133-.2403-.1976-1.2273-5.3095-1.4738-6.044l.3304-5.3674c1.4781.1517,1.7118,2.5098,1.8795,3.7301.1408,1.0251.3271,7.2751-.1714,7.6811-.011.009-.1481.0135-.2845.0135h0ZM147.7024,25.5917c-.16,0-.3596-.0586-.6059-.169l-1.8108-6.0989.4915-6.4058c.0375-.1654.3009-.2483.567-.2483.2189,0,.4397.0561.5381.1684.1763.1832,1.4203,4.3089,1.5224,4.8498.3617,1.9178.079,5.1685-.1639,7.1688-.0617.5076-.2231.735-.5383.735h0ZM156.2485,23.0633c-.835-.4834-.9875-2.0494-1.1176-2.9702-.3027-2.1437-.2909-4.393-.0202-6.5399.8581.7038,1.0001,2.1065,1.1377,3.1403.2799,2.1024.2363,4.272,0,6.3698h0ZM141.1679,27.9536c-.2187,0-.4042-.0759-.4846-.263l-2.2105-6.3097c.1971-.9412.5737-7.3393.881-7.6006.1025-.0871.4108-.152.7298-.152.3629,0,.7396.0841.8422.315l2.1471,6.4131-.759,6.939c-.1017.3349-.6946.6582-1.146.6582h0ZM40.5612,43.904l-.9483-.5748-10.2763-11.2221-.1772-.5575,5.9376-16.2452c2.1955-.4035,4.4785-.3181,6.7113-.4216.5329-.0247,2.0376-.2712,3.0213-.2712.3816,0,.6849.0371.8225.1386l9.0818,11.3688.4408,1.001-4.9931,14.9635-9.6205,1.8205h0ZM132.849,30.7341c-.2871,0-.5153-.0512-.5858-.1894l-2.7723-7.0334,1.2418-8.3278c.081-.1163.7832-.2161,1.39-.2161.4005,0,.7594.0435.8708.1544l2.6421,7.1132-1.066,8.1196c-.0559.0999-1.0494.3794-1.7206.3794h0ZM158.9118,23.0622c-.3862-.1705-.4417-1.0795-.5128-1.4813-.3626-2.0512-.6047-4.4517-.244-6.5049l.5664,1.9981c-.0031,1.9845.4981,4.0472.1903,5.988h0ZM121.7431,34.358c-.2093,0-.3706-.0339-.4514-.1166l-3.7668-7.6531,1.7184-9.4232c.5347-.2336,1.3448-.4905,2.0646-.4905.5374,0,1.0246.1433,1.3087.5467.435.6175,3.3091,6.9356,3.3173,7.4217l-1.5453,9.0779c-.4336.1711-1.8692.6371-2.6453.6371h0ZM154.4973,28.7904c-.1761,0-.0938-.0832-.1688-.2867-.5716-1.5506-.8502-3.5817-1.2614-5.2074l.3312-5.3683c1.2348.6702,1.3277,2.2646,1.4967,3.5422.3224,2.437.1165,4.8691-.1678,7.3-.1054.0132-.1786.0203-.2299.0203h0ZM157.9608,27.8184c-.7097-.5921-.8331-2.2043-.9473-3.1404-.2412-1.9767-.2763-4.0146-.0002-5.9883.3218.174.5966.9855.6757,1.3189.5622,2.3701.5345,5.3928.2719,7.8099h0ZM150.6878,31.0354c-.2001,0-.4107-.153-.5417-.4439-.3816-.8475-1.4382-4.6574-1.4675-5.5309-.0244-.7289.3353-5.4023.5335-5.8945.1337-.3321.2233-.4703.3743-.4703.1199,0,.2785.0871.5286.2334l1.5334,5.7484c-.4904,1.4472.0216,4.8367-.5381,6.0386-.1004.2156-.2579.3192-.4226.3192h0ZM106.8415,39.1011c-.1817,0-.3181-.0311-.39-.1052l-4.7175-8.129-.0389-.9955,2.4622-10.4851c.6782-.0501,2.1897-.4079,3.2924-.4079.5033,0,.9217.0746,1.1363.2871l4.3909,8.1676-2.2374,10.8093c-.0089-.0003-.0182-.0005-.0276-.0005-.7061,0-2.9154.8591-3.8704.8591h0ZM145.3292,33.6332c-.246,0-.5-.1724-.6942-.576-.2771-.5759-1.7985-4.9032-1.8312-5.3586-.074-1.0292.3712-4.256.5323-5.4679.0525-.3946.2121-1.8047.4052-1.9725.0856-.0744.5703-.1988.7477-.1988.015,0,.0279.0009.0381.0028.2534.0657.3414.2747.4547.478.349.6263,1.3074,3.63,1.4798,4.4158.3279,1.4945.0659,6.3634-.339,7.8588-.1341.4951-.4563.8185-.7934.8185h0ZM137.6986,36.9613c-.04,0-.0698-.0057-.0866-.0179-.6783-2.3595-2.041-4.5002-2.4415-6.9377l1.0398-7.6651c.1062-.2425.8164-.4098,1.3252-.4098.1968,0,.3635.025.4534.0804l2.433,6.6602-.961,7.374c-.0311.3867-1.3765.916-1.7622.916h0ZM86.9727,45.2227l-.5197-.409-6.4224-9.289,3.5859-12.7967c.1926-.1911,4.787-.7668,5.3783-.7668.001,0,.002,0,.0029,0,.2675.0009.5584.0969.8031.2019l5.6524,9.0899.1155.6425-2.9592,11.9003-5.6369,1.4268h0ZM156.629,33.5235l-1.3107-5.6307.3631-4.6392c.4625.1793.6114.6248.75,1.0553.9023,2.8032.4124,6.3323.1976,9.2146h0ZM159.2926,32.0019l-.5465-1.8284c-.1071-2.1227-.4423-4.2399-.0204-6.3484.0082-.0009.0161-.0013.0239-.0013.2678,0,.2462.5118.2931.7266.509,2.3305.535,5.0895.2499,7.4515h0ZM153.2986,36.1855l-.5674-1.3304c-.9611-2.9734-1.3226-6.868-.6262-9.9444.0685-.3026.2753-.7136.6302-.7136.0288,0,.0586.0027.0894.0084.1284,1.8776,1.1767,3.7773,1.2608,5.6421.0595,1.3197-.1438,3.9223-.326,5.276-.0511.3795-.1706.7921-.4608,1.0619h0ZM128.2089,40.9577l-3.2855-7.3011,1.4885-9.038,2.6046-.3862,3.0047,7.257-1.3131,8.3592c-.326.7023-1.7951.8535-2.4993,1.1091h0ZM148.3203,39.0583c-.0257,0-.046-.0058-.0594-.0183-.155-1.861-1.616-4.212-1.6781-5.9886-.046-1.3158.3636-4.8348.5892-6.2323.0719-.4453.2914-.9091.7657-.9091.0658,0,.1365.0089.2124.0281.3511.0885,1.7092,5.4082,1.8017,6.1813-.4813,1.6856-.0113,4.6914-.5871,6.2189-.0792.2101-.8029.7201-1.0444.7201h0ZM60.0993,53.254l-.5796-.3449c-2.4435-3.1613-5.337-5.9888-7.8193-9.1106-.3197-.402-1.0592-1.1698-1.0419-1.5977l5.043-14.9506c.2188-.229.6578-.3116.9669-.3648,1.5356-.2642,4.9259-.7267,6.4445-.7267.0198,0,.0394,0,.0585.0002.4245.0035.9287.0592,1.2723.3357l7.4949,10.0038.2123.9027-4.1697,13.7273-7.882,2.1254h0ZM115.8132,46.074c-.0017,0-.0033,0-.0048,0-.1969-.0054-.2413-.0639-.3682-.1825-.2017-.1885-1.7311-3.1313-2.0305-3.6801-.46-.8434-2.0127-3.4576-2.0279-4.2118l2.0888-10.0578c.2037-.3385,2.2189-.7456,3.209-.7456.2634,0,.4544.0288.5192.0955l3.8017,7.814-1.8809,9.7054c-.1477.2503-2.9445,1.2631-3.3063,1.2631h0ZM158.3413,37.3284c-.3657-.0662-.3137-.3975-.3878-.6565-.8-2.7937-.7924-5.6129-.3693-8.4729.3967.1145.4185.5856.5115.9129.2452.8629.39,2.4479.4358,3.3684.0809,1.6265-.0647,3.2351-.1902,4.8482h0ZM142.265,42.4596l-2.2748-6.1726.9755-7.668,1.5726-.4058c.246,1.6796,1.2528,3.3272,1.6364,4.9247.5969,2.4857-.4611,5.8101-.5641,8.3924l-1.3456.9293h0ZM155.4409,40.5807c-.1846,0-.0833-.0808-.1469-.2972-1.1156-3.7966-1.1788-6.3201-.7373-10.2635.0334-.2985.0872-.7045.4048-.7045.0436,0,.0922.0077.1463.0243-.0082,1.5066.8076,3.0156.9505,4.4716.2128,2.1666-.2782,4.5751-.3798,6.7509-.1094.0119-.1852.0184-.2378.0184h0ZM134.0837,46.8328l-2.8445-6.7421,1.2634-8.5289c.1074-.2751,1.5025-.6589,1.8127-.6589h.0005c.1655.0002.2225.0207.351.1261.2742.2249,2.5602,6.0535,2.5764,6.5837l-1.2025,8.1375-1.957,1.0826h0ZM98.9176,52.5564c-.0099,0-.0185-.0005-.0255-.0016-.2176-.0334-.3587-.1205-.4595-.3174l-5.2946-8.5016,2.9023-11.7264c.1463-.2275.3861-.258.6169-.3342.4797-.1584,3.5398-.7285,4.0953-.7285.0179,0,.0333.0006.0458.0018.5239.0509.7458.6114,1.0003.997,1.1433,1.7328,3.1079,4.8845,3.9458,6.7057.1739.3781.4024.7805.405,1.2097l-2.5069,11.1604c-.1439.1979-4.2256,1.535-4.7249,1.535h0ZM151.3698,43.8115c-.0293,0-.0518-.0049-.0645-.0159-.1197-1.6858-1.2776-3.6967-1.4174-5.2968-.104-1.1906.3127-4.8479.517-6.1664.0817-.5274.3225-.8966.5837-.8966.1851,0,.3803.1855.5363.6316,1.1785,3.3708,1.2894,5.8145.9181,9.3482-.0447.4253-.2237,1.9225-.4278,2.1401-.093.0992-.4793.2559-.6452.2559h0ZM19.4296,64.8094l-.8349-.659c-3.1032-4.5583-7.8246-8.8155-10.8223-13.3359-.2898-.437-.6571-.7685-.457-1.359l6.054-15.453,14.6064-1.9497c.0019,0,.0037,0,.0057,0,1.0991,0,1.9736,1.1952,2.7038,1.9421,2.6425,2.7031,5.862,6.1522,8.2736,9.0373.2932.3508.9873,1.147.9541,1.5427l-5.9989,16.6233-14.4845,3.6112h0ZM159.631,40.945c-.2272,0-.2375-.3511-.2815-.5315-.6297-2.5854-.5538-5.1988-.2434-7.8392.0082-.0009.0161-.0013.0237-.0013.2682,0,.2462.5116.2933.7266.557,2.539.3196,5.0755.2499,7.6416-.0148.0025-.0288.0037-.042.0037h0ZM146.0833,47.4043l-1.9392-5.8269.9262-7.4367c.2384-.0686.5506-.2187.8171-.2187.1447,0,.276.0443.3747.1699l1.7454,5.4484c-.513,2.045-.2016,4.8259-.7422,6.7796-.157.5674-.6014.9778-1.1819,1.0843h0ZM157.3899,44.5551c-.3213-.171-.3893-.9692-.477-1.3273-.6906-2.8213-.7033-5.9591-.2774-8.8458.0363-.2461-.037-.303.1168-.303.0536,0,.135.0069.2582.0151.676,3.4645.9916,6.9537.3794,10.4609h0ZM123.4279,52.1154c-.4073-.0325-3.5092-6.276-3.8021-7.1979l1.9004-9.8735c.4289-.1792,1.8638-.6407,2.64-.6407.21,0,.3719.0338.4525.1161l3.1882,7.0127-1.7195,9.2936-2.6595,1.2897h0ZM76.2726,61.0658l-7.5463-9.1812-.1817-.7425,4.095-13.6159c.1877-.3321.5223-.3811.8438-.4878,1.1101-.3685,4.0672-.8628,5.2914-.9913.1973-.0207.3917-.0602.5751-.0602.2262,0,.4359.06.6144.2893l6.4571,9.4898-3.5947,13.1662-6.5541,2.1337h0ZM154.1384,48.1778c-.1047,0-.2242-.1383-.3592-.4856-1.2377-3.1849-1.101-7.2646-.5202-10.6049.0302-.1738.1153-.3391.1491-.5117l.5579-.0088c.0614,1.5897.9897,3.3395,1.073,4.8813.0583,1.0778-.1853,3.5546-.3138,4.7218-.0477.4331-.2334,2.0079-.5868,2.0079h0ZM139.0288,51.9547l-2.5027-5.9957,1.1626-8.0715c.0778-.4663,1.1852-.886,1.5718-.9093.0137-.0008.0268-.0012.0394-.0012.2791,0,.3245.1954.44.4053.3047.5541,1.9527,5.0868,1.9885,5.5812.0668.9203-.71,6.4488-.9704,7.5023-.2448.9904-.9652,1.0187-1.7291,1.4888h0ZM158.9102,48.3593c-.2914,0-.265-.6694-.3136-.9179-.2423-1.2405-.4146-2.4967-.6334-3.7415l.3819-5.2292.9292,4.3001-.3622,5.5886c-.0006,0-.0013,0-.0019,0h0ZM108.9657,58.9521c-.4647-.0534-4.4319-7.0018-4.7825-7.9892l2.502-11.1649c.111-.1664,3.5252-1.0963,3.8484-1.0963h.0003c.403.0006.6573.4798.8526.7774.9442,1.4382,2.6953,4.5844,3.3664,6.1432.1746.4055.3145.8352.3338,1.2799l-2.1236,10.3938-3.9974,1.6561h0ZM149.3542,51.9854c-.046,0-.0933-.0036-.1415-.0111l-1.4518-5.5793.7357-6.6423,1.0931-.7128,1.4183,5.6096-.7065,6.6079c-.176.4008-.5094.728-.9473.728h0ZM129.6417,57.4952c-.0117,0-.0202-.0018-.025-.0054l-2.9535-6.5574,1.6167-9.2803,2.3613-.8761,2.9029,6.691-1.3497,8.5129c-.0376.4865-2.2681,1.5153-2.5527,1.5153h0ZM156.0624,51.9735c-.4348-1.7933-1.0043-3.3604-.9619-5.2399.0311-1.3784.1643-3.588.4109-4.9179.058-.3129.0678-.7059.397-.7059.0443,0,.0943.0071.1509.0224-.0358,1.2415.6167,2.5423.742,3.7291.1445,1.369-.0616,5.1034-.3626,6.4449-.0608.271.0096.5896-.3762.6673h0ZM143.1249,56.7287l-2.0043-5.6035,1.0866-7.9597,1.2103-.7038c.0185-.0017.0359-.0025.0525-.0025.2229,0,.2763.1477.3793.3251.3054.5259,1.7191,5.0688,1.7274,5.6505-.5085,2.1033-.3409,4.7358-.8232,6.7864-.1746.7422-.9018,1.3268-1.6286,1.5075h0ZM45.1191,72.2346l-10.5418-10.5663-.0149-.7625,5.8661-16.3028,9.7954-1.8074,9.2329,10.7587.0146.4656c-1.7918,4.5972-2.8028,9.8795-4.6199,14.415-.1409.3515-.2343.7189-.5889.9328l-9.1435,2.8668h0ZM160.0535,51.4024l-.3554-1.4487c-.2242-2.2754-.241-4.4533-.0212-6.728.0148-.0025.0288-.0037.0421-.0037.2281,0,.236.3505.2812.5317.5936,2.3757.2431,5.2179.0533,7.6487h0ZM152.2591,56.1765c-.0592,0-.1233-.0058-.1926-.0178-.1171-1.439-.9209-2.9375-1.0943-4.3283-.2736-2.1941.5002-5.0445.6041-7.2919l.8672-.5533c.1385,1.2591.7036,2.5272.9043,3.758.2763,1.694.0538,6.0414-.3763,7.7052-.1136.4393-.2946.7281-.7125.7281h0ZM89.7603,67.582l-6.2785-8.1999-.0975-.6315,3.5181-12.8619c.1624-.2294,4.9164-1.4385,5.4999-1.4385.0089,0,.0168.0003.0237.0009.3239.0266.5536.2584.7465.4946,1.212,1.4845,3.9997,5.7822,4.8652,7.4997.1434.2845.3288.5405.2723.8838l-3.0444,12.1421-5.5052,2.1109h0ZM157.9608,55.3976c-.366-.0662-.3135-.3978-.3879-.6565-.7363-2.559-.6612-6.5203-.1746-9.1366.0443-.2381-.0535-.304.1224-.304.0539,0,.1336.0062.2509.0155l.6963,3.9273-.507,6.1542h0ZM117.53,64.4809c-.415-.0336-3.7887-6.3074-4.0246-7.2413l2.2356-10.4806,3.5816-1.238,3.4468,7.3023-1.9459,9.8582c-.3376.6534-2.5924,1.2676-3.2935,1.7994h0ZM135.2462,62.2296c-.2012-.0721-.2533-.2564-.3453-.4205-.4636-.8271-2.2726-5.0246-2.2477-5.7363.0927-2.6603,1.2168-5.8019,1.3781-8.5275l2.2401-1.0877,2.2523,6.1752-1.3459,8.3289-1.9316,1.2678h0ZM146.8611,60.9524c-.049,0-.0905-.0119-.1219-.0386-.22-1.817-1.5763-3.8119-1.5366-5.6144.0478-2.1662.7971-4.6973.8965-6.9115-.0176-.3817.8882-1.0167,1.2728-1.0167.0524,0,.0952.0118.1246.0377l1.4846,5.6109-.9199,7.172c-.1779.2011-.8647.7605-1.2003.7605h0ZM154.7155,59.7811c-.1068,0-.2285-.1371-.3654-.4866-1.0426-2.6613-.8373-7.0359-.3372-9.8427.0624-.3504.2003-.9077.628-.9077.0273,0,.0558.0023.0854.007.1974.1487.9461,4.3241.9532,4.8493.0153,1.1366-.2451,3.5366-.4036,4.7318-.0586.4414-.2435,1.6487-.5604,1.6487h0ZM159.2505,58.4436c-.2282,0-.236-.3504-.2814-.5316-.6682-2.6692-.2083-5.6919-.0533-8.4097.0148-.0025.0288-.0036.042-.0036.2282,0,.236.3504.2814.5316.6631,2.6487.1957,5.7076.0533,8.4097-.0148.0025-.0288.0036-.042.0036h0ZM124.5903,69.2969l-3.2547-6.5014,1.952-9.8237c.1706-.4931,2.4959-1.379,2.9931-1.379.0377,0,.065.0051.0799.0159l2.8801,6.7257-1.7537,9.2967-2.8966,1.6658h0ZM100.9155,73.249l-5.1139-7.8303,3.0936-12.1059,4.7247-1.6843.3955.354c1.3208,2.646,3.4566,5.0135,4.3785,7.8129l-2.6641,11.3815-4.8141,2.072h0ZM140.1776,66.5756c-.1808,0-.3563-.1097-.5197-.3921-.2463-.4257-1.992-4.8609-1.9966-5.1363l1.4033-8.4577,1.7585-.7915c.4083,1.7455,1.98,4.2627,1.9308,5.9808-.0681,2.3819-.9562,5.1946-1.1183,7.6251-.4306.3521-.9639,1.1718-1.458,1.1718h0ZM63.8774,78.9081c-.3994-.0165-1.1295-.8456-1.4291-1.1569-1.9057-1.98-3.9929-4.2967-5.8005-6.3741-.3657-.4203-1.5805-1.7365-1.567-2.1567l4.9914-15.3475,7.8082-2.0083c.2656.0175.4886.2039.6609.3949,1.8862,2.6383,4.1665,5.0046,6.0806,7.6156.3417.4662,1.1016,1.3019,1.0956,1.8582l-4.1539,14.0888-7.6862,3.0859h0ZM149.9732,64.9073c-.2689-1.6778-1.2502-3.5297-1.2937-5.2312-.0287-1.1222.4889-5.5141.8062-6.5715.1468-.4891.4581-1.1226,1.0549-1.13.2147,1.6351,1.2222,3.5878,1.2614,5.1976.0285,1.1698-.4613,5.4922-.7703,6.6076-.1334.4815-.4793,1.125-1.0584,1.1275h0ZM156.5965,63.0294c-.1468,0-.1135-.0727-.2012-.2647-.2613-.572-.6748-2.6-.7218-3.2702-.1005-1.4321.2191-4.1908.4094-5.6903.021-.1653.119-1.3349.4112-1.3349.041,0,.0858.023.1347.075l.7437,4.3005-.5524,6.1612c-.1032.015-.1739.0233-.2237.0233h0ZM160.18,60.9298c-.1684,0-.0744-.0673-.1183-.3029-.4628-2.489.0586-4.8286-.0043-7.3214.3441.0713.3552.3738.3859.6584.2513,2.3318.0114,4.6145-.0083,6.9486-.1205.0104-.2012.0173-.255.0173h0ZM152.6574,68.3367c-.0079,0-.0146-.0019-.0197-.0058-.192-1.4248-1.0714-3.268-1.1048-4.6591-.0238-.9908.5269-5.653.8071-6.5725.121-.3971.3003-.9422.808-.9422.0186,0,.0378.0007.0573.0022.1706,1.6584.9123,3.3362.9335,5.019.0116.9198-.5194,5.9338-.852,6.5677-.0767.1463-.5073.5907-.6293.5907h0ZM158.1262,66.0488c-.2664,0-.2462-.5127-.2923-.7262-.6232-2.8891-.3044-6.1039.2239-8.9759,1.1636,3.1092.4842,6.5129.0927,9.7008-.0083.0009-.0164.0014-.0243.0014h0ZM143.9687,70.6188c-.0278,0-.0556-.0016-.0832-.0048-.2712-1.755-1.6812-3.856-1.6937-5.5913-.0081-1.1217.7235-6.2527,1.056-7.3125.1889-.6021.9753-1.1724,1.5847-1.361.317,1.7251,1.6138,3.8613,1.6413,5.5778.0184,1.1535-.6521,6.2733-1.0038,7.3246-.184.5498-.8685,1.3672-1.5014,1.3672h0ZM130.7586,73.6566c-.7125-2.1663-2.3974-4.0879-2.6713-6.3611l1.7517-9.1055,2.4363-1.2708,2.438,6.1791-1.6172,8.9835-2.3375,1.5748h0ZM110.6945,78.2207l-4.3909-7.0555,2.6691-11.5817,3.9977-1.6886,4.0344,7.2623-2.3348,10.7731-3.9755,2.2904h0ZM79.1412,84.4734c-2.0174-2.2823-4.126-4.5455-6.0287-6.9221-.3085-.3853-1.0905-1.2187-1.0554-1.6301l4.1907-14.2461,6.9071-2.0588,6.0256,8.1533.092.6283-3.5214,13.0485-6.6099,3.027h0ZM159.2289,68.5379c-.1691,0-.0744-.0676-.1183-.303-.507-2.7119-.1534-5.5775.279-8.2744.7772,2.7826.1613,5.7054.0941,8.56-.1204.0105-.201.0173-.2548.0173h0ZM154.8107,71.3793c-.0259,0-.0531-.0019-.0815-.0057-.0059-1.3893-.7224-2.8925-.7422-4.2592-.0117-.8127.5802-6.0524.8518-6.5659.0624-.1179.3289-.4058.4316-.4058.0108,0,.0198.0032.0266.0102.0925,1.0855.6313,2.2953.7428,3.348.1486,1.4029-.278,5.5294-.5989,6.9694-.0803.3603-.1833.9091-.6302.9091h0ZM147.5931,74.2237c-.1948,0-1.1971-3.271-1.2897-3.6512-.3896-1.6005.208-6.8652.709-8.5283.1066-.354.6484-1.2492.9646-1.3201.0302-.0068.058-.0099.0837-.0099.1882,0,.2661.1691.3479.3354.2116.4296,1.3012,4.2667,1.3085,4.676.0188,1.0454-.6852,5.9133-.9688,6.9936-.1828.6963-.6743,1.0212-1.1549,1.5045-.0002,0-.0003,0-.0005,0h0ZM24.7259,94.9315l-10.9892-12.4193-.1418-.9127,5.7648-16.1215,13.94-3.5672c.1763-.0209.3494-.0659.5267-.0659.0573,0,.115.0047.1734.0164l10.3893,10.3586.1415.9115-5.771,16.4958-14.0336,5.3043h0ZM136.178,77.6468s-.0008,0-.0012,0l-2.511-5.568,1.552-8.8919c.0955-.428,1.5947-1.3335,2.0736-1.3335.0455,0,.0818.0082.1068.0257.3362,1.5844,2.1362,4.2802,2.1149,5.7768-.0114.8028-1.212,7.9175-1.4683,8.4232-.0836.1651-1.7362,1.5677-1.8668,1.5677h0ZM156.7757,74.0397c-.2287,0-.2263-.3502-.2766-.5344-.7436-2.7188-.4551-5.5054-.0351-8.2889.0389-.258.285-1.642.4517-1.642.0002,0,.0004,0,.0006,0,.1639,1.0527.7359,2.5356.7901,3.5477.0566,1.0576-.3534,4.0833-.5272,5.2762-.0801.5504-.2479,1.0957-.3604,1.6377-.0152.0025-.0295.0038-.043.0038h0ZM118.8761,82.4047c-1.2476-2.1131-2.8197-4.2404-3.658-6.5255l2.2606-10.6453c.1257-.2627,2.8168-1.585,3.1435-1.6309.0692-.0097.1358-.0287.2036-.0287.0336,0,.0676.0047.1024.0174,1.1805,2.0692,2.5492,4.2151,3.2957,6.5115l-2.0692,10.0763-3.2787,2.2252h0ZM150.4842,77.3243c-.046,0-.0899-.0167-.1305-.0538-.1595-1.4152-1.0706-3.0706-1.104-4.469-.0245-1.0278.6419-6.0403.9632-6.9871.1585-.4671.5351-1.0922,1.0897-1.096.0701,1.2498.7491,2.5411.9027,3.7562.1531,1.2113-.4073,6.2823-.7618,7.5094-.0658.2278-.5838,1.3403-.9593,1.3403h0ZM140.776,81.0776c-.0102,0-.0198-.001-.0288-.0032l-2.1346-5.1916c.6925-1.6798.7524-7.6709,1.6677-8.7763.0543-.0655,1.1505-1.0379,1.2296-1.0556.0315-.0071.0602-.0103.0865-.0103.1925,0,.2576.1753.3476.3308.2275,1.4431,1.6687,3.7458,1.717,5.0917.0322.8992-.9333,6.9681-1.235,7.8693-.127.3793-1.2792,1.7453-1.6499,1.7453h0ZM92.2238,89.2517l-.4744-.2799-5.5151-7.2343,3.6605-13.5519,5.4802-2.0406,5.32,7.6213-3.0791,12.5041-5.3922,2.9813h0ZM157.9847,76.5098c-.0065,0-.0132-.0003-.0201-.0008.0628-.8128-.3172-1.5953-.3789-2.3794-.1286-1.6322.2631-5.1727.5735-6.843.044-.2369-.0513-.3031.1201-.3031.0539,0,.1341.0065.2532.0164-.052,1.0584.3546,2.2813.3627,3.308.0104,1.3023-.3085,4.2124-.5763,5.5128-.0425.2061-.0517.6891-.3343.6891h0ZM125.6216,86.0197c-.7072-2.0703-2.3708-3.8689-2.8637-5.9796l2.0094-9.9923,2.9416-1.7162,2.6733,6.1701-1.8249,9.4156-2.9356,2.1025h0ZM152.8559,80.1347c-.0113,0-.0208-.0035-.0281-.0111-.104-1.2952-.8715-2.7828-.88-4.0562-.0064-.952.695-6.4243,1.0281-7.1105.122-.2513.309-.4416.5158-.6217h.0001c.2675,0,.9979,3.6382,1.0067,4.0863.0207,1.053-.6823,6.4436-1.1308,7.1979-.0767.129-.3932.5152-.5118.5152h0ZM159.2923,78.601l-.4953-2.535c.3285-1.7328.245-3.6182.5148-5.3405.03-.1915.0735-.6827.3382-.6827.0075,0,.0152.0004.0231.0012.1743,2.8624.0294,5.7092-.3807,8.557h0ZM144.5103,84.3274c-.0217,0-.0402-.0063-.0547-.0198-.1168-1.5458-1.5491-3.5414-1.5297-5.0303.0131-1.007.9142-6.8806,1.2397-7.716.1388-.3562,1.0079-1.3808,1.4668-1.3808.058,0,.1094.0164.152.0525.1561,1.4001,1.0826,2.9882,1.2877,4.3252.1603,1.0447-.8686,7.7239-1.3904,8.5994-.0975.1636-.8966,1.1698-1.1712,1.1698h0ZM155.1064,82.595c-.3157-.1674-.3971-.9779-.4758-1.3276-.503-2.2365-.2346-6.3714.3356-8.6089.1093-.4289.2482-.9221.7115-1.0938.0153,1.2529.55,2.6417.554,3.8788.004,1.2693-.3515,4.0073-.5731,5.3249-.1077.6406-.3541,1.2184-.5521,1.8265h0ZM102.977,93.2667c-.0536,0-.1081-.0127-.164-.0449l-4.7305-6.8794,3.0944-12.2989,4.7308-2.2732,4.3994,7.0412-2.7174,11.5334c-.1636.3083-3.7386,2.5967-4.2409,2.8008-.1229.0499-.2447.121-.3718.121h0ZM131.8056,89.4373c-.0019,0-.0037,0-.0055-.0002l-2.6935-5.5694c.8829-2.6466.804-6.9232,1.8257-9.3687.3136-.7506,1.7047-1.5413,2.4842-1.7929.2643,1.5504,2.3187,4.3967,2.2929,5.7896-.0183.9899-1.2775,7.7822-1.6207,8.6689-.1607.4153-1.9653,2.2727-2.2831,2.2727h0ZM147.8107,86.984c-.0368,0-.0768-.0043-.1207-.0135-.0419-1.0577-.6449-2.0528-.8635-3.0361-.3904-1.7558.2693-6.7356.7565-8.5762.172-.65.5688-1.5159,1.3371-1.5159.0322,0,.0651.0015.0986.0046.0972,1.3912,1.0475,3.0889,1.073,4.4348.0265,1.3995-.9162,7.3488-1.753,8.293-.1666.188-.2636.4094-.528.4094h0ZM156.5744,84.5156c-.1842,0-.0782-.0746-.131-.3015-.6038-2.5976-.2052-5.8697.2367-8.5108.0579-.3461.1287-.9651.5196-1.0953.8962,3.2815.036,6.5912-.3806,9.8906-.1134.0107-.1913.017-.2448.017h0ZM136.7987,92.3087c-.0146,0-.0287-.0011-.0421-.0034-.2705-.0461-2.1556-4.7684-2.1624-5.0426-.06-2.4266,1.5577-6.3659,1.6586-8.9662.2251-.2713,1.7348-1.8007,2.068-1.8007.0182,0,.033.0046.0437.0142.1755,1.5687,1.6029,3.4645,1.8608,4.8963.1336.7417-1.1168,8.2631-1.4644,9.098-.1868.4485-1.4504,1.8046-1.9622,1.8046h0ZM112.2293,96.6566c-.3236-.0562-3.452-4.8196-3.737-5.401-.1719-.3506-.3998-.6726-.3303-1.0945l2.6533-11.237c.2372-.4191,3.5402-2.209,4.0681-2.209.0229,0,.0406.0034.0526.0104.6496,1.7918,2.7766,4.0398,3.3041,5.7337.1021.3278.2319.606.1368.967l-2.3743,10.5742-3.7732,2.6564h0ZM150.7825,89.2673c-.2064,0-.2819-.1278-.3858-.3435-.1586-.3293-.6995-2.4318-.7551-2.8571-.1618-1.2368.7343-7.6553,1.3897-8.5927.1511-.2161.3991-.4909.651-.5836.0352,1.3443.8172,2.7708.8476,4.0866.0282,1.2228-.5806,5.3642-.8985,6.6069-.1683.6579-.4806,1.0676-.7115,1.6684-.0515.0101-.0968.0149-.1372.0149h0ZM157.9602,86.5892l-.4951-2.5348c.2846-1.6229.2737-3.3301.5221-4.9522.0754-.4922.0826-1.4126.5443-1.6413.5047,3.0405-.0722,6.1154-.5713,9.1282h0ZM152.9793,91.3693c-.1437,0-.1122-.0732-.1985-.2638-.2847-.6292-.6722-2.5907-.6764-3.279-.0072-1.1901.6225-5.6531.9614-6.7968.119-.4016.4117-.7412.6151-1.0952.3751.1707.881,3.3284.8705,3.9004-.0251,1.3647-.5119,4.6654-.8221,6.0366-.1172.5178-.4193.9565-.5261,1.4734-.1036.0157-.1742.0244-.2239.0244h0ZM141.1194,94.9857c-.0331,0-.0626-.0085-.0875-.0267-.2688-1.4711-1.6911-3.3312-1.6628-4.7974.026-1.3512.9943-6.5498,1.4104-7.9105.2446-.7998.9152-1.5618,1.6743-1.9368.2505.0597,1.7369,4.2773,1.7397,4.8163.0053,1.027-1.0043,6.9687-1.355,7.9281-.1361.3723-1.2713,1.9269-1.719,1.9269h0ZM158.8385,88.1284c-.1337,0-.0821-.0542-.1131-.2998-.2298-1.8249.1247-4.5731.4015-6.4458.0314-.2124.0677-.8777.35-.8777.002,0,.0039,0,.0059,0,.353,2.5301-.3223,5.0594-.3796,7.6062-.1289.0085-.2115.0171-.2647.0171h0ZM154.8719,93.4405c-.2329,0-.1947-.3727-.2392-.5707-.569-2.5291-.2313-6.2476.3311-8.8017.093-.4223.2896-1.0993.7137-1.2814.8894,3.444.1048,7.2728-.7614,10.6497-.0158.0027-.0305.004-.0443.004h0ZM144.7398,97.2769c-.0359,0-.0675-.0112-.0938-.0354-.1341-1.348-1.2569-2.9114-1.2632-4.2452-.0053-1.1202.9501-6.6752,1.3126-7.7815.1847-.5637.7766-1.4802,1.3732-1.6671.3401.0776,1.352,3.8531,1.3563,4.4366.0084,1.1422-.8279,6.435-1.1933,7.5155-.1026.3034-1.0803,1.777-1.4918,1.777h0ZM156.4382,94.9581l-.5155-1.6675c.0796-2.187.2365-4.9958.7617-7.1219.0802-.3245.1337-.7995.5154-.9094.5519,3.2388-.2249,6.4994-.7616,9.6988h0ZM157.4357,96.2938c-.0132,0-.0272-.0013-.0419-.0039-.324-2.5981.0896-5.681.5751-8.2714.0441-.2352-.051-.303.1184-.303.0539,0,.1345.0069.2547.0173.0718,1.2189.0932,2.2995-.0042,3.513-.1017,1.2673-.3515,3.2963-.6163,4.5206-.0376.174-.0645.5274-.2859.5274h0ZM155.4893,1h.005-.005ZM140.4589,1h.005-.005ZM116.106,1h.005-.005ZM100.3146,1h.005-.005ZM79.1959,1h.005-.005ZM50.2768,1h.005-.005Z"/><polygon class="cls-1" points="6.7077 1 6.137 1 1 13.5533 1 14.8847 6.7077 1 6.7077 1"/><path class="cls-2" d="M35.2464,15.17c-.9438,1.8947-1.5316,3.9275-2.2755,5.8991-1.3648,3.6173-2.654,7.2628-4.0136,10.8654-5.2004.5312-10.3787,1.3242-15.5572,1.8244-2.0992,5.4977-4.2617,10.9553-6.346,16.4352-1.8546.2106-3.6864.7543-5.5785.924"/><path class="cls-2" d="M95.5581,65.9538c-1.8842.777-3.7641,1.5653-5.7299,2.2042-1.1906,4.419-2.3847,8.8601-3.5713,13.303-.1315.4924-.4034.6874-.7837.8472-1.8586.7812-3.648,1.7156-5.5139,2.4814-.3428.1407-.6491.2899-.779.7507-1.2715,4.5095-2.6376,8.992-3.8827,13.5093-.0162.0589-.002.1262-.002.1896"/><path class="cls-2" d="M40.4785,44.461c-1.9906,5.5501-3.9561,11.1092-5.9886,16.6443-.1123.3059-.0889.5749-.5698.6876-4.515,1.0579-8.991,2.2766-13.5121,3.3127-.3486.0799-.6858.1936-1.0482.1825"/><path class="cls-2" d="M161.2922,69.2823c-.13.0191-.2641.0525-.3843.0744-.409.0746-.9088-.1178-1.2191.2235-.3949.4344-.4321,1.0526-.475,1.6053-.1407,1.8132-.1735,3.6446-.6097,5.4136-.2342.95-.5565,1.8633-.6642,2.8566-.1859,1.7147-.3122,3.4399-.6249,5.1413-.0126.0688.1181.1965-.0192.2804-1.2516.7651-.687,2.1023-.895,3.1508-.3144,1.585-.5458,3.2096-.6239,4.8393-.0065.1364-.0697.3289-.1104.3659-1.3207,1.204-.8838,2.9291-1.294,4.3959-.1393.4981-.1897,1.0649-.1199,1.6098"/><path class="cls-2" d="M50.1816,1.4755c-1.3689,4.1616-2.8448,8.2872-4.1898,12.4569-.112.3473-.2878.5479-.7543.5964-1.9317.2008-3.8767.17-5.8035.3743-.9529.101-1.907.008-2.8581.1575-.7992.1256-1.4825.0611-2.119-.7234-2.3371-2.8805-4.7916-5.6656-7.1957-8.4919-1.2098-1.4223-2.4457-2.8228-3.621-4.2744-.1231-.152-.2836-.2457-.4753-.2856"/><path class="cls-2" d="M61.0263,1.3804c1.1314.9887,1.7734,2.3481,2.6713,3.5128,1.7314,2.246,3.2485,4.648,5.0547,6.9176-1.4872,4.704-2.9263,9.4809-4.3937,14.2147-2.8949.3104-5.7861.594-8.6596,1.0321"/><path class="cls-2" d="M160.2457,53.1152c-.4196,1.0166-.2296,2.088-.29,3.1381-.0836,1.4545-.4329,2.8624-.7302,4.2853-.3843,1.8391-.1294,3.7801-.6349,5.5949-.2736.9823-.5522,1.93-.652,2.9563-.145,1.4905-.3013,2.9817-.4365,4.4734-.0479.5286-.1686.9288-.681,1.1398"/><path class="cls-2" d="M86.9014,45.7924c-1.1562,4.3475-2.3531,8.6842-3.5019,13.0335-.1136.4302-.2735.649-.6827.7601-2.1788.5916-4.2907,1.4014-6.4698,1.9931"/><path class="cls-2" d="M93.0848,9.8444c-.6807,1.2119-.7774,2.5963-1.1277,3.9028-.7287,2.7177-1.379,5.4564-2.0487,8.1323-1.8708.1818-3.684.3324-5.4777.6293-.5443.0901-.8331-.0164-1.1586-.4815-2.083-2.9761-4.0317-6.0417-6.0755-9.0435-.2676-.393-.4729-.8341-.8546-1.1423"/><path class="cls-2" d="M159.4847,80.314c-.561.5699-.3673,1.3295-.4564,1.9997-.2064,1.5507-.0967,3.2063-.6526,4.633-.6736,1.7286-.6084,3.517-.9881,5.254-.2619,1.198-.2447,2.4277-.597,3.6336-.2073.7096.1292,1.6441.7916,2.2636"/><path class="cls-2" d="M79.2911,1.3804c-.1226.0718-.339.0203-.3752.1913-.6687,3.1587-1.6615,6.2275-2.5561,9.3239-.0712.2464-.1039.5123-.2289.7896-2.4253-.1472-4.8606.161-7.304.1563"/><path class="cls-2" d="M90.0406,22.1124c1.8346,2.8358,3.6103,5.709,5.4088,8.5676.457.7263.8619,1.1422,1.8291.8769,1.0482-.2875,2.1541-.3887,3.222-.6198.6753-.1461,1.116.0067,1.4305.5907.9571,1.7771,2.0543,3.4731,3.0319,5.2373.2605.4701.4859,1.0274.8085,1.3885.9121,1.0211.8647,2.0494.5569,3.2695-.8032,3.1834-1.4143,6.4133-2.2237,9.5961-.1018.4003.0365.6768.2118.9508,1.4651,2.2909,2.8035,4.6594,4.2733,6.9471.2444.3804.3197.7542.2079,1.2394-.8254,3.5819-1.6125,7.1724-2.4569,10.7503-.1421.602-.4288.8695-.8925,1.0285-1.2825.4398-2.3931,1.2554-3.7012,1.6448-.3392.101-.584.3772-.6918.8328-.9105,3.8454-1.9291,7.6647-2.8272,11.5135-.1463.6269-.4439,1.0672-1.0494,1.3369-1.5443.6878-2.981,1.5835-4.4767,2.3656-.3275.1712-.483.3822-.5851.7612-.7866,2.918-1.5721,5.8364-2.3613,8.7538"/><path class="cls-2" d="M54.8429,69.6627c-2.858,1.0058-5.7663,1.8541-8.6574,2.7556-.7332.2286-1.1915.6411-1.4432,1.4233-1.6831,5.2298-3.6227,10.3729-5.3197,15.5989-.1435.4419-.3787.7797-.9325.9798-4.3313,1.565-8.6093,3.2742-12.9409,4.8409-.2459.0889-.5421.1374-.7013.5426-.4422,1.1257-.972,2.2139-1.1121,3.4352"/><path class="cls-2" d="M7.2785,50.4524c2.7458,3.4025,5.5107,6.7894,8.2714,10.1797,1.1664,1.4324,2.2778,2.9102,3.5289,4.2716.3473.378.2194.7701.0843,1.1429-1.4451,3.9878-2.8475,7.9908-4.2769,11.9841-.4089,1.1424-.8597,2.2727-1.2132,3.4309-.1969.645-.5401.9666-1.1606,1.1416-3.6981,1.0431-7.3453,2.2562-11.0369,3.3218"/><path class="cls-2" d="M1.2854,17.4524c.761,1.4673,1.895,2.6691,2.8624,3.988,2.9737,4.0545,6.0122,8.0612,9.0287,12.084"/><path class="cls-2" d="M68.3512,51.7838c1.8679,2.1126,3.5381,4.3855,5.3267,6.5623.6727.8187,1.2736,1.7013,2.0106,2.4602.5166.532.5649,1.1064.3604,1.7213-.9408,2.8282-1.6929,5.7121-2.5629,8.561-.4541,1.487-.8707,2.9851-1.3096,4.4763-.1798.6108-.4851.9301-1.0626,1.1457-2.0409.762-4.055,1.6047-6.1075,2.3231-.9668.3384-1.3539.8748-1.611,1.7531-1.2875,4.3979-2.8182,8.7218-4.0596,13.1327-.3841,1.3649-1.2427,2.0042-2.4855,2.4911-2.0334.7967-4.0195,1.7205-5.9882,2.6684-.3209.1545-.5867.0904-.8707.16"/><path class="cls-2" d="M92.9896,44.3659c-1.9828.2326-3.8589.9295-5.9572,1.3465-.8606-.6682-1.3536-1.7605-2.0144-2.6916-1.5163-2.1365-3.085-4.2382-4.4983-6.4481-.3388-.5297-.7863-.7708-1.5197-.6003-1.8522.4307-3.7382.7125-5.6117,1.0438-.4966.0878-.7313.2959-.8454.6943-.8289,2.8929-1.7231,5.7663-2.5725,8.653-.4757,1.6167-1.0182,3.2142-1.4226,4.8511-.1185.4795-.489.565-.8631.6618-2.2485.582-4.5027,1.1434-6.76,1.6873-.6698.1614-.9535.4431-1.1482,1.0688-1.4539,4.6714-3.0667,9.2922-4.4667,13.9813-.0963.3224-.2324.6416-.4468.9887,3.0199,3.2942,5.9392,6.6465,9.0173,9.8554"/><path class="cls-2" d="M45.9008,14.6945c1.4354,1.914,2.9763,3.7443,4.4753,5.6075,1.6109,2.0021,3.1664,4.0488,4.8422,5.9991.4068.4734.4395.9758.2164,1.6197-1.6965,4.8972-3.2623,9.8388-4.9678,14.7333"/><path class="cls-2" d="M131.9925,1.3804c.4791.0533.3393.5.4671.7649.4015.8327.5838,1.7864,1.0793,2.5478,1.0964,1.6849.5187,3.4517.307,5.1451-.1982,1.5858-.1949,3.2181-.7104,4.7616-.068.2037.1284.3153.1904.4745.8419,2.1613,1.7332,4.3028,2.5784,6.463.1918.4901.1974.8991.1226,1.4364-.3394,2.4372-.6446,4.8801-.9646,7.3207-.1243.9482.4951,1.7955.8489,2.6518.5912,1.4307,1.0382,2.9242,1.7957,4.2834.1382.248.0156.4622-.0196.6672-.4618,2.6873-.6843,5.4115-1.2445,8.0814-.0552.2632.0479.3978.1203.5732.7814,1.894,1.4749,3.8266,2.3187,5.6898.2677.5911-.0049,1.0065-.0769,1.4384-.4225,2.5347-.6642,5.099-1.2248,7.6086-.0449.201-.0365.3575.0339.4758.9808,1.6497,1.4108,3.5355,2.2626,5.2416.3459.6929-.0776,1.3933-.1814,2.086-.3524,2.3503-.6484,4.713-1.1764,7.0293-.1139.4996.2588.5799.3615.8498.6055,1.5914,1.1182,3.2272,1.9592,4.7221"/><path class="cls-2" d="M6.6126,1.4755c-1.1334,2.946-2.4041,5.8361-3.5826,8.7623-.6271,1.557-1.4949,3.0415-1.7446,4.742"/><path class="cls-2" d="M83.5719,22.5879c-1.1164,4.1596-2.2655,8.3103-3.4122,12.4616-.0748.2706-.2042.5032-.2978.7574"/><path class="cls-2" d="M13.3668,82.4062c2.1513,2.3584,4.1887,4.8166,6.2986,7.2099,1.7374,1.9707,3.4207,3.9905,5.212,5.914"/><path class="cls-2" d="M154.7283,60.4379c.6146-.2781.8229-.7081.8917-1.4231.1768-1.8392.2701-3.6864.5071-5.5229.1544-1.1966-.2554-2.4225-.6887-3.4945-.7806-1.9315-.2001-3.8274-.1886-5.7263.0055-.9008.2038-1.8546.2673-2.7629.0551-.789-.3624-1.6519-.6215-2.4606-.2836-.885-.5146-1.7928-.7358-2.6826-.223-.897.0573-1.8911.1218-2.8387.0842-1.2361.1657-2.4753.2378-3.712.0559-.9583-.4411-1.8341-.6673-2.7519-.2516-1.0209-.5274-2.0399-.822-3.0523-.2081-.7152.0297-1.4683.113-2.1795.3326-2.8396-.0255-5.6124-.611-8.3708-.3202-1.5083.0337-2.9862.1357-4.4693.0539-.7845.0179-1.5414-.1435-2.2811-.2827-1.2954-.6461-2.5698-.7617-3.9012-.0334-.384-.2454-.8122-.5684-1.0257-.3113-.2058-.6654-.545-1.1266-.3063-.4.207-.1273.5704-.1851.8562-.2287,1.13-.0173,2.2848-.1776,3.4251-.0566.4025-.0852.7891-.3036,1.1386"/><path class="cls-2" d="M96.1289,31.7175c-1.0077,3.8217-1.8604,7.6823-2.8728,11.5022-.2016.7607-.0679,1.2511.3627,1.9303,1.6578,2.6153,3.4728,5.1273,5.0772,7.7758.0886.1462.2578.2571.1932.4751-1.2204,4.1157-2.0637,8.3294-3.2419,12.5291,1.8678,2.4903,3.5338,5.188,5.4283,7.7269"/><path class="cls-2" d="M157.487,2.2839c.7476.3933,1.1363.9671,1.055,1.8553-.0971,1.0604.6409,1.9066.7953,2.9409.2788,1.8682.5508,3.7407.5925,5.618.0505,2.2706.5806,4.4854.6067,6.7514.0154,1.3326.2756,2.6414.2407,3.9957-.033,1.2833.2078,2.5982.3553,3.8942.0724.6356.1422,1.2961.1222,1.9043-.0964,2.9325.478,5.8341.3728,8.7489-.0492,1.361-.0006,2.7357-.0469,4.0943-.0415,1.2188.3786,2.512.3786,3.8007,0,1.8703.1632,3.7365.016,5.6123-.112,1.4277.2511,2.8475.2639,4.2782.0195,2.1674-.0556,4.3269-.4573,6.4695-.1572.8382-.0642,1.713-.0782,2.5656-.0401,2.4395-.3134,4.8703-.079,7.3268.1211,1.2694-.1001,2.5936-.1596,3.8938-.0711,1.5537-.4597,3.0722-.2943,4.6634.2243,2.1591-.1104,4.3249-.3873,6.4599-.3742,2.8853-.8385,5.7586-1.1166,8.6577-.113,1.1783-.5259,2.26-1.2091,3.2477-.1432.207-.2586.1684-.4002.1716-.4441.0103-.8897.0264-1.3317-.0425"/><path class="cls-2" d="M128.9483,84.4984c-1.0281.4767-1.8218,1.2932-2.759,1.9017-.5954.3866-.5387,1.0859-.6327,1.6228-.5132,2.9291-1.2775,5.8062-1.7609,8.7409-.1316.7988-.281,1.6077-.5551,2.3801"/><path class="cls-2" d="M29.1581,32.193c2.8745,2.9662,5.6389,6.0329,8.3785,9.1233.7435.8387,1.6225,1.557,2.2734,2.4808.4207.5971.9203.6247,1.6243.4993,2.9517-.5257,5.891-1.1168,9.0265-1.6631,3.2092,3.6178,6.3635,7.4251,9.6142,11.1476"/><path class="cls-2" d="M115.0595,76.51c-1.2447.4633-2.3098,1.2729-3.5144,1.8188-.5703.2585-.8326.7472-.9805,1.4093-.7947,3.5569-1.6536,7.0996-2.4808,10.6493-.0882.3785.0114.6608.1456.8496,1.2188,1.7141,2.3095,3.5145,3.527,5.2254.418.5873.6594,1.0589.3573,1.7321-.1487.3314-.0911.6937-.0984,1.0447"/><path class="cls-2" d="M104.1197,19.3544c-.5817,1.504-.7571,3.1077-1.1345,4.6616-.5527,2.2753-.9852,4.5788-1.5766,6.8456"/><path class="cls-2" d="M122.4796,80.7895c-.7284.3954-1.3839.9816-2.1126,1.2839-1.3363.5544-1.6578,1.6092-1.8808,2.8058-.5584,2.9961-1.3095,5.9509-1.9155,8.9369-.0573.2824-.1268.5671-.4542.7792-1.2616.8174-2.4032,1.8121-3.7205,2.5515"/><path class="cls-2" d="M121.1478,63.3861c-1.0327.437-2.0511.902-3.0606,1.3926-.4544.2208-.6565.4904-.737.8914-.7015,3.4929-1.4758,6.9706-2.2272,10.4527-.0642.2976.0494.4237.137.5714,1.2261,2.0668,2.3568,4.1909,3.6998,6.1876"/><path class="cls-2" d="M124.7627,34.2852c-.9189-.0153-1.7668.3595-2.6593.5024-.5362.0859-.7175.0134-.9791-.4903-1.0981-2.1144-2.1402-4.2565-3.1992-6.3897-.3213-.6472-.5969-1.08-1.4463-.7763-.6291.225-1.3356.3091-1.9933.3612-.8425.0667-1.1048.4709-1.2383,1.1808-.4365,2.3219-.9933,4.6199-1.4072,6.9459-.0622.3493-.1117.7469-.2356,1.0302-.6896,1.5779.0357,2.8358.7932,4.1015,1.0064,1.6815,1.8591,3.4493,2.8671,5.1275.4377.7286.2326,1.3749.0953,2.1041-.5928,3.1472-1.3051,6.2694-1.942,9.4072-.0605.2978.0173.4727.1246.6677,1.2874,2.3394,2.5521,4.6922,3.9902,6.9452"/><path class="cls-2" d="M34.4854,61.8645c3.6198,3.579,7.1137,7.2806,10.6544,10.9366"/><path class="cls-2" d="M64.5461,26.2968c2.5015,3.1883,4.8808,6.4687,7.3162,9.7068.2994.3981.7044.7152.9124,1.1822"/><path class="cls-2" d="M119.5306,45.412c1.2949,2.3151,2.3049,4.7814,3.7224,7.0297.1759.279.0093.479-.0315.6694-.6304,2.9372-1.0661,5.9137-1.7328,8.8394-.2284,1.0022-.1024,1.741.3988,2.5893.6769,1.1456,1.3011,2.3275,1.9189,3.5088.9734,1.8613,1.0156,1.881.562,3.8934-.6058,2.6879-1.0195,5.4146-1.6819,8.0908-.088.3555-.105.7465.1572,1.1478,1.1345,1.7362,1.9188,3.6744,3.0605,5.41"/><path class="cls-2" d="M107.0687,1.3804c.8738.9726,1.2582,2.2253,1.9097,3.3243.5363.9047.9194,1.8888,1.5052,2.7686.2981.4477.3548.9281.2256,1.5207-.6886,3.1582-1.2932,6.3346-1.9307,9.504-.0279.1386-.0533.2896-.1877.3809"/><path class="cls-2" d="M121.5283,34.951c-.6383,2.6059-.9979,5.2655-1.5198,7.8938-.0182.0915.026.2011-.0067.2831-.2939.736-.0601,1.7637-.6156,2.2249-.5198.4315-1.4074.5126-2.1325.7446-.5117.1637-1.049.286-1.5283.551"/><path class="cls-2" d="M108.02,90.9653c-1.6522.7531-3.1054,1.8422-4.666,2.7499-.1364.0793-.2576.1223-.2814.2933-.2465,1.7727-1.0637,3.421-1.1408,5.2306"/><path class="cls-2" d="M133.5145,72.6108c-.9699.2709-1.6028,1.0821-2.4587,1.5485-.4207.2292-.2905.8646-.377,1.3081-.5498,2.8191-1.0593,5.6466-1.6595,8.4553-.0758.3545.0064.622.133.8535.8718,1.5936,1.599,3.2606,2.4817,4.8453.1739.3122.216.6036.1529.8646-.6169,2.5522-1.0124,5.1501-1.617,7.7033-.0852.3596-.0347.7022-.0801,1.0497"/><path class="cls-2" d="M130.9461,40.5619c-.6026.3122-1.2537.4855-1.9024.6662-.5349.149-.8602.471-.9561,1.0448-.4937,2.9562-.8631,5.9353-1.608,8.8463-.0387.1512.1145.2629.1691.3866.8937,2.0254,1.8567,4.017,2.8775,5.9804.1952.3755.2549.7728.1708,1.142-.6313,2.7726-.9692,5.6005-1.6014,8.3724-.1582.6937-.098,1.3271.2592,2.0084.8881,1.6942,1.6361,3.4612,2.5914,5.1234"/><path class="cls-2" d="M39.2418,90.2045c2.5967,2.4788,5.1988,4.9522,7.8998,7.318.6422.5625,1.0731,1.3582,1.8984,1.7165"/><path class="cls-2" d="M149.4011,86.3053c.5312.4116.4135,1.0883.6575,1.6205.754,1.6444.589,3.3093.2305,5.0431-.4244,2.0527-.6352,4.1509-.9368,6.2116-.3.1094-.5537.0517-.8074.0109"/><path class="cls-2" d="M116.0108,1.4755c.0066,1.5549-.4278,3.0461-.6794,4.5626-.1062.6403-.0459,1.3294-.4518,1.9115-.0763.1094.1066.2559.1637.3805,1.2046,2.6312,2.6216,5.1575,3.8356,7.7843.2397.5186.3306.9139.2245,1.5365-.3832,2.2501-.8147,4.4923-1.1995,6.7423-.1475.8625-.2431,1.7419-.5614,2.5693"/><path class="cls-2" d="M126.475,24.4899c-.5336,2.5522-.8104,5.1515-1.3571,7.6977-.2991,1.393-.0967,2.558.5555,3.8302.8383,1.6352,1.6384,3.3048,2.3425,5.0118.0494.1197.1052.391.3617.3882"/><path class="cls-2" d="M136.3684,46.363c-.2834.0674-.5195.3343-.7632.359-1.552.1572-1.778,1.2679-1.9031,2.4938-.2379,2.3304-.7873,4.6137-1.0722,6.9391-.0525.4286-.0698.7606.1162,1.1483.8231,1.7157,1.5246,3.4862,2.3084,5.2189.3332.7366-.0197,1.354-.1297,2.0024-.4369,2.5743-.6876,5.1838-1.407,7.7069-.0537.1884.0912.3196.1743.4811.8763,1.7043,1.5165,3.5177,2.3916,5.2237.3034.5915-.0187,1.1603-.1179,1.7081-.4648,2.5695-.9462,5.1363-1.4223,7.7039-.0512.2762-.0212.4303.0975.6762.7273,1.5073,1.2841,3.0947,2.1116,4.5555.3959.699-.0029,1.3399-.1051,1.9982-.2424,1.5606-.6373,3.0942-.8498,4.6609"/><path class="cls-2" d="M87.6624,1.3804c.7424.5156.959,1.3894,1.431,2.0895,1.2506,1.855,2.3527,3.8013,3.4926,5.7225.2901.4889.589.5917,1.0697.5597,1.2988-.0865,2.5966-.1861,3.9-.2016.5276-.0063.9447.0298,1.2472.5734,1.4572,2.618,2.9957,5.1903,4.454,7.8077.7519,1.3496.7214,1.3713,2.1944,1.2308.7289-.0695,1.4692-.1054,2.1831-.2199.7888-.1265,1.1513.0481,1.5553.7767,1.4726,2.6557,2.8134,5.3827,4.3477,8.0041"/><path class="cls-2" d="M142.6469,80.2189c-1.6892.8012-2.0574,2.3349-2.2961,3.9924-.3031,2.1042-.6111,4.2109-1.1216,6.2802-.0448.1814-.0105.3789.0827.5716.6746,1.3955,1.1139,2.8927,1.821,4.2727.316.6168-.0323,1.1476-.1036,1.7159-.0916.7296-.3282,1.4402-.2849,2.1874"/><path class="cls-2" d="M151.8744,76.7002c.4775,1.3199.7261,2.7049,1.1005,4.0532.2279.8209-.1576,1.7331-.2676,2.6009-.2169,1.7122-.4878,3.417-.6908,5.1327-.0612.5176-.6476,1.0128-1.1885,1.3371"/><path class="cls-2" d="M132.5632,31.3371c-.4547,2.1704-.6667,4.3801-1.0597,6.5595-.1432.7939-.0626,1.6336-.4573,2.3825-.0824.1564.0238.33.0945.4707,1.0781,2.1449,1.8284,4.4367,2.9447,6.5641"/><path class="cls-2" d="M121.338,1.3804c.9717,1.0633,1.1354,2.5554,1.9225,3.6952,1.0975,1.5892.9322,3.2537.5441,4.9575-.4731,2.0767-.5397,4.2247-1.1305,6.2794-.061.2121.089.3839.1791.5727,1.0997,2.3039,2.1775,4.6183,3.2373,6.9409.2157.4727.4396.7686,1.0552.5844.6758-.2022,1.4153-.1332,2.0881-.3961"/><path class="cls-2" d="M127.9971,1.4755c-.2505,1.7757-.3417,3.5761-.7765,5.3218-.0922.37.0962.5895.2095.8582.9662,2.2896,1.9605,4.5686,2.9831,6.8317.3382.7483.132,1.3848.0239,2.0085-.4111,2.3737-.5431,4.7907-1.1132,7.1371-.0811.3337.1088.6001.2136.8493.8811,2.095,1.8353,4.1587,2.6544,6.2808.1538.3984.414.5515.9515.4235.5816-.1386,1.1688-.3991,1.798-.3248"/><path class="cls-2" d="M146.3569,83.3572c-.9881.6667-1.6436,1.4654-1.8448,2.7521-.3725,2.3822-.754,4.7671-1.2253,7.1332-.0518.2602-.0307.5118.0456.6609.5767,1.1274.8485,2.3647,1.3278,3.5223.2488.6007.1671,1.2123.2698,1.8134"/><path class="cls-2" d="M143.8836,42.2737c-1.5785.4667-1.7119.5888-1.9884,2.569-.3013,2.1582-.3484,4.3535-.9629,6.4649-.0452.1554.0484.279.1062.3758.9957,1.6681,1.2266,3.6482,2.1853,5.3274.141.247.0098.4579-.0182.6676-.3313,2.4749-.6934,4.9458-1.0454,7.4179-.0534.375-.0404.6836.0891,1.0537.5898,1.685,1.131,3.3879,1.8442,5.0258.0797.1831.093.3515.0632.4812-.599,2.606-.7739,5.2822-1.3204,7.896-.0396.1892-.0859.5228-.0669.5544.8949,1.4871,1.1686,3.2154,1.8785,4.77.0055.012.0602.0015.0919.0015"/><path class="cls-2" d="M149.0205,73.6569c-.9218.5273-1.4035,1.235-1.5654,2.3714-.3164,2.2219-.5551,4.4594-.9901,6.6658-.0458.2321-.0361.4938.0679.7637.4904,1.2728.7544,2.63,1.2852,3.8791.2906.684.027,1.2628-.0757,1.8138-.4012,2.153-.5773,4.3435-1.091,6.4768-.076.3155.0427.6404.1757.9511.3654.8535.6502,1.7337.7663,2.6605"/><path class="cls-2" d="M71.9661,76.4149c2.4215,2.8114,4.7463,5.7054,7.2298,8.464"/><path class="cls-2" d="M139.9833,1.3804c.1226.0718.3596.024.3711.1909.0636.9167.4361,1.7876.8225,2.5403.7304,1.423.6834,2.853.4976,4.3036-.2069,1.6157-.2129,3.2498-.5245,4.8577-.108.5575.3606,1.0716.5406,1.6135.5183,1.5607.994,3.1407,1.6413,4.6501.4935,1.1508.0366,2.2459-.0654,3.3324-.1549,1.6502-.1227,3.337-.6135,4.9514-.0893.2937.2162.4873.3043.7506.4258,1.2735.7956,2.5768,1.3343,3.8003.5538,1.2576.6579,2.5168.4363,3.8141-.3182,1.8632-.3472,3.7596-.7249,5.6179-.1395.6862.3398,1.3383.5685,1.9844.4717,1.3326.8669,2.6911,1.387,4.0091.3189.8081-.1119,1.6414-.181,2.4649-.1576,1.877-.4567,3.7388-.6535,5.6121-.0197.1873-.1156.363-.0091.5729.7993,1.5751,1.1075,3.3295,1.7943,4.9503.2709.6392-.0912,1.3257-.1747,1.9889-.256,2.0328-.4337,4.0768-.8517,6.0871-.0126.0608-.0209.1343.0012.1887.6731,1.655.9105,3.4659,1.8046,5.0415"/><path class="cls-2" d="M83.3816,59.582c2.0975,2.7861,4.1039,5.6406,6.2785,8.3689"/><path class="cls-2" d="M151.3988,64.5273c-.8619.5195-1.3029,1.2833-1.4348,2.2814-.2767,2.0933-.4512,4.1995-.8338,6.2803-.1221.6641.3164,1.2735.5062,1.8854.2867.9238.3794,1.92.8834,2.7852.0733.1259.0981.3982.0514.6575-.3572,1.9849-.6815,3.9804-.864,5.9881-.1218,1.3404-.6328,2.3791-1.733,3.1364"/><path class="cls-2" d="M136.9392,1.4755c.0504,1.2475-.0409,2.504-.3171,3.7016-.3714,1.6099.5813,2.82.9983,4.1871.3445,1.1297.7686,2.2447,1.2451,3.3227.4836,1.0941.2887,2.1852.1342,3.2391-.2693,1.8375-.186,3.7215-.7267,5.5212-.0762.2535.1082.453.1945.6626.8524,2.07,1.5385,4.2032,2.3892,6.2721.2001.4866-.0795.8427-.1385,1.2395-.3389,2.2799-.3543,4.6037-.9188,6.8527-.0296.1177.0145.2463.0765.3844.8938,1.9883,1.4056,4.1271,2.3905,6.0809"/><path class="cls-2" d="M100.2194,1.4755c-.2187,1.6448-.6977,3.2334-1.0456,4.8503-.2329,1.0828-.3931,2.1825-.7619,3.2332"/><path class="cls-2" d="M154.0624,1.7133c.4586.2206.7968.5039.6751,1.0956-.0299.1457-.0417.3094.0782.479,1.0667,1.5098.9091,3.3516,1.3261,5.0382.1287.5206.098,1.0255.7655,1.2584.4285.1495.527.7106.5584,1.1174.0695.9003.2788,1.7739.3901,2.6626.1539,1.229.0684,1.395,1.5337,1.3309.1582-.0069.3171-.0009.4756-.0009"/><path class="cls-2" d="M149.7816,38.9452c-.8614.1986-1.3305.6387-1.4555,1.613-.2683,2.0911-.3461,4.2012-.6912,6.2871-.1042.6296.3315,1.3375.5614,1.9789.4303,1.2002.6247,2.4759,1.1892,3.6329.0857.1756.1567.4249.1109.6581-.4079,2.0735-.6054,4.1713-.7686,6.276-.1714,2.2094.7677,4.1218,1.5295,6.087"/><path class="cls-2" d="M155.4893,60.0575c.4082.498.3381,1.157.5739,1.7105.9551,2.2409.3006,4.5225.0361,6.7469-.2062,1.7339-.2441,3.4314.2963,5.03.4461,1.3196.2217,2.5708.0969,3.8167-.1493,1.4901-.3207,2.9862-.5216,4.4749-.0385.285-.0333.5443-.2853.7669-.5915.5226-.6776,1.234-.7909,1.9866-.2911,1.9331-.5811,3.8743-.7708,5.8107-.118,1.2047.3002,2.4837.7945,3.6553"/><path class="cls-2" d="M153.777,68.1411c-.6233.4434-.9773.9384-1.0952,1.8002-.2514,1.8387-.4344,3.6876-.6803,5.5268-.1389,1.0387-.5094,1.8105-1.3638,2.3732"/><path class="cls-2" d="M153.9672,36.3775c-.7061.2232-.7936.7996-.8629,1.4258-.2105,1.9002-.099,3.8319-.5538,5.7093-.0157.0647.0175.1868.0615.2926.6464,1.5564.9549,3.2167,1.3219,4.8479.2715,1.2066-.0999,2.4656-.1775,3.7001-.0678,1.0793-.1748,2.1626-.3487,3.2365-.0864.5338.2556,1.009.3714,1.5193.2469,1.0877.5963,2.1648.7982,3.2443.2177,1.1637-.1373,2.4009-.2592,3.6004-.1193,1.1736-.2355,2.3541-.4149,3.5265-.1427.9326.2784,1.883.5855,2.7367.687,1.9095.281,3.7553.0425,5.6266-.1456,1.1426-.3093,2.2915-.4141,3.4295-.0831.9022.4057,1.8299.6049,2.7542.0889.4122.12.8359.3867,1.1874"/><path class="cls-2" d="M146.6423,1.4755c.1017,1.2366.5699,2.3943.8012,3.6062.1052.5513.2058,1.0887.137,1.6227-.2117,1.6437-.0839,3.3081-.3547,4.949-.1233.7472.14,1.4835.38,2.181.4866,1.4146.8518,2.8644,1.315,4.2852.4628,1.4197-.0186,2.8548-.0486,4.2769-.0211.999-.0643,2.0376-.2862,3.0533-.1161.5313.2842,1.1308.4486,1.6988.4042,1.3969.765,2.81,1.2422,4.1817.3213.9234-.0051,1.7938-.0609,2.667-.0952,1.4903-.1631,2.9911-.4121,4.4761-.1323.7888.3735,1.5217.591,2.2663.3252,1.1133.5176,2.2743,1.0028,3.3414.2726.5996.0516,1.2273-.0298,1.8021-.2376,1.6772-.2447,3.3755-.5338,5.0458-.1751,1.0119.3341,1.9106.573,2.8499.2445.9616.4054,1.9483.8292,2.8638.067.1447.1561.3641.112.5615-.4894,2.1931-.4636,4.4539-.8755,6.6535-.1121.5983.1935,1.0301.3264,1.5202.3239,1.1947.4829,2.44,1.0266,3.5717"/><path class="cls-2" d="M145.8813,12.6974c-.3451,1.5343-.2545,3.116-.4987,4.6563-.1158.7302.0943,1.4832-.2434,2.1999-.1312.2784.0704.6406.1794.9392.6193,1.6962,1.1377,3.4253,1.7136,5.1352.358,1.063.0358,2.1159-.0605,3.1366-.1435,1.5214-.0906,3.0775-.5152,4.5709-.0334.1173-.0457.271.0017.3764.8152,1.8099,1.182,3.7705,1.8895,5.6164.0442.1154.0613.1966.1972.1876"/><path class="cls-2" d="M86.2355,82.216c1.8336,2.2937,3.6806,4.5769,5.4259,6.9397.1317.1783.3136.3196.4721.4781"/><path class="cls-2" d="M158.3432,14.7896c-.1972.1782-.261.3948-.2953.6644-.2481,1.9469-.2324,3.892.2151,5.7989.4985,2.1242.301,4.2448.1791,6.3754-.0771,1.3478.2174,2.6808.4329,3.9848.2563,1.5513-.0823,3.0516.0101,4.5758.0474.7812-.1545,1.5697-.6069,2.2993-.2685.433-.0793,1.0655-.0932,1.5989-.0397,1.524-.2728,3.0376-.2224,4.564.0021.0633.0255.1661-.0034.1845-1.2361.7923-.6447,2.0986-.8029,3.1514-.1628,1.083-.1695,2.212-.241,3.321-.0941,1.4591.472,2.7969.7727,4.1822.0895.4124.2487.8215.1719,1.2372-.3428,1.8563-.3601,3.7477-.5043,5.6169-.1073,1.3912.1393,2.8613.7974,4.1799"/><path class="cls-2" d="M152.0647,88.9682c.4439.9748.5698,2.0472.8972,3.0607.2535.7847-.2008,1.6947-.3174,2.5515-.2116,1.555-.4697,3.103-.6749,4.6587"/><path class="cls-2" d="M106.2125,71.6598c1.4355,2.0453,2.6969,4.204,4.0683,6.2913.1811.2756.4002.4945.5931.7462"/><path class="cls-2" d="M154.538,3.3775c-.4611.671-.2929,1.4561-.3676,2.1886-.1865,1.8297.002,3.6271.4434,5.4242.5373,2.1878.4045,4.4252.212,6.6525-.1033,1.1951.2071,2.3574.4066,3.5136.2356,1.3658.5024,2.7185.2477,4.0925-.5027,2.7128.0575,5.3247.803,7.8855.4268,1.4663.1799,2.8683.0456,4.2875-.2535,2.6781.1531,5.2444,1.0632,7.7523"/><path class="cls-2" d="M159.1042,49.3112c-.545,1.0543-.3995,2.2201-.4401,3.3298-.0371,1.0133-.2954,2.0111-.1465,3.0442.1637,1.1359.2418,2.281.7768,3.3263"/><path class="cls-2" d="M147.7839,6.0403c1.4827.4241,2.0722,1.5318,2.2873,2.9475.1575,1.0364.4514,2.042.7083,3.0561.1328.524-.0955,1.1915-.1639,1.7921-.1661,1.4566-.1111,2.9241-.3147,4.3832-.0998.7154.3894,1.4555.6231,2.181.4274,1.3268.6271,2.7119,1.1888,4.0148.2349.545-.0873,1.3168-.1763,1.9723-.185,1.3624-.0654,2.7398-.3239,4.0983-.126.6624.1791,1.3455.3742,1.9875.345,1.1351.5879,2.2957.9346,3.4287.0919.3004.0602.6565.3801.856"/><path class="cls-2" d="M98.0315,86.8759c1.6587,2.2435,3.2986,4.5009,4.9467,6.7522"/><path class="cls-2" d="M143.8836,1.2853c-.1453,1.3914-.1018,2.7946-.2749,4.1857-.0551.4428-.0247.8854.1661,1.3359.6418,1.5149,1.0486,3.1152,1.6234,4.6569.4557,1.2223.426,1.2334,1.7198,1.0433"/><path class="cls-2" d="M159.8652,43.1296c-.5583.8598-.2397,1.8424-.351,2.7615-.129,1.0661-.0035,2.161-.2198,3.2298"/><path class="cls-2" d="M156.5357,9.5591c-.37.3849-.2253.9056-.2551,1.3335-.133,1.9098-.1379,3.8218.3434,5.7057.4078,1.5961.2849,3.2367.1679,4.8463-.1037,1.4279.0211,2.81.3218,4.185.4781,2.1864.3314,4.3784.0714,6.5616-.1711,1.4361.3843,2.7301.5931,4.0904.0962.6265.1768,1.268.565,1.8078"/><path class="cls-2" d="M103.9294,51.4985c-1.6495.5372-3.283,1.1232-4.9467,1.6167"/><path class="cls-2" d="M116.4865,94.484c1.0466,1.5131,1.9352,3.1261,2.949,4.6599"/><path class="cls-2" d="M111.1592,38.6599c-1.3404.1015-2.587.6284-3.8965.8759-.1573.0297-.3209.0431-.4794.0751"/><path class="cls-2" d="M113.2521,57.7751c-1.3889.6655-2.8423,1.1701-4.2808,1.7118"/><path class="cls-2" d="M157.9627,45.2218c.4912.8882.3686,1.9187.6555,2.8562.0592.1936.0029.4003.1959.5727.88.786.9375,1.8752,1.0658,2.941.0085.0706.0552.23.1756.2871"/><path class="cls-2" d="M58.8384,95.5301c1.2371,1.2359,2.4726,2.4733,3.71,3.7089"/><path class="cls-2" d="M110.969,8.2277c1.3001,0,2.6002,0,3.9003,0"/><path class="cls-2" d="M157.5821,6.0403c-.7548.8169-.1891,1.7776-.2497,2.6653-.0183.2683.035.5215-.1308.7584"/><path class="cls-2" d="M122.5747,16.5965c-1.0503-.0008-2.0851.2548-3.1393.1902"/><path class="cls-2" d="M158.7237,38.3746c.5194.7441.3802,1.6636.6434,2.4799.0788.2443.087.4904.3079.6585"/><path class="cls-2" d="M126.475,51.4034c-1.0355.361-2.0263.8318-3.0441,1.2363"/><path class="cls-2" d="M127.8068,68.2362c-1.0593.3998-1.9282,1.1467-2.949,1.6167"/><path class="cls-2" d="M127.0458,7.2766c-.8879.0001-1.7757.0001-2.6636,0"/><path class="cls-2" d="M134.4658,87.9221c-1.0441.4242-1.557,1.5311-2.5685,1.9971"/><path class="cls-2" d="M132.373,56.8241c-.8632.2964-1.6101.8448-2.4734,1.1412"/><path class="cls-2" d="M157.3919,74.5129c.5683.7274.2577,1.7252.761,2.4726"/><path class="cls-2" d="M133.134,14.8847c-.8116-.1719-1.5764.2403-2.3782.1902"/><path class="cls-2" d="M155.8698,82.6915c.6035.6442.2649,1.6024.761,2.2824"/><path class="cls-2" d="M139.1271,91.0604c-.8427.4651-1.2113,1.5039-2.188,1.8069"/><path class="cls-2" d="M137.5099,61.6743c-.8045.2364-1.4038.8658-2.188,1.1412"/><path class="cls-2" d="M158.7237,66.9048c.4325.6313.1382,1.4609.5708,2.0922"/><path class="cls-2" d="M124.287,99.1915c-1.0451.1048-2.093.0201-3.1393.0476"/><path class="cls-2" d="M161.197,32.4783h-1.9977"/><path class="cls-2" d="M138.271,76.51c-.7163.4767-1.168,1.2801-1.9977,1.6167"/><path class="cls-2" d="M155.6796,93.533c.4201.3883.3736.9408.4547,1.43.0425.2562.143.411.3063.5671"/><path class="cls-2" d="M143.1225,93.8183c-.6248.5471-1.1128,1.2385-1.8074,1.7118"/><path class="cls-2" d="M157.3919,85.1641c.4325.5614.1096,1.3493.5708,1.902"/><path class="cls-2" d="M142.0761,65.9538c-.4456-.024-.6777.3079-.9513.5706s-.5057.5946-.9513.5706"/><path class="cls-2" d="M138.1758,21.732c-.6088.2539-1.2769.2112-1.9026.3804"/><path class="cls-2" d="M134.4658,6.5158h1.8074"/><path class="cls-2" d="M146.5472,96.2909c-.6944.3423-.8503,1.2564-1.6172,1.5216"/><path class="cls-2" d="M140.9346,51.5936c-.6347.2174-1.2027.5754-1.8074.8559"/><path class="cls-2" d="M139.6979,36.7579c-.5834.2737-1.1752.5245-1.8074.6657"/><path class="cls-2" d="M158.7237,77.3659c.5003.4673.0417,1.2541.5708,1.7118"/><path class="cls-2" d="M140.9346,13.5533c-.556-.0806-1.07.1962-1.6172.1902"/><path class="cls-2" d="M148.5449,60.6281c-.6912-.0414-.8767.8159-1.5221.8559"/><path class="cls-2" d="M159.675,59.8673c.5212.3831.1665,1.0947.5708,1.5216"/><path class="cls-2" d="M144.93,56.2535c-.593.1801-.905.8095-1.5221.951"/><path class="cls-2" d="M145.7862,70.0431c-.6393.2045-.8828.9367-1.5221,1.1412"/><path class="cls-2" d="M142.5518,28.0086c-.4793.2482-1.0394.238-1.5221.4755"/><path class="cls-2" d="M141.981,5.9452c.4979-.1038.9329.265,1.4269.1902"/><path class="cls-2" d="M145.0251,20.0201c-.4681-.1055-.8719.2384-1.3318.1902"/><path class="cls-2" d="M147.4985,47.2189c-.4573.2303-.8413.5887-1.3318.7608"/><path class="cls-2" d="M146.3569,33.7146c-.4348.1589-.8469.3969-1.3318.3804"/><path class="cls-2" d="M148.5449,25.8213c-.4044.1289-.8316.1594-1.2367.2853"/><path class="cls-2" d="M151.0182,12.317c.483.037.7202.6062,1.2367.5706"/><path class="cls-2" d="M150.6377,51.8789c-.4915.0316-.6063.709-1.1415.6657"/><path class="cls-2" d="M153.9672,8.3228c-.5306.1098-.611-.6804-1.1415-.5706"/><path class="cls-2" d="M153.4916,17.8328c.5365.0197.605.7411,1.1415.7608"/><path class="cls-2" d="M153.9672,91.1555c-.4388.0811-.3368.7704-.8562.7608"/><path class="cls-2" d="M153.1111,56.1584c-.2063.2534-.4715.4282-.761.5706"/></svg>